<svg width="61" height="13" viewBox="0 0 61 13" fill="none" xmlns="http://www.w3.org/2000/svg">
<path d="M7.30909 0L9.21263 4.62816L14.3091 4.96556L10.3891 8.16332L11.6353 13L7.30909 10.3482L2.98285 13L4.22909 8.16332L0.309088 4.96556L5.40554 4.62816L7.30909 0Z" fill="#367C2E"/>
<path d="M22.8091 0L24.7126 4.62816L29.8091 4.96556L25.8891 8.16332L27.1353 13L22.8091 10.3482L18.4828 13L19.7291 8.16332L15.8091 4.96556L20.9055 4.62816L22.8091 0Z" fill="#367C2E"/>
<path d="M38.3091 0L40.2126 4.62816L45.3091 4.96556L41.3891 8.16332L42.6353 13L38.3091 10.3482L33.9828 13L35.2291 8.16332L31.3091 4.96556L36.4055 4.62816L38.3091 0Z" fill="#367C2E"/>
<path d="M53.8091 0L55.7126 4.62816L60.8091 4.96556L56.8891 8.16332L58.1353 13L53.8091 10.3482L49.4828 13L50.7291 8.16332L46.8091 4.96556L51.9055 4.62816L53.8091 0Z" fill="#367C2E"/>
</svg>
