<svg width="1600" height="70" viewBox="0 0 1600 70" fill="none" xmlns="http://www.w3.org/2000/svg">
<path fill-rule="evenodd" clip-rule="evenodd" d="M37.261 23.6216L37.2505 23.6321C26.4107 34.4822 15.2244 45.6407 0 44.7622V70.0001H1600V13.0903C1590.04 5.53918 1576.52 -0.75971 1561.14 2.64202C1546.81 5.81951 1538.14 15.5669 1529.74 25.0059L1529.58 25.1907C1525.45 29.8232 1521.55 34.2013 1517.07 37.6783C1494.2 55.4504 1480.7 41.3467 1465.07 25.0145L1465.06 25.0059C1458.98 18.6509 1452.68 12.081 1445.74 7.60449C1417.65 -10.4979 1398.22 8.94915 1382.6 24.5895L1382.58 24.6133C1377.02 30.1739 1371.77 35.4261 1366.42 39.0521C1343.19 54.7792 1330.28 41.0546 1315.32 25.1504L1315.32 25.146L1315.18 25.0003C1310.01 19.5037 1304.66 13.8278 1298.8 9.50164C1271.54 -10.6379 1252.29 6.85687 1235.32 22.2956C1221.93 34.4728 1209.28 45.9678 1192.6 43.4725C1179.77 41.5474 1168.75 31.6785 1158.11 22.1274L1158.11 22.1249C1139.8 5.70544 1119.05 -12.9074 1089.69 15.8846C1086.55 18.9593 1083.68 22.4171 1080.91 25.7628L1080.88 25.7949C1074.56 33.4183 1068.6 40.6082 1059.52 43.9679C1043.24 49.9864 1029.66 40.7997 1021.15 32.0243C1018.91 29.7364 1016.82 27.2909 1014.71 24.8364L1014.32 24.3797C1006.49 15.2398 998.399 5.80084 984.365 2.27758C964.4 -2.73163 949.981 8.06243 940.865 16.6042C938.073 19.221 935.412 22.09 932.611 25.118L932.587 25.1436C923.46 34.9858 914.021 45.1647 900.223 45.8556C886.638 46.5098 876.979 37.1737 867.919 27.3422C867.895 27.3099 867.874 27.2742 867.853 27.2379C867.826 27.1902 867.797 27.1417 867.76 27.0992C865.83 24.7535 863.076 21.6415 859.619 18.4172C859.581 18.3705 859.534 18.3238 859.487 18.2771C851.449 10.1746 842.549 5.09057 833.442 3.05322C827.558 1.5299 821.178 1.14678 814.442 2.64202C802.431 5.30554 794.402 12.5857 787.169 20.4266C786.111 21.4733 785.043 22.5386 783.947 23.6321C772.226 35.3607 760.103 47.4631 742.911 44.3137C742.602 44.2482 742.283 44.2389 741.974 44.2482C733.655 40.968 726.281 33.2766 718.365 25.0059C712.284 18.6509 705.988 12.081 699.046 7.60449C670.954 -10.4979 651.528 8.94909 635.905 24.5894L635.881 24.6133C630.326 30.1739 625.07 35.4261 619.72 39.0521C596.497 54.7792 583.587 41.0546 568.627 25.1504L568.623 25.146L568.485 24.9998C563.309 19.5033 557.965 13.8276 552.105 9.50164C524.842 -10.6379 505.598 6.85687 488.622 22.2956C475.234 34.4728 462.586 45.9678 445.9 43.4725C433.074 41.5474 422.057 31.6785 411.414 22.1274L411.411 22.1247C393.105 5.70544 372.353 -12.9074 342.993 15.8846C339.854 18.9593 336.988 22.4171 334.214 25.7628L334.188 25.7947C327.864 33.4181 321.9 40.6082 312.825 43.9679C296.542 49.9864 282.967 40.7997 274.451 32.0243C272.219 29.7361 270.119 27.2906 268.012 24.8357L267.621 24.3797C259.798 15.2398 251.703 5.80084 237.669 2.27758C217.704 -2.73163 203.285 8.06243 194.169 16.6042C191.377 19.221 188.716 22.09 185.915 25.118L185.891 25.1438C176.764 34.986 167.325 45.1647 153.527 45.8556C138.818 46.5659 128.7 35.5569 118.975 24.8843C116.867 22.5666 114.815 20.3237 112.791 18.2771C93.0981 -1.57276 68.2145 -3.35779 47.8092 13.6604C44.2805 16.6014 40.8735 20.0088 37.261 23.6216Z" fill="#E4E0CE"/>
</svg>
