<svg width="128" height="38" viewBox="0 0 128 38" fill="none" xmlns="http://www.w3.org/2000/svg">
<path d="M127.155 33.4487C127.155 33.926 127.061 34.3987 126.878 34.8396C126.695 35.2806 126.427 35.6812 126.089 36.0185C125.751 36.3559 125.35 36.6233 124.909 36.8057C124.468 36.988 123.995 37.0816 123.517 37.0811H4.48673C3.52198 37.0821 2.59633 36.7 1.91335 36.0188C1.23037 35.3376 0.845984 34.4131 0.844727 33.4487V4.48139C0.845983 3.51648 1.23022 2.59152 1.91306 1.90958C2.59591 1.22765 3.52155 0.844489 4.48673 0.844238H123.517C123.994 0.844238 124.467 0.938323 124.909 1.12112C125.35 1.30391 125.751 1.57184 126.089 1.90959C126.427 2.24735 126.694 2.64831 126.877 3.08958C127.06 3.53086 127.154 4.0038 127.154 4.48139L127.155 33.4487Z" fill="white"/>
<path d="M123.514 37.926H4.48622C3.29779 37.9257 2.158 37.4541 1.31694 36.6147C0.475883 35.7753 0.00226125 34.6366 0 33.4485L0 4.48218C0.00175811 3.29348 0.475067 2.15401 1.3161 1.31374C2.15713 0.473464 3.2972 0.00100331 4.48622 0L123.513 0C124.702 0.00150394 125.841 0.474125 126.682 1.31429C127.523 2.15446 127.997 3.29364 127.999 4.48218V33.4485C128.001 35.9182 125.985 37.926 123.514 37.926Z" fill="#A6A6A6"/>
<path d="M127.151 33.4487C127.151 33.926 127.057 34.3987 126.874 34.8396C126.692 35.2806 126.424 35.6812 126.086 36.0185C125.748 36.3559 125.347 36.6233 124.906 36.8057C124.465 36.988 123.992 37.0816 123.514 37.0811H4.48664C3.52191 37.0821 2.59629 36.7 1.91332 36.0188C1.23036 35.3376 0.845984 34.4131 0.844727 33.4487V4.48139C0.845983 3.51648 1.23021 2.59152 1.91304 1.90958C2.59586 1.22765 3.52148 0.844489 4.48664 0.844238H123.513C123.991 0.844238 124.464 0.938323 124.905 1.12112C125.347 1.30391 125.748 1.57184 126.085 1.90959C126.423 2.24735 126.691 2.64831 126.874 3.08958C127.057 3.53086 127.151 4.0038 127.15 4.48139L127.151 33.4487Z" fill="black"/>
<path d="M28.5818 18.7631C28.5543 15.7063 31.0853 14.2192 31.2011 14.15C29.7676 12.0607 27.5459 11.7752 26.7651 11.7524C24.8991 11.5561 23.0891 12.8687 22.1385 12.8687C21.169 12.8687 19.7052 11.7714 18.1276 11.8036C16.0974 11.8349 14.1982 13.01 13.1566 14.8348C11.0069 18.5554 12.6102 24.023 14.6697 27.0304C15.7 28.5042 16.9038 30.1478 18.4795 30.0899C20.0211 30.0273 20.5969 29.1083 22.4573 29.1083C24.3005 29.1083 24.8412 30.0899 26.4483 30.0529C28.1027 30.0273 29.1444 28.5734 30.1386 27.0873C31.3291 25.4 31.8073 23.7365 31.8262 23.6512C31.7883 23.6379 28.6141 22.4258 28.5818 18.7631ZM25.5461 9.77404C26.3752 8.73743 26.9425 7.32715 26.7851 5.896C25.585 5.94911 24.0842 6.72585 23.22 7.7397C22.4554 8.63311 21.7723 10.0975 21.9488 11.4745C23.2968 11.5751 24.6809 10.7945 25.5461 9.77404Z" fill="white"/>
<path d="M123.514 0H59.7588L84.7304 37.926H123.514C124.702 37.925 125.842 37.4528 126.683 36.6129C127.524 35.773 127.998 34.634 128 33.4457V4.48218C127.998 3.29356 127.524 2.15423 126.683 1.31401C125.842 0.473795 124.702 0.00125372 123.514 0Z" fill="url(#paint0_linear_1_861)"/>
<path d="M50.9102 29.8786H48.7558L47.5756 26.1713H43.4736L42.3494 29.8786H40.252L44.317 17.2571H46.8271L50.9102 29.8786ZM47.2199 24.6159L46.1526 21.3201C46.0397 20.9835 45.8272 20.1906 45.5161 18.9425H45.4781C45.3529 19.4793 45.1527 20.2721 44.8786 21.3201L43.8294 24.6159H47.2199ZM61.3435 25.2162C61.3435 26.764 60.9233 27.9875 60.0818 28.8856C59.3286 29.6851 58.3922 30.0844 57.2757 30.0844C56.0699 30.0844 55.2028 29.6548 54.6763 28.7936V33.5688H52.6538V23.7689C52.6538 22.7968 52.6282 21.8 52.5789 20.7776H54.3576L54.4705 22.2202H54.5084C55.1829 21.1333 56.2065 20.5899 57.5802 20.5899C58.6541 20.5899 59.5506 21.0138 60.2678 21.8626C60.984 22.7134 61.3435 23.8306 61.3435 25.2162ZM59.283 25.2902C59.283 24.4044 59.0838 23.6741 58.6835 23.0984C58.2462 22.5 57.6589 22.2003 56.9228 22.2003C56.4238 22.2003 55.9703 22.3672 55.5652 22.6963C55.1592 23.0282 54.8936 23.4616 54.7693 23.9984C54.7138 24.1992 54.6823 24.4058 54.6754 24.614V26.1324C54.6754 26.7934 54.8784 27.352 55.2844 27.8092C55.6905 28.2644 56.2179 28.493 56.8668 28.493C57.6286 28.493 58.2215 28.198 58.6455 27.6128C59.0705 27.0258 59.283 26.2519 59.283 25.2902ZM71.8139 25.2162C71.8139 26.764 71.3937 27.9875 70.5522 28.8856C69.798 29.6851 68.8626 30.0844 67.7451 30.0844C66.5394 30.0844 65.6723 29.6548 65.1458 28.7936V33.5688H63.1232V23.7689C63.1232 22.7968 63.0976 21.8 63.0483 20.7776H64.827L64.9399 22.2202H64.9779C65.6514 21.1333 66.675 20.5899 68.0496 20.5899C69.1226 20.5899 70.019 21.0138 70.7381 21.8626C71.4534 22.7134 71.8139 23.8306 71.8139 25.2162ZM69.7525 25.2902C69.7525 24.4044 69.5523 23.6741 69.152 23.0984C68.7146 22.5 68.1293 22.2003 67.3931 22.2003C66.8941 22.2003 66.4407 22.3672 66.0337 22.6963C65.6277 23.0282 65.363 23.4616 65.2387 23.9984C65.1771 24.2488 65.1439 24.4527 65.1439 24.614V26.1324C65.1439 26.7934 65.3478 27.352 65.752 27.8092C66.158 28.2634 66.6854 28.493 67.3362 28.493C68.099 28.493 68.6919 28.198 69.115 27.6128C69.54 27.0258 69.7525 26.2519 69.7525 25.2902ZM83.5204 26.3382C83.5204 27.4127 83.1447 28.2862 82.3981 28.9605C81.5766 29.6965 80.4296 30.0654 78.9592 30.0654C77.6007 30.0654 76.5117 29.8037 75.6901 29.2792L76.1578 27.5939C77.0448 28.1193 78.0191 28.381 79.0797 28.381C79.8424 28.381 80.4353 28.2084 80.8584 27.8661C81.2825 27.5227 81.4969 27.0637 81.4969 26.4909C81.4969 25.9778 81.3195 25.5481 80.9713 25.1982C80.6213 24.8492 80.0426 24.5239 79.2296 24.2251C77.0192 23.4009 75.9131 22.1955 75.9131 20.6098C75.9131 19.5741 76.3039 18.7262 77.0837 18.0633C77.8635 17.4013 78.8976 17.0703 80.1839 17.0703C81.3328 17.0703 82.29 17.2704 83.0498 17.6697L82.5423 19.318C81.827 18.9311 81.0197 18.7376 80.1166 18.7376C79.4032 18.7376 78.8435 18.9131 78.4432 19.2621C78.1064 19.5741 77.9356 19.9544 77.9356 20.4059C77.9356 20.9038 78.1301 21.3173 78.5171 21.6416C78.853 21.9404 79.4658 22.2657 80.3519 22.6147C81.439 23.0529 82.2378 23.5631 82.7491 24.1492C83.2642 24.7354 83.5204 25.4666 83.5204 26.3382ZM90.2246 22.2951H87.9952V26.7137C87.9952 27.8376 88.388 28.3981 89.1754 28.3981C89.5368 28.3981 89.8366 28.3678 90.0737 28.3042L90.1297 29.8397C89.7313 29.9886 89.2067 30.0635 88.5568 30.0635C87.758 30.0635 87.1338 29.8198 86.6832 29.3323C86.2345 28.8448 86.0087 28.0282 86.0087 26.8788V22.2913H84.6806V20.7739H86.0087V19.1075L87.9952 18.5081V20.7739H90.2246V22.2951ZM100.263 25.2532C100.263 26.6521 99.863 27.8006 99.0642 28.6988C98.2284 29.6235 97.1166 30.0844 95.7306 30.0844C94.393 30.0844 93.3295 29.6415 92.5365 28.7566C91.7434 27.8699 91.3468 26.7526 91.3468 25.4049C91.3468 23.9947 91.7567 22.8395 92.5735 21.9413C93.3922 21.0423 94.4945 20.5927 95.8805 20.5927C97.2162 20.5927 98.2891 21.0366 99.1012 21.9224C99.8772 22.7816 100.263 23.8913 100.263 25.2532ZM98.1668 25.2997C98.1668 24.466 97.9865 23.7509 97.6251 23.1525C97.201 22.4298 96.5939 22.0684 95.8074 22.0684C94.9973 22.0684 94.3759 22.4298 93.9528 23.1525C93.5904 23.7509 93.4102 24.4783 93.4102 25.3376C93.4102 26.1722 93.5904 26.8892 93.9528 27.4857C94.3901 28.2084 95.0001 28.5698 95.7904 28.5698C96.5635 28.5698 97.1697 28.2008 97.608 27.4677C97.9799 26.8551 98.1668 26.1352 98.1668 25.2997ZM106.84 22.5559C106.63 22.5179 106.417 22.4992 106.203 22.5C105.491 22.5 104.941 22.7674 104.554 23.3061C104.218 23.7803 104.049 24.3797 104.049 25.1033V29.8786H102.027V23.6437C102.029 22.6884 102.009 21.7331 101.968 20.7786H103.73L103.804 22.5199H103.86C104.074 21.9214 104.41 21.4387 104.871 21.0773C105.293 20.7616 105.806 20.5906 106.333 20.5899C106.52 20.5899 106.689 20.6031 106.838 20.6268L106.84 22.5559ZM115.886 24.8975C115.891 25.2049 115.866 25.5121 115.812 25.8147H109.744C109.767 26.7137 110.061 27.4023 110.625 27.8765C111.136 28.2995 111.797 28.5119 112.609 28.5119C113.508 28.5119 114.327 28.3697 115.064 28.0823L115.381 29.485C114.52 29.8606 113.503 30.0474 112.329 30.0474C110.918 30.0474 109.81 29.632 109.003 28.8031C108.199 27.9732 107.796 26.8579 107.796 25.4609C107.796 24.0895 108.17 22.9467 108.921 22.0352C109.706 21.0622 110.768 20.5756 112.104 20.5756C113.416 20.5756 114.409 21.0622 115.083 22.0352C115.617 22.8063 115.886 23.7623 115.886 24.8975ZM113.957 24.3731C113.971 23.7727 113.839 23.2558 113.564 22.8186C113.214 22.2553 112.676 21.9745 111.954 21.9745C111.292 21.9745 110.754 22.2486 110.344 22.7987C110.007 23.2359 109.807 23.7613 109.745 24.3712L113.957 24.3731Z" fill="white"/>
<path d="M42.8898 12.7944C42.3273 12.7944 41.8406 12.7669 41.4355 12.7204V6.61838C42.0021 6.53088 42.5746 6.48776 43.1479 6.48939C45.4674 6.48939 46.5355 7.63033 46.5355 9.49016C46.5355 11.6355 45.2738 12.7944 42.8898 12.7944ZM43.2295 7.27183C42.9164 7.27183 42.6498 7.2908 42.4288 7.33632V11.975C42.5483 11.994 42.7779 12.0025 43.1004 12.0025C44.6202 12.0025 45.4854 11.1376 45.4854 9.51767C45.4854 8.07324 44.7027 7.27183 43.2295 7.27183ZM49.8644 12.8409C48.5571 12.8409 47.71 11.865 47.71 10.5401C47.71 9.15917 48.5752 8.17472 49.9384 8.17472C51.2267 8.17472 52.0928 9.10416 52.0928 10.467C52.0928 11.865 51.2001 12.8409 49.8644 12.8409ZM49.9023 8.9012C49.1842 8.9012 48.7241 9.57267 48.7241 10.5116C48.7241 11.4325 49.1937 12.104 49.8929 12.104C50.592 12.104 51.0616 11.386 51.0616 10.4926C51.0616 9.58216 50.6015 8.9012 49.9023 8.9012ZM59.5474 8.26671L58.1481 12.7394H57.2364L56.6568 10.7971C56.5127 10.322 56.3927 9.83987 56.2973 9.35264H56.2783C56.2052 9.84013 56.0667 10.3286 55.9197 10.7971L55.3031 12.7394H54.3819L53.0652 8.26671H54.0869L54.5935 10.393C54.713 10.8995 54.8136 11.3775 54.897 11.8289H54.916C54.9891 11.4524 55.1086 10.982 55.2841 10.4025L55.9197 8.26766H56.7299L57.338 10.357C57.485 10.8635 57.6045 11.3604 57.6975 11.8299H57.7241C57.7886 11.3699 57.8901 10.8815 58.0276 10.357L58.5712 8.26766L59.5474 8.26671ZM64.6986 12.7394H63.7044V10.1711C63.7044 9.38015 63.4008 8.98371 62.8022 8.98371C62.2131 8.98371 61.808 9.49016 61.808 10.0791V12.7394H60.8138V9.54517C60.8138 9.14968 60.8044 8.72574 60.7768 8.26577H61.6515L61.698 8.95621H61.7255C61.993 8.47821 62.5357 8.17472 63.1438 8.17472C64.0829 8.17472 64.6996 8.89266 64.6996 10.0611L64.6986 12.7394ZM67.4402 12.7394H66.4451V6.21436H67.4402V12.7394ZM71.0651 12.8409C69.7588 12.8409 68.9107 11.865 68.9107 10.5401C68.9107 9.15917 69.7758 8.17472 71.1381 8.17472C72.4273 8.17472 73.2925 9.10416 73.2925 10.467C73.2935 11.865 72.3998 12.8409 71.0651 12.8409ZM71.1021 8.9012C70.3839 8.9012 69.9238 9.57267 69.9238 10.5116C69.9238 11.4325 70.3944 12.104 71.0916 12.104C71.7917 12.104 72.2604 11.386 72.2604 10.4926C72.2613 9.58216 71.8022 8.9012 71.1021 8.9012ZM77.2124 12.7394L77.1403 12.2244H77.1137C76.8102 12.6389 76.3671 12.8409 75.8055 12.8409C75.0039 12.8409 74.4347 12.2794 74.4347 11.5245C74.4347 10.4206 75.3919 9.84961 77.0492 9.84961V9.7671C77.0492 9.17814 76.7371 8.88318 76.1205 8.88318C75.6794 8.88318 75.2923 8.99414 74.9517 9.21512L74.7497 8.56167C75.1633 8.3037 75.6794 8.17472 76.2856 8.17472C77.4543 8.17472 78.0444 8.79118 78.0444 10.0251V11.6725C78.0444 12.1239 78.0643 12.4739 78.1089 12.7404L77.2124 12.7394ZM77.0758 10.5116C75.9715 10.5116 75.4175 10.7791 75.4175 11.4135C75.4175 11.883 75.7031 12.1125 76.0996 12.1125C76.6053 12.1125 77.0758 11.7265 77.0758 11.202V10.5116ZM82.8721 12.7394L82.8256 12.0215H82.7981C82.5126 12.564 82.0325 12.8409 81.3618 12.8409C80.2832 12.8409 79.4844 11.8925 79.4844 10.5581C79.4844 9.15917 80.3126 8.17377 81.4434 8.17377C82.042 8.17377 82.4661 8.37578 82.7051 8.7817H82.7251V6.21436H83.7202V11.534C83.7202 11.9665 83.7306 12.3714 83.7572 12.7394H82.8721ZM82.7251 10.1076C82.7251 9.48163 82.3105 8.94767 81.6777 8.94767C80.9406 8.94767 80.49 9.60113 80.49 10.5211C80.49 11.423 80.9577 12.0404 81.6578 12.0404C82.283 12.0404 82.7251 11.497 82.7251 10.853V10.1076ZM90.0298 12.8409C88.7234 12.8409 87.8763 11.865 87.8763 10.5401C87.8763 9.15917 88.7415 8.17472 90.1038 8.17472C91.393 8.17472 92.2582 9.10416 92.2582 10.467C92.2591 11.865 91.3664 12.8409 90.0298 12.8409ZM90.0668 8.9012C89.3496 8.9012 88.8895 9.57267 88.8895 10.5116C88.8895 11.4325 89.3591 12.104 90.0573 12.104C90.7574 12.104 91.226 11.386 91.226 10.4926C91.2279 9.58216 90.7678 8.9012 90.0668 8.9012ZM97.6048 12.7394H96.6097V10.1711C96.6097 9.38015 96.3061 8.98371 95.7075 8.98371C95.1184 8.98371 94.7142 9.49016 94.7142 10.0791V12.7394H93.7191V9.54517C93.7191 9.14968 93.7096 8.72574 93.6821 8.26577H94.5568L94.6032 8.95621H94.6308C94.8973 8.47821 95.4409 8.17377 96.0481 8.17377C96.9872 8.17377 97.6048 8.89172 97.6048 10.0602V12.7394ZM104.294 9.01216H103.2V11.184C103.2 11.7369 103.392 12.0129 103.779 12.0129C103.954 12.0129 104.101 11.994 104.22 11.9665L104.247 12.7214C104.055 12.7954 103.797 12.8324 103.476 12.8324C102.692 12.8324 102.224 12.3999 102.224 11.2675V9.01216H101.571V8.26671H102.224V7.44729L103.2 7.15233V8.26577H104.294V9.01216ZM109.557 12.7394H108.564V10.1901C108.564 9.38963 108.261 8.98466 107.662 8.98466C107.146 8.98466 106.666 9.33462 106.666 10.0431V12.7394H105.673V6.21436H106.666V8.9012H106.686C106.999 8.41372 107.453 8.17377 108.032 8.17377C108.978 8.17377 109.557 8.90974 109.557 10.0791V12.7394ZM114.949 10.7421H111.966C111.985 11.589 112.545 12.067 113.375 12.067C113.816 12.067 114.223 11.993 114.581 11.8555L114.736 12.5459C114.313 12.7299 113.815 12.8219 113.235 12.8219C111.836 12.8219 111.007 11.938 111.007 10.5676C111.007 9.19616 111.856 8.16523 113.123 8.16523C114.266 8.16523 114.983 9.01216 114.983 10.2916C114.99 10.4426 114.978 10.5938 114.949 10.7421ZM114.038 10.0336C114.038 9.34316 113.689 8.85568 113.054 8.85568C112.483 8.85568 112.031 9.35264 111.967 10.0336H114.038Z" fill="white"/>
<defs>
<linearGradient id="paint0_linear_1_861" x1="93.8782" y1="38.0267" x2="93.8782" y2="-98.7527" gradientUnits="userSpaceOnUse">
<stop stop-color="#1A1A1A" stop-opacity="0.1"/>
<stop offset="0.123" stop-color="#212121" stop-opacity="0.151"/>
<stop offset="0.308" stop-color="#353535" stop-opacity="0.227"/>
<stop offset="0.532" stop-color="#575757" stop-opacity="0.318"/>
<stop offset="0.783" stop-color="#858585" stop-opacity="0.421"/>
<stop offset="1" stop-color="#B3B3B3" stop-opacity="0.51"/>
</linearGradient>
</defs>
</svg>
