<svg width="129" height="38" viewBox="0 0 129 38" fill="none" xmlns="http://www.w3.org/2000/svg">
<path d="M128.021 33.4487C128.021 33.926 127.927 34.3987 127.744 34.8396C127.561 35.2806 127.293 35.6812 126.956 36.0185C126.618 36.3559 126.217 36.6233 125.776 36.8057C125.334 36.988 124.862 37.0816 124.384 37.0811H5.35651C4.39179 37.0821 3.46616 36.7 2.7832 36.0188C2.10023 35.3376 1.71586 34.4131 1.7146 33.4487V4.48139C1.71586 3.51648 2.10008 2.59152 2.78291 1.90958C3.46574 1.22765 4.39135 0.844489 5.35651 0.844238H124.383C124.861 0.844238 125.334 0.938323 125.775 1.12112C126.217 1.30391 126.618 1.57184 126.955 1.90959C127.293 2.24735 127.561 2.64831 127.744 3.08958C127.926 3.53086 128.02 4.0038 128.02 4.48139L128.021 33.4487Z" fill="white"/>
<path d="M124.384 37.926H5.35634C4.16791 37.9257 3.02811 37.4541 2.18706 36.6147C1.346 35.7753 0.872378 34.6366 0.870117 33.4485L0.870117 4.48218C0.871875 3.29348 1.34518 2.15401 2.18621 1.31374C3.02724 0.473464 4.16732 0.00100331 5.35634 0L124.383 0C125.572 0.00150394 126.712 0.474125 127.553 1.31429C128.393 2.15446 128.867 3.29364 128.869 4.48218V33.4485C128.871 35.9182 126.855 37.926 124.384 37.926Z" fill="black"/>
<path d="M128.021 33.4487C128.021 33.926 127.927 34.3987 127.744 34.8396C127.561 35.2806 127.293 35.6812 126.956 36.0185C126.618 36.3559 126.217 36.6233 125.776 36.8057C125.334 36.988 124.862 37.0816 124.384 37.0811H5.35651C4.39179 37.0821 3.46616 36.7 2.7832 36.0188C2.10023 35.3376 1.71586 34.4131 1.7146 33.4487V4.48139C1.71586 3.51648 2.10008 2.59152 2.78291 1.90958C3.46574 1.22765 4.39135 0.844489 5.35651 0.844238H124.383C124.861 0.844238 125.334 0.938323 125.775 1.12112C126.217 1.30391 126.618 1.57184 126.955 1.90959C127.293 2.24735 127.561 2.64831 127.744 3.08958C127.926 3.53086 128.02 4.0038 128.02 4.48139L128.021 33.4487Z" fill="black"/>
<path d="M29.4514 18.7631C29.4239 15.7063 31.955 14.2192 32.0707 14.15C30.6373 12.0607 28.4155 11.7752 27.6348 11.7524C25.7687 11.5561 23.9587 12.8687 23.0081 12.8687C22.0386 12.8687 20.5748 11.7714 18.9972 11.8036C16.9671 11.8349 15.0679 13.01 14.0262 14.8348C11.8766 18.5554 13.4798 24.023 15.5393 27.0304C16.5696 28.5042 17.7734 30.1478 19.3492 30.0899C20.8907 30.0273 21.4666 29.1083 23.3269 29.1083C25.1701 29.1083 25.7109 30.0899 27.3179 30.0529C28.9724 30.0273 30.014 28.5734 31.0082 27.0873C32.1988 25.4 32.6769 23.7365 32.6959 23.6512C32.6579 23.6379 29.4837 22.4258 29.4514 18.7631ZM26.4157 9.77404C27.2449 8.73743 27.8122 7.32715 27.6547 5.896C26.4546 5.94911 24.9538 6.72585 24.0896 7.7397C23.325 8.63311 22.642 10.0975 22.8184 11.4745C24.1665 11.5751 25.5506 10.7945 26.4157 9.77404Z" fill="white"/>
<path d="M124.384 0H60.6292L85.6008 37.926H124.384C125.573 37.925 126.712 37.4528 127.553 36.6129C128.394 35.773 128.868 34.634 128.87 33.4457V4.48218C128.868 3.29356 128.395 2.15423 127.554 1.31401C126.713 0.473795 125.573 0.00125372 124.384 0Z" fill="url(#paint0_linear_0_349)"/>
<path d="M51.78 29.8786H49.6256L48.4455 26.1713H44.3435L43.2193 29.8786H41.1218L45.1868 17.2571H47.697L51.78 29.8786ZM48.0897 24.6159L47.0225 21.3201C46.9096 20.9835 46.6971 20.1906 46.3859 18.9425H46.348C46.2228 19.4793 46.0226 20.2721 45.7484 21.3201L44.6992 24.6159H48.0897ZM62.2134 25.2162C62.2134 26.764 61.7931 27.9875 60.9517 28.8856C60.1985 29.6851 59.2621 30.0844 58.1455 30.0844C56.9398 30.0844 56.0727 29.6548 55.5462 28.7936V33.5688H53.5237V23.7689C53.5237 22.7968 53.4981 21.8 53.4487 20.7776H55.2275L55.3404 22.2202H55.3783C56.0528 21.1333 57.0764 20.5899 58.4501 20.5899C59.524 20.5899 60.4204 21.0138 61.1376 21.8626C61.8539 22.7134 62.2134 23.8306 62.2134 25.2162ZM60.1529 25.2902C60.1529 24.4044 59.9537 23.6741 59.5534 23.0984C59.116 22.5 58.5288 22.2003 57.7926 22.2003C57.2936 22.2003 56.8402 22.3672 56.4351 22.6963C56.0291 23.0282 55.7635 23.4616 55.6392 23.9984C55.5837 24.1992 55.5522 24.4058 55.5453 24.614V26.1324C55.5453 26.7934 55.7483 27.352 56.1543 27.8092C56.5603 28.2644 57.0878 28.493 57.7367 28.493C58.4984 28.493 59.0914 28.198 59.5154 27.6128C59.9404 27.0258 60.1529 26.2519 60.1529 25.2902ZM72.6838 25.2162C72.6838 26.764 72.2635 27.9875 71.4221 28.8856C70.6679 29.6851 69.7325 30.0844 68.615 30.0844C67.4092 30.0844 66.5421 29.6548 66.0156 28.7936V33.5688H63.9931V23.7689C63.9931 22.7968 63.9675 21.8 63.9181 20.7776H65.6969L65.8098 22.2202H65.8477C66.5213 21.1333 67.5449 20.5899 68.9195 20.5899C69.9924 20.5899 70.8889 21.0138 71.608 21.8626C72.3233 22.7134 72.6838 23.8306 72.6838 25.2162ZM70.6223 25.2902C70.6223 24.4044 70.4222 23.6741 70.0218 23.0984C69.5845 22.5 68.9992 22.2003 68.263 22.2003C67.764 22.2003 67.3106 22.3672 66.9036 22.6963C66.4976 23.0282 66.2329 23.4616 66.1086 23.9984C66.0469 24.2488 66.0137 24.4527 66.0137 24.614V26.1324C66.0137 26.7934 66.2177 27.352 66.6218 27.8092C67.0279 28.2634 67.5553 28.493 68.2061 28.493C68.9688 28.493 69.5617 28.198 69.9848 27.6128C70.4098 27.0258 70.6223 26.2519 70.6223 25.2902ZM84.3903 26.3382C84.3903 27.4127 84.0146 28.2862 83.268 28.9605C82.4464 29.6965 81.2995 30.0654 79.8291 30.0654C78.4706 30.0654 77.3815 29.8037 76.56 29.2792L77.0277 27.5939C77.9147 28.1193 78.889 28.381 79.9496 28.381C80.7123 28.381 81.3052 28.2084 81.7283 27.8661C82.1524 27.5227 82.3668 27.0637 82.3668 26.4909C82.3668 25.9778 82.1894 25.5481 81.8412 25.1982C81.4911 24.8492 80.9125 24.5239 80.0995 24.2251C77.8891 23.4009 76.7829 22.1955 76.7829 20.6098C76.7829 19.5741 77.1738 18.7262 77.9536 18.0633C78.7334 17.4013 79.7674 17.0703 81.0538 17.0703C82.2026 17.0703 83.1598 17.2704 83.9197 17.6697L83.4122 19.318C82.6969 18.9311 81.8896 18.7376 80.9865 18.7376C80.2731 18.7376 79.7134 18.9131 79.313 19.2621C78.9762 19.5741 78.8055 19.9544 78.8055 20.4059C78.8055 20.9038 79 21.3173 79.387 21.6416C79.7228 21.9404 80.3357 22.2657 81.2217 22.6147C82.3089 23.0529 83.1077 23.5631 83.619 24.1492C84.1341 24.7354 84.3903 25.4666 84.3903 26.3382ZM91.0944 22.2951H88.8651V26.7137C88.8651 27.8376 89.2578 28.3981 90.0452 28.3981C90.4067 28.3981 90.7064 28.3678 90.9436 28.3042L90.9996 29.8397C90.6011 29.9886 90.0765 30.0635 89.4267 30.0635C88.6279 30.0635 88.0037 29.8198 87.5531 29.3323C87.1044 28.8448 86.8786 28.0282 86.8786 26.8788V22.2913H85.5505V20.7739H86.8786V19.1075L88.8651 18.5081V20.7739H91.0944V22.2951ZM101.133 25.2532C101.133 26.6521 100.733 27.8006 99.9341 28.6988C99.0983 29.6235 97.9865 30.0844 96.6005 30.0844C95.2629 30.0844 94.1994 29.6415 93.4063 28.7566C92.6132 27.8699 92.2167 26.7526 92.2167 25.4049C92.2167 23.9947 92.6265 22.8395 93.4433 21.9413C94.262 21.0423 95.3644 20.5927 96.7504 20.5927C98.0861 20.5927 99.159 21.0366 99.9711 21.9224C100.747 22.7816 101.133 23.8913 101.133 25.2532ZM99.0366 25.2997C99.0366 24.466 98.8564 23.7509 98.4949 23.1525C98.0709 22.4298 97.4637 22.0684 96.6773 22.0684C95.8672 22.0684 95.2458 22.4298 94.8227 23.1525C94.4603 23.7509 94.28 24.4783 94.28 25.3376C94.28 26.1722 94.4603 26.8892 94.8227 27.4857C95.26 28.2084 95.87 28.5698 96.6602 28.5698C97.4334 28.5698 98.0396 28.2008 98.4779 27.4677C98.8497 26.8551 99.0366 26.1352 99.0366 25.2997ZM107.71 22.5559C107.5 22.5179 107.286 22.4992 107.073 22.5C106.361 22.5 105.811 22.7674 105.424 23.3061C105.088 23.7803 104.919 24.3797 104.919 25.1033V29.8786H102.897V23.6437C102.899 22.6884 102.879 21.7331 102.838 20.7786H104.6L104.674 22.5199H104.73C104.944 21.9214 105.28 21.4387 105.741 21.0773C106.163 20.7616 106.676 20.5906 107.203 20.5899C107.39 20.5899 107.558 20.6031 107.708 20.6268L107.71 22.5559ZM116.756 24.8975C116.761 25.2049 116.736 25.5121 116.682 25.8147H110.614C110.637 26.7137 110.931 27.4023 111.494 27.8765C112.006 28.2995 112.667 28.5119 113.479 28.5119C114.377 28.5119 115.197 28.3697 115.934 28.0823L116.251 29.485C115.39 29.8606 114.373 30.0474 113.199 30.0474C111.788 30.0474 110.68 29.632 109.873 28.8031C109.069 27.9732 108.666 26.8579 108.666 25.4609C108.666 24.0895 109.04 22.9467 109.791 22.0352C110.576 21.0622 111.638 20.5756 112.973 20.5756C114.285 20.5756 115.279 21.0622 115.953 22.0352C116.487 22.8063 116.756 23.7623 116.756 24.8975ZM114.827 24.3731C114.841 23.7727 114.709 23.2558 114.434 22.8186C114.084 22.2553 113.545 21.9745 112.824 21.9745C112.162 21.9745 111.623 22.2486 111.214 22.7987C110.877 23.2359 110.677 23.7613 110.615 24.3712L114.827 24.3731Z" fill="white"/>
<path d="M43.7602 12.7944C43.1976 12.7944 42.711 12.7669 42.3059 12.7204V6.61838C42.8725 6.53088 43.445 6.48776 44.0182 6.48939C46.3377 6.48939 47.4059 7.63033 47.4059 9.49016C47.4059 11.6355 46.1442 12.7944 43.7602 12.7944ZM44.0998 7.27183C43.7868 7.27183 43.5202 7.2908 43.2992 7.33632V11.975C43.4187 11.994 43.6483 12.0025 43.9708 12.0025C45.4906 12.0025 46.3557 11.1376 46.3557 9.51767C46.3557 8.07324 45.5731 7.27183 44.0998 7.27183ZM50.7348 12.8409C49.4275 12.8409 48.5804 11.865 48.5804 10.5401C48.5804 9.15917 49.4455 8.17472 50.8088 8.17472C52.097 8.17472 52.9632 9.10416 52.9632 10.467C52.9632 11.865 52.0705 12.8409 50.7348 12.8409ZM50.7727 8.9012C50.0546 8.9012 49.5945 9.57267 49.5945 10.5116C49.5945 11.4325 50.0641 12.104 50.7632 12.104C51.4624 12.104 51.932 11.386 51.932 10.4926C51.932 9.58216 51.4719 8.9012 50.7727 8.9012ZM60.4177 8.26671L59.0185 12.7394H58.1068L57.5272 10.7971C57.383 10.322 57.2631 9.83987 57.1676 9.35264H57.1487C57.0756 9.84013 56.9371 10.3286 56.7901 10.7971L56.1734 12.7394H55.2523L53.9355 8.26671H54.9572L55.4638 10.393C55.5834 10.8995 55.6839 11.3775 55.7674 11.8289H55.7864C55.8594 11.4524 55.979 10.982 56.1545 10.4025L56.7901 8.26766H57.6002L58.2083 10.357C58.3554 10.8635 58.4749 11.3604 58.5679 11.8299H58.5944C58.6589 11.3699 58.7604 10.8815 58.898 10.357L59.4416 8.26766L60.4177 8.26671ZM65.569 12.7394H64.5748V10.1711C64.5748 9.38015 64.2712 8.98371 63.6726 8.98371C63.0835 8.98371 62.6784 9.49016 62.6784 10.0791V12.7394H61.6842V9.54517C61.6842 9.14968 61.6747 8.72574 61.6472 8.26577H62.5219L62.5684 8.95621H62.5959C62.8634 8.47821 63.406 8.17472 64.0141 8.17472C64.9533 8.17472 65.5699 8.89266 65.5699 10.0611L65.569 12.7394ZM68.3106 12.7394H67.3155V6.21436H68.3106V12.7394ZM71.9354 12.8409C70.6291 12.8409 69.781 11.865 69.781 10.5401C69.781 9.15917 70.6462 8.17472 72.0085 8.17472C73.2977 8.17472 74.1629 9.10416 74.1629 10.467C74.1638 11.865 73.2702 12.8409 71.9354 12.8409ZM71.9724 8.9012C71.2543 8.9012 70.7942 9.57267 70.7942 10.5116C70.7942 11.4325 71.2647 12.104 71.962 12.104C72.6621 12.104 73.1307 11.386 73.1307 10.4926C73.1317 9.58216 72.6725 8.9012 71.9724 8.9012ZM78.0828 12.7394L78.0107 12.2244H77.9841C77.6805 12.6389 77.2375 12.8409 76.6759 12.8409C75.8743 12.8409 75.3051 12.2794 75.3051 11.5245C75.3051 10.4206 76.2623 9.84961 77.9196 9.84961V9.7671C77.9196 9.17814 77.6075 8.88318 76.9908 8.88318C76.5497 8.88318 76.1627 8.99414 75.8221 9.21512L75.62 8.56167C76.0336 8.3037 76.5497 8.17472 77.1559 8.17472C78.3247 8.17472 78.9147 8.79118 78.9147 10.0251V11.6725C78.9147 12.1239 78.9347 12.4739 78.9792 12.7404L78.0828 12.7394ZM77.9462 10.5116C76.8419 10.5116 76.2879 10.7791 76.2879 11.4135C76.2879 11.883 76.5734 12.1125 76.97 12.1125C77.4756 12.1125 77.9462 11.7265 77.9462 11.202V10.5116ZM83.7425 12.7394L83.696 12.0215H83.6685C83.3829 12.564 82.9029 12.8409 82.2322 12.8409C81.1536 12.8409 80.3548 11.8925 80.3548 10.5581C80.3548 9.15917 81.183 8.17377 82.3138 8.17377C82.9124 8.17377 83.3364 8.37578 83.5755 8.7817H83.5954V6.21436H84.5906V11.534C84.5906 11.9665 84.601 12.3714 84.6276 12.7394H83.7425ZM83.5954 10.1076C83.5954 9.48163 83.1809 8.94767 82.5481 8.94767C81.811 8.94767 81.3604 9.60113 81.3604 10.5211C81.3604 11.423 81.8281 12.0404 82.5282 12.0404C83.1534 12.0404 83.5954 11.497 83.5954 10.853V10.1076ZM90.9001 12.8409C89.5938 12.8409 88.7467 11.865 88.7467 10.5401C88.7467 9.15917 89.6118 8.17472 90.9741 8.17472C92.2633 8.17472 93.1285 9.10416 93.1285 10.467C93.1295 11.865 92.2368 12.8409 90.9001 12.8409ZM90.9371 8.9012C90.2199 8.9012 89.7598 9.57267 89.7598 10.5116C89.7598 11.4325 90.2294 12.104 90.9276 12.104C91.6277 12.104 92.0964 11.386 92.0964 10.4926C92.0983 9.58216 91.6382 8.9012 90.9371 8.9012ZM98.4752 12.7394H97.48V10.1711C97.48 9.38015 97.1765 8.98371 96.5779 8.98371C95.9887 8.98371 95.5846 9.49016 95.5846 10.0791V12.7394H94.5895V9.54517C94.5895 9.14968 94.58 8.72574 94.5525 8.26577H95.4271L95.4736 8.95621H95.5011C95.7677 8.47821 96.3113 8.17377 96.9184 8.17377C97.8576 8.17377 98.4752 8.89172 98.4752 10.0602V12.7394ZM105.164 9.01216H104.07V11.184C104.07 11.7369 104.262 12.0129 104.649 12.0129C104.825 12.0129 104.972 11.994 105.09 11.9665L105.118 12.7214C104.925 12.7954 104.667 12.8324 104.346 12.8324C103.563 12.8324 103.094 12.3999 103.094 11.2675V9.01216H102.442V8.26671H103.094V7.44729L104.07 7.15233V8.26577H105.164V9.01216ZM110.427 12.7394H109.434V10.1901C109.434 9.38963 109.131 8.98466 108.532 8.98466C108.017 8.98466 107.537 9.33462 107.537 10.0431V12.7394H106.544V6.21436H107.537V8.9012H107.557C107.87 8.41372 108.323 8.17377 108.902 8.17377C109.849 8.17377 110.427 8.90974 110.427 10.0791V12.7394ZM115.82 10.7421H112.836C112.855 11.589 113.416 12.067 114.246 12.067C114.687 12.067 115.093 11.993 115.451 11.8555L115.606 12.5459C115.183 12.7299 114.685 12.8219 114.105 12.8219C112.706 12.8219 111.878 11.938 111.878 10.5676C111.878 9.19616 112.726 8.16523 113.993 8.16523C115.137 8.16523 115.854 9.01216 115.854 10.2916C115.86 10.4426 115.849 10.5938 115.82 10.7421ZM114.908 10.0336C114.908 9.34316 114.56 8.85568 113.924 8.85568C113.353 8.85568 112.901 9.35264 112.837 10.0336H114.908Z" fill="white"/>
<defs>
<linearGradient id="paint0_linear_0_349" x1="94.7486" y1="38.0267" x2="94.7486" y2="-98.7527" gradientUnits="userSpaceOnUse">
<stop stop-color="#1A1A1A" stop-opacity="0.1"/>
<stop offset="0.123" stop-color="#212121" stop-opacity="0.151"/>
<stop offset="0.308" stop-color="#353535" stop-opacity="0.227"/>
<stop offset="0.532" stop-color="#575757" stop-opacity="0.318"/>
<stop offset="0.783" stop-color="#858585" stop-opacity="0.421"/>
<stop offset="1" stop-color="#B3B3B3" stop-opacity="0.51"/>
</linearGradient>
</defs>
</svg>
