<svg width="19" height="12" viewBox="0 0 19 12" fill="none" xmlns="http://www.w3.org/2000/svg">
<g clip-path="url(#clip0_1_923)">
<path d="M5.52994 0.119141C5.7772 0.185075 6.03041 0.234971 6.27061 0.319794C8.4491 1.08997 9.0191 3.84245 7.31765 5.3575C7.24998 5.41774 7.18231 5.47761 7.12133 5.53178C7.39722 5.66508 7.68835 5.77235 7.94194 5.93416C9.06706 6.65266 9.60918 7.67624 9.48127 8.95999C9.31432 10.6379 7.91628 11.8493 6.15162 11.8693C4.13004 11.8925 2.10808 11.8746 0.0864952 11.8743C0.068276 11.8743 0.0504286 11.87 0.000976562 11.8636V0.119141C1.84372 0.119141 3.68683 0.119141 5.52994 0.119141ZM0.810429 6.20217V11.0966C0.873266 11.0995 0.922346 11.1037 0.971055 11.1037C2.68329 11.1037 4.39552 11.1084 6.10738 11.1027C7.54223 11.0977 8.62423 10.099 8.6971 8.72584C8.76775 7.39754 7.62403 6.20716 6.23491 6.19611C4.46096 6.18221 2.687 6.19362 0.913051 6.19433C0.882562 6.19433 0.852072 6.19896 0.810429 6.20253V6.20217ZM0.807826 5.41524C0.880703 5.41524 0.941681 5.41524 1.00303 5.41524C2.38174 5.41524 3.76045 5.41595 5.13916 5.41382C5.28045 5.41382 5.42286 5.4017 5.56229 5.38138C6.81421 5.2014 7.72145 3.96683 7.48311 2.7704C7.25407 1.61923 6.3115 0.886113 5.04323 0.882193C3.69538 0.877916 2.34753 0.881123 0.999685 0.881836C0.934988 0.881836 0.870292 0.888608 0.807454 0.891815V5.41524H0.807826Z" fill="#D9D9D9"/>
<path d="M19.0006 7.33238C17.9431 7.3306 16.886 7.32811 15.8286 7.32739C14.3324 7.32668 12.8358 7.32739 11.3396 7.32739H11.0909C11.3069 8.88165 11.9096 10.1839 13.4698 10.8575C14.654 11.369 15.752 11.1077 16.721 10.3151C17.2884 9.85106 17.6628 9.25694 17.9138 8.58834C17.9305 8.54379 17.9465 8.49924 17.9636 8.45504C17.9677 8.44435 17.9755 8.43473 17.9918 8.40729C18.232 8.47714 18.4763 8.54842 18.7366 8.62433C18.5983 9.07696 18.4008 9.49252 18.1409 9.87993C17.5018 10.8319 16.6477 11.5172 15.4742 11.7735C14.2086 12.0497 13.0838 11.7329 12.1115 10.9374C11.0793 10.0931 10.5305 8.99107 10.3521 7.71302C10.1602 6.33553 10.4305 5.04929 11.2374 3.88849C11.9278 2.89485 12.87 2.22624 14.1264 2.05232C15.2586 1.89551 16.2703 2.20878 17.1393 2.90946C18.2328 3.7912 18.7883 4.9495 18.9623 6.29098C18.969 6.34266 18.9876 6.39292 19.0006 6.44388V7.33203V7.33238ZM18.1896 6.54474C18.0748 5.41887 17.671 4.43806 16.8254 3.65256C15.5932 2.50816 13.788 2.48606 12.5313 3.5991C11.6389 4.38959 11.2232 5.395 11.1031 6.54474H18.1896Z" fill="#D9D9D9"/>
<path d="M17.8126 0.119141V0.870075H11.4668V0.119141H17.8126Z" fill="#D9D9D9"/>
</g>
<defs>
<clipPath id="clip0_1_923">
<rect width="19" height="11.7619" fill="white" transform="translate(0 0.119141)"/>
</clipPath>
</defs>
</svg>
