<svg width="10" height="10" viewBox="0 0 10 10" fill="none" xmlns="http://www.w3.org/2000/svg">
<path d="M5.00427 0C3.64634 0 3.47592 0.0059376 2.94258 0.0302084C2.41029 0.0545834 2.04695 0.138854 1.72903 0.2625C1.40017 0.390208 1.12121 0.561042 0.84329 0.839063C0.565162 1.11698 0.394327 1.39594 0.266201 1.72469C0.142241 2.04271 0.0578652 2.40615 0.0339066 2.93823C0.0101563 3.47156 0.00390625 3.64208 0.00390625 5C0.00390625 6.35792 0.00994808 6.52781 0.034115 7.06115C0.0585944 7.59344 0.142866 7.95677 0.266409 8.27469C0.394223 8.60354 0.565058 8.8825 0.843082 9.16042C1.1209 9.43854 1.39986 9.60979 1.72851 9.7375C2.04664 9.86115 2.41008 9.94542 2.94227 9.96979C3.47561 9.99406 3.64592 10 5.00375 10C6.36179 10 6.53168 9.99406 7.06502 9.96979C7.59732 9.94542 7.96107 9.86115 8.2792 9.7375C8.60795 9.60979 8.8865 9.43854 9.16432 9.16042C9.44244 8.8825 9.61328 8.60354 9.7414 8.27479C9.86432 7.95677 9.9487 7.59333 9.9737 7.06125C9.99766 6.52792 10.0039 6.35792 10.0039 5C10.0039 3.64208 9.99766 3.47167 9.9737 2.93833C9.9487 2.40604 9.86432 2.04271 9.7414 1.72479C9.61328 1.39594 9.44244 1.11698 9.16432 0.839063C8.88619 0.560938 8.60806 0.390104 8.27889 0.2625C7.96014 0.138854 7.59659 0.0545834 7.06429 0.0302084C6.53095 0.0059376 6.36116 0 5.00281 0H5.00427ZM4.55572 0.901042C4.68885 0.900833 4.83739 0.901042 5.00427 0.901042C6.33928 0.901042 6.49752 0.905833 7.02471 0.929792C7.51221 0.952083 7.7768 1.03354 7.95305 1.10198C8.18639 1.1926 8.35274 1.30094 8.52764 1.47594C8.70264 1.65094 8.81098 1.8176 8.90181 2.05094C8.97025 2.22698 9.05181 2.49156 9.074 2.97906C9.09796 3.50615 9.10317 3.66448 9.10317 4.99885C9.10317 6.33323 9.09796 6.49156 9.074 7.01865C9.05171 7.50615 8.97025 7.77073 8.90181 7.94677C8.81119 8.1801 8.70264 8.34625 8.52764 8.52115C8.35264 8.69615 8.18649 8.80448 7.95305 8.8951C7.77701 8.96385 7.51221 9.0451 7.02471 9.0674C6.49762 9.09135 6.33928 9.09656 5.00427 9.09656C3.66915 9.09656 3.51092 9.09135 2.98383 9.0674C2.49633 9.0449 2.23174 8.96344 2.05539 8.895C1.82205 8.80437 1.65538 8.69604 1.48038 8.52104C1.30538 8.34604 1.19704 8.17979 1.10621 7.94635C1.03777 7.77031 0.956208 7.50573 0.93402 7.01823C0.910062 6.49115 0.90527 6.33281 0.90527 4.9976C0.90527 3.6624 0.910062 3.5049 0.93402 2.97781C0.956312 2.49031 1.03777 2.22573 1.10621 2.04948C1.19684 1.81615 1.30538 1.64948 1.48038 1.47448C1.65538 1.29948 1.82205 1.19115 2.05539 1.10031C2.23164 1.03156 2.49633 0.950313 2.98383 0.927917C3.44509 0.907083 3.62384 0.900833 4.55572 0.899792V0.901042Z" fill="url(#paint0_radial_0_2058)"/>
<path d="M7.66251 1.71897C7.54383 1.71897 7.42781 1.75416 7.32914 1.8201C7.23046 1.88604 7.15356 1.97976 7.10815 2.08941C7.06274 2.19905 7.05087 2.3197 7.07404 2.4361C7.09721 2.55249 7.15438 2.6594 7.23831 2.74331C7.32224 2.82721 7.42917 2.88434 7.54558 2.90746C7.66198 2.93059 7.78263 2.91868 7.89226 2.87324C8.00189 2.82779 8.09559 2.75086 8.16149 2.65216C8.2274 2.55346 8.26255 2.43744 8.26251 2.31876C8.26251 1.98751 7.99376 1.71876 7.66251 1.71876V1.71897Z" fill="url(#paint1_radial_0_2058)"/>
<path fill-rule="evenodd" clip-rule="evenodd" d="M4.99352 2.42001C3.57548 2.42001 2.42578 3.5697 2.42578 4.98772C2.42578 6.40574 3.57548 7.55491 4.99352 7.55491C6.41155 7.55491 7.56094 6.40574 7.56094 4.98772C7.56094 3.5697 6.41155 2.42001 4.99352 2.42001ZM5.00391 6.64064C5.91 6.64064 6.64453 5.9061 6.64453 5.00001C6.64453 4.09392 5.91 3.35938 5.00391 3.35938C4.09782 3.35938 3.36328 4.09392 3.36328 5.00001C3.36328 5.9061 4.09782 6.64064 5.00391 6.64064Z" fill="url(#paint2_radial_0_2058)"/>
<path d="M5.00427 0C3.64634 0 3.47592 0.0059376 2.94258 0.0302084C2.41029 0.0545834 2.04695 0.138854 1.72903 0.2625C1.40017 0.390208 1.12121 0.561042 0.84329 0.839063C0.565162 1.11698 0.394327 1.39594 0.266201 1.72469C0.142241 2.04271 0.0578652 2.40615 0.0339066 2.93823C0.0101563 3.47156 0.00390625 3.64208 0.00390625 5C0.00390625 6.35792 0.00994808 6.52781 0.034115 7.06115C0.0585944 7.59344 0.142866 7.95677 0.266409 8.27469C0.394223 8.60354 0.565058 8.8825 0.843082 9.16042C1.1209 9.43854 1.39986 9.60979 1.72851 9.7375C2.04664 9.86115 2.41008 9.94542 2.94227 9.96979C3.47561 9.99406 3.64592 10 5.00375 10C6.36179 10 6.53168 9.99406 7.06502 9.96979C7.59732 9.94542 7.96107 9.86115 8.2792 9.7375C8.60795 9.60979 8.8865 9.43854 9.16432 9.16042C9.44244 8.8825 9.61328 8.60354 9.7414 8.27479C9.86432 7.95677 9.9487 7.59333 9.9737 7.06125C9.99766 6.52792 10.0039 6.35792 10.0039 5C10.0039 3.64208 9.99766 3.47167 9.9737 2.93833C9.9487 2.40604 9.86432 2.04271 9.7414 1.72479C9.61328 1.39594 9.44244 1.11698 9.16432 0.839063C8.88619 0.560938 8.60806 0.390104 8.27889 0.2625C7.96014 0.138854 7.59659 0.0545834 7.06429 0.0302084C6.53095 0.0059376 6.36116 0 5.00281 0H5.00427ZM4.55572 0.901042C4.68885 0.900833 4.83739 0.901042 5.00427 0.901042C6.33928 0.901042 6.49752 0.905833 7.02471 0.929792C7.51221 0.952083 7.7768 1.03354 7.95305 1.10198C8.18639 1.1926 8.35274 1.30094 8.52764 1.47594C8.70264 1.65094 8.81098 1.8176 8.90181 2.05094C8.97025 2.22698 9.05181 2.49156 9.074 2.97906C9.09796 3.50615 9.10317 3.66448 9.10317 4.99885C9.10317 6.33323 9.09796 6.49156 9.074 7.01865C9.05171 7.50615 8.97025 7.77073 8.90181 7.94677C8.81119 8.1801 8.70264 8.34625 8.52764 8.52115C8.35264 8.69615 8.18649 8.80448 7.95305 8.8951C7.77701 8.96385 7.51221 9.0451 7.02471 9.0674C6.49762 9.09135 6.33928 9.09656 5.00427 9.09656C3.66915 9.09656 3.51092 9.09135 2.98383 9.0674C2.49633 9.0449 2.23174 8.96344 2.05539 8.895C1.82205 8.80437 1.65538 8.69604 1.48038 8.52104C1.30538 8.34604 1.19704 8.17979 1.10621 7.94635C1.03777 7.77031 0.956208 7.50573 0.93402 7.01823C0.910062 6.49115 0.90527 6.33281 0.90527 4.9976C0.90527 3.6624 0.910062 3.5049 0.93402 2.97781C0.956312 2.49031 1.03777 2.22573 1.10621 2.04948C1.19684 1.81615 1.30538 1.64948 1.48038 1.47448C1.65538 1.29948 1.82205 1.19115 2.05539 1.10031C2.23164 1.03156 2.49633 0.950313 2.98383 0.927917C3.44509 0.907083 3.62384 0.900833 4.55572 0.899792V0.901042Z" fill="url(#paint3_radial_0_2058)"/>
<path d="M7.66251 1.71897C7.54383 1.71897 7.42781 1.75416 7.32914 1.8201C7.23046 1.88604 7.15356 1.97976 7.10815 2.08941C7.06274 2.19905 7.05087 2.3197 7.07404 2.4361C7.09721 2.55249 7.15438 2.6594 7.23831 2.74331C7.32224 2.82721 7.42917 2.88434 7.54558 2.90746C7.66198 2.93059 7.78263 2.91868 7.89226 2.87324C8.00189 2.82779 8.09559 2.75086 8.16149 2.65216C8.2274 2.55346 8.26255 2.43744 8.26251 2.31876C8.26251 1.98751 7.99376 1.71876 7.66251 1.71876V1.71897Z" fill="url(#paint4_radial_0_2058)"/>
<path fill-rule="evenodd" clip-rule="evenodd" d="M4.99352 2.42001C3.57548 2.42001 2.42578 3.5697 2.42578 4.98772C2.42578 6.40574 3.57548 7.55491 4.99352 7.55491C6.41155 7.55491 7.56094 6.40574 7.56094 4.98772C7.56094 3.5697 6.41155 2.42001 4.99352 2.42001ZM5.00391 6.64064C5.91 6.64064 6.64453 5.9061 6.64453 5.00001C6.64453 4.09392 5.91 3.35938 5.00391 3.35938C4.09782 3.35938 3.36328 4.09392 3.36328 5.00001C3.36328 5.9061 4.09782 6.64064 5.00391 6.64064Z" fill="url(#paint5_radial_0_2058)"/>
<defs>
<radialGradient id="paint0_radial_0_2058" cx="0" cy="0" r="1" gradientUnits="userSpaceOnUse" gradientTransform="translate(2.66017 10.7702) rotate(-90) scale(9.91074 9.21777)">
<stop stop-color="#FFDD55"/>
<stop offset="0.1" stop-color="#FFDD55"/>
<stop offset="0.5" stop-color="#FF543E"/>
<stop offset="1" stop-color="#C837AB"/>
</radialGradient>
<radialGradient id="paint1_radial_0_2058" cx="0" cy="0" r="1" gradientUnits="userSpaceOnUse" gradientTransform="translate(2.66017 10.7702) rotate(-90) scale(9.91074 9.21777)">
<stop stop-color="#FFDD55"/>
<stop offset="0.1" stop-color="#FFDD55"/>
<stop offset="0.5" stop-color="#FF543E"/>
<stop offset="1" stop-color="#C837AB"/>
</radialGradient>
<radialGradient id="paint2_radial_0_2058" cx="0" cy="0" r="1" gradientUnits="userSpaceOnUse" gradientTransform="translate(2.66017 10.7702) rotate(-90) scale(9.91074 9.21777)">
<stop stop-color="#FFDD55"/>
<stop offset="0.1" stop-color="#FFDD55"/>
<stop offset="0.5" stop-color="#FF543E"/>
<stop offset="1" stop-color="#C837AB"/>
</radialGradient>
<radialGradient id="paint3_radial_0_2058" cx="0" cy="0" r="1" gradientUnits="userSpaceOnUse" gradientTransform="translate(-1.67115 0.720383) rotate(78.6806) scale(4.43014 18.2612)">
<stop stop-color="#3771C8"/>
<stop offset="0.128" stop-color="#3771C8"/>
<stop offset="1" stop-color="#6600FF" stop-opacity="0"/>
</radialGradient>
<radialGradient id="paint4_radial_0_2058" cx="0" cy="0" r="1" gradientUnits="userSpaceOnUse" gradientTransform="translate(-1.67115 0.720383) rotate(78.6806) scale(4.43014 18.2612)">
<stop stop-color="#3771C8"/>
<stop offset="0.128" stop-color="#3771C8"/>
<stop offset="1" stop-color="#6600FF" stop-opacity="0"/>
</radialGradient>
<radialGradient id="paint5_radial_0_2058" cx="0" cy="0" r="1" gradientUnits="userSpaceOnUse" gradientTransform="translate(-1.67115 0.720383) rotate(78.6806) scale(4.43014 18.2612)">
<stop stop-color="#3771C8"/>
<stop offset="0.128" stop-color="#3771C8"/>
<stop offset="1" stop-color="#6600FF" stop-opacity="0"/>
</radialGradient>
</defs>
</svg>
