<svg width="41" height="38" viewBox="0 0 41 38" fill="none" xmlns="http://www.w3.org/2000/svg">
<path d="M28.6086 38L25.1124 34.5021C26.8075 31.5342 28.2907 28.5662 29.562 25.5983C30.8334 22.7364 31.575 19.9275 31.7869 17.1715L23.8411 15.4226V0H41.0039L41.0039 11.1297C41.0039 17.7015 39.7326 23.0014 37.19 27.0293C34.5414 31.1632 31.6809 34.8201 28.6086 38ZM4.77135 38L1.27523 34.5021C2.97032 31.5342 4.45352 28.5662 5.72483 25.5983C6.99615 22.7364 7.73775 19.9275 7.94964 17.1715L0.00390625 15.4226L0.00390625 0L17.1667 0V11.1297C17.1667 17.7015 15.8954 23.0014 13.3527 27.0293C10.7042 31.1632 7.8437 34.8201 4.77135 38Z" fill="#A9A9A9"/>
</svg>
