<svg width="10" height="10" viewBox="0 0 10 10" fill="none" xmlns="http://www.w3.org/2000/svg">
<path d="M10.0039 5C10.0039 2.23829 7.76561 0 5.00391 0C2.2422 0 0.00390625 2.23829 0.00390625 5C0.00390625 7.4961 1.83203 9.56446 4.22266 9.93946V6.44531H2.95311V5H4.22266V3.89844C4.22266 2.6455 4.96876 1.95313 6.11132 1.95313C6.6582 1.95313 7.23047 2.05078 7.23047 2.05078V3.28125H6.59961C5.97851 3.28125 5.78516 3.667 5.78516 4.0625V5H7.17186L6.9502 6.44531H5.78516V9.93946C8.17578 9.56446 10.0039 7.4961 10.0039 5Z" fill="#1877F2"/>
<path d="M6.95021 6.44531L7.17188 5H5.78517V4.0625C5.78517 3.667 5.97852 3.28125 6.59963 3.28125H7.23048V2.05078C7.23048 2.05078 6.65821 1.95312 6.11133 1.95312C4.96877 1.95312 4.22267 2.6455 4.22267 3.89844V5H2.95312V6.44531H4.22267V9.93946C4.47754 9.9795 4.73829 10 5.00392 10C5.26954 10 5.53029 9.9795 5.78517 9.93946V6.44531H6.95021Z" fill="white"/>
</svg>
