<svg width="10" height="10" viewBox="0 0 10 10" fill="none" xmlns="http://www.w3.org/2000/svg">
<path d="M5.00391 9.95902C7.76533 9.95902 10.0039 7.72962 10.0039 4.97951C10.0039 2.2294 7.76533 0 5.00391 0C2.24248 0 0.00390625 2.2294 0.00390625 4.97951C0.00390625 7.72962 2.24248 9.95902 5.00391 9.95902Z" fill="white"/>
<path d="M5.00391 0C2.24259 0 0.00390625 2.22951 0.00390625 4.97951C0.00390625 7.09016 1.32078 8.89344 3.18086 9.61885C3.13559 9.22541 3.09856 8.61885 3.19732 8.18852C3.28786 7.79918 3.78168 5.71312 3.78168 5.71312C3.78168 5.71312 3.63354 5.41393 3.63354 4.97541C3.63354 4.28279 4.03683 3.76639 4.53889 3.76639C4.96687 3.76639 5.17263 4.08607 5.17263 4.46721C5.17263 4.89344 4.90103 5.53279 4.75699 6.12705C4.63765 6.62295 5.00802 7.02869 5.49773 7.02869C6.38662 7.02869 7.06975 6.09426 7.06975 4.75C7.06975 3.55738 6.20967 2.72541 4.97921 2.72541C3.55535 2.72541 2.71996 3.78689 2.71996 4.88525C2.71996 5.31148 2.88456 5.77049 3.09033 6.02049C3.13148 6.06967 3.13559 6.11475 3.12325 6.16393C3.08621 6.31967 2.99979 6.65984 2.98333 6.72951C2.96275 6.81967 2.90926 6.84016 2.81461 6.79508C2.18909 6.5041 1.79814 5.59836 1.79814 4.86475C1.79814 3.29508 2.94218 1.85246 5.10267 1.85246C6.83518 1.85246 8.18498 3.08197 8.18498 4.72951C8.18498 6.44672 7.09856 7.82787 5.59238 7.82787C5.08621 7.82787 4.60884 7.56557 4.44835 7.2541C4.44835 7.2541 4.19732 8.20492 4.13559 8.43853C4.02448 8.87295 3.71996 9.41393 3.51419 9.7459C3.98333 9.88934 4.47716 9.96721 4.99568 9.96721C7.75699 9.96721 9.99568 7.73771 9.99568 4.9877C10.0039 2.22951 7.76522 0 5.00391 0Z" fill="#E60019"/>
</svg>
