<svg width="5" height="10" viewBox="0 0 5 10" fill="none" xmlns="http://www.w3.org/2000/svg">
<path d="M3.83471 4.99898C3.77491 4.94862 3.73714 4.9203 3.70252 4.88568C2.58522 3.76838 1.46478 2.65108 0.350623 1.53063C0.281381 1.46139 0.22473 1.36697 0.199551 1.27255C0.158636 1.12777 0.246761 0.970405 0.378948 0.894869C0.511136 0.819333 0.677944 0.828774 0.80069 0.926342C0.838458 0.954668 0.869931 0.989288 0.904552 1.02391C2.11942 2.23878 3.33429 3.45364 4.5523 4.66851C4.78835 4.90456 4.78835 5.0934 4.55545 5.3263C3.32799 6.55376 2.10054 7.77807 0.876226 9.00553C0.759775 9.12198 0.630735 9.18807 0.463926 9.13771C0.208993 9.06218 0.111426 8.76004 0.271939 8.54916C0.300265 8.5114 0.334886 8.47992 0.369507 8.4453C1.48366 7.33115 2.60096 6.21385 3.71511 5.0997C3.74344 5.06822 3.78121 5.04304 3.83471 4.99898Z" fill="#616161"/>
</svg>
