<svg width="354" height="26" viewBox="0 0 354 26" fill="none" xmlns="http://www.w3.org/2000/svg">
<path fill-rule="evenodd" clip-rule="evenodd" d="M293.747 1.44463L292.49 0.280061L283.954 8.28752C283.579 7.94233 283.207 7.60202 282.838 7.2648C281.104 5.6799 279.444 4.16336 277.92 2.53006C276.196 0.677196 274.943 0.375504 273.102 2.34484L270.83 0.280061L263.029 7.67666L254.94 0.330049L252.368 2.73083L249.81 0.380067L241.634 7.82746L233.49 0.280061L230.884 2.72474L228.05 0.0600586C227.457 0.610479 226.872 1.15306 226.289 1.69354C224.224 3.60844 222.188 5.4971 219.899 7.61542L211.83 0.280061L209.502 2.48776L207.86 0.200074L206.5 1.25006V0.440065L198.788 7.71203L190.81 0.380067L188.997 2.03166C187.5 0.625643 186.309 0.566751 184.62 2.40006C182.914 4.25147 181.05 5.93948 179.104 7.70136C178.779 7.9954 178.452 8.29151 178.123 8.59078L169.05 0.0600586C168.578 0.498031 168.111 0.931038 167.646 1.36198L166.51 0.330049L155.995 10.1446L148.86 0.200074L147.5 1.25006V0.440065L146.376 1.49982L145.06 0.280061L136.524 8.28752C136.149 7.94238 135.777 7.60211 135.408 7.26494C133.674 5.67999 132.014 4.16341 130.49 2.53006C128.766 0.677196 127.513 0.375504 125.672 2.34484L123.4 0.280061L115.599 7.67666L107.51 0.330049L104.938 2.73083L102.38 0.380067L94.204 7.82746L86.0603 0.280061L83.4543 2.72473L80.6203 0.0600586C80.0278 0.609493 79.4438 1.15111 78.862 1.69064C76.7962 3.60653 74.7589 5.49603 72.4692 7.61542L64.4003 0.280061L62.0717 2.48776L60.4303 0.200074L59.0703 1.25006V5.3333L54.0003 10.14L43.3803 0.380067L32.5003 10.2901L21.6203 0.0600586C21.0272 0.610013 20.4427 1.15214 19.8604 1.69217C16.6628 4.65772 13.5332 7.56021 9.43031 11.3501L1.43031 0.200074L0.0703125 1.25006V25.0201H59.0703H294.86H353.86V0.380067L344.29 9.53006C343.461 8.74803 342.641 7.99908 341.838 7.2648C340.104 5.6799 338.444 4.16336 336.92 2.53006C335.18 0.660061 333.92 0.370056 332.05 2.40006C330.344 4.25147 328.48 5.93948 326.534 7.70136C325.8 8.36615 325.054 9.04147 324.3 9.74005L313.94 0.330049L303.28 10.2801L294.86 2.47654V0.380067L293.747 1.44463Z" fill="#F9F9F9"/>
</svg>
