<svg width="11" height="16" viewBox="0 0 11 16" fill="none" xmlns="http://www.w3.org/2000/svg">
<path d="M3.30867 15.8125H2.62905C2.54077 15.7914 2.4528 15.7682 2.36389 15.75C0.208871 15.3022 -0.725684 12.7376 0.647186 11.0202C0.837381 10.7823 1.07714 10.5842 1.29986 10.3621C0.481153 9.76608 0.00721557 8.95567 0.00690581 7.90699C0.00690581 6.85862 0.479295 6.04758 1.32619 5.43212C1.28065 5.39684 1.24534 5.3693 1.20972 5.34238C0.499119 4.80334 0.0905418 4.08947 0.0115523 3.20263C-0.140541 1.48804 1.22892 0.00367678 2.9543 0.00151073C4.65242 -0.000655327 6.35085 -0.000345891 8.04898 0.00151073C9.40636 0.00274847 10.5779 0.920536 10.9103 2.23966C10.9425 2.36777 10.97 2.49711 11.0001 2.62584V3.27442C10.9899 3.30846 10.9753 3.34218 10.9704 3.37684C10.8765 4.02944 10.5934 4.58828 10.1278 5.05275C9.9915 5.18859 9.83786 5.30679 9.6932 5.43243C9.69661 5.44109 9.69723 5.44728 9.70063 5.45006C9.72448 5.46925 9.74834 5.48843 9.77281 5.50638C10.2923 5.89101 10.6612 6.38642 10.8579 7.00312C10.9195 7.19683 10.9533 7.39951 11.0001 7.59786V8.24644C10.9902 8.26903 10.9753 8.291 10.9713 8.31451C10.7888 9.43003 10.1823 10.2315 9.13593 10.6474C8.06632 11.0725 7.04906 10.9169 6.12566 10.2148C6.08818 10.1863 6.05069 10.1572 5.99184 10.1123C5.99184 10.2036 5.99184 10.2599 5.99184 10.3159C5.99184 11.1496 5.99525 11.9835 5.99091 12.8171C5.9841 14.1607 5.10623 15.3198 3.81513 15.6933C3.64848 15.7416 3.47749 15.7732 3.30836 15.8128L3.30867 15.8125ZM5.00246 0.974997C4.93895 0.974997 4.88351 0.974997 4.82806 0.974997C4.22588 0.974997 3.6237 0.974069 3.02152 0.975616C2.90319 0.975925 2.78331 0.974997 2.66715 0.993254C1.6725 1.14797 0.881057 2.04224 0.986377 3.18778C1.07404 4.13929 1.95439 4.9398 2.95492 4.94352C3.58808 4.94568 4.22092 4.94413 4.85408 4.94352C4.90364 4.94352 4.95289 4.93887 5.00215 4.93671V0.974997H5.00246ZM6.0002 4.94383C6.06308 4.94383 6.11853 4.94383 6.17367 4.94383C6.77585 4.94383 7.37803 4.94568 7.98021 4.94228C8.11836 4.94166 8.25776 4.93176 8.39436 4.91103C9.42897 4.75414 10.1963 3.66802 10.0027 2.63914C9.81432 1.63812 9.0238 0.97902 8.00344 0.975306C7.38577 0.97314 6.76811 0.974688 6.15075 0.975306C6.1015 0.975306 6.05224 0.981495 6.0002 0.984899V4.94383ZM5.00339 5.92412C4.40709 5.92412 3.82628 5.92319 3.24548 5.92474C3.06551 5.92505 2.88337 5.91391 2.70587 5.93743C1.6821 6.07358 0.884465 6.98827 0.985757 8.12761C1.07125 9.09058 1.94974 9.88521 2.97784 9.88862C3.60047 9.89047 4.22309 9.88923 4.84572 9.88862C4.8959 9.88862 4.94577 9.88428 5.00339 9.88181V5.92443V5.92412ZM4.98325 10.8736C4.96497 10.8723 4.93988 10.8692 4.91479 10.8692C4.23579 10.8692 3.55648 10.8674 2.87748 10.8717C2.76039 10.8726 2.64144 10.8909 2.52714 10.9181C1.51452 11.1579 0.891899 12.0457 0.991023 13.1021C1.07776 14.0289 1.91474 14.7888 2.89947 14.835C3.91736 14.8826 4.86306 14.1616 4.96776 13.1522C5.0452 12.4056 4.98294 11.6447 4.98294 10.8736H4.98325ZM7.99941 9.88862C9.13593 9.89016 10.0234 9.02158 10.024 7.90699C10.0243 6.79766 9.14182 5.92567 8.01645 5.92412C6.87962 5.92257 5.99246 6.79085 5.99246 7.90544C5.99246 9.01477 6.87528 9.88707 7.99941 9.88862Z" fill="#D9D9D9"/>
</svg>
