<svg width="17" height="13" viewBox="0 0 17 13" fill="none" xmlns="http://www.w3.org/2000/svg">
<g clip-path="url(#clip0_0_2301)">
<path d="M-0.000155594 10.6179C0.123271 10.3891 0.313901 10.3165 0.572067 10.3175C2.60811 10.3248 4.64416 10.3205 6.67988 10.3245C6.80264 10.3245 6.86053 10.2965 6.90444 10.1729C7.1493 9.48544 7.78074 9.04911 8.506 9.05177C9.22693 9.05443 9.85006 9.48677 10.0933 10.1689C10.1402 10.3008 10.2074 10.3241 10.3321 10.3238C12.3901 10.3205 14.4485 10.3211 16.5065 10.3215C16.7906 10.3215 16.9786 10.4714 16.9978 10.7085C17.0178 10.9507 16.8501 11.1528 16.6063 11.1772C16.5461 11.1832 16.4845 11.1798 16.424 11.1798C14.3879 11.1798 12.3519 11.1812 10.3158 11.1768C10.1897 11.1768 10.1365 11.2125 10.0936 11.332C9.8464 12.0192 9.21429 12.4545 8.48936 12.4499C7.76976 12.4452 7.14664 12.0105 6.90411 11.329C6.86019 11.2055 6.80231 11.1772 6.67954 11.1775C4.6435 11.1815 2.60745 11.1772 0.571734 11.1845C0.313901 11.1855 0.122939 11.1129 -0.000488281 10.8841V10.6183L-0.000155594 10.6179ZM8.47739 11.5928C8.9498 11.6045 9.3284 11.2471 9.34138 10.7771C9.35469 10.2968 8.99172 9.91545 8.51398 9.90779C8.04223 9.90013 7.66729 10.2612 7.65765 10.7322C7.64833 11.2048 8.00663 11.5815 8.47706 11.5928H8.47739Z" fill="black"/>
<path d="M-0.000311187 6.36629C0.123116 6.13746 0.314079 6.06552 0.571911 6.06585C4.29036 6.07185 8.00881 6.06985 11.7273 6.06985H11.9369C12.3454 5.15787 12.8717 4.77483 13.6695 4.80214C14.4067 4.82745 14.951 5.25846 15.2551 6.06985C15.6789 6.06985 16.1091 6.06785 16.5393 6.07051C16.8097 6.07218 16.9947 6.24505 16.9984 6.4902C17.0024 6.74467 16.8167 6.92553 16.5396 6.92753C16.1137 6.93053 15.6882 6.9282 15.2601 6.9282C14.977 7.72027 14.445 8.19757 13.5866 8.19191C12.7426 8.18625 12.22 7.71094 11.9375 6.9282H11.7269C8.00848 6.9282 4.29003 6.92653 0.571579 6.9322C0.313746 6.93253 0.122783 6.86058 -0.000976562 6.63176V6.36596L-0.000311187 6.36629ZM13.6069 7.34189C14.0767 7.33789 14.4466 6.96484 14.4456 6.49586C14.4446 6.02788 14.071 5.65649 13.601 5.65583C13.1269 5.65516 12.7426 6.0412 12.7503 6.51018C12.7579 6.97583 13.1389 7.34588 13.6069 7.34189Z" fill="black"/>
<path d="M-0.000155594 2.11467C0.122939 1.88518 0.313569 1.80391 0.5724 1.81423C0.948004 1.82922 1.32494 1.81756 1.70121 1.81723C1.71219 1.81723 1.72283 1.81423 1.74512 1.8109C1.7764 1.73063 1.80667 1.64336 1.84393 1.55943C2.12971 0.914581 2.75782 0.526874 3.47477 0.550856C4.15844 0.573839 4.7636 1.01117 4.99648 1.66735C5.04006 1.79059 5.09462 1.8209 5.21805 1.8209C8.95313 1.81756 12.6885 1.81823 16.4236 1.81823C16.4845 1.81823 16.5457 1.8149 16.6063 1.8209C16.8318 1.84255 16.9959 2.01841 16.9992 2.23858C17.0028 2.46774 16.8392 2.65093 16.6069 2.67392C16.5467 2.67991 16.4852 2.67658 16.4243 2.67658C12.7055 2.67658 8.98706 2.67658 5.26828 2.67658C5.20208 2.67658 5.13587 2.67658 5.06501 2.67658C4.74197 3.54726 4.13848 4.00924 3.19331 3.93396C2.70326 3.89499 2.02757 3.57157 1.74512 2.67658C1.35654 2.67658 0.963973 2.66559 0.572067 2.68058C0.313569 2.69024 0.122939 2.6093 -0.000488281 2.38014V2.11434L-0.000155594 2.11467ZM3.40656 3.0906C3.87432 3.08694 4.25126 2.70889 4.24959 2.24491C4.2476 1.77993 3.86967 1.40488 3.40157 1.40421C2.92483 1.40354 2.55056 1.78059 2.55455 2.25823C2.55821 2.72355 2.93748 3.09427 3.40656 3.0906Z" fill="black"/>
</g>
<defs>
<clipPath id="clip0_0_2301">
<rect width="17" height="11.9" fill="white" transform="translate(0 0.549805)"/>
</clipPath>
</defs>
</svg>
