<svg width="125" height="46" viewBox="0 0 125 46" fill="none" xmlns="http://www.w3.org/2000/svg">
<rect width="125" height="46" rx="5" fill="black"/>
<g clip-path="url(#clip0_184_487)">
<path d="M60.8227 23.494V30.5603H58.5352V13.0845H64.4827C65.9314 13.0845 67.3039 13.6163 68.3714 14.6041C69.4389 15.5159 69.9727 16.8836 69.9727 18.3272C69.9727 19.7709 69.4389 21.0626 68.3714 22.0504C67.3039 23.0381 66.0077 23.57 64.4827 23.57L60.8227 23.494ZM60.8227 15.212V21.2905H64.6352C65.4739 21.2905 66.3127 20.9866 66.8464 20.3787C68.0664 19.239 68.0664 17.3395 66.9227 16.1997L66.8464 16.1238C66.2364 15.5159 65.4739 15.136 64.6352 15.212H60.8227Z" fill="white"/>
<path d="M75.2339 18.251C76.9114 18.251 78.2077 18.7069 79.1989 19.6187C80.1902 20.5304 80.6477 21.7461 80.6477 23.2658V30.5601H78.5127V28.8885H78.4364C77.5214 30.2561 76.2252 30.94 74.7002 30.94C73.4039 30.94 72.2602 30.5601 71.3452 29.8002C70.5064 29.0404 69.9727 27.9767 69.9727 26.8369C69.9727 25.6212 70.4302 24.6335 71.3452 23.8736C72.2602 23.1138 73.5564 22.8099 75.0814 22.8099C76.4539 22.8099 77.5214 23.0378 78.3602 23.5697V23.0378C78.3602 22.278 78.0552 21.5182 77.4452 21.0623C76.8352 20.5304 76.0727 20.2265 75.2339 20.2265C73.9377 20.2265 72.9464 20.7584 72.2602 21.8221L70.2777 20.6064C71.4977 19.0108 73.0989 18.251 75.2339 18.251ZM72.3364 26.9129C72.3364 27.5208 72.6414 28.0527 73.0989 28.3566C73.6327 28.7365 74.2427 28.9644 74.8527 28.9644C75.7677 28.9644 76.6827 28.5845 77.3689 27.9007C78.1314 27.2169 78.5127 26.3811 78.5127 25.4693C77.8264 24.9374 76.8352 24.6335 75.5389 24.6335C74.6239 24.6335 73.8614 24.8614 73.2514 25.3173C72.6414 25.6972 72.3364 26.2291 72.3364 26.9129Z" fill="white"/>
<path d="M93.0005 18.6309L85.4518 35.8788H83.1643L85.9855 29.8762L81.0293 18.7068H83.4693L87.053 27.2928H87.1293L90.6368 18.7068H93.0005V18.6309Z" fill="white"/>
<path d="M51.7482 21.9744C51.7482 21.2905 51.672 20.6067 51.5957 19.9229H42.0645V23.7979H47.4782C47.2495 25.0136 46.5632 26.1534 45.4957 26.8372V29.3446H48.7745C50.6807 27.597 51.7482 25.0136 51.7482 21.9744Z" fill="#4285F4"/>
<path d="M42.0659 31.7761C44.8109 31.7761 47.0984 30.8643 48.7759 29.3446L45.4971 26.8372C44.5821 27.4451 43.4384 27.825 42.0659 27.825C39.4734 27.825 37.1859 26.0774 36.4234 23.646H33.0684V26.2294C34.8221 29.6486 38.2534 31.7761 42.0659 31.7761Z" fill="#34A853"/>
<path d="M36.422 23.646C35.9645 22.4303 35.9645 21.0626 36.422 19.7709V17.1875H33.067C31.6183 19.9988 31.6183 23.342 33.067 26.2294L36.422 23.646Z" fill="#FBBC04"/>
<path d="M42.0658 15.6676C43.5145 15.6676 44.887 16.1994 45.9545 17.1872L48.852 14.2999C47.022 12.6283 44.582 11.6405 42.142 11.7165C38.3295 11.7165 34.822 13.844 33.1445 17.2632L36.4995 19.8466C37.1858 17.4151 39.4733 15.6676 42.0658 15.6676Z" fill="#EA4335"/>
</g>
<defs>
<clipPath id="clip0_184_487">
<rect width="61" height="28.9492" fill="white" transform="translate(32 8.52539)"/>
</clipPath>
</defs>
</svg>
