<svg width="70" height="4" viewBox="0 0 70 4" fill="none" xmlns="http://www.w3.org/2000/svg">
<path d="M48.4131 4C47.1689 4 46.2561 3.08914 45.4192 2.25546C45.0111 1.84895 44.6258 1.46518 44.2096 1.17649C42.5041 -0.00514401 41.4256 0.915357 40.0605 2.07907C38.9915 2.99062 37.7789 4.0248 36.1545 3.79537C34.9485 3.62587 34.007 2.8349 33.0965 2.06943C31.6408 0.845079 30.4908 -0.122963 28.6262 1.59057C28.4045 1.79521 28.1989 2.02671 27.9816 2.27199C27.4504 2.8728 26.9009 3.49428 26.019 3.80019C24.7593 4.23633 23.4354 3.87185 22.2936 2.76945C22.0976 2.58066 21.9134 2.37879 21.7285 2.17691C21.1554 1.54992 20.6146 0.958075 19.7166 0.746553C18.7493 0.519183 17.8844 0.798916 16.9135 1.65258C16.7109 1.83035 16.5105 2.03429 16.2976 2.24926C15.5263 3.0292 14.6525 3.91319 13.2963 3.97726C11.8126 4.04478 10.8401 3.03885 10.0533 2.22859C9.89422 2.06461 9.73951 1.90476 9.58628 1.76007C8.26464 0.510915 6.73084 0.400676 5.37679 1.45967C5.12116 1.65879 4.86331 1.90131 4.59074 2.15762C3.64555 3.04505 2.46979 4.1502 0.7717 3.85462C0.591209 3.82293 0.471864 3.66101 0.505752 3.49221C0.538903 3.3234 0.713501 3.21179 0.893255 3.24348C2.24509 3.47567 3.19838 2.58342 4.11999 1.71873C4.40435 1.45209 4.67251 1.2006 4.95024 0.983568C6.55477 -0.271097 8.51144 -0.139499 10.06 1.32393C10.2191 1.47482 10.3804 1.64018 10.5462 1.81105C11.3109 2.59789 12.1065 3.40953 13.2631 3.35717C14.349 3.30618 15.0916 2.55448 15.8099 1.82828C16.0302 1.60504 16.2394 1.39352 16.4589 1.2006C17.1757 0.570858 18.3095 -0.224934 19.8794 0.144368C20.983 0.404121 21.6195 1.10001 22.2346 1.77385C22.4107 1.96608 22.5853 2.15831 22.7717 2.33745C23.4413 2.98442 24.5088 3.6617 25.7892 3.21799C26.5038 2.96995 26.9731 2.43873 27.4711 1.87582C27.6891 1.62916 27.9146 1.37423 28.1614 1.14755C30.4702 -0.975253 32.1019 0.397231 33.5415 1.6078C34.3783 2.31196 35.2447 3.03954 36.2532 3.18147C37.5653 3.36543 38.5598 2.51797 39.6126 1.6202C40.9475 0.481977 42.4606 -0.807826 44.6044 0.676964C45.0693 0.998726 45.4929 1.42177 45.9032 1.83035C47.0797 3.00302 48.0949 4.01516 49.9212 2.85557C50.3418 2.58824 50.7551 2.20103 51.192 1.79107C52.4208 0.637691 53.9487 -0.79818 56.1588 0.537097C56.7047 0.867127 57.1997 1.35149 57.6778 1.82001C58.9074 3.02438 59.969 4.06477 61.7673 2.75429C62.1245 2.49454 62.4347 2.16658 62.764 1.82001C63.4241 1.12412 64.1063 0.405499 65.2327 0.171239C67.2306 -0.243537 68.8307 1.29362 69.4252 1.97435C69.5409 2.10732 69.5202 2.303 69.3781 2.41186C69.2359 2.52072 69.0267 2.50143 68.9103 2.36776C68.3938 1.7766 67.0184 0.437193 65.3763 0.778246C64.4606 0.96841 63.8779 1.583 63.2613 2.23272C62.9268 2.58549 62.5813 2.94997 62.1761 3.24486C59.9049 4.89983 58.4035 3.4302 57.1975 2.24926C56.7246 1.78625 56.2781 1.34943 55.7978 1.05867C54.0408 -0.00307697 52.8864 1.08141 51.6627 2.22928C51.2229 2.64199 50.7676 3.06848 50.2939 3.36957C49.586 3.81879 48.9664 4 48.4117 4H48.4131Z" fill="#367C2E"/>
</svg>
