<svg width="5" height="140" viewBox="0 0 5 140" fill="none" xmlns="http://www.w3.org/2000/svg">
<g clip-path="url(#clip0_98_2389)">
<path d="M4.31989 87.2684C4.31989 88.6219 3.3363 89.6148 2.43604 90.5251C1.99708 90.9691 1.58266 91.3882 1.27092 91.841C-0.00506593 93.6961 0.988937 94.8693 2.24558 96.3542C3.22991 97.5169 4.34667 98.836 4.09892 100.603C3.91589 101.915 3.06176 102.939 2.23516 103.929C0.913047 105.513 -0.132293 106.764 1.71807 108.792C1.93904 109.033 2.18903 109.257 2.4539 109.493C3.10268 110.071 3.77378 110.669 4.10412 111.628C4.57508 112.998 4.1815 114.438 2.99108 115.68C2.78722 115.894 2.56922 116.094 2.35123 116.295C1.67417 116.919 1.03507 117.507 0.806653 118.484C0.561128 119.536 0.863198 120.477 1.78503 121.533C1.97699 121.753 2.19722 121.971 2.42935 122.203C3.27157 123.042 4.22614 123.992 4.29533 125.467C4.36825 127.081 3.28199 128.139 2.40703 128.995C2.22995 129.168 2.05734 129.336 1.9011 129.503C0.5522 130.941 0.433158 132.609 1.57671 134.082C1.79173 134.36 2.05362 134.64 2.33039 134.937C3.28868 135.965 4.48208 137.244 4.1629 139.091C4.12868 139.288 3.95383 139.417 3.77155 139.38C3.58927 139.344 3.46874 139.154 3.50296 138.959C3.75369 137.488 2.79019 136.452 1.85646 135.449C1.56852 135.14 1.29696 134.848 1.06259 134.546C-0.292256 132.801 -0.150149 130.672 1.43014 128.988C1.59308 128.815 1.77164 128.639 1.95615 128.459C2.80582 127.627 3.68227 126.762 3.62572 125.503C3.57067 124.322 2.75895 123.514 1.97476 122.733C1.73369 122.494 1.50528 122.266 1.29696 122.027C0.616929 121.247 -0.242407 120.014 0.156385 118.306C0.436878 117.106 1.18833 116.414 1.91598 115.745C2.12356 115.553 2.33114 115.363 2.52458 115.16C3.22321 114.432 3.95458 113.271 3.47543 111.878C3.20759 111.101 2.63395 110.59 2.02609 110.049C1.75974 109.811 1.48445 109.566 1.23967 109.298C-1.05264 106.786 0.429438 105.011 1.73667 103.445C2.49705 102.535 3.28273 101.593 3.436 100.496C3.63465 99.0684 2.71951 97.9865 1.75006 96.8414C0.520952 95.3894 -0.871842 93.7434 0.731508 91.4114C1.07896 90.9058 1.53579 90.445 1.97699 89.9986C3.2433 88.7189 4.33626 87.6146 3.08408 85.6281C2.7954 85.1705 2.37727 84.7209 1.93458 84.2457C0.689099 82.9091 -0.861426 81.2471 0.580473 78.843C0.936856 78.2492 1.4599 77.7107 1.96583 77.1906C3.26636 75.8531 4.38983 74.6984 2.97471 72.7423C2.69422 72.3536 2.34007 72.0163 1.96583 71.6581C1.21437 70.9401 0.438367 70.198 0.185402 68.9727C-0.262494 66.7995 1.3974 65.0589 2.13249 64.4122C2.27608 64.2864 2.48738 64.3088 2.60494 64.4635C2.72249 64.6182 2.70166 64.8458 2.55732 64.9724C1.91895 65.5341 0.472591 67.0302 0.840878 68.8165C1.04623 69.8125 1.70989 70.4464 2.41149 71.1171C2.79243 71.481 3.18601 71.8568 3.50445 72.2975C5.29157 74.7681 3.70459 76.4013 2.42935 77.7131C1.92937 78.2276 1.45767 78.7132 1.14369 79.2357C-0.00283369 81.1469 1.16824 82.4026 2.40777 83.7337C2.85344 84.2121 3.31398 84.7073 3.63911 85.2226C4.12421 85.9927 4.31989 86.6666 4.31989 87.27L4.31989 87.2684Z" fill="#367C2E"/>
</g>
<g clip-path="url(#clip1_98_2389)">
<path d="M4.31989 23.5521C4.31989 24.9056 3.3363 25.8985 2.43604 26.8088C1.99708 27.2528 1.58266 27.6719 1.27092 28.1246C-0.00506593 29.9798 0.988937 31.153 2.24558 32.6379C3.22991 33.8006 4.34667 35.1197 4.09892 36.8866C3.91589 38.1985 3.06176 39.2226 2.23516 40.2131C0.913047 41.7965 -0.132293 43.0475 1.71807 45.0757C1.93904 45.3169 2.18903 45.5405 2.4539 45.7769C3.10268 46.3546 3.77378 46.9524 4.10412 47.9117C4.57508 49.282 4.1815 50.722 2.99108 51.9641C2.78722 52.1773 2.56922 52.3776 2.35123 52.5788C1.67417 53.2022 1.03507 53.7904 0.806653 54.7673C0.561128 55.8194 0.863198 56.7602 1.78503 57.8164C1.97699 58.0368 2.19722 58.2547 2.42935 58.4863C3.27157 59.3254 4.22614 60.2758 4.29533 61.7511C4.36825 63.365 3.28199 64.4228 2.40703 65.2786C2.22995 65.4517 2.05734 65.62 1.9011 65.7867C0.5522 67.2243 0.433158 68.8927 1.57671 70.3656C1.79173 70.6437 2.05362 70.9241 2.33039 71.2206C3.28868 72.2488 4.48208 73.5277 4.1629 75.3749C4.12868 75.5712 3.95383 75.701 3.77155 75.6642C3.58927 75.6281 3.46874 75.4382 3.50296 75.2426C3.75369 73.7722 2.79019 72.7352 1.85646 71.7327C1.56852 71.4234 1.29696 71.1317 1.06259 70.8296C-0.292256 69.0842 -0.150149 66.9558 1.43014 65.2714C1.59308 65.0983 1.77164 64.9228 1.95615 64.7425C2.80582 63.9107 3.68227 63.0452 3.62572 61.7871C3.57067 60.6059 2.75895 59.7982 1.97476 59.0168C1.73369 58.7772 1.50528 58.5496 1.29696 58.3108C0.616929 57.5311 -0.242407 56.2978 0.156385 54.5902C0.436878 53.3897 1.18833 52.6974 1.91598 52.0282C2.12356 51.8367 2.33114 51.6468 2.52458 51.444C3.22321 50.7156 3.95458 49.5544 3.47543 48.1617C3.20759 47.3844 2.63395 46.8739 2.02609 46.3322C1.75974 46.095 1.48445 45.8498 1.23967 45.5813C-1.05264 43.0699 0.429438 41.2949 1.73667 39.729C2.49705 38.8187 3.28273 37.8763 3.436 36.7793C3.63465 35.3521 2.71951 34.2702 1.75006 33.1251C0.520952 31.673 -0.871842 30.0271 0.731508 27.6951C1.07896 27.1895 1.53579 26.7287 1.97699 26.2823C3.2433 25.0026 4.33626 23.8983 3.08408 21.9118C2.7954 21.4542 2.37727 21.0046 1.93458 20.5294C0.689099 19.1928 -0.861426 17.5308 0.580473 15.1267C0.936856 14.5329 1.4599 13.9944 1.96583 13.4743C3.26636 12.1368 4.38983 10.9821 2.97471 9.02599C2.69422 8.63733 2.34007 8.29996 1.96583 7.94176C1.21437 7.22375 0.438367 6.48169 0.185402 5.25642C-0.262494 3.08315 1.3974 1.34261 2.13249 0.695915C2.27608 0.570099 2.48738 0.592537 2.60494 0.7472C2.72249 0.901863 2.70166 1.12945 2.55732 1.25607C1.91895 1.81781 0.472591 3.31393 0.840878 5.10016C1.04623 6.09624 1.70989 6.73011 2.41149 7.40084C2.79243 7.76466 3.18601 8.14049 3.50445 8.58124C5.29157 11.0518 3.70459 12.685 2.42935 13.9968C1.92937 14.5113 1.45767 14.9969 1.14369 15.5194C-0.00283369 17.4306 1.16824 18.6863 2.40777 20.0174C2.85344 20.4958 3.31398 20.991 3.63911 21.5063C4.12421 22.2764 4.31989 22.9503 4.31989 23.5537L4.31989 23.5521Z" fill="#367C2E"/>
</g>
<g clip-path="url(#clip2_98_2389)">
<path d="M5.00006 87.2684C5.00006 88.6219 4.01648 89.6148 3.11622 90.5251C2.67725 90.9691 2.26284 91.3882 1.95109 91.841C0.67511 93.6961 1.66911 94.8693 2.92575 96.3542C3.91008 97.5169 5.02685 98.836 4.77909 100.603C4.59606 101.915 3.74194 102.939 2.91534 103.929C1.59322 105.513 0.547883 106.764 2.39825 108.792C2.61922 109.033 2.86921 109.257 3.13408 109.493C3.78286 110.071 4.45396 110.669 4.7843 111.628C5.25526 112.998 4.86168 114.438 3.67125 115.68C3.46739 115.894 3.2494 116.094 3.0314 116.295C2.35435 116.919 1.71524 117.507 1.48683 118.484C1.2413 119.536 1.54337 120.477 2.46521 121.533C2.65716 121.753 2.87739 121.971 3.10952 122.203C3.95175 123.042 4.90632 123.992 4.97551 125.467C5.04842 127.081 3.96216 128.139 3.0872 128.995C2.91013 129.168 2.73752 129.336 2.58127 129.503C1.23238 130.941 1.11333 132.609 2.25688 134.082C2.4719 134.36 2.7338 134.64 3.01057 134.937C3.96886 135.965 5.16226 137.244 4.84308 139.091C4.80885 139.288 4.63401 139.417 4.45172 139.38C4.26944 139.344 4.14891 139.154 4.18314 138.959C4.43387 137.488 3.47037 136.452 2.53663 135.449C2.2487 135.14 1.97713 134.848 1.74277 134.546C0.38792 132.801 0.530027 130.672 2.11031 128.988C2.27325 128.815 2.45181 128.639 2.63633 128.459C3.48599 127.627 4.36244 126.762 4.3059 125.503C4.25084 124.322 3.43912 123.514 2.65493 122.733C2.41387 122.494 2.18546 122.266 1.97713 122.027C1.29711 121.247 0.437769 120.014 0.836561 118.306C1.11705 117.106 1.86851 116.414 2.59615 115.745C2.80373 115.553 3.01131 115.363 3.20476 115.16C3.90339 114.432 4.63475 113.271 4.15561 111.878C3.88776 111.101 3.31413 110.59 2.70627 110.049C2.43991 109.811 2.16463 109.566 1.91985 109.298C-0.372462 106.786 1.10961 105.011 2.41685 103.445C3.17723 102.535 3.96291 101.593 4.11617 100.496C4.31483 99.0684 3.39969 97.9865 2.43024 96.8414C1.20113 95.3894 -0.191666 93.7434 1.41168 91.4114C1.75914 90.9058 2.21596 90.445 2.65716 89.9986C3.92348 88.7189 5.01643 87.6146 3.76426 85.6281C3.47558 85.1705 3.05744 84.7209 2.61475 84.2457C1.36928 82.9091 -0.18125 81.2471 1.26065 78.843C1.61703 78.2492 2.14007 77.7107 2.646 77.1906C3.94654 75.8531 5.07 74.6984 3.65489 72.7423C3.37439 72.3536 3.02024 72.0163 2.646 71.6581C1.89455 70.9401 1.11854 70.198 0.865578 68.9727C0.417681 66.7995 2.07758 65.0589 2.81266 64.4122C2.95626 64.2864 3.16756 64.3088 3.28511 64.4635C3.40267 64.6182 3.38183 64.8458 3.23749 64.9724C2.59913 65.5341 1.15277 67.0302 1.52105 68.8165C1.7264 69.8125 2.39006 70.4464 3.09167 71.1171C3.4726 71.481 3.86619 71.8568 4.18462 72.2975C5.97175 74.7681 4.38476 76.4013 3.10952 77.7131C2.60955 78.2276 2.13784 78.7132 1.82387 79.2357C0.677342 81.1469 1.84842 82.4026 3.08795 83.7337C3.53361 84.2121 3.99416 84.7073 4.31929 85.2226C4.80439 85.9927 5.00006 86.6666 5.00006 87.27L5.00006 87.2684Z" fill="#367C2E"/>
</g>
<g clip-path="url(#clip3_98_2389)">
<path d="M5.00006 23.5521C5.00006 24.9056 4.01648 25.8985 3.11622 26.8088C2.67725 27.2528 2.26284 27.6719 1.95109 28.1246C0.67511 29.9798 1.66911 31.153 2.92575 32.6379C3.91008 33.8006 5.02685 35.1197 4.77909 36.8866C4.59606 38.1985 3.74194 39.2226 2.91534 40.2131C1.59322 41.7965 0.547883 43.0475 2.39825 45.0757C2.61922 45.3169 2.86921 45.5405 3.13408 45.7769C3.78286 46.3546 4.45396 46.9524 4.7843 47.9117C5.25526 49.282 4.86168 50.722 3.67125 51.9641C3.46739 52.1773 3.2494 52.3776 3.0314 52.5788C2.35435 53.2022 1.71524 53.7904 1.48683 54.7673C1.2413 55.8194 1.54337 56.7602 2.46521 57.8164C2.65716 58.0368 2.87739 58.2547 3.10952 58.4863C3.95175 59.3254 4.90632 60.2758 4.97551 61.7511C5.04842 63.365 3.96216 64.4228 3.0872 65.2786C2.91013 65.4517 2.73752 65.62 2.58127 65.7867C1.23238 67.2243 1.11333 68.8927 2.25688 70.3656C2.4719 70.6437 2.7338 70.9241 3.01057 71.2206C3.96886 72.2488 5.16226 73.5277 4.84308 75.3749C4.80885 75.5712 4.63401 75.701 4.45172 75.6642C4.26944 75.6281 4.14891 75.4382 4.18314 75.2426C4.43387 73.7722 3.47037 72.7352 2.53663 71.7327C2.2487 71.4234 1.97713 71.1317 1.74277 70.8296C0.38792 69.0842 0.530027 66.9558 2.11031 65.2714C2.27325 65.0983 2.45181 64.9228 2.63633 64.7425C3.48599 63.9107 4.36244 63.0452 4.3059 61.7871C4.25084 60.6059 3.43912 59.7982 2.65493 59.0168C2.41387 58.7772 2.18546 58.5496 1.97713 58.3108C1.29711 57.5311 0.437769 56.2978 0.836561 54.5902C1.11705 53.3897 1.86851 52.6974 2.59615 52.0282C2.80373 51.8367 3.01131 51.6468 3.20476 51.444C3.90339 50.7156 4.63475 49.5544 4.15561 48.1617C3.88776 47.3844 3.31413 46.8739 2.70627 46.3322C2.43991 46.095 2.16463 45.8498 1.91985 45.5813C-0.372462 43.0699 1.10961 41.2949 2.41685 39.729C3.17723 38.8187 3.96291 37.8763 4.11617 36.7793C4.31483 35.3521 3.39969 34.2702 2.43024 33.1251C1.20113 31.673 -0.191666 30.0271 1.41168 27.6951C1.75914 27.1895 2.21596 26.7287 2.65716 26.2823C3.92348 25.0026 5.01643 23.8983 3.76426 21.9118C3.47558 21.4542 3.05744 21.0046 2.61475 20.5294C1.36928 19.1928 -0.18125 17.5308 1.26065 15.1267C1.61703 14.5329 2.14007 13.9944 2.646 13.4743C3.94654 12.1368 5.07 10.9821 3.65489 9.02599C3.37439 8.63733 3.02024 8.29996 2.646 7.94176C1.89455 7.22375 1.11854 6.48169 0.865578 5.25642C0.417681 3.08315 2.07758 1.34261 2.81266 0.695915C2.95626 0.570099 3.16756 0.592537 3.28511 0.7472C3.40267 0.901863 3.38183 1.12945 3.23749 1.25607C2.59913 1.81781 1.15277 3.31393 1.52105 5.10016C1.7264 6.09624 2.39006 6.73011 3.09167 7.40084C3.4726 7.76466 3.86619 8.14049 4.18462 8.58124C5.97175 11.0518 4.38476 12.685 3.10952 13.9968C2.60955 14.5113 2.13784 14.9969 1.82387 15.5194C0.677342 17.4306 1.84842 18.6863 3.08795 20.0174C3.53361 20.4958 3.99416 20.991 4.31929 21.5063C4.80439 22.2764 5.00006 22.9503 5.00006 23.5537L5.00006 23.5521Z" fill="#367C2E"/>
</g>
<g clip-path="url(#clip4_98_2389)">
<path d="M4.31989 87.2684C4.31989 88.6219 3.3363 89.6148 2.43604 90.5251C1.99708 90.9691 1.58266 91.3882 1.27092 91.841C-0.00506593 93.6961 0.988937 94.8693 2.24558 96.3542C3.22991 97.5169 4.34667 98.836 4.09892 100.603C3.91589 101.915 3.06176 102.939 2.23516 103.929C0.913047 105.513 -0.132293 106.764 1.71807 108.792C1.93904 109.033 2.18903 109.257 2.4539 109.493C3.10268 110.071 3.77378 110.669 4.10412 111.628C4.57508 112.998 4.1815 114.438 2.99108 115.68C2.78722 115.894 2.56922 116.094 2.35123 116.295C1.67417 116.919 1.03507 117.507 0.806653 118.484C0.561128 119.536 0.863198 120.477 1.78503 121.533C1.97699 121.753 2.19722 121.971 2.42935 122.203C3.27157 123.042 4.22614 123.992 4.29533 125.467C4.36825 127.081 3.28199 128.139 2.40703 128.995C2.22995 129.168 2.05734 129.336 1.9011 129.503C0.5522 130.941 0.433158 132.609 1.57671 134.082C1.79173 134.36 2.05362 134.64 2.33039 134.937C3.28868 135.965 4.48208 137.244 4.1629 139.091C4.12868 139.288 3.95383 139.417 3.77155 139.38C3.58927 139.344 3.46874 139.154 3.50296 138.959C3.75369 137.488 2.79019 136.452 1.85646 135.449C1.56852 135.14 1.29696 134.848 1.06259 134.546C-0.292256 132.801 -0.150149 130.672 1.43014 128.988C1.59308 128.815 1.77164 128.639 1.95615 128.459C2.80582 127.627 3.68227 126.762 3.62572 125.503C3.57067 124.322 2.75895 123.514 1.97476 122.733C1.73369 122.494 1.50528 122.266 1.29696 122.027C0.616929 121.247 -0.242407 120.014 0.156385 118.306C0.436878 117.106 1.18833 116.414 1.91598 115.745C2.12356 115.553 2.33114 115.363 2.52458 115.16C3.22321 114.432 3.95458 113.271 3.47543 111.878C3.20759 111.101 2.63395 110.59 2.02609 110.049C1.75974 109.811 1.48445 109.566 1.23967 109.298C-1.05264 106.786 0.429438 105.011 1.73667 103.445C2.49705 102.535 3.28273 101.593 3.436 100.496C3.63465 99.0684 2.71951 97.9865 1.75006 96.8414C0.520952 95.3894 -0.871842 93.7434 0.731508 91.4114C1.07896 90.9058 1.53579 90.445 1.97699 89.9986C3.2433 88.7189 4.33626 87.6146 3.08408 85.6281C2.7954 85.1705 2.37727 84.7209 1.93458 84.2457C0.689099 82.9091 -0.861426 81.2471 0.580473 78.843C0.936856 78.2492 1.4599 77.7107 1.96583 77.1906C3.26636 75.8531 4.38983 74.6984 2.97471 72.7423C2.69422 72.3536 2.34007 72.0163 1.96583 71.6581C1.21437 70.9401 0.438367 70.198 0.185402 68.9727C-0.262494 66.7995 1.3974 65.0589 2.13249 64.4122C2.27608 64.2864 2.48738 64.3088 2.60494 64.4635C2.72249 64.6182 2.70166 64.8458 2.55732 64.9724C1.91895 65.5341 0.472591 67.0302 0.840878 68.8165C1.04623 69.8125 1.70989 70.4464 2.41149 71.1171C2.79243 71.481 3.18601 71.8568 3.50445 72.2975C5.29157 74.7681 3.70459 76.4013 2.42935 77.7131C1.92937 78.2276 1.45767 78.7132 1.14369 79.2357C-0.00283369 81.1469 1.16824 82.4026 2.40777 83.7337C2.85344 84.2121 3.31398 84.7073 3.63911 85.2226C4.12421 85.9927 4.31989 86.6666 4.31989 87.27L4.31989 87.2684Z" fill="#367C2E"/>
</g>
<g clip-path="url(#clip5_98_2389)">
<path d="M4.31989 23.5521C4.31989 24.9056 3.3363 25.8985 2.43604 26.8088C1.99708 27.2528 1.58266 27.6719 1.27092 28.1246C-0.00506593 29.9798 0.988937 31.153 2.24558 32.6379C3.22991 33.8006 4.34667 35.1197 4.09892 36.8866C3.91589 38.1985 3.06176 39.2226 2.23516 40.2131C0.913047 41.7965 -0.132293 43.0475 1.71807 45.0757C1.93904 45.3169 2.18903 45.5405 2.4539 45.7769C3.10268 46.3546 3.77378 46.9524 4.10412 47.9117C4.57508 49.282 4.1815 50.722 2.99108 51.9641C2.78722 52.1773 2.56922 52.3776 2.35123 52.5788C1.67417 53.2022 1.03507 53.7904 0.806653 54.7673C0.561128 55.8194 0.863198 56.7602 1.78503 57.8164C1.97699 58.0368 2.19722 58.2547 2.42935 58.4863C3.27157 59.3254 4.22614 60.2758 4.29533 61.7511C4.36825 63.365 3.28199 64.4228 2.40703 65.2786C2.22995 65.4517 2.05734 65.62 1.9011 65.7867C0.5522 67.2243 0.433158 68.8927 1.57671 70.3656C1.79173 70.6437 2.05362 70.9241 2.33039 71.2206C3.28868 72.2488 4.48208 73.5277 4.1629 75.3749C4.12868 75.5712 3.95383 75.701 3.77155 75.6642C3.58927 75.6281 3.46874 75.4382 3.50296 75.2426C3.75369 73.7722 2.79019 72.7352 1.85646 71.7327C1.56852 71.4234 1.29696 71.1317 1.06259 70.8296C-0.292256 69.0842 -0.150149 66.9558 1.43014 65.2714C1.59308 65.0983 1.77164 64.9228 1.95615 64.7425C2.80582 63.9107 3.68227 63.0452 3.62572 61.7871C3.57067 60.6059 2.75895 59.7982 1.97476 59.0168C1.73369 58.7772 1.50528 58.5496 1.29696 58.3108C0.616929 57.5311 -0.242407 56.2978 0.156385 54.5902C0.436878 53.3897 1.18833 52.6974 1.91598 52.0282C2.12356 51.8367 2.33114 51.6468 2.52458 51.444C3.22321 50.7156 3.95458 49.5544 3.47543 48.1617C3.20759 47.3844 2.63395 46.8739 2.02609 46.3322C1.75974 46.095 1.48445 45.8498 1.23967 45.5813C-1.05264 43.0699 0.429438 41.2949 1.73667 39.729C2.49705 38.8187 3.28273 37.8763 3.436 36.7793C3.63465 35.3521 2.71951 34.2702 1.75006 33.1251C0.520952 31.673 -0.871842 30.0271 0.731508 27.6951C1.07896 27.1895 1.53579 26.7287 1.97699 26.2823C3.2433 25.0026 4.33626 23.8983 3.08408 21.9118C2.7954 21.4542 2.37727 21.0046 1.93458 20.5294C0.689099 19.1928 -0.861426 17.5308 0.580473 15.1267C0.936856 14.5329 1.4599 13.9944 1.96583 13.4743C3.26636 12.1368 4.38983 10.9821 2.97471 9.02599C2.69422 8.63733 2.34007 8.29996 1.96583 7.94176C1.21437 7.22375 0.438367 6.48169 0.185402 5.25642C-0.262494 3.08315 1.3974 1.34261 2.13249 0.695915C2.27608 0.570099 2.48738 0.592537 2.60494 0.7472C2.72249 0.901863 2.70166 1.12945 2.55732 1.25607C1.91895 1.81781 0.472591 3.31393 0.840878 5.10016C1.04623 6.09624 1.70989 6.73011 2.41149 7.40084C2.79243 7.76466 3.18601 8.14049 3.50445 8.58124C5.29157 11.0518 3.70459 12.685 2.42935 13.9968C1.92937 14.5113 1.45767 14.9969 1.14369 15.5194C-0.00283369 17.4306 1.16824 18.6863 2.40777 20.0174C2.85344 20.4958 3.31398 20.991 3.63911 21.5063C4.12421 22.2764 4.31989 22.9503 4.31989 23.5537L4.31989 23.5521Z" fill="#367C2E"/>
</g>
<g clip-path="url(#clip6_98_2389)">
<path d="M5.00006 87.2684C5.00006 88.6219 4.01648 89.6148 3.11622 90.5251C2.67725 90.9691 2.26284 91.3882 1.95109 91.841C0.67511 93.6961 1.66911 94.8693 2.92575 96.3542C3.91008 97.5169 5.02685 98.836 4.77909 100.603C4.59606 101.915 3.74194 102.939 2.91534 103.929C1.59322 105.513 0.547883 106.764 2.39825 108.792C2.61922 109.033 2.86921 109.257 3.13408 109.493C3.78286 110.071 4.45396 110.669 4.7843 111.628C5.25526 112.998 4.86168 114.438 3.67125 115.68C3.46739 115.894 3.2494 116.094 3.0314 116.295C2.35435 116.919 1.71524 117.507 1.48683 118.484C1.2413 119.536 1.54337 120.477 2.46521 121.533C2.65716 121.753 2.87739 121.971 3.10952 122.203C3.95175 123.042 4.90632 123.992 4.97551 125.467C5.04842 127.081 3.96216 128.139 3.0872 128.995C2.91013 129.168 2.73752 129.336 2.58127 129.503C1.23238 130.941 1.11333 132.609 2.25688 134.082C2.4719 134.36 2.7338 134.64 3.01057 134.937C3.96886 135.965 5.16226 137.244 4.84308 139.091C4.80885 139.288 4.63401 139.417 4.45172 139.38C4.26944 139.344 4.14891 139.154 4.18314 138.959C4.43387 137.488 3.47037 136.452 2.53663 135.449C2.2487 135.14 1.97713 134.848 1.74277 134.546C0.38792 132.801 0.530027 130.672 2.11031 128.988C2.27325 128.815 2.45181 128.639 2.63633 128.459C3.48599 127.627 4.36244 126.762 4.3059 125.503C4.25084 124.322 3.43912 123.514 2.65493 122.733C2.41387 122.494 2.18546 122.266 1.97713 122.027C1.29711 121.247 0.437769 120.014 0.836561 118.306C1.11705 117.106 1.86851 116.414 2.59615 115.745C2.80373 115.553 3.01131 115.363 3.20476 115.16C3.90339 114.432 4.63475 113.271 4.15561 111.878C3.88776 111.101 3.31413 110.59 2.70627 110.049C2.43991 109.811 2.16463 109.566 1.91985 109.298C-0.372462 106.786 1.10961 105.011 2.41685 103.445C3.17723 102.535 3.96291 101.593 4.11617 100.496C4.31483 99.0684 3.39969 97.9865 2.43024 96.8414C1.20113 95.3894 -0.191666 93.7434 1.41168 91.4114C1.75914 90.9058 2.21596 90.445 2.65716 89.9986C3.92348 88.7189 5.01643 87.6146 3.76426 85.6281C3.47558 85.1705 3.05744 84.7209 2.61475 84.2457C1.36928 82.9091 -0.18125 81.2471 1.26065 78.843C1.61703 78.2492 2.14007 77.7107 2.646 77.1906C3.94654 75.8531 5.07 74.6984 3.65489 72.7423C3.37439 72.3536 3.02024 72.0163 2.646 71.6581C1.89455 70.9401 1.11854 70.198 0.865578 68.9727C0.417681 66.7995 2.07758 65.0589 2.81266 64.4122C2.95626 64.2864 3.16756 64.3088 3.28511 64.4635C3.40267 64.6182 3.38183 64.8458 3.23749 64.9724C2.59913 65.5341 1.15277 67.0302 1.52105 68.8165C1.7264 69.8125 2.39006 70.4464 3.09167 71.1171C3.4726 71.481 3.86619 71.8568 4.18462 72.2975C5.97175 74.7681 4.38476 76.4013 3.10952 77.7131C2.60955 78.2276 2.13784 78.7132 1.82387 79.2357C0.677342 81.1469 1.84842 82.4026 3.08795 83.7337C3.53361 84.2121 3.99416 84.7073 4.31929 85.2226C4.80439 85.9927 5.00006 86.6666 5.00006 87.27L5.00006 87.2684Z" fill="#367C2E"/>
</g>
<g clip-path="url(#clip7_98_2389)">
<path d="M5.00006 23.5521C5.00006 24.9056 4.01648 25.8985 3.11622 26.8088C2.67725 27.2528 2.26284 27.6719 1.95109 28.1246C0.67511 29.9798 1.66911 31.153 2.92575 32.6379C3.91008 33.8006 5.02685 35.1197 4.77909 36.8866C4.59606 38.1985 3.74194 39.2226 2.91534 40.2131C1.59322 41.7965 0.547883 43.0475 2.39825 45.0757C2.61922 45.3169 2.86921 45.5405 3.13408 45.7769C3.78286 46.3546 4.45396 46.9524 4.7843 47.9117C5.25526 49.282 4.86168 50.722 3.67125 51.9641C3.46739 52.1773 3.2494 52.3776 3.0314 52.5788C2.35435 53.2022 1.71524 53.7904 1.48683 54.7673C1.2413 55.8194 1.54337 56.7602 2.46521 57.8164C2.65716 58.0368 2.87739 58.2547 3.10952 58.4863C3.95175 59.3254 4.90632 60.2758 4.97551 61.7511C5.04842 63.365 3.96216 64.4228 3.0872 65.2786C2.91013 65.4517 2.73752 65.62 2.58127 65.7867C1.23238 67.2243 1.11333 68.8927 2.25688 70.3656C2.4719 70.6437 2.7338 70.9241 3.01057 71.2206C3.96886 72.2488 5.16226 73.5277 4.84308 75.3749C4.80885 75.5712 4.63401 75.701 4.45172 75.6642C4.26944 75.6281 4.14891 75.4382 4.18314 75.2426C4.43387 73.7722 3.47037 72.7352 2.53663 71.7327C2.2487 71.4234 1.97713 71.1317 1.74277 70.8296C0.38792 69.0842 0.530027 66.9558 2.11031 65.2714C2.27325 65.0983 2.45181 64.9228 2.63633 64.7425C3.48599 63.9107 4.36244 63.0452 4.3059 61.7871C4.25084 60.6059 3.43912 59.7982 2.65493 59.0168C2.41387 58.7772 2.18546 58.5496 1.97713 58.3108C1.29711 57.5311 0.437769 56.2978 0.836561 54.5902C1.11705 53.3897 1.86851 52.6974 2.59615 52.0282C2.80373 51.8367 3.01131 51.6468 3.20476 51.444C3.90339 50.7156 4.63475 49.5544 4.15561 48.1617C3.88776 47.3844 3.31413 46.8739 2.70627 46.3322C2.43991 46.095 2.16463 45.8498 1.91985 45.5813C-0.372462 43.0699 1.10961 41.2949 2.41685 39.729C3.17723 38.8187 3.96291 37.8763 4.11617 36.7793C4.31483 35.3521 3.39969 34.2702 2.43024 33.1251C1.20113 31.673 -0.191666 30.0271 1.41168 27.6951C1.75914 27.1895 2.21596 26.7287 2.65716 26.2823C3.92348 25.0026 5.01643 23.8983 3.76426 21.9118C3.47558 21.4542 3.05744 21.0046 2.61475 20.5294C1.36928 19.1928 -0.18125 17.5308 1.26065 15.1267C1.61703 14.5329 2.14007 13.9944 2.646 13.4743C3.94654 12.1368 5.07 10.9821 3.65489 9.02599C3.37439 8.63733 3.02024 8.29996 2.646 7.94176C1.89455 7.22375 1.11854 6.48169 0.865578 5.25642C0.417681 3.08315 2.07758 1.34261 2.81266 0.695915C2.95626 0.570099 3.16756 0.592537 3.28511 0.7472C3.40267 0.901863 3.38183 1.12945 3.23749 1.25607C2.59913 1.81781 1.15277 3.31393 1.52105 5.10016C1.7264 6.09624 2.39006 6.73011 3.09167 7.40084C3.4726 7.76466 3.86619 8.14049 4.18462 8.58124C5.97175 11.0518 4.38476 12.685 3.10952 13.9968C2.60955 14.5113 2.13784 14.9969 1.82387 15.5194C0.677342 17.4306 1.84842 18.6863 3.08795 20.0174C3.53361 20.4958 3.99416 20.991 4.31929 21.5063C4.80439 22.2764 5.00006 22.9503 5.00006 23.5537L5.00006 23.5521Z" fill="#367C2E"/>
</g>
<defs>
<clipPath id="clip0_98_2389">
<rect width="75.0556" height="4.31975" fill="white" transform="translate(0 139.386) rotate(-90)"/>
</clipPath>
<clipPath id="clip1_98_2389">
<rect width="75.0556" height="4.31975" fill="white" transform="translate(0 75.6697) rotate(-90)"/>
</clipPath>
<clipPath id="clip2_98_2389">
<rect width="75.0556" height="4.31975" fill="white" transform="translate(0.680176 139.386) rotate(-90)"/>
</clipPath>
<clipPath id="clip3_98_2389">
<rect width="75.0556" height="4.31975" fill="white" transform="translate(0.680176 75.6697) rotate(-90)"/>
</clipPath>
<clipPath id="clip4_98_2389">
<rect width="75.0556" height="4.31975" fill="white" transform="translate(0 139.386) rotate(-90)"/>
</clipPath>
<clipPath id="clip5_98_2389">
<rect width="75.0556" height="4.31975" fill="white" transform="translate(0 75.6697) rotate(-90)"/>
</clipPath>
<clipPath id="clip6_98_2389">
<rect width="75.0556" height="4.31975" fill="white" transform="translate(0.680176 139.386) rotate(-90)"/>
</clipPath>
<clipPath id="clip7_98_2389">
<rect width="75.0556" height="4.31975" fill="white" transform="translate(0.680176 75.6697) rotate(-90)"/>
</clipPath>
</defs>
</svg>
