<svg width="129" height="162" viewBox="0 0 129 162" fill="none" xmlns="http://www.w3.org/2000/svg">
<path d="M32.3948 128.333C51.5825 147.022 104.141 156.886 128.021 159.482V161.662C68.7143 159.918 32.291 144.738 21.4928 137.366L14.0171 143.284L8.72177 111.513L38.6246 122.415C37.171 123.661 33.89 126.589 32.3948 128.333Z" fill="url(#paint0_linear_484_44)"/>
<path d="M22.7387 24.919C39.9328 81.2359 99.8837 98.0147 127.71 99.3645C49.8381 101.233 21.0774 53.6797 8.72175 28.3454L9.91821e-05 30.2143L8.72175 0L31.1488 22.7386L22.7387 24.919Z" fill="url(#paint1_linear_484_44)"/>
<defs>
<linearGradient id="paint0_linear_484_44" x1="2.91644" y1="131.415" x2="133.246" y2="131.415" gradientUnits="userSpaceOnUse">
<stop stop-color="#3A8132"/>
<stop offset="1" stop-color="#73B86B" stop-opacity="0"/>
</linearGradient>
<linearGradient id="paint1_linear_484_44" x1="-6.21449" y1="39.4542" x2="133.303" y2="39.4542" gradientUnits="userSpaceOnUse">
<stop stop-color="#3A8132"/>
<stop offset="1" stop-color="#73B86B" stop-opacity="0"/>
</linearGradient>
</defs>
</svg>
