<svg width="77" height="281" viewBox="0 0 77 281" fill="none" xmlns="http://www.w3.org/2000/svg">
<g opacity="0.7">
<circle cx="6.22975" cy="6.22975" r="6.22975" transform="matrix(-1 0 0 1 59.6436 25.2489)" fill="url(#paint0_linear_1_395)"/>
<circle cx="6.22975" cy="6.22975" r="6.22975" transform="matrix(-1 0 0 1 59.6436 57.0206)" fill="url(#paint1_linear_1_395)"/>
<circle cx="9.03314" cy="9.03314" r="9.03314" transform="matrix(-1 0 0 1 39.085 71.3492)" fill="url(#paint2_linear_1_395)"/>
<circle cx="5.29529" cy="5.29529" r="5.29529" transform="matrix(-1 0 0 1 70.8574 85.0543)" fill="url(#paint3_linear_1_395)"/>
<circle cx="5.91826" cy="5.91826" r="5.91826" transform="matrix(-1 0 0 1 53.4141 116.203)" fill="url(#paint4_linear_1_395)"/>
<circle cx="5.91826" cy="5.91826" r="5.91826" transform="matrix(-1 0 0 1 76.4639 184.107)" fill="url(#paint5_linear_1_395)"/>
<circle cx="5.91826" cy="5.91826" r="5.91826" transform="matrix(-1 0 0 1 35.9707 181.615)" fill="url(#paint6_linear_1_395)"/>
<circle cx="5.91826" cy="5.91826" r="5.91826" transform="matrix(-1 0 0 1 60.8896 237.683)" fill="url(#paint7_linear_1_395)"/>
<circle cx="4.04934" cy="4.04934" r="4.04934" transform="matrix(-1 0 0 1 12.9209 131.155)" fill="url(#paint8_linear_1_395)"/>
<circle cx="4.04934" cy="4.04934" r="4.04934" transform="matrix(-1 0 0 1 53.4141 202.797)" fill="url(#paint9_linear_1_395)"/>
<circle cx="4.04934" cy="4.04934" r="4.04934" transform="matrix(-1 0 0 1 27.8721 245.159)" fill="url(#paint10_linear_1_395)"/>
<circle cx="3.11487" cy="3.11487" r="3.11487" transform="matrix(-1 0 0 1 33.4785 149.844)" fill="url(#paint11_linear_1_395)"/>
<circle cx="3.11487" cy="3.11487" r="3.11487" transform="matrix(-1 0 0 1 9.18262 215.256)" fill="url(#paint12_linear_1_395)"/>
<circle cx="3.11487" cy="3.11487" r="3.11487" transform="matrix(-1 0 0 1 6.69043 273.816)" fill="url(#paint13_linear_1_395)"/>
<circle cx="8.09867" cy="8.09867" r="8.09867" transform="matrix(-1 0 0 1 73.3486 133.024)" fill="url(#paint14_linear_1_395)"/>
<circle cx="4.04934" cy="4.04934" r="4.04934" transform="matrix(-1 0 0 1 36.5938 0.95282)" fill="url(#paint15_linear_1_395)"/>
<circle cx="3.11487" cy="3.11487" r="3.11487" transform="matrix(-1 0 0 1 9.80566 1.57581)" fill="url(#paint16_linear_1_395)"/>
</g>
<defs>
<linearGradient id="paint0_linear_1_395" x1="13.0658" y1="4.94457" x2="-0.545672" y2="4.94457" gradientUnits="userSpaceOnUse">
<stop stop-color="#3A8132"/>
<stop offset="1" stop-color="#73B86B" stop-opacity="0"/>
</linearGradient>
<linearGradient id="paint1_linear_1_395" x1="13.0658" y1="4.94457" x2="-0.545672" y2="4.94457" gradientUnits="userSpaceOnUse">
<stop stop-color="#3A8132"/>
<stop offset="1" stop-color="#73B86B" stop-opacity="0"/>
</linearGradient>
<linearGradient id="paint2_linear_1_395" x1="18.9454" y1="7.16963" x2="-0.791224" y2="7.16963" gradientUnits="userSpaceOnUse">
<stop stop-color="#3A8132"/>
<stop offset="1" stop-color="#73B86B" stop-opacity="0"/>
</linearGradient>
<linearGradient id="paint3_linear_1_395" x1="11.1059" y1="4.20289" x2="-0.463821" y2="4.20289" gradientUnits="userSpaceOnUse">
<stop stop-color="#3A8132"/>
<stop offset="1" stop-color="#73B86B" stop-opacity="0"/>
</linearGradient>
<linearGradient id="paint4_linear_1_395" x1="12.4125" y1="4.69734" x2="-0.518388" y2="4.69735" gradientUnits="userSpaceOnUse">
<stop stop-color="#3A8132"/>
<stop offset="1" stop-color="#73B86B" stop-opacity="0"/>
</linearGradient>
<linearGradient id="paint5_linear_1_395" x1="12.4125" y1="4.69734" x2="-0.518388" y2="4.69735" gradientUnits="userSpaceOnUse">
<stop stop-color="#3A8132"/>
<stop offset="1" stop-color="#73B86B" stop-opacity="0"/>
</linearGradient>
<linearGradient id="paint6_linear_1_395" x1="12.4125" y1="4.69734" x2="-0.518388" y2="4.69735" gradientUnits="userSpaceOnUse">
<stop stop-color="#3A8132"/>
<stop offset="1" stop-color="#73B86B" stop-opacity="0"/>
</linearGradient>
<linearGradient id="paint7_linear_1_395" x1="12.4125" y1="4.69734" x2="-0.518388" y2="4.69735" gradientUnits="userSpaceOnUse">
<stop stop-color="#3A8132"/>
<stop offset="1" stop-color="#73B86B" stop-opacity="0"/>
</linearGradient>
<linearGradient id="paint8_linear_1_395" x1="8.49277" y1="3.21397" x2="-0.354687" y2="3.21397" gradientUnits="userSpaceOnUse">
<stop stop-color="#3A8132"/>
<stop offset="1" stop-color="#73B86B" stop-opacity="0"/>
</linearGradient>
<linearGradient id="paint9_linear_1_395" x1="8.49277" y1="3.21397" x2="-0.354687" y2="3.21397" gradientUnits="userSpaceOnUse">
<stop stop-color="#3A8132"/>
<stop offset="1" stop-color="#73B86B" stop-opacity="0"/>
</linearGradient>
<linearGradient id="paint10_linear_1_395" x1="8.49277" y1="3.21397" x2="-0.354687" y2="3.21397" gradientUnits="userSpaceOnUse">
<stop stop-color="#3A8132"/>
<stop offset="1" stop-color="#73B86B" stop-opacity="0"/>
</linearGradient>
<linearGradient id="paint11_linear_1_395" x1="6.5329" y1="2.47229" x2="-0.272836" y2="2.47229" gradientUnits="userSpaceOnUse">
<stop stop-color="#3A8132"/>
<stop offset="1" stop-color="#73B86B" stop-opacity="0"/>
</linearGradient>
<linearGradient id="paint12_linear_1_395" x1="6.5329" y1="2.47229" x2="-0.272836" y2="2.47229" gradientUnits="userSpaceOnUse">
<stop stop-color="#3A8132"/>
<stop offset="1" stop-color="#73B86B" stop-opacity="0"/>
</linearGradient>
<linearGradient id="paint13_linear_1_395" x1="6.5329" y1="2.47229" x2="-0.272836" y2="2.47229" gradientUnits="userSpaceOnUse">
<stop stop-color="#3A8132"/>
<stop offset="1" stop-color="#73B86B" stop-opacity="0"/>
</linearGradient>
<linearGradient id="paint14_linear_1_395" x1="16.9855" y1="6.42795" x2="-0.709373" y2="6.42795" gradientUnits="userSpaceOnUse">
<stop stop-color="#3A8132"/>
<stop offset="1" stop-color="#73B86B" stop-opacity="0"/>
</linearGradient>
<linearGradient id="paint15_linear_1_395" x1="8.49277" y1="3.21397" x2="-0.354687" y2="3.21397" gradientUnits="userSpaceOnUse">
<stop stop-color="#3A8132"/>
<stop offset="1" stop-color="#73B86B" stop-opacity="0"/>
</linearGradient>
<linearGradient id="paint16_linear_1_395" x1="6.5329" y1="2.47229" x2="-0.272836" y2="2.47229" gradientUnits="userSpaceOnUse">
<stop stop-color="#3A8132"/>
<stop offset="1" stop-color="#73B86B" stop-opacity="0"/>
</linearGradient>
</defs>
</svg>
