<svg width="129" height="162" viewBox="0 0 129 162" fill="none" xmlns="http://www.w3.org/2000/svg">
<path d="M22.7387 137.046C39.9328 80.7295 99.8837 63.9507 127.71 62.6009C49.8381 60.732 21.0774 108.286 8.72175 133.62L9.91821e-05 131.751L8.72175 161.965L31.1488 139.227L22.7387 137.046Z" fill="url(#paint0_linear_484_45)"/>
<path d="M32.3948 33.6325C51.5825 14.9432 104.141 5.07948 128.021 2.48375V0.303337C68.7143 2.04767 32.291 17.2275 21.4928 24.5994L14.0171 18.6811L8.72177 50.4528L38.6246 39.5508C37.171 38.3048 33.89 35.3768 32.3948 33.6325Z" fill="url(#paint1_linear_484_45)"/>
<defs>
<linearGradient id="paint0_linear_484_45" x1="-6.21449" y1="122.511" x2="133.303" y2="122.511" gradientUnits="userSpaceOnUse">
<stop stop-color="#3A8132"/>
<stop offset="1" stop-color="#73B86B" stop-opacity="0"/>
</linearGradient>
<linearGradient id="paint1_linear_484_45" x1="2.91644" y1="30.5509" x2="133.246" y2="30.5509" gradientUnits="userSpaceOnUse">
<stop stop-color="#3A8132"/>
<stop offset="1" stop-color="#73B86B" stop-opacity="0"/>
</linearGradient>
</defs>
</svg>
