<svg width="23" height="16" viewBox="0 0 23 16" fill="none" xmlns="http://www.w3.org/2000/svg">
<path d="M11.7837 0.385126C14.9753 0.385126 18.1719 0.385126 21.3635 0.385126C21.7254 0.385126 22.0621 0.435062 22.3285 0.709705C22.5798 0.964375 22.6402 1.28396 22.6402 1.62851C22.6402 4.82436 22.6402 8.02521 22.6402 11.2211C22.6402 12.1598 22.6402 13.0986 22.6402 14.0374C22.6402 14.8763 22.223 15.2858 21.3736 15.2858C15.0356 15.2858 8.70262 15.2858 2.36464 15.2858C2.28925 15.2858 2.21386 15.2858 2.13846 15.2858C1.3393 15.2758 0.917107 14.8563 0.917107 14.0624C0.917107 10.5819 0.917107 7.10141 0.917107 3.62093C0.917107 2.97177 0.937212 2.32261 0.912081 1.67845C0.876898 0.894465 1.32423 0.365152 2.23396 0.375139C5.41552 0.395113 8.6021 0.385126 11.7837 0.385126ZM21.7003 1.92313C21.5646 2.04797 21.459 2.13785 21.3585 2.23273C18.5941 4.81937 15.8347 7.40102 13.0704 9.98766C12.231 10.7716 11.3313 10.7716 10.497 9.98766C7.68734 7.37106 4.88275 4.74447 2.07312 2.12287C2.00778 2.06295 1.94244 2.00802 1.86202 1.9431C1.86202 5.84304 1.86202 9.71302 1.86202 13.6229C1.93742 13.548 1.98265 13.4981 2.02789 13.4482C3.1638 12.1948 4.29971 10.9414 5.43562 9.69304C5.90808 9.17372 6.37551 8.65439 6.84797 8.14006C7.02389 7.94531 7.26012 7.90536 7.45614 8.02521C7.65718 8.14505 7.71247 8.32981 7.65718 8.53954C7.62703 8.64441 7.54661 8.74428 7.47122 8.82916C5.87792 10.5869 4.27961 12.3446 2.68631 14.1023C2.62097 14.1722 2.56066 14.2471 2.48024 14.342C8.6976 14.342 14.8697 14.342 21.0921 14.342C20.9865 14.2272 20.9112 14.1373 20.8358 14.0574C19.2475 12.3047 17.6542 10.5569 16.0659 8.8042C15.8347 8.54953 15.8247 8.2649 16.0358 8.08014C16.2469 7.89538 16.5233 7.93533 16.7596 8.19499C18.0312 9.59317 19.2978 10.9964 20.5694 12.3945C20.9363 12.799 21.3032 13.1985 21.7053 13.6379C21.7003 9.70802 21.7003 5.84304 21.7003 1.92313ZM2.626 1.30893C2.61092 1.32391 2.60087 1.34388 2.58579 1.35886C2.65113 1.4088 2.71647 1.45374 2.77176 1.50367C4.55102 3.16652 6.32525 4.82936 8.10451 6.48721C9.14493 7.46094 10.1853 8.43468 11.2308 9.40342C11.5726 9.723 11.9797 9.71302 12.3315 9.40841C12.4069 9.3435 12.4823 9.27359 12.5527 9.20368C15.2919 6.642 18.0312 4.08033 20.7704 1.51865C20.8358 1.45873 20.9162 1.41878 20.9916 1.37384C20.9715 1.34888 20.9564 1.3289 20.9363 1.30393C14.8295 1.30893 8.72775 1.30893 2.626 1.30893Z" fill="#214336"/>
</svg>
