<svg width="40" height="40" viewBox="0 0 40 40" fill="none" xmlns="http://www.w3.org/2000/svg">
<g clip-path="url(#clip0_1_494)">
<path d="M28.6283 0C28.8231 0.0668072 29.0186 0.129439 29.2108 0.201257C30.5177 0.68728 31.3881 1.9182 31.3889 3.31447C31.3914 13.5635 31.3965 23.8126 31.373 34.0617C31.3721 34.5786 31.1698 35.1181 30.9592 35.6041C30.8173 35.9306 30.7149 36.2279 30.7158 36.5845C30.7216 38.3031 29.6372 39.6192 27.9527 39.9507C27.7361 39.9933 27.5095 39.9975 27.2871 39.9975C22.4299 40 17.5727 40.0008 12.7146 39.9983C10.7288 39.9975 9.28177 38.5586 9.2868 36.5828C9.28764 36.2262 9.18105 35.9289 9.04256 35.6033C8.83105 35.1039 8.63045 34.5502 8.62877 34.0199C8.60527 23.7984 8.6103 13.5777 8.61198 3.35623C8.61198 1.80129 9.60491 0.516086 11.1082 0.0985407C11.1996 0.073488 11.2861 0.0334036 11.3742 0C17.1253 0 22.8773 0 28.6283 0ZM9.96582 11.3522C9.95743 11.5351 9.94904 11.6428 9.94904 11.7506C9.94904 19.111 9.94736 26.4724 9.94904 33.8329C9.94904 35.169 10.7993 36.0008 12.1598 36.0016C17.3805 36.0033 22.6011 36.0033 27.8218 36.0016C29.2276 36.0016 30.0519 35.1749 30.0519 33.7677C30.0527 26.449 30.0519 19.1294 30.0519 11.8107C30.0519 11.6796 30.0393 11.5493 30.0292 11.3455C29.2117 11.9685 28.3195 12.0069 27.4004 12.0053C22.403 11.9927 17.4057 11.9919 12.4091 12.0069C11.5513 12.0094 10.7447 11.9034 9.96582 11.3531V11.3522ZM20.0218 1.33197C17.3981 1.33197 14.7744 1.3303 12.1498 1.33197C10.7951 1.33364 9.95239 2.1679 9.94904 3.50989C9.94568 5.16253 9.94652 6.81517 9.94904 8.46698C9.95155 9.8357 10.7884 10.6658 12.1707 10.6666C17.3905 10.6683 22.6103 10.6683 27.8301 10.6666C29.215 10.6666 30.0493 9.8382 30.0527 8.46698C30.056 6.82854 30.0552 5.19009 30.0527 3.55081C30.0502 2.15286 29.2201 1.33197 27.8092 1.33113C25.2131 1.32946 22.6171 1.33113 20.021 1.33113L20.0218 1.33197ZM10.7246 37.235C10.7204 37.2083 10.7204 37.2609 10.7363 37.3085C11.0368 38.1636 11.7847 38.668 12.7767 38.668C16.8928 38.6705 21.0097 38.6689 25.1258 38.6689C25.8653 38.6689 26.6056 38.6789 27.3442 38.6655C28.3262 38.6472 29.137 38.0016 29.2461 37.25C28.3766 37.2768 27.4927 37.3269 26.6081 37.3285C22.1009 37.3369 17.5937 37.3369 13.0865 37.3285C12.3017 37.3269 11.5169 37.2684 10.7229 37.235H10.7246Z" fill="white"/>
<path d="M3.1177 22.5834C3.60535 22.7654 4.04348 22.9299 4.50763 23.1036C4.39936 23.5137 4.29528 23.9112 4.1677 24.3964C3.61626 24.1968 3.09336 24.0072 2.51758 23.7984C2.73161 23.3642 2.91962 22.9842 3.1177 22.5834Z" fill="white"/>
<path d="M35.8388 24.4105C35.7079 23.9203 35.6047 23.5337 35.4922 23.1111C35.9454 22.9399 36.3936 22.7704 36.8779 22.5875C37.0685 22.965 37.259 23.3416 37.4848 23.7892C36.9283 23.9988 36.4087 24.1951 35.838 24.4105H35.8388Z" fill="white"/>
<path d="M37.4898 34.2061C37.2581 34.6663 37.0718 35.0345 36.8821 35.412C36.4205 35.2408 35.9807 35.078 35.498 34.8993C35.603 34.4951 35.7087 34.0875 35.8363 33.5974C36.3961 33.8036 36.9182 33.9957 37.4906 34.2061H37.4898Z" fill="white"/>
<path d="M2.51367 34.2078C3.08526 33.9974 3.59977 33.8078 4.16128 33.6007C4.28802 34.0709 4.39713 34.4784 4.5096 34.8968C4.04209 35.0713 3.60396 35.2358 3.12303 35.4154C2.93502 35.0429 2.74449 34.6654 2.51367 34.2078Z" fill="white"/>
<path d="M35.4694 30.0908C35.9722 30.1451 36.3927 30.1902 36.8552 30.2403C36.8014 30.7013 36.7536 31.1188 36.7007 31.5681C36.2466 31.523 35.8278 31.4821 35.3779 31.437C35.409 30.976 35.4375 30.5568 35.4694 30.0908Z" fill="white"/>
<path d="M4.62777 31.4362C4.17453 31.4821 3.7557 31.5239 3.30078 31.5698C3.24791 31.1213 3.19922 30.7038 3.14551 30.2412C3.60714 30.1911 4.02764 30.1451 4.52117 30.0917C4.55642 30.5384 4.59084 30.966 4.62861 31.4362H4.62777Z" fill="white"/>
<path d="M35.4689 27.9096C35.4378 27.4402 35.4101 27.0202 35.3799 26.5642C35.8205 26.5191 36.2284 26.4765 36.6951 26.4281C36.748 26.8707 36.7992 27.2958 36.8554 27.7617C36.3879 27.811 35.9674 27.8561 35.468 27.9087L35.4689 27.9096Z" fill="white"/>
<path d="M4.53458 27.9062C4.04358 27.8561 3.62055 27.8135 3.15137 27.7651C3.19921 27.3166 3.24453 26.8991 3.29405 26.4365C3.74142 26.4774 4.15856 26.515 4.61768 26.5567C4.58998 27.0093 4.56396 27.4285 4.53458 27.9054V27.9062Z" fill="white"/>
<path d="M1.08889 20.9399C1.38517 21.2505 1.63277 21.5102 1.91395 21.805C1.63949 22.1316 1.36167 22.4622 1.04524 22.8389C0.687687 22.4664 0.366223 22.1316 0.00195312 21.7524C0.392242 21.461 0.740564 21.2004 1.08889 20.9399Z" fill="white"/>
<path d="M38.9139 20.9374C39.2547 21.1921 39.5963 21.4476 39.9941 21.7449C39.6483 22.1115 39.3235 22.4572 38.9635 22.8397C38.6495 22.4698 38.3751 22.1466 38.0889 21.8092C38.3642 21.5186 38.6269 21.2405 38.9148 20.9374H38.9139Z" fill="white"/>
<path d="M38.0869 36.1945C38.374 35.8563 38.6484 35.5323 38.9615 35.164C39.3165 35.5356 39.6372 35.8713 39.9998 36.2505C39.6103 36.5427 39.2628 36.8033 38.917 37.0613C38.6358 36.7674 38.3782 36.4985 38.0869 36.1937V36.1945Z" fill="white"/>
<path d="M0 36.2496C0.365948 35.8688 0.687412 35.5348 1.04245 35.1656C1.35552 35.5348 1.62914 35.8579 1.91284 36.192C1.63586 36.4834 1.37231 36.7615 1.08777 37.0613C0.745326 36.8058 0.403718 36.5511 0 36.2496Z" fill="white"/>
<path d="M38.2226 30.4232C38.6968 30.5117 39.103 30.5868 39.5621 30.672C39.4757 31.1188 39.3943 31.5422 39.307 31.9923C38.8588 31.9071 38.4441 31.8286 38.001 31.7451C38.0782 31.2866 38.1479 30.8716 38.2226 30.4232Z" fill="white"/>
<path d="M0.693359 31.994C0.602711 31.5297 0.523814 31.1272 0.436523 30.6796C0.889762 30.5944 1.31866 30.5142 1.77945 30.4274C1.85415 30.8741 1.92382 31.29 2.00188 31.7527C1.55955 31.8345 1.14492 31.9105 0.694198 31.994H0.693359Z" fill="white"/>
<path d="M39.5707 27.3233C39.1082 27.4102 38.6911 27.4887 38.2269 27.5755C38.1505 27.1413 38.0783 26.7287 37.9961 26.2619C38.4267 26.1767 38.8388 26.0957 39.2987 26.0056C39.3877 26.4365 39.4725 26.8482 39.5707 27.3242V27.3233Z" fill="white"/>
<path d="M1.78127 27.573C1.32719 27.4904 0.908365 27.4135 0.4375 27.3275C0.52479 26.8791 0.607884 26.4557 0.694335 26.0114C1.13582 26.0899 1.54206 26.1617 1.99614 26.2427C1.92396 26.692 1.85429 27.1179 1.78127 27.573Z" fill="white"/>
<path d="M32.7686 33.3627H34.1106C34.0863 33.8011 34.0645 34.2103 34.041 34.6462H32.7686V33.3627Z" fill="white"/>
<path d="M5.88574 33.3552H7.24714V34.6395H5.96632C5.94114 34.2337 5.91512 33.8145 5.88658 33.3552H5.88574Z" fill="white"/>
<path d="M7.24027 24.6393H5.89062C5.91413 24.2026 5.93595 23.7934 5.95945 23.3566H7.24027V24.6393Z" fill="white"/>
<path d="M34.1174 24.6477H32.7568V23.3633H34.0343C34.0603 23.7642 34.0872 24.1842 34.1174 24.6477Z" fill="white"/>
<path d="M5.94141 27.9689V26.6812H7.24741V27.9689H5.94141Z" fill="white"/>
<path d="M7.25142 30.0349V31.3175H5.95801V30.0349H7.25142Z" fill="white"/>
<path d="M32.7539 31.3259V30.0291H34.0498V31.3259H32.7539Z" fill="white"/>
<path d="M34.0505 26.6895V27.9589H32.7529V26.6895H34.0505Z" fill="white"/>
<path d="M20.0181 19.9988C18.1354 20.0004 16.6523 18.5248 16.6523 16.6509C16.6523 14.8095 18.1447 13.3339 20.0055 13.3356C21.8638 13.3372 23.3485 14.8137 23.3494 16.6601C23.3502 18.5123 21.8688 19.9971 20.0181 19.9988ZM22.0064 16.6567C21.998 15.5761 21.0899 14.6759 19.9996 14.6684C18.9278 14.6609 17.9919 15.5861 17.9911 16.6542C17.9902 17.7524 18.9253 18.6785 20.0189 18.6635C21.1075 18.6484 22.0148 17.7323 22.0064 16.6567Z" fill="white"/>
<path d="M27.3965 25.355H28.679V26.6386H27.3965V25.355Z" fill="white"/>
<path d="M26.0077 26.6469H24.7227V25.3617H26.0077V26.6469Z" fill="white"/>
<path d="M23.3344 25.3684V26.6394H22.0352V25.3684H23.3344Z" fill="white"/>
<path d="M19.3525 25.3517H20.6426V26.6419H19.3525V25.3517Z" fill="white"/>
<path d="M11.2988 29.3067V28.0356H12.599V29.3067H11.2988Z" fill="white"/>
<path d="M15.2879 28.0306V29.3125H14.0029V28.0306H15.2879Z" fill="white"/>
<path d="M16.668 29.3125V28.029H17.9647V29.3125H16.668Z" fill="white"/>
<path d="M20.6501 28.0248V29.3033H19.3584V28.0248H20.6501Z" fill="white"/>
<path d="M22.0283 29.3V28.0265H23.3284V29.3H22.0283Z" fill="white"/>
<path d="M24.7246 28.019H26.0063V29.3125H24.7246V28.019Z" fill="white"/>
<path d="M27.3887 29.3V28.0265H28.6888V29.3H27.3887Z" fill="white"/>
<path d="M16.6807 25.355H17.9665V26.6336H16.6807V25.355Z" fill="white"/>
<path d="M15.2896 25.3575V26.6361H13.9971V25.3575H15.2896Z" fill="white"/>
<path d="M11.3154 25.355H12.5979V26.6386H11.3154V25.355Z" fill="white"/>
<path d="M28.6904 23.983H27.4004V22.6927H28.6904V23.983Z" fill="white"/>
<path d="M12.602 31.9906H11.3262V30.6996H12.602V31.9906Z" fill="white"/>
<path d="M15.2854 31.9798H14.0029V30.6963H15.2854V31.9798Z" fill="white"/>
<path d="M16.667 31.9672V30.6937H17.9671V31.9672H16.667Z" fill="white"/>
<path d="M20.6463 31.9806H19.3613V30.6954H20.6463V31.9806Z" fill="white"/>
<path d="M22.0215 31.9648V30.7013H23.3216V31.9648H22.0215Z" fill="white"/>
<path d="M26.0061 31.9798H24.7236V30.6963H26.0061V31.9798Z" fill="white"/>
<path d="M27.3906 31.9781V30.6971H28.6857V31.9781H27.3906Z" fill="white"/>
<path d="M24.7012 23.9646V22.7011H26.0013V23.9646H24.7012Z" fill="white"/>
<path d="M12.6048 34.6462H11.3223V33.3627H12.6048V34.6462Z" fill="white"/>
<path d="M13.9893 34.6446V33.3635H15.2843V34.6446H13.9893Z" fill="white"/>
<path d="M16.6602 34.6404V33.3694H17.9603V34.6404H16.6602Z" fill="white"/>
<path d="M20.6437 34.6588H19.3662V33.3652H20.6437V34.6588Z" fill="white"/>
<path d="M22.0391 33.3444H23.3148V34.6354H22.0391V33.3444Z" fill="white"/>
<path d="M24.7227 33.3535H26.0068V34.632H24.7227V33.3535Z" fill="white"/>
<path d="M28.6868 34.6462H27.4043V33.3627H28.6868V34.6462Z" fill="white"/>
<path d="M23.3333 22.7011V23.9746H22.0332V22.7011H23.3333Z" fill="white"/>
<path d="M20.6538 22.702V23.973H19.3545V22.702H20.6538Z" fill="white"/>
<path d="M17.9545 23.9897H16.6846V22.6961H17.9545V23.9897Z" fill="white"/>
<path d="M13.9912 23.9771V22.6986H15.2829V23.9771H13.9912Z" fill="white"/>
<path d="M12.5999 23.9788H11.3115V22.7003H12.5999V23.9788Z" fill="white"/>
<path d="M20.004 9.33796C18.2229 9.33044 16.467 9.1367 14.8236 8.41101C14.2621 8.16299 13.7124 7.81476 13.265 7.39721C12.3845 6.57632 12.4106 5.45813 13.2482 4.59381C13.97 3.84975 14.8958 3.45809 15.8711 3.20422C18.9355 2.40838 21.9924 2.39752 24.9846 3.5132C25.63 3.75371 26.2536 4.16708 26.7614 4.63473C27.6167 5.42222 27.5831 6.52872 26.7807 7.37299C25.9616 8.23481 24.8897 8.65486 23.7675 8.88618C22.5329 9.14004 21.2714 9.26531 20.0216 9.44736C20.0157 9.41061 20.0099 9.37387 20.0031 9.33712L20.004 9.33796ZM19.4861 3.97584C18.8382 4.07188 17.6681 4.17376 16.5375 4.43848C15.8098 4.60884 15.0964 4.94872 14.4535 5.33871C13.7921 5.73956 13.8156 6.22892 14.456 6.67653C14.8488 6.95127 15.2979 7.16338 15.7469 7.33625C16.8481 7.75964 18.0089 7.91079 19.1798 7.97092C20.918 8.06027 22.637 7.92833 24.2804 7.32289C24.8041 7.12998 25.3035 6.8235 25.7492 6.48446C26.1504 6.17881 26.1361 5.83309 25.745 5.50323C25.421 5.23015 25.0467 4.99549 24.6589 4.8243C23.18 4.16959 21.5979 4.04516 19.4861 3.97501V3.97584Z" fill="white"/>
</g>
<defs>
<clipPath id="clip0_1_494">
<rect width="40" height="40" fill="white"/>
</clipPath>
</defs>
</svg>
