<svg width="45" height="45" viewBox="0 0 45 45" fill="none" xmlns="http://www.w3.org/2000/svg">
<g clip-path="url(#clip0_1_481)">
<path d="M20.2246 45C19.7555 44.7579 19.6023 44.3767 19.6041 43.8493C19.619 39.4409 19.6129 35.0326 19.6129 30.6251C19.6129 30.4517 19.6129 30.2791 19.6129 30.081H14.2762C14.2762 30.2483 14.2762 30.405 14.2762 30.5617C14.2762 31.7917 14.2692 33.0225 14.2789 34.2525C14.2824 34.6892 14.1486 35.0379 13.7323 35.2131C13.3186 35.3874 12.9771 35.2448 12.6628 34.9393C8.58841 30.9808 4.50783 27.0285 0.43076 23.0736C-0.146649 22.5136 -0.144008 22.0708 0.441322 21.5029C4.50695 17.5568 8.57609 13.6133 12.6382 9.66456C12.963 9.34848 13.3098 9.1988 13.7437 9.38017C14.1697 9.55802 14.2806 9.9146 14.278 10.3451C14.2701 11.561 14.2754 12.776 14.2754 13.9919C14.2754 14.1495 14.2754 14.3062 14.2754 14.4885H19.612V13.9523C19.612 9.64695 19.612 5.34073 19.612 1.0354C19.612 0.387394 19.9394 0.00440407 20.4851 0.000882324C20.9569 -0.00263942 21.3222 0.328405 21.3618 0.80208C21.3724 0.933265 21.368 1.06533 21.368 1.1974C21.368 15.4032 21.3662 29.6091 21.3759 43.8149C21.3759 44.3511 21.2544 44.7614 20.7492 45.0018H20.222L20.2246 45ZM2.16915 22.2918C5.60983 25.6278 9.01707 28.9303 12.5026 32.3085C12.5026 31.2581 12.5009 30.3258 12.5026 29.3925C12.5044 28.6116 12.8142 28.2981 13.5888 28.2972C15.4328 28.2946 17.2768 28.2972 19.1217 28.2972C19.2766 28.2972 19.4307 28.2972 19.5917 28.2972V16.2951C18.9606 16.2951 18.3489 16.2951 17.7372 16.2951C16.3324 16.2951 14.9267 16.3022 13.5219 16.2916C12.8318 16.2863 12.5123 15.9465 12.5035 15.2553C12.5009 15.0361 12.5035 14.816 12.5035 14.5968C12.5035 13.859 12.5035 13.1211 12.5035 12.2742C9.01707 15.6542 5.61599 18.9514 2.17003 22.2918H2.16915Z" fill="white"/>
<path d="M45.0002 35.5071C44.472 36.2502 44.0601 36.3048 43.3366 35.7352C40.6986 33.6565 37.6734 32.3798 34.4677 31.4923C31.6441 30.7105 28.7632 30.2615 25.8383 30.0933C25.7978 30.0907 25.7564 30.1039 25.6684 30.1171C25.6684 30.2897 25.6684 30.4613 25.6684 30.633C25.6684 35.0229 25.6614 39.4136 25.6763 43.8035C25.6781 44.3397 25.5452 44.7464 25.0567 45H24.4414C24.0101 44.6962 23.8966 44.2833 23.8975 43.7612C23.9098 33.3219 23.9071 22.8817 23.9071 12.4423C23.9071 12.3543 23.9063 12.2662 23.9071 12.1791C23.9203 11.5883 24.2892 11.1763 24.7909 11.1912C25.3067 11.2062 25.6596 11.605 25.6649 12.2002C25.6719 12.9283 25.6667 13.6556 25.6667 14.448C26.5451 14.3722 27.3734 14.3238 28.1955 14.227C31.1177 13.881 33.9889 13.2955 36.7659 12.3015C39.1178 11.4598 41.3368 10.3627 43.3084 8.80436C44.0381 8.22768 44.3963 8.26553 44.9993 8.96284V9.57827C44.6129 9.9278 44.2537 10.3143 43.8357 10.6198C40.8403 12.813 37.4507 14.1275 33.8798 15.0167C31.3501 15.6462 28.7826 16.0424 26.1772 16.1754C26.0196 16.1833 25.8621 16.2097 25.6887 16.23V28.2805C26.4553 28.3474 27.2228 28.3976 27.9869 28.483C33.312 29.0747 38.4216 30.3539 42.9827 33.3096C43.6966 33.7727 44.3294 34.3617 44.9993 34.8917V35.5071H45.0002Z" fill="white"/>
<path d="M25.6679 2.65014C25.6679 3.18985 25.6723 3.73044 25.6679 4.27014C25.6617 4.84771 25.2868 5.26063 24.7807 5.25535C24.2869 5.25095 23.9172 4.85475 23.9137 4.30008C23.9058 3.17576 23.9031 2.05232 23.911 0.928006C23.9154 0.356603 24.2702 -0.00349615 24.7904 2.5599e-05C25.3017 0.00354735 25.6573 0.377733 25.6653 0.942093C25.6741 1.51174 25.667 2.0805 25.6679 2.65014Z" fill="white"/>
<path d="M24.7823 8.89241C24.2709 8.88888 23.9012 8.50677 23.9144 7.99612C23.9267 7.5198 24.3219 7.12801 24.7867 7.13329C25.2488 7.13858 25.6572 7.54182 25.6651 8.0014C25.6739 8.50061 25.2813 8.89593 24.7823 8.89241Z" fill="white"/>
<path d="M30.1008 20.3918C29.512 20.2104 28.9442 20.0784 28.4108 19.86C27.9047 19.6531 27.7375 19.1548 27.9382 18.7014C28.1309 18.2647 28.5834 18.0595 29.0754 18.2427C29.7804 18.5059 30.4626 18.5121 31.1676 18.2418C31.65 18.0578 32.1244 18.2752 32.3048 18.704C32.4967 19.1601 32.3242 19.661 31.8198 19.8627C31.2715 20.0819 30.6888 20.2148 30.1017 20.3918H30.1008Z" fill="white"/>
<path d="M37.1738 16.8287C37.1747 16.4008 37.43 16.0795 37.8516 15.9756C38.2503 15.8769 38.6394 16.0592 38.8374 16.4448C38.9641 16.6914 39.0275 16.996 39.2132 17.1791C39.5028 17.4653 39.8452 17.732 40.214 17.8958C40.8759 18.1881 41.0845 18.9338 40.5599 19.4145C40.4226 19.5396 40.1955 19.6399 40.0151 19.6311C38.7283 19.5721 37.3199 18.2286 37.1818 16.9599C37.1774 16.9159 37.1765 16.8718 37.1747 16.8287H37.1738Z" fill="white"/>
<path d="M32.1108 26.2415C32.1328 26.6368 31.8881 27.0171 31.5342 27.136C31.1285 27.2733 30.6567 27.1272 30.4798 26.731C30.1462 25.9879 29.6418 25.4544 28.8901 25.1198C28.4509 24.9243 28.3092 24.4603 28.4711 24.0474C28.6322 23.6371 29.0257 23.4091 29.449 23.4804C30.559 23.6679 31.9013 25.0045 32.0905 26.1103C32.0976 26.1534 32.1046 26.1974 32.1116 26.2406L32.1108 26.2415Z" fill="white"/>
<path d="M38.4844 27.172C38.5196 27.0655 38.5742 26.8392 38.6648 26.6279C39.1252 25.5609 39.9165 24.8521 41.0229 24.5026C41.4876 24.3555 41.9163 24.5536 42.1081 24.9815C42.2965 25.4015 42.1539 25.9051 41.7147 26.0962C40.9639 26.421 40.4322 26.9176 40.1295 27.6889C39.9772 28.0771 39.5468 28.2268 39.134 28.1264C38.7511 28.0331 38.4941 27.703 38.4853 27.1712L38.4844 27.172Z" fill="white"/>
<path d="M36.4121 22.5621C36.2818 23.1053 36.1955 23.6556 36.0142 24.1733C35.8197 24.7306 35.2986 24.9375 34.8163 24.7306C34.3357 24.5255 34.1579 24.0166 34.3991 23.4813C34.6754 22.8685 34.6323 22.2636 34.4079 21.6508C34.1843 21.0407 34.3445 20.5573 34.8277 20.3557C35.325 20.1488 35.8461 20.3909 36.06 21.0116C36.229 21.502 36.2959 22.0277 36.413 22.5612L36.4121 22.5621Z" fill="white"/>
</g>
<defs>
<clipPath id="clip0_1_481">
<rect width="45" height="45" fill="white"/>
</clipPath>
</defs>
</svg>
