<svg width="45" height="41" viewBox="0 0 45 41" fill="none" xmlns="http://www.w3.org/2000/svg">
<g clip-path="url(#clip0_1_622)">
<path d="M14.7164 40.3846C14.3434 40.138 14.2382 39.7929 14.241 39.3503C14.2569 36.5129 14.2494 33.6754 14.2494 30.838C14.2494 30.6673 14.2494 30.4976 14.2494 30.3354C13.449 30.1019 13.1192 29.7455 13.1258 29.1417C13.1323 28.5519 13.4828 28.1862 14.2259 28.0005V26.2001C12.1684 25.931 11.2505 25.0983 11.2608 23.5249C11.2702 21.9561 12.2182 21.1084 14.2494 20.8928V20.3517C14.2494 13.9285 14.2654 7.50438 14.2335 1.08117C14.2278 0.0412719 14.8338 -0.16127 15.5882 0.106911C20.3563 1.80226 25.1394 3.45542 29.9177 5.1217C30.6609 5.3805 30.7473 5.50428 30.7483 6.31069C30.7483 8.91373 30.7483 11.5158 30.7483 14.1554H38.7013C38.349 13.8244 38.0615 13.5731 37.7956 13.3012C37.432 12.9308 37.4094 12.5023 37.7138 12.1825C38.0295 11.8506 38.4852 11.8665 38.8694 12.2435C39.5713 12.9318 40.2684 13.6256 40.9571 14.327C41.3686 14.7462 41.3676 15.1297 40.9542 15.5507C40.2543 16.2634 39.5468 16.9685 38.8328 17.6671C38.4702 18.0216 38.0201 18.0309 37.7101 17.7196C37.4019 17.4102 37.4235 16.9666 37.7693 16.5991C37.9083 16.4509 38.0511 16.3074 38.2005 16.1696C38.3358 16.044 38.4814 15.9277 38.6233 15.8077C38.6073 15.7673 38.5904 15.7261 38.5744 15.6858H38.0925C34.4518 15.6858 30.8112 15.6858 27.1706 15.6858C26.6153 15.6858 26.3025 15.456 26.2564 15.0266C26.2066 14.553 26.5261 14.2033 27.0419 14.1958C27.7578 14.1854 28.4746 14.1929 29.2234 14.1929C29.2347 14.0307 29.2507 13.8957 29.2516 13.7616C29.2535 11.4849 29.2469 9.20911 29.2591 6.93238C29.261 6.6267 29.1934 6.46448 28.8796 6.3557C24.6254 4.88352 20.376 3.39728 16.1247 1.91572C16.0251 1.88103 15.9208 1.85759 15.7799 1.81726V38.5467C16.0993 38.4417 16.4056 38.3451 16.7091 38.2401C20.7396 36.8345 24.7673 35.4223 28.8016 34.0289C29.1595 33.9052 29.2657 33.7401 29.2629 33.366C29.2432 31.1361 29.2535 28.9072 29.2535 26.6774V26.1635C28.5366 26.1635 27.8546 26.1654 27.1725 26.1635C26.574 26.1617 26.2517 25.8954 26.2546 25.4125C26.2574 24.9305 26.5768 24.6717 27.1809 24.6717C30.8056 24.6707 34.4312 24.6717 38.0558 24.6717H38.7041C38.3461 24.3238 38.0784 24.0744 37.8219 23.8137C37.4367 23.4217 37.4019 22.9857 37.7176 22.6594C38.0361 22.3303 38.488 22.3481 38.8732 22.7288C39.5731 23.4199 40.2703 24.1128 40.9533 24.8198C41.3751 25.2568 41.3686 25.6103 40.9486 26.037C40.259 26.7374 39.5628 27.4323 38.8601 28.1196C38.4908 28.4806 38.0558 28.5003 37.7373 28.1955C37.4066 27.8795 37.4235 27.4257 37.8059 27.045C38.069 26.7834 38.3584 26.548 38.6355 26.3014C38.612 26.2667 38.5885 26.2329 38.565 26.1982H30.7483C30.7483 26.3483 30.7483 26.5124 30.7483 26.6765C30.7483 29.1398 30.7483 31.6031 30.7483 34.0664C30.7483 34.856 30.6618 34.9722 29.8971 35.2386C25.1628 36.8908 20.4296 38.543 15.6963 40.198C15.5525 40.2477 15.4182 40.3237 15.2791 40.3865H14.7164V40.3846ZM14.2494 23.5446C14.2494 23.328 14.2288 23.1085 14.2541 22.8947C14.3049 22.4625 14.07 22.3875 13.7224 22.44C13.1746 22.5234 12.7584 22.9895 12.7462 23.523C12.734 24.0725 13.1558 24.561 13.7242 24.6501C14.0784 24.7064 14.303 24.622 14.2532 24.1944C14.2288 23.9806 14.2485 23.7612 14.2485 23.5446H14.2494Z" fill="white"/>
<path d="M44.9996 20.4577C44.2019 21.2669 43.4081 22.0808 42.6038 22.8835C42.2233 23.2623 41.7648 23.2764 41.4482 22.9482C41.1466 22.6341 41.1701 22.1952 41.5281 21.8295C41.7968 21.5548 42.0843 21.2979 42.3182 20.9246H41.8268C35.7529 20.9246 29.678 20.9246 23.604 20.9246C23.448 20.9246 23.2902 20.9359 23.1361 20.9162C22.7575 20.8665 22.4982 20.5543 22.501 20.1726C22.5038 19.791 22.7669 19.4844 23.1474 19.4393C23.3015 19.4215 23.4593 19.4318 23.6153 19.4318C29.6742 19.4318 35.7322 19.4318 41.7911 19.4318H42.4131C42.0805 19.0933 41.8128 18.8261 41.5516 18.5532C41.1776 18.1622 41.1542 17.7177 41.4849 17.3999C41.8034 17.0942 42.2402 17.1101 42.6057 17.4739C43.4099 18.2747 44.2019 19.0886 44.9996 19.8969V20.4586V20.4577Z" fill="white"/>
<path d="M2.24899 22.7775C2.25275 20.9022 3.76349 19.4206 5.66319 19.43C7.5178 19.4394 8.99848 20.9434 8.99472 22.8132C8.99096 24.6895 7.47928 26.1711 5.57958 26.1617C3.72685 26.1523 2.2443 24.6454 2.24805 22.7775H2.24899ZM7.49619 22.8179C7.51216 21.8098 6.64875 20.9331 5.63313 20.9256C4.6363 20.9181 3.7804 21.747 3.74846 22.7494C3.71652 23.7518 4.5696 24.6407 5.58803 24.6661C6.59332 24.6904 7.48022 23.8315 7.49619 22.8179Z" fill="white"/>
<path d="M4.88442 8.95221C6.35477 8.95503 7.50473 10.1225 7.49534 11.605C7.48688 13.0434 6.31625 14.1902 4.85906 14.1874C3.38965 14.1845 2.23969 13.0152 2.24908 11.5337C2.25754 10.0934 3.42536 8.9494 4.88442 8.95221ZM4.90979 10.4506C4.33105 10.4263 3.79365 10.9176 3.75325 11.5084C3.71285 12.1001 4.22864 12.6617 4.83463 12.688C5.43028 12.7133 5.98366 12.1863 5.99305 11.5834C6.00245 11.0039 5.49699 10.476 4.90885 10.4506H4.90979Z" fill="white"/>
<path d="M10.4966 29.8993C10.4985 31.1605 9.50633 32.1507 8.24362 32.1498C6.98467 32.1488 5.9963 31.153 6.00099 29.889C6.00475 28.655 6.99406 27.6676 8.23046 27.6629C9.49881 27.6582 10.4956 28.6409 10.4966 29.8993ZM8.26711 30.6504C8.65513 30.6382 9.00557 30.2706 8.99429 29.8871C8.98208 29.4989 8.61473 29.1501 8.23046 29.1614C7.84057 29.1735 7.49201 29.5392 7.50422 29.9237C7.51549 30.3119 7.88378 30.6607 8.26805 30.6495L8.26711 30.6504Z" fill="white"/>
<path d="M10.8621 18.678C9.81832 18.6742 9 17.8537 9 16.8091C9 15.7448 9.83147 14.9291 10.9063 14.9394C11.9444 14.9497 12.7524 15.7805 12.7459 16.8298C12.7393 17.8678 11.9106 18.6808 10.8621 18.677V18.678ZM10.8631 16.285C10.6968 16.5278 10.5183 16.6741 10.5305 16.8016C10.5436 16.9357 10.739 17.052 10.8555 17.1767C10.9824 17.0482 11.1825 16.9338 11.2135 16.7857C11.236 16.676 11.0387 16.5213 10.864 16.285H10.8631Z" fill="white"/>
<path d="M11.5994 10.4497C12.2317 10.4394 12.7343 10.9213 12.7447 11.5459C12.755 12.1741 12.2702 12.6786 11.6464 12.6898C11.0178 12.7011 10.5105 12.2154 10.5002 11.5927C10.4898 10.9626 10.9727 10.46 11.5994 10.4497Z" fill="white"/>
<path d="M1.12555 18.677C0.497949 18.6789 0.00188439 18.1866 5.36091e-06 17.5602C-0.00187367 16.932 0.490433 16.4387 1.11991 16.4378C1.74938 16.4369 2.24357 16.9273 2.24451 17.5546C2.24545 18.1819 1.75314 18.6761 1.12555 18.678V18.677Z" fill="white"/>
</g>
<defs>
<clipPath id="clip0_1_622">
<rect width="45" height="40.3846" fill="white"/>
</clipPath>
</defs>
</svg>
