<svg width="44" height="41" viewBox="0 0 44 41" fill="none" xmlns="http://www.w3.org/2000/svg">
<g clip-path="url(#clip0_1_464)">
<path d="M44.0002 21.0458C43.9417 21.2156 43.8738 21.3837 43.8265 21.5569C42.9716 24.6756 39.9771 26.7954 36.7503 26.5364C36.1715 26.4901 35.5953 26.3624 35.0285 26.2277C34.7972 26.1729 34.6845 26.2054 34.5211 26.3769C34.1083 26.8091 33.6749 27.2259 33.2148 27.6066C32.8458 27.9119 32.4408 27.8527 32.1905 27.5303C31.9523 27.2216 32.0512 26.8297 32.3711 26.5107C32.882 26.0005 33.3765 25.4706 33.8426 24.92C34.1462 24.5616 34.3827 24.4913 34.8927 24.6979C36.9206 25.5229 38.8659 25.3651 40.592 24.0034C42.4238 22.5576 43.08 20.5973 42.4943 18.3541C41.919 16.1512 40.4226 14.7997 38.1581 14.3564C37.3901 14.2063 37.2164 14.04 37.3059 13.2785C37.6499 10.3441 36.9533 7.68328 35.0827 5.39716C32.6644 2.44219 29.4944 1.12163 25.6862 1.51609C22.1258 1.88481 19.4752 3.71388 17.6847 6.79233C17.2985 7.4569 17.0285 7.53922 16.3723 7.16706C13.0165 5.26168 8.85232 7.19536 8.24257 10.995C8.12303 11.7419 8.26493 12.5556 8.41286 13.3145C8.58056 14.178 8.27869 14.5579 7.41868 14.3684C4.65374 13.7604 1.96706 15.5338 1.43385 18.3198C0.92386 20.9849 2.79611 23.6664 5.49569 24.1363C5.66425 24.1654 5.83282 24.198 6.0031 24.216C6.50793 24.2675 6.79603 24.5367 6.77625 24.9483C6.75647 25.3771 6.43396 25.6103 5.89302 25.5855C3.27944 25.468 0.689076 23.3405 0.155868 20.7071C-0.772087 16.1229 2.55789 12.8583 6.44256 12.848C6.55523 12.848 6.66703 12.848 6.82011 12.848C6.54835 10.1546 7.41352 7.92938 9.61257 6.343C11.8065 4.76004 14.1887 4.68372 16.6157 5.7093C20.1968 0.748618 24.9483 -1.2408 30.7921 0.783775C36.4364 2.73889 38.8831 7.13019 38.7997 12.9389C39.5625 13.3171 40.3658 13.6267 41.0727 14.0854C42.5605 15.0518 43.4687 16.4582 43.9056 18.1706C43.9254 18.2478 43.9684 18.3181 44.0002 18.3918V21.0458Z" fill="white"/>
<path d="M24.5885 29.1742C27.6071 29.1742 30.6258 29.1424 33.6436 29.1853C35.693 29.2145 37.4809 30.8969 37.7209 32.9035C37.978 35.0584 36.6226 37.0932 34.5646 37.6412C31.9037 38.3503 29.3194 36.4947 29.0924 33.7129C29.0494 33.1813 29.3099 32.8091 29.7451 32.7825C30.1579 32.7577 30.4718 33.0604 30.4864 33.5946C30.5217 34.94 31.5933 36.0668 32.7096 36.3129C33.8732 36.5693 34.8768 36.2735 35.6474 35.3722C36.4266 34.4598 36.6054 33.406 36.1041 32.2998C35.6164 31.2236 34.7513 30.5908 33.5627 30.5556C31.9192 30.5067 30.2732 30.541 28.628 30.541C24.2221 30.541 19.8163 30.541 15.4096 30.541C14.8523 30.541 14.5581 30.3095 14.5444 29.8722C14.5323 29.4983 14.7714 29.2153 15.1481 29.1742C15.3038 29.157 15.462 29.163 15.6194 29.163C18.6088 29.163 21.5991 29.163 24.5885 29.163C24.5885 29.1673 24.5885 29.1716 24.5885 29.175V29.1742Z" fill="white"/>
<path d="M16.4531 27.1933C13.6925 27.1933 10.9327 27.1933 8.17203 27.1933C8.05765 27.1933 7.94241 27.1993 7.82889 27.1899C7.40748 27.1539 7.10303 26.8537 7.10647 26.4841C7.10991 26.1266 7.392 25.8427 7.79965 25.7999C7.95531 25.7836 8.11355 25.7913 8.27093 25.7913C13.72 25.7913 19.1699 25.793 24.6189 25.7896C26.1188 25.7887 27.2359 25.0332 27.6384 23.7333C27.9971 22.5739 27.7107 21.5535 26.8352 20.7294C25.97 19.9156 24.9294 19.6918 23.8183 20.1197C22.7037 20.5485 22.0509 21.3846 21.9193 22.5911C21.9099 22.676 21.909 22.7626 21.897 22.8466C21.8282 23.3225 21.5556 23.5678 21.1359 23.5352C20.7342 23.5035 20.4762 23.1862 20.5038 22.7223C20.5751 21.5003 21.0481 20.4619 21.9684 19.6421C23.3513 18.4099 25.3603 18.1938 26.9547 19.0959C28.5475 19.9971 29.4445 21.8665 29.1108 23.5858C28.7418 25.4834 27.2841 26.8855 25.4179 27.1273C25.1212 27.1659 24.8202 27.1899 24.5209 27.1899C21.8316 27.195 19.1432 27.1924 16.454 27.1924L16.4531 27.1933Z" fill="white"/>
<path d="M15.2417 32.7808C17.9026 32.7808 20.5634 32.7688 23.2235 32.7851C25.321 32.798 26.9843 34.2823 27.2715 36.3566C27.607 38.7714 25.8078 40.9126 23.3731 40.9974C21.0373 41.0789 19.221 39.4316 19.0756 37.1001C19.0429 36.5779 19.288 36.2357 19.7146 36.2074C20.1291 36.18 20.431 36.505 20.4645 37.0143C20.5695 38.5973 21.7425 39.6692 23.3224 39.6254C24.7078 39.5868 25.8302 38.4875 25.9084 37.0915C25.9918 35.6097 25.0381 34.4066 23.6191 34.2146C23.3507 34.1785 23.0781 34.1623 22.8072 34.1614C17.6575 34.158 12.5077 34.1588 7.35794 34.1588C7.20056 34.1588 7.04231 34.164 6.88579 34.152C6.49534 34.122 6.23992 33.8647 6.22702 33.5011C6.21412 33.1212 6.4747 32.8263 6.87117 32.7851C6.99845 32.7714 7.12831 32.78 7.25732 32.78C9.9182 32.78 12.5782 32.78 15.2391 32.78L15.2417 32.7808Z" fill="white"/>
</g>
<defs>
<clipPath id="clip0_1_464">
<rect width="44" height="41" fill="white"/>
</clipPath>
</defs>
</svg>
