<svg width="45" height="45" viewBox="0 0 45 45" fill="none" xmlns="http://www.w3.org/2000/svg">
<g clip-path="url(#clip0_1_419)">
<path d="M13.9834 45C13.6069 44.755 13.4801 44.4085 13.5102 43.9643C13.5402 43.5136 13.5026 43.0582 13.5205 42.6065C13.5411 42.0732 13.4961 41.6093 13.1092 41.1501C12.8613 40.8553 12.7815 40.3426 12.7806 39.9275C12.7627 32.1357 12.7674 24.3438 12.7674 16.5519C12.7674 14.5067 12.7656 12.4607 12.7674 10.4155C12.7693 9.13094 13.6266 8.26236 14.8989 8.26142C19.9731 8.25954 25.0463 8.25954 30.1205 8.26142C31.3918 8.26142 32.2529 9.13094 32.2529 10.4146C32.2548 20.2835 32.2529 30.1515 32.2576 40.0205C32.2576 40.583 32.0782 41.0487 31.7083 41.4666C31.5984 41.5905 31.5186 41.7849 31.513 41.9492C31.4914 42.6197 31.482 43.2929 31.512 43.9624C31.5318 44.4066 31.4134 44.7521 31.0379 44.9982H13.9834V45ZM14.2632 25.2283C14.2632 30.0839 14.2632 34.9405 14.2632 39.7961C14.2632 40.4177 14.3458 40.5013 14.9599 40.5013C19.9872 40.5013 25.0134 40.5013 30.0407 40.5013C30.682 40.5013 30.759 40.4224 30.759 39.7679C30.759 30.0717 30.759 20.3746 30.759 10.6784C30.759 9.91219 30.6012 9.75632 29.8266 9.75632C24.9562 9.75632 20.0848 9.75632 15.2144 9.75632C14.4088 9.75632 14.2632 9.90092 14.2632 10.7066C14.2632 15.5472 14.2632 20.3877 14.2632 25.2283ZM15.0341 43.4685H29.9712V42.0224H15.0341V43.4685Z" fill="white"/>
<path d="M45.0006 38.9078C44.9349 39.0956 44.8729 39.2843 44.8035 39.4693C44.2579 40.9107 43.2204 41.7896 41.6983 41.9717C40.1762 42.1539 38.9593 41.5473 38.0889 40.274C37.8786 39.966 37.7697 39.6083 38.0551 39.3331C38.241 39.1538 38.58 39.0073 38.8185 39.0458C39.0457 39.0815 39.2617 39.3519 39.4307 39.5613C39.9725 40.2318 40.6589 40.5811 41.5152 40.4712C42.4251 40.3538 43.0673 39.8383 43.3697 38.9632C43.8833 37.4767 42.7884 36.0156 41.1462 36.0044C38.9922 35.9903 36.8382 36.0053 34.6842 35.9931C34.4636 35.9921 34.1565 35.9555 34.0448 35.8128C33.8842 35.609 33.7734 35.2794 33.8082 35.0268C33.856 34.6766 34.1621 34.5029 34.5368 34.5038C35.7697 34.5066 37.0025 34.5038 38.2363 34.5038C39.2194 34.5038 40.2035 34.5019 41.1866 34.5038C43.0175 34.5076 44.442 35.6147 44.9067 37.3913C44.9255 37.4626 44.9687 37.5274 45.0016 37.595V38.9068L45.0006 38.9078Z" fill="white"/>
<path d="M45.0002 26.911C44.9795 26.9335 44.9476 26.9523 44.9401 26.9795C44.2884 29.1017 43.0725 30.0022 40.8556 30.0022C38.7795 30.0022 36.7044 30.0041 34.6283 30.0013C34.0443 30.0013 33.7016 29.6585 33.7617 29.1562C33.8114 28.7421 34.1194 28.5082 34.6377 28.5073C36.7917 28.5054 38.9448 28.5111 41.0988 28.5045C42.2603 28.5007 43.1523 27.8462 43.4124 26.8302C43.6809 25.7804 43.1908 24.709 42.2293 24.2423C41.2621 23.7738 40.126 24.048 39.4631 24.91C38.9917 25.5231 38.6067 25.6593 38.2039 25.3551C37.7776 25.033 37.788 24.5691 38.2781 23.9653C39.2105 22.8179 40.4255 22.3089 41.8819 22.5615C43.418 22.8282 44.4021 23.7757 44.8772 25.2574C44.9138 25.372 44.9598 25.4846 45.0011 25.5983V26.9101L45.0002 26.911Z" fill="white"/>
<path d="M6.98701 34.5048C8.11096 34.5048 9.2349 34.5029 10.3579 34.5048C10.9485 34.5057 11.2725 34.7837 11.2621 35.2691C11.2527 35.7349 10.9363 35.9987 10.3701 35.9987C8.21612 36.0006 6.06213 35.995 3.90814 36.0015C2.73161 36.0053 1.84617 36.6804 1.59922 37.7349C1.35697 38.7735 1.8518 39.8111 2.80579 40.2656C3.76635 40.7229 4.87528 40.4609 5.53725 39.6195C5.60485 39.5341 5.65837 39.4374 5.72598 39.3519C6.02457 38.9688 6.43584 38.8843 6.79171 39.1303C7.14382 39.3726 7.22739 39.7933 6.97105 40.2027C6.31753 41.2468 5.36917 41.8666 4.14758 41.9811C2.08654 42.1746 0.28842 40.7276 0.0377162 38.7256C-0.214866 36.7142 1.1579 34.84 3.19922 34.5527C4.11847 34.4231 5.06776 34.5113 6.00391 34.5029C6.33161 34.5001 6.65931 34.5029 6.98701 34.5029V34.5048Z" fill="white"/>
<path d="M6.90837 30.0022C5.84734 30.0022 4.78537 30.0069 3.72433 30.0013C1.90649 29.9909 0.414475 28.7111 0.0604839 26.8688C-0.257826 25.2105 0.729029 23.4461 2.34687 22.7831C3.99945 22.1052 5.90837 22.6874 6.88865 24.1672C7.21354 24.6583 7.19851 25.0424 6.84358 25.3354C6.46706 25.6462 6.00415 25.5372 5.65391 25.0546C4.95814 24.094 3.91494 23.7672 2.90649 24.1916C1.96847 24.587 1.37879 25.6227 1.5525 26.5711C1.76659 27.7392 2.63983 28.4951 3.84452 28.5026C6.01447 28.5167 8.18443 28.4979 10.3534 28.5195C10.6051 28.5223 10.9412 28.6284 11.0821 28.8087C11.2201 28.9853 11.2652 29.3768 11.1591 29.5665C11.0417 29.7759 10.7112 29.975 10.4661 29.9844C9.28114 30.0266 8.09429 30.0032 6.90743 30.0032L6.90837 30.0022Z" fill="white"/>
<path d="M20.2598 3.99458C20.2598 4.63404 20.2645 5.27351 20.2598 5.91297C20.2551 6.436 19.979 6.74775 19.5293 6.7562C19.0589 6.76559 18.7687 6.44727 18.7668 5.89795C18.7621 4.71292 18.7725 3.52696 18.7612 2.34193C18.7565 1.879 18.4805 1.54941 18.0851 1.52406C17.6974 1.4987 17.4091 1.68838 17.3171 2.06586C17.2739 2.24427 17.3255 2.46212 17.3828 2.64711C17.5396 3.1476 17.411 3.53447 17.0006 3.70537C16.5969 3.87345 16.2006 3.6894 15.9772 3.22929C15.5847 2.42268 15.733 1.42546 16.3462 0.74468C16.949 0.0751689 17.9321 -0.168034 18.7847 0.140899C19.641 0.45171 20.2429 1.27052 20.2589 2.17009C20.2701 2.77857 20.2607 3.38704 20.2617 3.99458H20.2598Z" fill="white"/>
<path d="M24.7606 4.02084C24.7606 3.42833 24.7559 2.83488 24.7616 2.24237C24.77 1.31087 25.3127 0.501449 26.1728 0.173736C27.0742 -0.16994 27.894 2.00211e-05 28.5907 0.662958C29.2517 1.29209 29.4367 2.27335 29.0864 3.12128C28.8639 3.65933 28.4761 3.88281 28.0404 3.72318C27.6048 3.56355 27.4564 3.14757 27.6714 2.59168C27.7991 2.26021 27.7803 1.94188 27.5052 1.74657C27.3165 1.61229 27.0151 1.54375 26.7869 1.58131C26.4226 1.6414 26.263 1.95597 26.2602 2.31467C26.2517 3.46965 26.2564 4.62369 26.2555 5.77867C26.2555 6.42564 26.0085 6.75147 25.5184 6.75805C25.0207 6.76462 24.7616 6.43972 24.7597 5.8012C24.7587 5.20869 24.7597 4.61524 24.7597 4.02272L24.7606 4.02084Z" fill="white"/>
<path d="M40.9066 31.5055C41.5 31.5055 42.0934 31.499 42.6869 31.5074C43.1977 31.514 43.5075 31.8145 43.4972 32.2718C43.4878 32.7065 43.1826 32.9967 42.6963 32.9995C41.4784 33.007 40.2596 33.007 39.0418 32.9995C38.561 32.9967 38.2578 32.6953 38.2559 32.2586C38.2531 31.8192 38.5545 31.5168 39.0324 31.5093C39.6568 31.499 40.2822 31.5065 40.9066 31.5065V31.5055Z" fill="white"/>
<path d="M4.1826 31.5056C4.77603 31.5056 5.36946 31.499 5.96288 31.5074C6.44927 31.514 6.75443 31.7985 6.76476 32.2333C6.77603 32.6943 6.46899 32.9958 5.95537 32.9986C4.75255 33.0061 3.55068 33.0051 2.34786 32.9986C1.83143 32.9958 1.52157 32.7037 1.52345 32.2483C1.52532 31.7957 1.83706 31.5112 2.35537 31.5065C2.96476 31.4999 3.57321 31.5046 4.1826 31.5056Z" fill="white"/>
<path d="M21.763 1.86205C21.763 1.50241 21.7546 1.14371 21.7649 0.784068C21.779 0.30893 22.0823 0.00750938 22.5217 0.0140824C22.9386 0.0197165 23.2466 0.314564 23.2541 0.760592C23.2672 1.50992 23.2672 2.26019 23.2541 3.00951C23.2466 3.45554 22.9386 3.75039 22.5217 3.75696C22.0832 3.76353 21.779 3.46024 21.7649 2.98604C21.7546 2.61137 21.763 2.23671 21.763 1.86111V1.86205Z" fill="white"/>
<path d="M9.78889 31.5065C10.0387 31.5065 10.2894 31.4953 10.5382 31.5093C10.9767 31.5328 11.2678 31.8446 11.2621 32.2643C11.2565 32.6643 10.9757 32.9798 10.5626 32.9949C10.0321 33.0146 9.50063 33.0146 8.97011 32.9949C8.55509 32.9798 8.27621 32.6671 8.26964 32.2652C8.26307 31.8446 8.55321 31.5328 8.99171 31.5093C9.2565 31.4953 9.52222 31.5065 9.78795 31.5065H9.78889Z" fill="white"/>
<path d="M35.2183 33.0005C34.9686 33.0005 34.7178 33.0127 34.469 32.9967C34.0343 32.9695 33.747 32.6483 33.7592 32.2277C33.7704 31.8276 34.054 31.5244 34.4718 31.5103C35.0024 31.4934 35.5338 31.4905 36.0643 31.5121C36.4737 31.5281 36.7526 31.853 36.7517 32.254C36.7517 32.654 36.4709 32.9573 36.0624 32.9986C36.0315 33.0014 36.0005 33.0005 35.9686 33.0005C35.7188 33.0005 35.469 33.0005 35.2193 33.0005H35.2183Z" fill="white"/>
<path d="M21.7651 5.61901C21.7651 5.47816 21.7548 5.33731 21.767 5.1974C21.8046 4.78893 22.1125 4.51193 22.5144 4.5138C22.9154 4.51568 23.2243 4.79551 23.2524 5.20679C23.2712 5.47065 23.2665 5.73827 23.2553 6.00307C23.2365 6.45191 22.9454 6.74864 22.5285 6.75803C22.09 6.76836 21.7848 6.466 21.7632 5.99462C21.7576 5.86973 21.7632 5.74484 21.7632 5.61995C21.7632 5.61995 21.7642 5.61995 21.7651 5.61995V5.61901Z" fill="white"/>
<path d="M22.5334 17.2552C20.8545 17.2589 19.5203 15.9443 19.5137 14.2795C19.5071 12.5996 20.8207 11.2653 22.4874 11.2606C24.1682 11.2559 25.5015 12.5686 25.5071 14.2344C25.5128 15.9143 24.1963 17.2514 22.5344 17.2552H22.5334ZM24.0067 14.2466C23.9991 13.4447 23.3005 12.7564 22.4996 12.7592C21.7062 12.762 21.001 13.4785 21.0132 14.2682C21.0254 15.0739 21.7231 15.7603 22.5212 15.7537C23.3212 15.7462 24.0142 15.0429 24.0067 14.2466Z" fill="white"/>
<path d="M19.4999 28.5073C19.9196 28.5017 20.2464 28.8135 20.2586 29.2304C20.2708 29.668 19.9375 30.0069 19.4999 30.0013C19.0821 29.9957 18.7656 29.6736 18.7656 29.2538C18.7656 28.8332 19.0811 28.513 19.4999 28.5073Z" fill="white"/>
<path d="M22.5083 28.5073C22.928 28.5064 23.2501 28.8219 23.2567 29.2407C23.2642 29.6783 22.9262 30.0126 22.4886 30.0013C22.0717 29.99 21.759 29.6642 21.7637 29.2444C21.7684 28.8247 22.0877 28.5092 22.5083 28.5073Z" fill="white"/>
<path d="M25.5035 28.5073C25.9232 28.5045 26.2472 28.819 26.2547 29.2378C26.2631 29.6754 25.927 30.0116 25.4894 30.0012C25.0716 29.9919 24.7589 29.667 24.7617 29.2472C24.7655 28.8275 25.0838 28.5101 25.5035 28.5073Z" fill="white"/>
<path d="M28.4988 28.5073C28.9185 28.5026 29.2444 28.8162 29.2547 29.2332C29.265 29.6717 28.9307 30.0088 28.4932 30.0013C28.0753 29.9938 27.7598 29.6707 27.7617 29.251C27.7636 28.8313 28.08 28.512 28.4988 28.5073Z" fill="white"/>
<path d="M28.496 25.5081C28.9157 25.5025 29.2425 25.8142 29.2547 26.2312C29.2669 26.6687 28.9336 27.0077 28.496 27.0021C28.0782 26.9965 27.7617 26.6744 27.7617 26.2546C27.7617 25.834 28.0772 25.5138 28.496 25.5081Z" fill="white"/>
<path d="M25.4876 27.0021C25.0707 26.9918 24.7571 26.6659 24.7618 26.2462C24.7665 25.8086 25.1129 25.4856 25.5524 25.5091C25.9665 25.5307 26.2716 25.8678 26.2547 26.2875C26.2388 26.7035 25.9073 27.0124 25.4876 27.0021Z" fill="white"/>
<path d="M17.2599 32.2539C17.2599 32.6727 16.9416 32.9948 16.5237 32.9995C16.0862 33.0051 15.7547 32.6671 15.7669 32.2276C15.7791 31.8098 16.105 31.499 16.5256 31.5055C16.9444 31.5121 17.2599 31.8342 17.2599 32.253V32.2539Z" fill="white"/>
<path d="M20.2586 32.2351C20.268 32.6549 19.9582 32.9854 19.5422 33.0004C19.1046 33.0164 18.7638 32.6849 18.7666 32.2483C18.7694 31.8286 19.0868 31.5102 19.5065 31.5074C19.9262 31.5037 20.2511 31.8182 20.2596 32.2361L20.2586 32.2351Z" fill="white"/>
<path d="M23.2568 32.2464C23.2605 32.6652 22.945 32.9911 22.5281 33.0004C22.0897 33.0098 21.7554 32.6756 21.7638 32.2361C21.7723 31.8173 22.0943 31.5037 22.515 31.5065C22.9338 31.5093 23.253 31.8276 23.2568 32.2464Z" fill="white"/>
<path d="M16.5353 28.5073C16.9532 28.5186 17.2649 28.8444 17.2593 29.2641C17.2536 29.682 16.9316 30.0003 16.5137 30.0003C16.0771 30.0003 15.7485 29.6576 15.7663 29.2191C15.7832 28.8021 16.1137 28.4951 16.5344 28.5063L16.5353 28.5073Z" fill="white"/>
<path d="M28.5295 31.5065C28.9474 31.5178 29.2591 31.8436 29.2544 32.2633C29.2488 32.6812 28.9267 32.9995 28.5089 32.9995C28.0722 32.9995 27.7436 32.6568 27.7614 32.2183C27.7783 31.8013 28.1089 31.4943 28.5295 31.5055V31.5065Z" fill="white"/>
<path d="M22.516 27.0021C22.0963 27.0049 21.7723 26.6913 21.7639 26.2725C21.7545 25.833 22.0878 25.4987 22.5272 25.5081C22.9451 25.5166 23.2596 25.8405 23.2568 26.2603C23.254 26.6791 22.9348 26.9983 22.516 27.0021Z" fill="white"/>
<path d="M16.5141 34.5057C16.9338 34.5057 17.254 34.8231 17.2596 35.2419C17.2653 35.6794 16.9263 36.0128 16.4887 35.9996C16.0718 35.9874 15.761 35.6597 15.7667 35.24C15.7732 34.8202 16.0934 34.5057 16.5141 34.5066V34.5057Z" fill="white"/>
<path d="M20.2583 35.24C20.2639 35.6597 19.9513 35.9874 19.5353 35.9987C19.1156 36.0109 18.7832 35.7029 18.7653 35.2869C18.7475 34.8475 19.0733 34.5057 19.5118 34.5057C19.9315 34.5057 20.2527 34.8221 20.2583 35.2409V35.24Z" fill="white"/>
<path d="M22.5246 35.9996C22.1049 36.0071 21.7772 35.6963 21.7641 35.2785C21.7509 34.8381 22.0805 34.501 22.519 34.5057C22.9378 34.5104 23.2551 34.8306 23.257 35.2494C23.2589 35.6682 22.9425 35.9921 22.5246 35.9996Z" fill="white"/>
<path d="M25.4867 35.9997C25.0698 35.9884 24.7571 35.6626 24.7618 35.2428C24.7674 34.8052 25.1139 34.4832 25.5533 34.5066C25.9674 34.5292 26.2716 34.8672 26.2547 35.286C26.2378 35.702 25.9054 36.0109 25.4867 35.9997Z" fill="white"/>
<path d="M28.5016 35.9996C28.0828 35.9968 27.7645 35.6775 27.7608 35.2587C27.7579 34.8202 28.0969 34.4906 28.5363 34.5066C28.9532 34.5207 29.2631 34.8503 29.2537 35.2709C29.2453 35.6888 28.9204 36.0034 28.5016 36.0006V35.9996Z" fill="white"/>
<path d="M19.5112 27.0021C19.0925 27.0021 18.7713 26.6847 18.7657 26.2659C18.7601 25.8274 19.0962 25.4959 19.5356 25.5081C19.9525 25.5203 20.2643 25.8471 20.2587 26.2669C20.2521 26.6847 19.93 27.0021 19.5112 27.0021Z" fill="white"/>
<path d="M17.2597 38.288C17.241 38.7031 16.9067 39.011 16.4879 38.9979C16.0532 38.9848 15.7367 38.6289 15.7677 38.1904C15.7978 37.7772 16.1405 37.4805 16.5611 37.5049C16.9752 37.5293 17.2776 37.8683 17.2588 38.288H17.2597Z" fill="white"/>
<path d="M20.2584 38.2655C20.2518 38.6833 19.9279 38.9998 19.51 38.9988C19.0734 38.9979 18.7466 38.6533 18.7654 38.2148C18.7833 37.7978 19.1157 37.4927 19.5372 37.5049C19.9542 37.5171 20.2659 37.8448 20.2584 38.2655Z" fill="white"/>
<path d="M22.516 38.9989C22.0963 39.0017 21.7723 38.688 21.7639 38.2692C21.7545 37.8298 22.0878 37.4955 22.5272 37.5049C22.9451 37.5133 23.2596 37.8373 23.2568 38.257C23.254 38.6758 22.9348 38.9951 22.516 38.9989Z" fill="white"/>
<path d="M26.2559 38.2739C26.2446 38.6909 25.9169 39.0045 25.4981 38.9988C25.0625 38.9932 24.7394 38.6448 24.7629 38.2054C24.7855 37.7903 25.1225 37.488 25.5432 37.5049C25.9592 37.5218 26.2671 37.8542 26.2559 38.2739Z" fill="white"/>
<path d="M28.4894 37.5049C28.9101 37.4964 29.2387 37.8053 29.2537 38.2223C29.2687 38.6608 28.9373 39.0016 28.5007 38.9988C28.0819 38.996 27.7636 38.6767 27.7608 38.257C27.7579 37.8363 28.0706 37.5133 28.4894 37.5049Z" fill="white"/>
<path d="M17.2598 26.2499C17.2616 26.6687 16.9461 26.9936 16.5292 27.0011C16.0907 27.0096 15.7574 26.6734 15.7668 26.2349C15.7762 25.8161 16.1001 25.5034 16.5208 25.5081C16.9396 25.5119 17.2579 25.8311 17.2598 26.2509V26.2499Z" fill="white"/>
<path d="M24.7627 32.2549C24.7618 31.8342 25.0763 31.513 25.4951 31.5065C25.9336 31.499 26.2669 31.8361 26.2557 32.2746C26.2453 32.6915 25.9176 33.0051 25.4988 33.0004C25.081 32.9957 24.7636 32.6746 24.7627 32.2549Z" fill="white"/>
</g>
<defs>
<clipPath id="clip0_1_419">
<rect width="45" height="45" fill="white"/>
</clipPath>
</defs>
</svg>
