<svg width="30" height="41" viewBox="0 0 30 41" fill="none" xmlns="http://www.w3.org/2000/svg">
<g clip-path="url(#clip0_1_472)">
<path d="M12.6584 40.9091C11.9324 40.7498 11.1959 40.6282 10.4828 40.4249C6.38977 39.2581 3.19989 35.5305 2.70969 31.3186C2.60264 30.3975 2.60345 29.4612 2.59379 28.5313C2.57688 26.8011 2.64128 25.0685 2.57608 23.3407C2.48593 20.9503 4.56261 20.0852 6.26742 20.595C6.74796 20.7382 7.19951 20.9775 7.72271 21.1976C7.72271 21.0735 7.72271 20.9255 7.72271 20.7782C7.71063 18.3822 7.68729 15.9862 7.69373 13.591C7.69534 12.8347 7.76698 12.0777 7.82413 11.323C7.93199 9.89454 9.28183 8.82938 10.4844 8.5845C11.8342 8.3092 13.2774 8.90381 14.0349 10.0746C14.3971 10.634 14.5894 11.2454 14.5854 11.9184C14.5782 13.1693 14.5854 14.4209 14.5878 15.6717C14.5878 15.6957 14.6055 15.7189 14.6152 15.7429C17.2577 14.9995 18.3492 15.3988 19.5968 17.586C20.6649 16.9729 21.7814 16.8545 22.9155 17.3867C24.0391 17.9141 24.6589 18.8352 24.8811 20.0596C25.6852 19.6491 26.5135 19.5122 27.3787 19.7307C28.7004 20.0644 29.5206 20.9159 29.907 22.2019C29.9327 22.2876 29.969 22.3708 29.9995 22.4548V30.8433C29.973 30.9449 29.9335 31.0449 29.9215 31.1482C29.3951 35.6201 26.1818 39.3349 21.7958 40.5153C21.1688 40.6842 20.5217 40.7802 19.8842 40.9099H12.6584V40.9091ZM9.44603 20.8567C9.44603 23.7456 9.44603 26.6354 9.44603 29.5244C9.44603 30.2903 9.16512 30.6744 8.60248 30.6808C8.01489 30.6872 7.73398 30.3007 7.72915 29.5068C7.71868 27.9095 7.72029 26.3113 7.68005 24.7148C7.64463 23.3287 6.79062 22.3572 5.5277 22.1907C4.69542 22.0811 4.30987 22.4084 4.30906 23.2343C4.30745 25.4046 4.27928 27.5757 4.32355 29.7445C4.34045 30.5752 4.44026 31.4227 4.6431 32.2277C5.62349 36.1138 9.14338 38.9884 13.168 39.1549C15.1714 39.2381 17.1805 39.1893 19.1871 39.1717C19.7312 39.1669 20.2802 39.0877 20.8171 38.9892C24.6831 38.2826 28.0042 34.679 28.2126 30.7832C28.3519 28.1808 28.2851 25.5655 28.2738 22.9566C28.269 21.961 27.4777 21.2864 26.4813 21.3224C25.579 21.3552 24.9101 22.0683 24.869 23.071C24.8465 23.6296 24.8722 24.1898 24.8577 24.7484C24.8457 25.2093 24.4891 25.5519 24.0391 25.5655C23.5763 25.5799 23.2238 25.2806 23.1634 24.8108C23.1449 24.666 23.1449 24.5187 23.1441 24.3723C23.1425 23.1206 23.1401 21.869 23.1441 20.6174C23.1465 20.0436 22.996 19.533 22.5348 19.1609C21.989 18.7207 21.3757 18.6279 20.7326 18.9176C20.0532 19.2233 19.7329 19.7843 19.7256 20.5093C19.7127 21.9074 19.7256 23.3055 19.7192 24.7036C19.7168 25.1413 19.4197 25.4886 19.0229 25.5567C18.6301 25.6239 18.2003 25.4094 18.0796 25.0445C18.0144 24.8476 18.0079 24.6251 18.0071 24.4147C18.0015 22.6437 18.0047 20.8727 18.0031 19.1025C18.0031 18.9168 17.9991 18.7295 17.9781 18.5447C17.8727 17.63 17.0823 16.9906 16.1606 17.0674C15.2302 17.145 14.5886 17.8645 14.5862 18.8568C14.5806 20.8006 14.5878 22.7445 14.5822 24.6884C14.5806 25.1837 14.2409 25.5407 13.7805 25.5639C13.2887 25.5887 12.9273 25.2662 12.8782 24.7492C12.8629 24.5907 12.8669 24.4299 12.8669 24.2706C12.8669 20.3165 12.8669 16.3615 12.8645 12.4074C12.8645 12.1681 12.8653 11.9248 12.8227 11.6912C12.6987 11.0205 12.293 10.5676 11.6587 10.3315C11.0309 10.0986 10.4707 10.2683 9.99176 10.7004C9.58045 11.0717 9.44362 11.5623 9.44442 12.1057C9.44845 15.0219 9.44603 17.9373 9.44603 20.8535V20.8567Z" fill="white"/>
<path d="M0 11.0856C0.057149 5.70538 3.86842 1.15343 9.15269 0.185103C15.2596 -0.934478 21.1041 3.15731 22.1384 9.27219C22.3879 10.7487 22.3412 12.2108 21.9847 13.6641C21.8277 14.3051 21.4164 14.5996 20.8755 14.4604C20.3813 14.3339 20.1623 13.8706 20.3112 13.2343C20.7016 11.5642 20.6831 9.8972 20.1245 8.27585C18.8745 4.64822 16.343 2.42506 12.5261 1.84327C7.31749 1.0502 2.57009 4.63141 1.83118 9.80357C1.66376 10.9752 1.73781 12.138 2.01309 13.2896C2.15959 13.9002 1.90604 14.3699 1.38928 14.4692C0.896676 14.5636 0.507902 14.3203 0.370261 13.8049C0.277696 13.4592 0.193985 13.1079 0.149714 12.7534C0.0804915 12.1996 0.0482949 11.6418 0 11.0856Z" fill="white"/>
<path d="M6.05112 11.2446C6.06158 11.4703 6.08009 11.6968 6.0809 11.9224C6.0809 12.3754 5.77825 12.7267 5.35164 12.7819C4.88399 12.8419 4.49441 12.6339 4.42358 12.1657C4.33665 11.5927 4.2795 10.9957 4.34148 10.4227C4.68276 7.25925 7.00333 4.85843 10.1666 4.34306C13.6688 3.77247 17.225 6.2397 17.8592 9.72889C17.9904 10.4499 17.9606 11.2062 17.9462 11.9456C17.9365 12.4362 17.5381 12.7323 17.0519 12.7083C16.5826 12.6843 16.243 12.3274 16.2647 11.8312C16.2993 11.0581 16.3001 10.2955 16.0562 9.54403C15.3093 7.24645 13.1239 5.79795 10.6802 5.99882C8.37088 6.18849 6.41494 8.04432 6.08573 10.3691C6.04468 10.6572 6.05273 10.9533 6.03824 11.2454C6.04226 11.2454 6.04629 11.2454 6.05031 11.2454L6.05112 11.2446Z" fill="white"/>
</g>
<defs>
<clipPath id="clip0_1_472">
<rect width="30" height="40.9091" fill="white"/>
</clipPath>
</defs>
</svg>
