<svg width="205" height="60" viewBox="0 0 205 60" fill="none" xmlns="http://www.w3.org/2000/svg">
<path d="M13.2 40.48C11.76 40.48 9.93333 40.2133 7.72 39.68C6.33333 40.0533 5.04 40.24 3.84 40.24C2.64 40.24 1.94667 40.2 1.76 40.12C1.94667 38.52 2.73333 34.5867 4.12 28.32C5.53333 22.0267 6.24 18.08 6.24 16.48C6.24 16.16 6.06667 15.7333 5.72 15.2C5.37333 14.6667 5.02667 14.2133 4.68 13.84L4.16 13.28L4.28 12.68C7.77333 11.96 11.5333 11.6 15.56 11.6C17.7733 11.6 19.5867 12.1333 21 13.2C22.44 14.24 23.16 15.7067 23.16 17.6C23.16 21.2533 20.9333 23.7867 16.48 25.2C18.2667 25.4133 19.76 26.0933 20.96 27.24C22.1867 28.36 22.8 29.9467 22.8 32C22.8 34.5067 21.8933 36.5467 20.08 38.12C18.2667 39.6933 15.9733 40.48 13.2 40.48ZM12.48 26.28C11.7333 26.28 11.0667 26.3467 10.48 26.48C9.33333 31.5467 8.6 35.08 8.28 37.08C8.94667 37.5333 9.98667 37.76 11.4 37.76C12.84 37.76 14.0667 37.2 15.08 36.08C16.0933 34.9333 16.6 33.2933 16.6 31.16C16.6 27.9067 15.2267 26.28 12.48 26.28ZM14.72 14.08C13.7067 14.08 13.1067 14.1733 12.92 14.36C12.5467 16.76 11.9333 19.9067 11.08 23.8C12.1467 23.8 12.8933 23.7333 13.32 23.6C13.7467 23.4667 14.12 23.2933 14.44 23.08C14.7867 22.8667 15.1733 22.5333 15.6 22.08C16.5333 21.0933 17 19.52 17 17.36C17 15.1733 16.24 14.08 14.72 14.08ZM24.6728 33.08C24.6728 29.7467 25.6728 27.12 27.6728 25.2C29.6995 23.2533 31.9928 22.28 34.5528 22.28C36.1261 22.28 37.4195 22.6667 38.4328 23.44C39.4461 24.2133 39.9528 25.2533 39.9528 26.56C39.9528 27.84 39.6195 28.92 38.9528 29.8C38.3128 30.68 37.5261 31.36 36.5928 31.84C34.6995 32.7733 32.9661 33.36 31.3928 33.6L30.4328 33.72C30.6195 36.2267 31.6461 37.48 33.5128 37.48C34.1528 37.48 34.8328 37.32 35.5528 37C36.2728 36.68 36.8328 36.36 37.2328 36.04L37.8328 35.56L38.7928 36.84C38.5795 37.1333 38.1528 37.52 37.5128 38C36.8728 38.48 36.2728 38.88 35.7128 39.2C34.1661 40.0533 32.4728 40.48 30.6328 40.48C28.7928 40.48 27.3395 39.8267 26.2728 38.52C25.2061 37.2133 24.6728 35.4 24.6728 33.08ZM30.3928 31.76C31.7528 31.52 32.8328 30.9467 33.6328 30.04C34.4328 29.1333 34.8328 27.96 34.8328 26.52C34.8328 25.08 34.4061 24.36 33.5528 24.36C32.5395 24.36 31.7528 25.2267 31.1928 26.96C30.6595 28.6667 30.3928 30.2667 30.3928 31.76ZM52.7294 23.44C52.7827 23.3867 52.9294 23.04 53.1694 22.4C54.4227 22.4 56.1027 22.7733 58.2094 23.52C57.5427 25.7333 57.0094 28.0533 56.6094 30.48C56.2094 32.88 56.0094 34.6 56.0094 35.64C56.0094 36.6533 56.116 37.16 56.3294 37.16C56.4894 37.16 57.076 36.9067 58.0894 36.4L58.5694 36.16L59.2894 37.56C59.0494 37.7733 58.7294 38.04 58.3294 38.36C57.956 38.68 57.236 39.12 56.1694 39.68C55.1027 40.2133 54.1427 40.48 53.2894 40.48C51.636 40.48 50.676 39.7333 50.4094 38.24C48.7027 39.7333 47.156 40.48 45.7694 40.48C44.4094 40.48 43.2494 39.9467 42.2894 38.88C41.356 37.8133 40.8894 36.1333 40.8894 33.84C40.8894 30.2667 41.6227 27.4533 43.0894 25.4C44.556 23.32 46.3294 22.28 48.4094 22.28C49.9027 22.28 51.3427 22.6667 52.7294 23.44ZM48.1694 37.08C48.8094 37.08 49.5294 36.8267 50.3294 36.32C50.516 32.56 51.1427 28.84 52.2094 25.16C51.4094 24.8133 50.7294 24.64 50.1694 24.64C49.2094 24.64 48.3827 25.5867 47.6894 27.48C47.0227 29.3467 46.6894 31.4133 46.6894 33.68C46.6894 35.9467 47.1827 37.08 48.1694 37.08ZM60.3481 37C60.3481 35.8533 60.6948 33.9067 61.3881 31.16C62.0815 28.3867 62.4281 26.6933 62.4281 26.08C62.4281 25.44 61.9481 24.6 60.9881 23.56L61.0281 23.04C62.8415 22.6667 65.2281 22.48 68.1881 22.48C68.3215 22.8267 68.3881 23.4533 68.3881 24.36C68.3881 25.2667 68.0148 27.2 67.2681 30.16C66.5215 33.12 66.1481 34.96 66.1481 35.68C66.1481 36.4 66.4148 36.76 66.9481 36.76C67.7215 36.76 68.6148 36.48 69.6281 35.92C69.7348 35.28 70.0015 34.0533 70.4281 32.24C71.3881 27.9733 71.8681 24.92 71.8681 23.08C72.8015 22.7067 74.4815 22.52 76.9081 22.52H77.6681C77.6681 23.7733 77.2948 26.2267 76.5481 29.88C75.8015 33.5067 75.4281 35.64 75.4281 36.28C75.4281 36.8933 75.5615 37.2 75.8281 37.2C75.9881 37.2 76.7481 36.88 78.1081 36.24L78.8681 37.52C76.4948 39.4933 74.4148 40.48 72.6281 40.48C71.7748 40.48 71.0415 40.24 70.4281 39.76C69.8415 39.28 69.5081 38.6533 69.4281 37.88C67.2681 39.64 65.3081 40.52 63.5481 40.52C62.6148 40.52 61.8415 40.2133 61.2281 39.6C60.6415 38.9867 60.3481 38.12 60.3481 37ZM92.5091 22.76C92.4557 23.4267 92.2291 24.2 91.8291 25.08C90.8157 24.9733 89.8557 24.92 88.9491 24.92H88.2291C87.0024 30.8667 86.3891 34.5733 86.3891 36.04C86.3891 36.8133 86.5491 37.2 86.8691 37.2C87.2157 37.2 88.1091 36.8667 89.5491 36.2L90.2691 37.52C87.8957 39.4933 85.6957 40.48 83.6691 40.48C82.7357 40.48 81.9624 40.1867 81.3491 39.6C80.7624 39.0133 80.4691 38.24 80.4691 37.28C80.4691 36.2933 80.5757 35.1867 80.7891 33.96C81.0291 32.7333 81.3491 31.24 81.7491 29.48C82.1491 27.6933 82.4424 26.2533 82.6291 25.16C81.6424 25.24 80.9091 25.32 80.4291 25.4C80.3757 25.08 80.3491 24.6533 80.3491 24.12C80.3491 23.56 80.3891 23.1067 80.4691 22.76H82.9891C83.2024 21.32 83.3091 19.96 83.3091 18.68L83.2691 17.44V17.32C85.3491 16.6 87.3091 16.24 89.1491 16.24C89.2557 16.7733 89.3091 17.44 89.3091 18.24C89.3091 19.04 89.0824 20.5467 88.6291 22.76H92.5091ZM97.2259 44.32C96.3459 44.8533 95.9059 45.3733 95.9059 45.88C95.9059 46.3867 96.1859 46.64 96.7459 46.64C97.3326 46.64 97.9859 46.36 98.7059 45.8C99.4259 45.2667 100.026 44.3867 100.506 43.16C99.2259 43.4 98.1326 43.7867 97.2259 44.32ZM95.3059 40.16C93.0659 40.16 91.9459 38.9333 91.9459 36.48C91.9459 35.8933 92.2126 34.2 92.7459 31.4C93.2793 28.6 93.5459 26.2667 93.5459 24.4C93.5459 24 93.4926 23.6267 93.3859 23.28C94.8259 22.72 96.7993 22.44 99.3059 22.44C99.4393 22.8133 99.5059 23.4533 99.5059 24.36C99.5059 25.2667 99.2126 27.1467 98.6259 30C98.0393 32.8533 97.7459 34.6933 97.7459 35.52C97.7459 36.3467 98.0926 36.76 98.7859 36.76C99.6126 36.76 100.613 36.3467 101.786 35.52C101.919 33.9467 102.453 29.8 103.386 23.08C104.319 22.7067 105.999 22.52 108.426 22.52H109.186C108.679 24.52 108.186 27.4 107.706 31.16C107.226 34.92 106.839 37.5333 106.546 39C105.986 41.9333 104.946 44.32 103.426 46.16C101.933 48.0267 99.9726 48.96 97.5459 48.96C96.5859 48.96 95.7059 48.7067 94.9059 48.2C94.1326 47.6933 93.7459 47.04 93.7459 46.24C93.7459 45.1733 94.3993 44.2 95.7059 43.32C97.0126 42.44 98.7726 41.76 100.986 41.28C101.226 40.1067 101.413 38.9733 101.546 37.88C99.3859 39.4 97.3059 40.16 95.3059 40.16ZM122.067 40.48C120.627 40.48 118.801 40.2133 116.587 39.68C115.201 40.0533 113.907 40.24 112.707 40.24C111.507 40.24 110.814 40.2 110.627 40.12C110.814 38.52 111.601 34.5867 112.987 28.32C114.401 22.0267 115.107 18.08 115.107 16.48C115.107 16.16 114.934 15.7333 114.587 15.2C114.241 14.6667 113.894 14.2133 113.547 13.84L113.027 13.28L113.147 12.68C116.641 11.96 120.401 11.6 124.427 11.6C126.641 11.6 128.454 12.1333 129.867 13.2C131.307 14.24 132.027 15.7067 132.027 17.6C132.027 21.2533 129.801 23.7867 125.347 25.2C127.134 25.4133 128.627 26.0933 129.827 27.24C131.054 28.36 131.667 29.9467 131.667 32C131.667 34.5067 130.761 36.5467 128.947 38.12C127.134 39.6933 124.841 40.48 122.067 40.48ZM121.347 26.28C120.601 26.28 119.934 26.3467 119.347 26.48C118.201 31.5467 117.467 35.08 117.147 37.08C117.814 37.5333 118.854 37.76 120.267 37.76C121.707 37.76 122.934 37.2 123.947 36.08C124.961 34.9333 125.467 33.2933 125.467 31.16C125.467 27.9067 124.094 26.28 121.347 26.28ZM123.587 14.08C122.574 14.08 121.974 14.1733 121.787 14.36C121.414 16.76 120.801 19.9067 119.947 23.8C121.014 23.8 121.761 23.7333 122.187 23.6C122.614 23.4667 122.987 23.2933 123.307 23.08C123.654 22.8667 124.041 22.5333 124.467 22.08C125.401 21.0933 125.867 19.52 125.867 17.36C125.867 15.1733 125.107 14.08 123.587 14.08ZM136.78 40.48C135.873 40.48 135.113 40.1733 134.5 39.56C133.913 38.9467 133.62 38.0933 133.62 37C133.62 35.88 134.273 32.3467 135.58 26.4C136.913 20.4267 137.58 16.12 137.58 13.48L137.34 11.72C139.42 11 141.367 10.64 143.18 10.64C143.447 11.0133 143.58 11.6667 143.58 12.6C143.58 14.7333 142.9 18.8667 141.54 25C140.207 31.1067 139.54 34.6667 139.54 35.68C139.54 36.6667 139.66 37.16 139.9 37.16L142.7 36.16L143.42 37.56C142.513 38.28 141.407 38.9467 140.1 39.56C138.82 40.1733 137.713 40.48 136.78 40.48ZM149.925 40.48C148.085 40.48 146.645 39.84 145.605 38.56C144.565 37.2533 144.045 35.44 144.045 33.12C144.045 30.16 144.832 27.6133 146.405 25.48C148.005 23.3467 150.205 22.28 153.005 22.28L154.445 22.36C154.898 22.12 155.405 22 155.965 22C158.072 22 159.125 23.9867 159.125 27.96C160.218 27.9067 161.325 27.76 162.445 27.52L163.085 27.36L163.325 28.92C162.445 29.2933 161.258 29.6267 159.765 29.92L158.965 30.08C158.458 32.88 157.432 35.32 155.885 37.4C154.338 39.4533 152.352 40.48 149.925 40.48ZM152.085 37.04C153.205 37.04 154.205 36.32 155.085 34.88C155.992 33.44 156.618 31.92 156.965 30.32C154.112 30.32 152.685 29.2533 152.685 27.12C152.685 26.2667 152.858 25.4667 153.205 24.72L153.405 24.32C153.298 24.2667 153.165 24.24 153.005 24.24C152.845 24.24 152.725 24.2667 152.645 24.32C151.978 24.7467 151.352 25.7467 150.765 27.32C150.178 28.8933 149.885 30.6933 149.885 32.72C149.885 35.6 150.618 37.04 152.085 37.04ZM166.683 40.48C164.843 40.48 163.403 39.84 162.363 38.56C161.323 37.2533 160.803 35.44 160.803 33.12C160.803 30.16 161.589 27.6133 163.163 25.48C164.763 23.3467 166.963 22.28 169.763 22.28L171.203 22.36C171.656 22.12 172.163 22 172.723 22C174.829 22 175.883 23.9867 175.883 27.96C176.976 27.9067 178.083 27.76 179.203 27.52L179.843 27.36L180.083 28.92C179.203 29.2933 178.016 29.6267 176.523 29.92L175.723 30.08C175.216 32.88 174.189 35.32 172.643 37.4C171.096 39.4533 169.109 40.48 166.683 40.48ZM168.843 37.04C169.963 37.04 170.963 36.32 171.843 34.88C172.749 33.44 173.376 31.92 173.723 30.32C170.869 30.32 169.443 29.2533 169.443 27.12C169.443 26.2667 169.616 25.4667 169.963 24.72L170.163 24.32C170.056 24.2667 169.923 24.24 169.763 24.24C169.603 24.24 169.483 24.2667 169.403 24.32C168.736 24.7467 168.109 25.7467 167.523 27.32C166.936 28.8933 166.643 30.6933 166.643 32.72C166.643 35.6 167.376 37.04 168.843 37.04ZM177.827 40.12H177.067C177.067 38.8667 177.44 36.4667 178.187 32.92C178.96 29.3733 179.347 27.36 179.347 26.88C179.347 26 178.974 25.0667 178.227 24.08L177.867 23.6L177.907 23.08C179.347 22.68 181.654 22.48 184.827 22.48C185.2 22.9867 185.387 23.8133 185.387 24.96C187.787 23.1733 189.694 22.28 191.107 22.28C192.894 22.28 193.947 23.2 194.267 25.04C194.987 24.4533 195.92 23.8533 197.067 23.24C198.24 22.6 199.28 22.28 200.187 22.28C201.12 22.28 201.894 22.5867 202.507 23.2C203.12 23.7867 203.427 24.6133 203.427 25.68C203.427 26.7467 203.134 28.5067 202.547 30.96C201.96 33.4133 201.667 35.0667 201.667 35.92C201.667 36.7467 201.787 37.16 202.027 37.16C202.187 37.16 202.734 36.9067 203.667 36.4L204.107 36.16L204.827 37.56C204.134 38.2533 203.187 38.92 201.987 39.56C200.814 40.1733 199.774 40.48 198.867 40.48C196.867 40.48 195.867 39.3467 195.867 37.08C195.867 36.2533 196.147 34.6 196.707 32.12C197.294 29.6133 197.587 27.9867 197.587 27.24C197.587 26.4667 197.36 26.08 196.907 26.08C196.134 26.08 195.254 26.3733 194.267 26.96C194.214 27.4933 193.84 29.3067 193.147 32.4C192.48 35.4933 192.147 37.8933 192.147 39.6C191.374 39.9467 189.56 40.12 186.707 40.12C186.654 39.8267 186.627 39.12 186.627 38C186.627 36.88 186.934 34.9733 187.547 32.28C188.187 29.5867 188.507 27.88 188.507 27.16C188.507 26.44 188.254 26.08 187.747 26.08C186.947 26.08 186.067 26.4 185.107 27.04C185.054 27.28 184.787 28.4533 184.307 30.56C183.347 34.7733 182.867 37.7733 182.867 39.56C181.934 39.9333 180.254 40.12 177.827 40.12Z" fill="#367C2E"/>
<g clip-path="url(#clip0_198_1065)">
<path d="M77.6149 58.3502C75.6253 58.3502 74.1657 56.9043 72.8275 55.5808C72.1748 54.9355 71.5587 54.3263 70.8932 53.8681C68.166 51.9923 66.4414 53.4535 64.2585 55.3009C62.5492 56.7479 60.6102 58.3895 58.0127 58.0253C56.0842 57.7563 54.5787 56.5007 53.1227 55.2855C50.7949 53.342 48.956 51.8053 45.9745 54.5254C45.6199 54.8502 45.2912 55.2177 44.9437 55.6071C44.0943 56.5608 43.2155 57.5474 41.8055 58.033C39.791 58.7253 37.6741 58.1467 35.8482 56.3968C35.5348 56.0971 35.2403 55.7766 34.9447 55.4562C34.0282 54.4609 33.1635 53.5214 31.7275 53.1856C30.1807 52.8247 28.7977 53.2687 27.2451 54.6238C26.9212 54.906 26.6007 55.2298 26.2603 55.571C25.0269 56.8091 23.6298 58.2124 21.461 58.3141C19.0885 58.4213 17.5335 56.8244 16.2754 55.5382C16.0209 55.2779 15.7735 55.0241 15.5285 54.7945C13.4151 52.8115 10.9625 52.6365 8.7973 54.3176C8.38852 54.6337 7.97622 55.0187 7.54035 55.4255C6.02895 56.8343 4.14883 58.5886 1.43349 58.1194C1.14487 58.0691 0.954032 57.8121 1.00822 57.5441C1.06123 57.2761 1.34042 57.0989 1.62786 57.1493C3.78953 57.5178 5.31389 56.1015 6.78759 54.7288C7.24231 54.3056 7.67111 53.9063 8.11522 53.5618C10.681 51.5701 13.8098 51.779 16.286 54.1021C16.5404 54.3417 16.7984 54.6041 17.0635 54.8754C18.2863 56.1244 19.5585 57.4128 21.408 57.3297C23.1444 57.2488 24.3319 56.0555 25.4804 54.9027C25.8327 54.5484 26.1672 54.2126 26.5183 53.9063C27.6645 52.9067 29.4775 51.6434 31.9878 52.2297C33.7525 52.642 34.7703 53.7467 35.754 54.8163C36.0355 55.1215 36.3147 55.4266 36.6127 55.711C37.6836 56.738 39.3905 57.8132 41.4379 57.1088C42.5806 56.715 43.331 55.8718 44.1273 54.9782C44.476 54.5866 44.8365 54.182 45.2311 53.8221C48.9231 50.4524 51.5324 52.6311 53.8342 54.5527C55.1725 55.6705 56.5578 56.8255 58.1705 57.0508C60.2686 57.3428 61.8589 55.9976 63.5423 54.5724C65.6769 52.7656 68.0965 50.7181 71.5246 53.0751C72.2679 53.5859 72.9453 54.2574 73.6014 54.906C75.4827 56.7675 77.106 58.3742 80.0264 56.5335C80.699 56.1091 81.3599 55.4944 82.0584 54.8437C84.0234 53.0128 86.4666 50.7334 90.0007 52.8531C90.8736 53.377 91.6652 54.1459 92.4297 54.8896C94.3959 56.8015 96.0934 58.453 98.9689 56.3727C99.5403 55.9604 100.036 55.4398 100.563 54.8896C101.618 53.7849 102.709 52.6442 104.51 52.2723C107.705 51.6139 110.264 54.054 111.214 55.1346C111.399 55.3457 111.366 55.6563 111.139 55.8291C110.912 56.0019 110.577 55.9713 110.391 55.7591C109.565 54.8207 107.366 52.6945 104.74 53.2359C103.276 53.5378 102.344 54.5134 101.358 55.5448C100.823 56.1047 100.271 56.6833 99.6227 57.1514C95.9909 59.7786 93.5901 57.4457 91.6617 55.571C90.9054 54.836 90.1915 54.1426 89.4234 53.681C86.6138 51.9956 84.7679 53.7171 82.8112 55.5393C82.1079 56.1944 81.3799 56.8715 80.6224 57.3494C79.4903 58.0625 78.4996 58.3502 77.6126 58.3502H77.6149Z" fill="#367C2E"/>
</g>
<g clip-path="url(#clip1_198_1065)">
<path d="M171.28 58.3502C169.29 58.3502 167.831 56.9043 166.492 55.5808C165.84 54.9355 165.224 54.3263 164.558 53.8681C161.831 51.9923 160.106 53.4535 157.924 55.3009C156.214 56.7479 154.275 58.3895 151.678 58.0253C149.749 57.7563 148.244 56.5007 146.788 55.2855C144.46 53.342 142.621 51.8053 139.64 54.5254C139.285 54.8502 138.956 55.2177 138.609 55.6071C137.759 56.5608 136.881 57.5474 135.47 58.033C133.456 58.7253 131.339 58.1467 129.513 56.3968C129.2 56.0971 128.905 55.7766 128.61 55.4562C127.693 54.4609 126.829 53.5214 125.393 53.1856C123.846 52.8247 122.463 53.2687 120.91 54.6238C120.586 54.906 120.266 55.2298 119.925 55.571C118.692 56.8091 117.295 58.2124 115.126 58.3141C112.754 58.4213 111.199 56.8244 109.94 55.5382C109.686 55.2779 109.439 55.0241 109.194 54.7945C107.08 52.8115 104.628 52.6365 102.462 54.3176C102.054 54.6337 101.641 55.0187 101.205 55.4255C99.694 56.8343 97.8139 58.5886 95.0985 58.1194C94.8099 58.0691 94.6191 57.8121 94.6733 57.5441C94.7263 57.2761 95.0055 57.0989 95.2929 57.1493C97.4546 57.5178 98.9789 56.1015 100.453 54.7288C100.907 54.3056 101.336 53.9063 101.78 53.5618C104.346 51.5701 107.475 51.779 109.951 54.1021C110.205 54.3417 110.463 54.6041 110.729 54.8754C111.951 56.1244 113.224 57.4128 115.073 57.3297C116.809 57.2488 117.997 56.0555 119.145 54.9027C119.498 54.5484 119.832 54.2126 120.183 53.9063C121.33 52.9067 123.142 51.6434 125.653 52.2297C127.418 52.642 128.435 53.7467 129.419 54.8163C129.701 55.1215 129.98 55.4266 130.278 55.711C131.349 56.738 133.056 57.8132 135.103 57.1088C136.246 56.715 136.996 55.8718 137.792 54.9782C138.141 54.5866 138.502 54.182 138.896 53.8221C142.588 50.4524 145.197 52.6311 147.499 54.5527C148.837 55.6705 150.223 56.8255 151.836 57.0508C153.934 57.3428 155.524 55.9976 157.207 54.5724C159.342 52.7656 161.762 50.7181 165.19 53.0751C165.933 53.5859 166.61 54.2574 167.266 54.906C169.148 56.7675 170.771 58.3742 173.691 56.5335C174.364 56.1091 175.025 55.4944 175.723 54.8437C177.688 53.0128 180.132 50.7334 183.666 52.8531C184.539 53.377 185.33 54.1459 186.095 54.8896C188.061 56.8015 189.758 58.453 192.634 56.3727C193.205 55.9604 193.701 55.4398 194.228 54.8896C195.283 53.7849 196.374 52.6442 198.175 52.2723C201.37 51.6139 203.929 54.054 204.88 55.1346C205.064 55.3457 205.031 55.6563 204.804 55.8291C204.577 56.0019 204.242 55.9713 204.056 55.7591C203.23 54.8207 201.031 52.6945 198.405 53.2359C196.941 53.5378 196.009 54.5134 195.023 55.5448C194.488 56.1047 193.936 56.6833 193.288 57.1514C189.656 59.7786 187.255 57.4457 185.327 55.571C184.57 54.836 183.857 54.1426 183.088 53.681C180.279 51.9956 178.433 53.7171 176.476 55.5393C175.773 56.1944 175.045 56.8715 174.287 57.3494C173.155 58.0625 172.165 58.3502 171.278 58.3502H171.28Z" fill="#367C2E"/>
</g>
<g clip-path="url(#clip2_198_1065)">
<path d="M77.6149 59.3502C75.6253 59.3502 74.1657 57.9043 72.8275 56.5808C72.1748 55.9355 71.5587 55.3263 70.8932 54.8681C68.166 52.9923 66.4414 54.4535 64.2585 56.3009C62.5492 57.7479 60.6102 59.3895 58.0127 59.0253C56.0842 58.7563 54.5787 57.5007 53.1227 56.2855C50.7949 54.342 48.956 52.8053 45.9745 55.5254C45.6199 55.8502 45.2912 56.2177 44.9437 56.6071C44.0943 57.5608 43.2155 58.5474 41.8055 59.033C39.791 59.7253 37.6741 59.1467 35.8482 57.3968C35.5348 57.0971 35.2403 56.7766 34.9447 56.4562C34.0282 55.4609 33.1635 54.5214 31.7275 54.1856C30.1807 53.8247 28.7977 54.2687 27.2451 55.6238C26.9212 55.906 26.6007 56.2298 26.2603 56.571C25.0269 57.8091 23.6298 59.2124 21.461 59.3141C19.0885 59.4213 17.5335 57.8244 16.2754 56.5382C16.0209 56.2779 15.7735 56.0241 15.5285 55.7945C13.4151 53.8115 10.9625 53.6365 8.7973 55.3176C8.38852 55.6337 7.97622 56.0187 7.54035 56.4255C6.02895 57.8343 4.14883 59.5886 1.43349 59.1194C1.14487 59.0691 0.954032 58.8121 1.00822 58.5441C1.06123 58.2761 1.34042 58.0989 1.62786 58.1493C3.78953 58.5178 5.31389 57.1015 6.78759 55.7288C7.24231 55.3056 7.67111 54.9063 8.11522 54.5618C10.681 52.5701 13.8098 52.779 16.286 55.1021C16.5404 55.3417 16.7984 55.6041 17.0635 55.8754C18.2863 57.1244 19.5585 58.4128 21.408 58.3297C23.1444 58.2488 24.3319 57.0555 25.4804 55.9027C25.8327 55.5484 26.1672 55.2126 26.5183 54.9063C27.6645 53.9067 29.4775 52.6434 31.9878 53.2297C33.7525 53.642 34.7703 54.7467 35.754 55.8163C36.0355 56.1215 36.3147 56.4266 36.6127 56.711C37.6836 57.738 39.3905 58.8132 41.4379 58.1088C42.5806 57.715 43.331 56.8718 44.1273 55.9782C44.476 55.5866 44.8365 55.182 45.2311 54.8221C48.9231 51.4524 51.5324 53.6311 53.8342 55.5527C55.1725 56.6705 56.5578 57.8255 58.1705 58.0508C60.2686 58.3428 61.8589 56.9976 63.5423 55.5724C65.6769 53.7656 68.0965 51.7181 71.5246 54.0751C72.2679 54.5859 72.9453 55.2574 73.6014 55.906C75.4827 57.7675 77.106 59.3742 80.0264 57.5335C80.699 57.1091 81.3599 56.4944 82.0584 55.8437C84.0234 54.0128 86.4666 51.7334 90.0007 53.8531C90.8736 54.377 91.6652 55.1459 92.4297 55.8896C94.3959 57.8015 96.0934 59.453 98.9689 57.3727C99.5403 56.9604 100.036 56.4398 100.563 55.8896C101.618 54.7849 102.709 53.6442 104.51 53.2723C107.705 52.6139 110.264 55.054 111.214 56.1346C111.399 56.3457 111.366 56.6563 111.139 56.8291C110.912 57.0019 110.577 56.9713 110.391 56.7591C109.565 55.8207 107.366 53.6945 104.74 54.2359C103.276 54.5378 102.344 55.5134 101.358 56.5448C100.823 57.1047 100.271 57.6833 99.6227 58.1514C95.9909 60.7786 93.5901 58.4457 91.6617 56.571C90.9054 55.836 90.1915 55.1426 89.4234 54.681C86.6138 52.9956 84.7679 54.7171 82.8112 56.5393C82.1079 57.1944 81.3799 57.8715 80.6224 58.3494C79.4903 59.0625 78.4996 59.3502 77.6126 59.3502H77.6149Z" fill="#367C2E"/>
</g>
<g clip-path="url(#clip3_198_1065)">
<path d="M171.28 59.3502C169.29 59.3502 167.831 57.9043 166.492 56.5808C165.84 55.9355 165.224 55.3263 164.558 54.8681C161.831 52.9923 160.106 54.4535 157.924 56.3009C156.214 57.7479 154.275 59.3895 151.678 59.0253C149.749 58.7563 148.244 57.5007 146.788 56.2855C144.46 54.342 142.621 52.8053 139.64 55.5254C139.285 55.8502 138.956 56.2177 138.609 56.6071C137.759 57.5608 136.881 58.5474 135.47 59.033C133.456 59.7253 131.339 59.1467 129.513 57.3968C129.2 57.0971 128.905 56.7766 128.61 56.4562C127.693 55.4609 126.829 54.5214 125.393 54.1856C123.846 53.8247 122.463 54.2687 120.91 55.6238C120.586 55.906 120.266 56.2298 119.925 56.571C118.692 57.8091 117.295 59.2124 115.126 59.3141C112.754 59.4213 111.199 57.8244 109.94 56.5382C109.686 56.2779 109.439 56.0241 109.194 55.7945C107.08 53.8115 104.628 53.6365 102.462 55.3176C102.054 55.6337 101.641 56.0187 101.205 56.4255C99.694 57.8343 97.8139 59.5886 95.0985 59.1194C94.8099 59.0691 94.6191 58.8121 94.6733 58.5441C94.7263 58.2761 95.0055 58.0989 95.2929 58.1493C97.4546 58.5178 98.9789 57.1015 100.453 55.7288C100.907 55.3056 101.336 54.9063 101.78 54.5618C104.346 52.5701 107.475 52.779 109.951 55.1021C110.205 55.3417 110.463 55.6041 110.729 55.8754C111.951 57.1244 113.224 58.4128 115.073 58.3297C116.809 58.2488 117.997 57.0555 119.145 55.9027C119.498 55.5484 119.832 55.2126 120.183 54.9063C121.33 53.9067 123.142 52.6434 125.653 53.2297C127.418 53.642 128.435 54.7467 129.419 55.8163C129.701 56.1215 129.98 56.4266 130.278 56.711C131.349 57.738 133.056 58.8132 135.103 58.1088C136.246 57.715 136.996 56.8718 137.792 55.9782C138.141 55.5866 138.502 55.182 138.896 54.8221C142.588 51.4524 145.197 53.6311 147.499 55.5527C148.837 56.6705 150.223 57.8255 151.836 58.0508C153.934 58.3428 155.524 56.9976 157.207 55.5724C159.342 53.7656 161.762 51.7181 165.19 54.0751C165.933 54.5859 166.61 55.2574 167.266 55.906C169.148 57.7675 170.771 59.3742 173.691 57.5335C174.364 57.1091 175.025 56.4944 175.723 55.8437C177.688 54.0128 180.132 51.7334 183.666 53.8531C184.539 54.377 185.33 55.1459 186.095 55.8896C188.061 57.8015 189.758 59.453 192.634 57.3727C193.205 56.9604 193.701 56.4398 194.228 55.8896C195.283 54.7849 196.374 53.6442 198.175 53.2723C201.37 52.6139 203.929 55.054 204.88 56.1346C205.064 56.3457 205.031 56.6563 204.804 56.8291C204.577 57.0019 204.242 56.9713 204.056 56.7591C203.23 55.8207 201.031 53.6945 198.405 54.2359C196.941 54.5378 196.009 55.5134 195.023 56.5448C194.488 57.1047 193.936 57.6833 193.288 58.1514C189.656 60.7786 187.255 58.4457 185.327 56.571C184.57 55.836 183.857 55.1426 183.088 54.681C180.279 52.9956 178.433 54.7171 176.476 56.5393C175.773 57.1944 175.045 57.8715 174.287 58.3494C173.155 59.0625 172.165 59.3502 171.278 59.3502H171.28Z" fill="#367C2E"/>
</g>
<g clip-path="url(#clip4_198_1065)">
<path d="M77.6149 58.3502C75.6253 58.3502 74.1657 56.9043 72.8275 55.5808C72.1748 54.9355 71.5587 54.3263 70.8932 53.8681C68.166 51.9923 66.4414 53.4535 64.2585 55.3009C62.5492 56.7479 60.6102 58.3895 58.0127 58.0253C56.0842 57.7563 54.5787 56.5007 53.1227 55.2855C50.7949 53.342 48.956 51.8053 45.9745 54.5254C45.6199 54.8502 45.2912 55.2177 44.9437 55.6071C44.0943 56.5608 43.2155 57.5474 41.8055 58.033C39.791 58.7253 37.6741 58.1467 35.8482 56.3968C35.5348 56.0971 35.2403 55.7766 34.9447 55.4562C34.0282 54.4609 33.1635 53.5214 31.7275 53.1856C30.1807 52.8247 28.7977 53.2687 27.2451 54.6238C26.9212 54.906 26.6007 55.2298 26.2603 55.571C25.0269 56.8091 23.6298 58.2124 21.461 58.3141C19.0885 58.4213 17.5335 56.8244 16.2754 55.5382C16.0209 55.2779 15.7735 55.0241 15.5285 54.7945C13.4151 52.8115 10.9625 52.6365 8.7973 54.3176C8.38852 54.6337 7.97622 55.0187 7.54035 55.4255C6.02895 56.8343 4.14883 58.5886 1.43349 58.1194C1.14487 58.0691 0.954032 57.8121 1.00822 57.5441C1.06123 57.2761 1.34042 57.0989 1.62786 57.1493C3.78953 57.5178 5.31389 56.1015 6.78759 54.7288C7.24231 54.3056 7.67111 53.9063 8.11522 53.5618C10.681 51.5701 13.8098 51.779 16.286 54.1021C16.5404 54.3417 16.7984 54.6041 17.0635 54.8754C18.2863 56.1244 19.5585 57.4128 21.408 57.3297C23.1444 57.2488 24.3319 56.0555 25.4804 54.9027C25.8327 54.5484 26.1672 54.2126 26.5183 53.9063C27.6645 52.9067 29.4775 51.6434 31.9878 52.2297C33.7525 52.642 34.7703 53.7467 35.754 54.8163C36.0355 55.1215 36.3147 55.4266 36.6127 55.711C37.6836 56.738 39.3905 57.8132 41.4379 57.1088C42.5806 56.715 43.331 55.8718 44.1273 54.9782C44.476 54.5866 44.8365 54.182 45.2311 53.8221C48.9231 50.4524 51.5324 52.6311 53.8342 54.5527C55.1725 55.6705 56.5578 56.8255 58.1705 57.0508C60.2686 57.3428 61.8589 55.9976 63.5423 54.5724C65.6769 52.7656 68.0965 50.7181 71.5246 53.0751C72.2679 53.5859 72.9453 54.2574 73.6014 54.906C75.4827 56.7675 77.106 58.3742 80.0264 56.5335C80.699 56.1091 81.3599 55.4944 82.0584 54.8437C84.0234 53.0128 86.4666 50.7334 90.0007 52.8531C90.8736 53.377 91.6652 54.1459 92.4297 54.8896C94.3959 56.8015 96.0934 58.453 98.9689 56.3727C99.5403 55.9604 100.036 55.4398 100.563 54.8896C101.618 53.7849 102.709 52.6442 104.51 52.2723C107.705 51.6139 110.264 54.054 111.214 55.1346C111.399 55.3457 111.366 55.6563 111.139 55.8291C110.912 56.0019 110.577 55.9713 110.391 55.7591C109.565 54.8207 107.366 52.6945 104.74 53.2359C103.276 53.5378 102.344 54.5134 101.358 55.5448C100.823 56.1047 100.271 56.6833 99.6227 57.1514C95.9909 59.7786 93.5901 57.4457 91.6617 55.571C90.9054 54.836 90.1915 54.1426 89.4234 53.681C86.6138 51.9956 84.7679 53.7171 82.8112 55.5393C82.1079 56.1944 81.3799 56.8715 80.6224 57.3494C79.4903 58.0625 78.4996 58.3502 77.6126 58.3502H77.6149Z" fill="#367C2E"/>
</g>
<g clip-path="url(#clip5_198_1065)">
<path d="M171.28 58.3502C169.29 58.3502 167.831 56.9043 166.492 55.5808C165.84 54.9355 165.224 54.3263 164.558 53.8681C161.831 51.9923 160.106 53.4535 157.924 55.3009C156.214 56.7479 154.275 58.3895 151.678 58.0253C149.749 57.7563 148.244 56.5007 146.788 55.2855C144.46 53.342 142.621 51.8053 139.64 54.5254C139.285 54.8502 138.956 55.2177 138.609 55.6071C137.759 56.5608 136.881 57.5474 135.47 58.033C133.456 58.7253 131.339 58.1467 129.513 56.3968C129.2 56.0971 128.905 55.7766 128.61 55.4562C127.693 54.4609 126.829 53.5214 125.393 53.1856C123.846 52.8247 122.463 53.2687 120.91 54.6238C120.586 54.906 120.266 55.2298 119.925 55.571C118.692 56.8091 117.295 58.2124 115.126 58.3141C112.754 58.4213 111.199 56.8244 109.94 55.5382C109.686 55.2779 109.439 55.0241 109.194 54.7945C107.08 52.8115 104.628 52.6365 102.462 54.3176C102.054 54.6337 101.641 55.0187 101.205 55.4255C99.694 56.8343 97.8139 58.5886 95.0985 58.1194C94.8099 58.0691 94.6191 57.8121 94.6733 57.5441C94.7263 57.2761 95.0055 57.0989 95.2929 57.1493C97.4546 57.5178 98.9789 56.1015 100.453 54.7288C100.907 54.3056 101.336 53.9063 101.78 53.5618C104.346 51.5701 107.475 51.779 109.951 54.1021C110.205 54.3417 110.463 54.6041 110.729 54.8754C111.951 56.1244 113.224 57.4128 115.073 57.3297C116.809 57.2488 117.997 56.0555 119.145 54.9027C119.498 54.5484 119.832 54.2126 120.183 53.9063C121.33 52.9067 123.142 51.6434 125.653 52.2297C127.418 52.642 128.435 53.7467 129.419 54.8163C129.701 55.1215 129.98 55.4266 130.278 55.711C131.349 56.738 133.056 57.8132 135.103 57.1088C136.246 56.715 136.996 55.8718 137.792 54.9782C138.141 54.5866 138.502 54.182 138.896 53.8221C142.588 50.4524 145.197 52.6311 147.499 54.5527C148.837 55.6705 150.223 56.8255 151.836 57.0508C153.934 57.3428 155.524 55.9976 157.207 54.5724C159.342 52.7656 161.762 50.7181 165.19 53.0751C165.933 53.5859 166.61 54.2574 167.266 54.906C169.148 56.7675 170.771 58.3742 173.691 56.5335C174.364 56.1091 175.025 55.4944 175.723 54.8437C177.688 53.0128 180.132 50.7334 183.666 52.8531C184.539 53.377 185.33 54.1459 186.095 54.8896C188.061 56.8015 189.758 58.453 192.634 56.3727C193.205 55.9604 193.701 55.4398 194.228 54.8896C195.283 53.7849 196.374 52.6442 198.175 52.2723C201.37 51.6139 203.929 54.054 204.88 55.1346C205.064 55.3457 205.031 55.6563 204.804 55.8291C204.577 56.0019 204.242 55.9713 204.056 55.7591C203.23 54.8207 201.031 52.6945 198.405 53.2359C196.941 53.5378 196.009 54.5134 195.023 55.5448C194.488 56.1047 193.936 56.6833 193.288 57.1514C189.656 59.7786 187.255 57.4457 185.327 55.571C184.57 54.836 183.857 54.1426 183.088 53.681C180.279 51.9956 178.433 53.7171 176.476 55.5393C175.773 56.1944 175.045 56.8715 174.287 57.3494C173.155 58.0625 172.165 58.3502 171.278 58.3502H171.28Z" fill="#367C2E"/>
</g>
<g clip-path="url(#clip6_198_1065)">
<path d="M77.6149 59.3502C75.6253 59.3502 74.1657 57.9043 72.8275 56.5808C72.1748 55.9355 71.5587 55.3263 70.8932 54.8681C68.166 52.9923 66.4414 54.4535 64.2585 56.3009C62.5492 57.7479 60.6102 59.3895 58.0127 59.0253C56.0842 58.7563 54.5787 57.5007 53.1227 56.2855C50.7949 54.342 48.956 52.8053 45.9745 55.5254C45.6199 55.8502 45.2912 56.2177 44.9437 56.6071C44.0943 57.5608 43.2155 58.5474 41.8055 59.033C39.791 59.7253 37.6741 59.1467 35.8482 57.3968C35.5348 57.0971 35.2403 56.7766 34.9447 56.4562C34.0282 55.4609 33.1635 54.5214 31.7275 54.1856C30.1807 53.8247 28.7977 54.2687 27.2451 55.6238C26.9212 55.906 26.6007 56.2298 26.2603 56.571C25.0269 57.8091 23.6298 59.2124 21.461 59.3141C19.0885 59.4213 17.5335 57.8244 16.2754 56.5382C16.0209 56.2779 15.7735 56.0241 15.5285 55.7945C13.4151 53.8115 10.9625 53.6365 8.7973 55.3176C8.38852 55.6337 7.97622 56.0187 7.54035 56.4255C6.02895 57.8343 4.14883 59.5886 1.43349 59.1194C1.14487 59.0691 0.954032 58.8121 1.00822 58.5441C1.06123 58.2761 1.34042 58.0989 1.62786 58.1493C3.78953 58.5178 5.31389 57.1015 6.78759 55.7288C7.24231 55.3056 7.67111 54.9063 8.11522 54.5618C10.681 52.5701 13.8098 52.779 16.286 55.1021C16.5404 55.3417 16.7984 55.6041 17.0635 55.8754C18.2863 57.1244 19.5585 58.4128 21.408 58.3297C23.1444 58.2488 24.3319 57.0555 25.4804 55.9027C25.8327 55.5484 26.1672 55.2126 26.5183 54.9063C27.6645 53.9067 29.4775 52.6434 31.9878 53.2297C33.7525 53.642 34.7703 54.7467 35.754 55.8163C36.0355 56.1215 36.3147 56.4266 36.6127 56.711C37.6836 57.738 39.3905 58.8132 41.4379 58.1088C42.5806 57.715 43.331 56.8718 44.1273 55.9782C44.476 55.5866 44.8365 55.182 45.2311 54.8221C48.9231 51.4524 51.5324 53.6311 53.8342 55.5527C55.1725 56.6705 56.5578 57.8255 58.1705 58.0508C60.2686 58.3428 61.8589 56.9976 63.5423 55.5724C65.6769 53.7656 68.0965 51.7181 71.5246 54.0751C72.2679 54.5859 72.9453 55.2574 73.6014 55.906C75.4827 57.7675 77.106 59.3742 80.0264 57.5335C80.699 57.1091 81.3599 56.4944 82.0584 55.8437C84.0234 54.0128 86.4666 51.7334 90.0007 53.8531C90.8736 54.377 91.6652 55.1459 92.4297 55.8896C94.3959 57.8015 96.0934 59.453 98.9689 57.3727C99.5403 56.9604 100.036 56.4398 100.563 55.8896C101.618 54.7849 102.709 53.6442 104.51 53.2723C107.705 52.6139 110.264 55.054 111.214 56.1346C111.399 56.3457 111.366 56.6563 111.139 56.8291C110.912 57.0019 110.577 56.9713 110.391 56.7591C109.565 55.8207 107.366 53.6945 104.74 54.2359C103.276 54.5378 102.344 55.5134 101.358 56.5448C100.823 57.1047 100.271 57.6833 99.6227 58.1514C95.9909 60.7786 93.5901 58.4457 91.6617 56.571C90.9054 55.836 90.1915 55.1426 89.4234 54.681C86.6138 52.9956 84.7679 54.7171 82.8112 56.5393C82.1079 57.1944 81.3799 57.8715 80.6224 58.3494C79.4903 59.0625 78.4996 59.3502 77.6126 59.3502H77.6149Z" fill="#367C2E"/>
</g>
<g clip-path="url(#clip7_198_1065)">
<path d="M171.28 59.3502C169.29 59.3502 167.831 57.9043 166.492 56.5808C165.84 55.9355 165.224 55.3263 164.558 54.8681C161.831 52.9923 160.106 54.4535 157.924 56.3009C156.214 57.7479 154.275 59.3895 151.678 59.0253C149.749 58.7563 148.244 57.5007 146.788 56.2855C144.46 54.342 142.621 52.8053 139.64 55.5254C139.285 55.8502 138.956 56.2177 138.609 56.6071C137.759 57.5608 136.881 58.5474 135.47 59.033C133.456 59.7253 131.339 59.1467 129.513 57.3968C129.2 57.0971 128.905 56.7766 128.61 56.4562C127.693 55.4609 126.829 54.5214 125.393 54.1856C123.846 53.8247 122.463 54.2687 120.91 55.6238C120.586 55.906 120.266 56.2298 119.925 56.571C118.692 57.8091 117.295 59.2124 115.126 59.3141C112.754 59.4213 111.199 57.8244 109.94 56.5382C109.686 56.2779 109.439 56.0241 109.194 55.7945C107.08 53.8115 104.628 53.6365 102.462 55.3176C102.054 55.6337 101.641 56.0187 101.205 56.4255C99.694 57.8343 97.8139 59.5886 95.0985 59.1194C94.8099 59.0691 94.6191 58.8121 94.6733 58.5441C94.7263 58.2761 95.0055 58.0989 95.2929 58.1493C97.4546 58.5178 98.9789 57.1015 100.453 55.7288C100.907 55.3056 101.336 54.9063 101.78 54.5618C104.346 52.5701 107.475 52.779 109.951 55.1021C110.205 55.3417 110.463 55.6041 110.729 55.8754C111.951 57.1244 113.224 58.4128 115.073 58.3297C116.809 58.2488 117.997 57.0555 119.145 55.9027C119.498 55.5484 119.832 55.2126 120.183 54.9063C121.33 53.9067 123.142 52.6434 125.653 53.2297C127.418 53.642 128.435 54.7467 129.419 55.8163C129.701 56.1215 129.98 56.4266 130.278 56.711C131.349 57.738 133.056 58.8132 135.103 58.1088C136.246 57.715 136.996 56.8718 137.792 55.9782C138.141 55.5866 138.502 55.182 138.896 54.8221C142.588 51.4524 145.197 53.6311 147.499 55.5527C148.837 56.6705 150.223 57.8255 151.836 58.0508C153.934 58.3428 155.524 56.9976 157.207 55.5724C159.342 53.7656 161.762 51.7181 165.19 54.0751C165.933 54.5859 166.61 55.2574 167.266 55.906C169.148 57.7675 170.771 59.3742 173.691 57.5335C174.364 57.1091 175.025 56.4944 175.723 55.8437C177.688 54.0128 180.132 51.7334 183.666 53.8531C184.539 54.377 185.33 55.1459 186.095 55.8896C188.061 57.8015 189.758 59.453 192.634 57.3727C193.205 56.9604 193.701 56.4398 194.228 55.8896C195.283 54.7849 196.374 53.6442 198.175 53.2723C201.37 52.6139 203.929 55.054 204.88 56.1346C205.064 56.3457 205.031 56.6563 204.804 56.8291C204.577 57.0019 204.242 56.9713 204.056 56.7591C203.23 55.8207 201.031 53.6945 198.405 54.2359C196.941 54.5378 196.009 55.5134 195.023 56.5448C194.488 57.1047 193.936 57.6833 193.288 58.1514C189.656 60.7786 187.255 58.4457 185.327 56.571C184.57 55.836 183.857 55.1426 183.088 54.681C180.279 52.9956 178.433 54.7171 176.476 56.5393C175.773 57.1944 175.045 57.8715 174.287 58.3494C173.155 59.0625 172.165 59.3502 171.278 59.3502H171.28Z" fill="#367C2E"/>
</g>
<defs>
<clipPath id="clip0_198_1065">
<rect width="110.335" height="6.35019" fill="white" transform="translate(1 52)"/>
</clipPath>
<clipPath id="clip1_198_1065">
<rect width="110.335" height="6.35019" fill="white" transform="translate(94.665 52)"/>
</clipPath>
<clipPath id="clip2_198_1065">
<rect width="110.335" height="6.35019" fill="white" transform="translate(1 53)"/>
</clipPath>
<clipPath id="clip3_198_1065">
<rect width="110.335" height="6.35019" fill="white" transform="translate(94.665 53)"/>
</clipPath>
<clipPath id="clip4_198_1065">
<rect width="110.335" height="6.35019" fill="white" transform="translate(1 52)"/>
</clipPath>
<clipPath id="clip5_198_1065">
<rect width="110.335" height="6.35019" fill="white" transform="translate(94.665 52)"/>
</clipPath>
<clipPath id="clip6_198_1065">
<rect width="110.335" height="6.35019" fill="white" transform="translate(1 53)"/>
</clipPath>
<clipPath id="clip7_198_1065">
<rect width="110.335" height="6.35019" fill="white" transform="translate(94.665 53)"/>
</clipPath>
</defs>
</svg>
