<svg width="18" height="14" viewBox="0 0 18 14" fill="none" xmlns="http://www.w3.org/2000/svg">
<path d="M9.00704 0.792622C11.6508 0.792622 14.2987 0.792622 16.9425 0.792622C17.2423 0.792622 17.5212 0.834257 17.7419 1.06324C17.95 1.27558 18 1.54204 18 1.82931C18 4.49389 18 7.16263 18 9.82721C18 10.6099 18 11.3927 18 12.1754C18 12.8748 17.6544 13.2162 16.9508 13.2162C11.7008 13.2162 6.45487 13.2162 1.20482 13.2162C1.14237 13.2162 1.07992 13.2162 1.01747 13.2162C0.355484 13.2079 0.00575796 12.8582 0.00575796 12.1962C0.00575796 9.2943 0.00575796 6.3924 0.00575796 3.49051C0.00575796 2.94927 0.0224116 2.40802 0.00159461 1.87094C-0.0275492 1.21729 0.342994 0.775969 1.09657 0.784296C3.73201 0.800949 6.37161 0.792622 9.00704 0.792622ZM17.2214 2.07495C17.109 2.17904 17.0216 2.25398 16.9383 2.33308C14.6485 4.48973 12.3627 6.64221 10.0729 8.79885C9.37758 9.45251 8.63234 9.45251 7.94121 8.79885C5.61387 6.61723 3.29069 4.42728 0.963341 2.24149C0.909217 2.19153 0.855093 2.14573 0.788478 2.0916C0.788478 5.34323 0.788478 8.56986 0.788478 11.8298C0.85093 11.7674 0.8884 11.7257 0.925871 11.6841C1.8668 10.6391 2.80773 9.59406 3.74866 8.55321C4.14002 8.12022 4.52722 7.68722 4.91858 7.25839C5.0643 7.09602 5.25998 7.06271 5.42235 7.16263C5.58889 7.26256 5.63468 7.4166 5.58889 7.59146C5.56391 7.6789 5.49729 7.76216 5.43484 7.83294C4.11504 9.29846 2.79108 10.764 1.47128 12.2295C1.41715 12.2878 1.36719 12.3502 1.30058 12.4293C6.45071 12.4293 11.5634 12.4293 16.7177 12.4293C16.6302 12.3336 16.5678 12.2586 16.5053 12.192C15.1897 10.7307 13.8699 9.27348 12.5543 7.81212C12.3627 7.59979 12.3544 7.36248 12.5293 7.20843C12.7041 7.05438 12.9331 7.08769 13.1288 7.30419C14.1822 8.46994 15.2313 9.63986 16.2847 10.8056C16.5886 11.1428 16.8925 11.4759 17.2256 11.8423C17.2214 8.5657 17.2214 5.34323 17.2214 2.07495ZM1.42132 1.56285C1.40883 1.57534 1.4005 1.592 1.38801 1.60449C1.44213 1.64612 1.49626 1.68359 1.54205 1.72523C3.0159 3.11164 4.48558 4.49805 5.95943 5.8803C6.82125 6.69217 7.68308 7.50403 8.54907 8.31173C8.83218 8.57819 9.16942 8.56986 9.46085 8.3159C9.5233 8.26177 9.58576 8.20348 9.64404 8.1452C11.9131 6.00937 14.1822 3.87354 16.4512 1.73772C16.5053 1.68775 16.572 1.65445 16.6344 1.61698C16.6177 1.59616 16.6053 1.57951 16.5886 1.55869C11.5301 1.56285 6.47569 1.56285 1.42132 1.56285Z" fill="#D9D9D9"/>
</svg>
