<svg width="182" height="40" viewBox="0 0 182 40" fill="none" xmlns="http://www.w3.org/2000/svg">
<path d="M66.8245 13.1306H62.6709V32.9606H66.8245V24.9214H75.9356V32.9606H79.9552V13.1306H75.9356V21.1698H66.8245V13.1306ZM98.7133 24.5194C98.7133 27.7351 97.1054 29.4769 94.1577 29.4769C91.21 29.4769 89.6022 27.7351 89.6022 24.3854V13.1306H85.5826V24.5194C85.5826 30.1468 88.6643 33.3625 94.1577 33.3625C99.6512 33.3625 102.733 30.1468 102.733 24.3854V13.1306H98.7133V24.5194ZM137.569 13.1306L133.014 26.7972L128.592 13.1306H124.305L131.272 32.9606H134.622L139.177 19.9639L143.599 32.9606H147.082L153.916 13.1306H149.762L145.341 26.7972L140.785 13.1306H137.569ZM168.52 20.7678H161.151V16.7482H171.87V13.1306H157.131V32.9606H172.272V29.3429H161.151V24.3854H168.52V20.7678ZM177.095 13.1306H181.115V32.9606H177.095V13.1306ZM119.749 28.807L121.491 32.9606H125.779L117.069 13.1306L116.935 12.9966H113.452L104.743 32.9606H108.896L110.638 29.075L110.772 28.807H119.749ZM115.194 18.0881L118.007 24.7874L118.141 25.1893H111.978L112.112 24.7874L115.194 18.0881Z" fill="#67A58D"/>
<path d="M23.0113 30.9509C23.0113 30.9509 23.1453 30.8169 23.0113 30.8169C16.8479 17.4182 8.40679 7.10128 8.40679 7.10128C8.40679 7.10128 3.85125 11.3888 4.11922 15.8104C4.25321 19.1601 6.79895 21.0359 6.79895 21.0359C10.8185 24.9215 20.4656 29.879 22.7433 30.9509H23.0113ZM21.4035 34.3005C21.4035 34.1665 21.1355 34.1665 21.1355 34.1665L5.05713 34.7025C6.79895 37.7842 9.74665 40.1959 12.8283 39.526C14.9721 38.9901 19.7956 35.6404 21.2695 34.5685C21.5375 34.3005 21.4035 34.3005 21.4035 34.3005ZM21.6714 32.8267C21.8054 32.6927 21.6714 32.5587 21.6714 32.5587C14.5702 27.7352 0.903545 20.4999 0.903545 20.4999C-0.302333 24.3855 1.3055 27.4672 1.3055 27.4672C3.04733 31.2188 6.39699 32.2907 6.39699 32.2907C7.87084 32.9607 9.47868 32.9607 9.47868 32.9607H21.5375C21.6714 32.9607 21.6714 32.8267 21.6714 32.8267ZM22.7433 0.133986C22.0734 0.133986 20.1976 0.669932 20.1976 0.669932C15.91 1.74182 14.9721 5.62743 14.9721 5.62743C14.1682 8.03919 14.9721 10.7189 14.9721 10.7189C16.446 17.0163 23.4133 27.4672 24.8871 29.611L25.0211 29.745C25.1551 29.745 25.1551 29.611 25.1551 29.611C27.5668 6.16338 22.7433 0.133986 22.7433 0.133986ZM28.1028 29.611C28.2368 29.611 28.3708 29.477 28.3708 29.477C29.9786 27.1992 36.8119 16.8823 38.2858 10.5849C38.2858 10.5849 39.0897 7.50324 38.2858 5.49344C38.2858 5.49344 37.2139 1.60784 32.9263 0.535946C32.9263 0.535946 31.7204 0.267973 30.3806 0C30.3806 0 25.5571 6.16338 27.9688 29.343C27.9688 29.611 28.1028 29.611 28.1028 29.611ZM31.8544 34.1665C31.8544 34.1665 31.7204 34.1665 31.7204 34.3005V34.5685C33.3283 35.6404 37.8838 38.9901 40.1616 39.526C40.1616 39.526 44.3152 40.9999 47.9328 34.7025L31.8544 34.1665ZM52.3543 20.3659C52.3543 20.3659 38.6877 27.7352 31.5864 32.5587C31.5864 32.5587 31.4525 32.6927 31.4525 32.8267C31.4525 32.8267 31.4525 32.9607 31.5864 32.9607H43.9132C43.9132 32.9607 45.1191 32.9607 46.7269 32.2907C46.7269 32.2907 50.0766 31.2188 51.9524 27.3332C51.9524 27.1992 53.5602 24.1176 52.3543 20.3659ZM30.2466 30.9509C30.2466 30.9509 30.3806 31.0849 30.5146 30.9509C32.7923 29.745 42.4393 24.9215 46.4589 21.0359C46.4589 21.0359 49.0047 19.0261 49.1387 15.8104C49.4066 11.2549 44.8511 7.10128 44.8511 7.10128C44.8511 7.10128 36.41 17.1503 30.2466 30.6829C30.2466 30.6829 30.1126 30.8169 30.2466 30.9509Z" fill="#67A58D"/>
</svg>
