<svg width="146" height="29" viewBox="0 0 146 29" fill="none" xmlns="http://www.w3.org/2000/svg">
<path d="M137.511 24.1737C137.511 22.054 139.236 20.3344 141.359 20.3344C143.484 20.3344 145.207 22.054 145.207 24.1737C145.207 26.2933 143.484 28.012 141.359 28.012C139.236 28.012 137.511 26.2933 137.511 24.1737Z" fill="#67A58D"/>
<path d="M14.7711 14.0057C14.7711 11.574 14.3 9.76984 13.3577 8.59457C12.4145 7.42011 10.9858 6.83354 9.06477 6.83354H7.02131V21.7044H8.5848C10.7186 21.7044 12.2821 21.0735 13.2776 19.807C14.2721 18.5429 14.7711 16.6087 14.7711 14.0057ZM22.0584 13.7524C22.0584 18.1829 20.8646 21.5968 18.4771 23.993C16.0895 26.3903 12.733 27.589 8.40662 27.589H0V1.04138H8.99346C13.1651 1.04138 16.3857 2.13129 18.6551 4.30981C20.9238 6.48948 22.0584 9.63542 22.0584 13.7524ZM45.3448 27.5887H52.0344V0.930019H45.3448V27.5887ZM61.4317 17.6449C61.4317 19.3446 61.6545 20.641 62.0989 21.5319C62.5443 22.4241 63.2903 22.8696 64.3394 22.8696C65.3772 22.8696 66.1112 22.4241 66.5387 21.5319C66.9664 20.641 67.179 19.3446 67.179 17.6449C67.179 15.954 66.963 14.6786 66.5299 13.8176C66.0955 12.9545 65.355 12.5223 64.305 12.5223C63.2781 12.5223 62.5444 12.9524 62.0989 13.8077C61.6545 14.6642 61.4317 15.9429 61.4317 17.6449ZM73.9877 17.6449C73.9877 20.8832 73.137 23.4094 71.4308 25.2203C69.7261 27.0322 67.3393 27.9388 64.2715 27.9388C61.3293 27.9388 58.9873 27.0122 57.2491 25.1591C55.5085 23.3062 54.6388 20.8021 54.6388 17.6449C54.6388 14.4165 55.4907 11.908 57.1968 10.1193C58.9027 8.3308 61.2948 7.43647 64.375 7.43647C66.2781 7.43647 67.9619 7.85084 69.4208 8.67862C70.8807 9.50607 72.0077 10.6916 72.7994 12.2357C73.5923 13.7777 73.9877 15.5818 73.9877 17.6449ZM76.6442 27.5888H83.3349V7.78658H76.6442V27.5888ZM76.6441 5.39139H83.3346V0.928711H76.6441V5.39139ZM96.8895 22.5381C97.7928 22.5381 98.8686 22.3092 100.124 21.8549V26.8372C99.2215 27.2328 98.364 27.516 97.5488 27.6838C96.7337 27.8539 95.777 27.9383 94.6825 27.9383C92.4362 27.9383 90.8172 27.3751 89.8227 26.2507C88.8326 25.1264 88.3359 23.4001 88.3359 21.0704V12.9075H85.9929V7.78821H88.336V2.73128L95.0779 1.56156V7.78821H99.3463V12.9075H95.0777V20.615C95.0777 21.8971 95.6826 22.5381 96.8895 22.5381ZM112.374 22.5381C113.277 22.5381 114.353 22.3092 115.608 21.8549V26.8372C114.707 27.2328 113.849 27.516 113.033 27.6838C112.217 27.8539 111.264 27.9383 110.167 27.9383C107.921 27.9383 106.301 27.3751 105.309 26.2507C104.317 25.1264 103.82 23.4001 103.82 21.0704V12.9075H101.476V7.78821H103.82V2.65458L110.561 1.56156V7.78821H114.832V12.9075H110.561V20.615C110.561 21.8971 111.166 22.5381 112.374 22.5381ZM124.05 15.2325C124.141 14.1483 124.452 13.3539 124.982 12.8461C125.514 12.3395 126.171 12.0864 126.958 12.0864C127.815 12.0864 128.496 12.3708 129.002 12.9439C129.511 13.5138 129.776 14.277 129.797 15.2325H124.05ZM133.484 9.77115C131.894 8.21584 129.638 7.43712 126.719 7.43712C123.651 7.43712 121.29 8.33145 119.635 10.12C117.982 11.9086 117.154 14.4747 117.154 17.8188C117.154 21.057 118.049 23.5544 119.833 25.3074C121.618 27.0605 124.124 27.9381 127.353 27.9381C128.903 27.9381 130.237 27.8326 131.355 27.6225C132.467 27.4148 133.542 27.0394 134.586 26.4973L133.558 22.0346C132.799 22.3435 132.078 22.5813 131.396 22.7378C130.412 22.9656 129.332 23.08 128.156 23.08C126.866 23.08 125.848 22.7657 125.102 22.1368C124.356 21.5069 123.958 20.6382 123.913 19.5318H135.871V16.4912C135.871 13.5661 135.076 11.3253 133.484 9.77115ZM30.9372 15.2325C31.0285 14.1483 31.3391 13.3539 31.8692 12.8461C32.4003 12.3395 33.0585 12.0864 33.8458 12.0864C34.7012 12.0864 35.3826 12.3708 35.8894 12.9439C36.3982 13.5138 36.6622 14.277 36.6856 15.2325H30.9372ZM40.3726 9.77115C38.7814 8.21584 36.5263 7.43712 33.6065 7.43712C30.5372 7.43712 28.1775 8.33145 26.5239 10.12C24.8702 11.9086 24.0416 14.4747 24.0416 17.8188C24.0416 21.057 24.9348 23.5544 26.7209 25.3074C28.505 27.0605 31.0117 27.9381 34.24 27.9381C35.7903 27.9381 37.1243 27.8326 38.2424 27.6225C39.3538 27.4148 40.4294 27.0394 41.4741 26.4973L40.4452 22.0346C39.6867 22.3435 38.9649 22.5813 38.2847 22.7378C37.298 22.9656 36.2189 23.08 35.0429 23.08C33.7545 23.08 32.7356 22.7657 31.9895 22.1368C31.2422 21.5069 30.8458 20.6382 30.8001 19.5318H42.7581V16.4912C42.7581 13.5661 41.9629 11.3253 40.3727 9.77115" fill="#67A58D"/>
</svg>
