<svg width="141" height="38" viewBox="0 0 141 38" fill="none" xmlns="http://www.w3.org/2000/svg">
<path d="M5.64965 0C5.24282 0 4.89727 0.295345 4.83365 0.697506L0.12447 30.5618C0.107358 30.6709 0.114082 30.7824 0.144171 30.8887C0.174259 30.9949 0.227013 31.0934 0.298785 31.1773C0.370556 31.2612 0.459626 31.3286 0.559919 31.3748C0.660213 31.421 0.76934 31.445 0.879764 31.445H6.46448C6.87072 31.445 7.21685 31.149 7.28048 30.7475L8.66381 21.9776C8.72685 21.576 9.07298 21.2801 9.47981 21.2801H14.5573C20.4899 21.2801 25.526 16.9514 26.4458 11.086C27.3733 5.17088 22.7523 0.0128411 16.2027 0H5.64965ZM11.0785 6.66687H15.141C18.4855 6.66687 19.5747 8.64032 19.2303 10.8227C18.8859 13.0098 17.1944 14.6208 13.959 14.6208H9.82417L11.0785 6.66687ZM37.8044 8.69693C36.3942 8.70219 34.7716 8.99111 32.9499 9.74991C28.7713 11.4916 26.7645 15.0912 25.9124 17.7155C25.9124 17.7155 23.2 25.7219 29.3281 30.1206C29.3281 30.1206 35.0114 34.3552 41.4092 29.8597L41.2989 30.5618C41.2818 30.6708 41.2885 30.7822 41.3185 30.8884C41.3486 30.9946 41.4012 31.093 41.4728 31.1769C41.5445 31.2608 41.6334 31.3282 41.7336 31.3745C41.8337 31.4207 41.9427 31.4448 42.053 31.445H47.3547C47.7615 31.445 48.107 31.149 48.1707 30.7475L51.3955 10.2962C51.4128 10.1872 51.4063 10.0756 51.3763 9.96932C51.3464 9.86301 51.2938 9.76446 51.2221 9.68042C51.1505 9.59639 51.0614 9.52888 50.9612 9.48253C50.861 9.43619 50.7519 9.41211 50.6414 9.41195H45.3398C44.933 9.41195 44.5868 9.70788 44.5238 10.1095L44.3504 11.2103C44.3504 11.2103 42.0355 8.68117 37.8044 8.69693ZM37.9777 15.1566C38.5865 15.1566 39.1434 15.2407 39.643 15.4012C41.9305 16.1354 43.2274 18.333 42.8521 20.715C42.3892 23.6481 39.9839 25.8077 36.8991 25.8077C36.2909 25.8077 35.734 25.7242 35.2338 25.5637C32.9469 24.8295 31.6418 22.6319 32.0171 20.2499C32.48 17.3168 34.8929 15.1566 37.9777 15.1566Z" fill="#67A58D"/>
<path d="M81.9954 0C81.5885 0 81.243 0.295345 81.1794 0.697506L76.4702 30.5618C76.4531 30.6709 76.4598 30.7824 76.4899 30.8887C76.52 30.9949 76.5727 31.0934 76.6445 31.1773C76.7163 31.2612 76.8054 31.3286 76.9057 31.3748C77.006 31.421 77.115 31.445 77.2255 31.445H82.8102C83.2164 31.445 83.5626 31.149 83.6262 30.7475L85.0095 21.9776C85.0726 21.576 85.4187 21.2801 85.8255 21.2801H90.903C96.8356 21.2801 101.871 16.9514 102.79 11.086C103.718 5.17088 99.098 0.0128411 92.5484 0H81.9954ZM87.4242 6.66687H91.4867C94.8312 6.66687 95.9204 8.64032 95.576 10.8227C95.2316 13.0098 93.5407 14.6208 90.3047 14.6208H86.1699L87.4242 6.66687ZM114.15 8.69693C112.739 8.70219 111.117 8.99111 109.295 9.74991C105.116 11.4916 103.11 15.0912 102.257 17.7155C102.257 17.7155 99.5462 25.7219 105.674 30.1206C105.674 30.1206 111.357 34.3552 117.755 29.8597L117.645 30.5618C117.628 30.6709 117.634 30.7824 117.664 30.8887C117.694 30.9949 117.747 31.0934 117.819 31.1773C117.891 31.2612 117.98 31.3286 118.08 31.3748C118.18 31.421 118.289 31.445 118.4 31.445H123.701C124.108 31.445 124.453 31.149 124.517 30.7475L127.743 10.2962C127.76 10.1871 127.754 10.0754 127.724 9.96904C127.694 9.86265 127.641 9.76403 127.569 9.67998C127.497 9.59593 127.408 9.52844 127.308 9.48217C127.207 9.4359 127.098 9.41194 126.988 9.41195H121.686C121.279 9.41195 120.933 9.70788 120.87 10.1095L120.697 11.2103C120.697 11.2103 118.381 8.68117 114.15 8.69693ZM114.323 15.1566C114.932 15.1566 115.489 15.2407 115.988 15.4012C118.276 16.1354 119.573 18.333 119.197 20.715C118.734 23.6481 116.329 25.8077 113.244 25.8077C112.636 25.8077 112.079 25.7242 111.579 25.5637C109.292 24.8295 107.987 22.6319 108.362 20.2499C108.825 17.3168 111.238 15.1566 114.323 15.1566Z" fill="#67A58D"/>
<path d="M53.9108 9.41172C53.4906 9.41172 53.1917 9.82205 53.3201 10.2219L59.1325 28.2584L53.8769 36.758C53.6219 37.1707 53.9184 37.7036 54.4034 37.7036H60.615C60.7927 37.7034 60.9673 37.6575 61.122 37.5702C61.2767 37.4829 61.4062 37.3571 61.4981 37.2051L77.7311 10.3515C77.9803 9.93879 77.6826 9.41113 77.2005 9.41113H70.9895C70.8101 9.41129 70.6339 9.45813 70.4781 9.54707C70.3223 9.63601 70.1924 9.76397 70.1011 9.91836L63.7115 20.7061L60.468 9.99832C60.3623 9.64986 60.0407 9.41113 59.677 9.41113L53.9108 9.41172Z" fill="#67A58D"/>
<path d="M133.767 0C133.361 0 133.015 0.295929 132.951 0.697506L128.241 30.5607C128.224 30.6699 128.23 30.7815 128.26 30.8879C128.29 30.9943 128.343 31.0929 128.415 31.1769C128.486 31.261 128.576 31.3285 128.676 31.3748C128.776 31.421 128.886 31.445 128.996 31.445H134.581C134.987 31.445 135.333 31.149 135.397 30.7475L140.106 0.883119C140.123 0.774126 140.116 0.662723 140.086 0.55656C140.056 0.450398 140.004 0.351989 139.932 0.26809C139.86 0.184192 139.772 0.11679 139.671 0.0705138C139.571 0.0242374 139.462 0.000183218 139.352 0H133.767Z" fill="#67A58D"/>
</svg>
