<svg width="133" height="41" viewBox="0 0 133 41" fill="none" xmlns="http://www.w3.org/2000/svg">
<path fill-rule="evenodd" clip-rule="evenodd" d="M82.5189 31.7041C74.8001 37.3936 63.6121 40.4291 53.9794 40.4291C40.4727 40.4291 28.3134 35.4334 19.1142 27.1249C18.3916 26.4713 19.0392 25.581 19.9064 26.0899C29.834 31.866 42.1091 35.341 54.7889 35.341C63.3404 35.341 72.7475 33.5717 81.3973 29.9002C82.7039 29.3451 83.7967 30.7559 82.5189 31.7041Z" fill="#67A58D"/>
<path fill-rule="evenodd" clip-rule="evenodd" d="M85.7288 28.0325C84.7459 26.7719 79.2067 27.4369 76.7204 27.7318C75.963 27.8243 75.8475 27.1651 76.5297 26.691C80.9413 23.5862 88.1803 24.4824 89.0244 25.5231C89.8686 26.5696 88.8047 33.8259 84.659 37.2893C84.0231 37.8213 83.4159 37.5379 83.6992 36.8325C84.6302 34.5083 86.7175 29.2987 85.7288 28.0325Z" fill="#67A58D"/>
<path fill-rule="evenodd" clip-rule="evenodd" d="M76.8935 4.77187V1.75375C76.8935 1.29695 77.2405 0.990515 77.6567 0.990515H91.1691C91.6028 0.990515 91.9498 1.30266 91.9498 1.75375V4.33819C91.9439 4.77187 91.5797 5.33852 90.9322 6.23471L83.9302 16.2316C86.5321 16.1682 89.2784 16.5555 91.6375 17.8854C92.1695 18.1859 92.314 18.6255 92.3545 19.059V22.2796C92.3545 22.719 91.8687 23.2336 91.36 22.9676C87.2027 20.7879 81.6811 20.5508 77.0844 22.9908C76.616 23.2453 76.1246 22.7364 76.1246 22.297V19.2383C76.1246 18.7469 76.1303 17.9085 76.6217 17.1626L84.7338 5.52939H77.674C77.2405 5.52939 76.8935 5.22296 76.8935 4.77187ZM27.6026 23.6036H23.4916C23.0984 23.5748 22.7863 23.2799 22.7573 22.904V1.80582C22.7573 1.38369 23.11 1.0483 23.5494 1.0483H27.3828C27.7818 1.06556 28.0998 1.37213 28.1287 1.75361V4.5118H28.2039C29.2041 1.84633 31.0833 0.60332 33.6158 0.60332C36.1886 0.60332 37.7961 1.84633 38.9525 4.5118C39.947 1.84633 42.2078 0.60332 44.6304 0.60332C46.3533 0.60332 48.2383 1.31448 49.3889 2.91028C50.6898 4.68527 50.4239 7.264 50.4239 9.52474L50.418 22.8405C50.418 23.2627 50.0654 23.6038 49.626 23.6038H45.5208C45.1103 23.5749 44.7807 23.2454 44.7807 22.8405V11.6582C44.7807 10.7677 44.8617 8.54739 44.6651 7.7034C44.3587 6.28678 43.4394 5.88777 42.2481 5.88777C41.2537 5.88777 40.2129 6.5527 39.7908 7.61666C39.3688 8.68062 39.4093 10.4613 39.4093 11.6582V22.8404C39.4093 23.2625 39.0565 23.6036 38.6171 23.6036H34.512C34.0957 23.5748 33.7718 23.2453 33.7718 22.8404L33.7661 11.6582C33.7661 9.30491 34.1535 5.84167 31.2336 5.84167C28.2791 5.84167 28.3947 9.21817 28.3947 11.6582V22.8404C28.3947 23.2625 28.042 23.6036 27.6026 23.6036ZM103.583 0.603187C109.683 0.603187 112.984 5.84154 112.984 12.5024C112.984 18.9376 109.336 24.0432 103.583 24.0432C97.5928 24.0432 94.3319 18.8047 94.3319 12.2768C94.3319 5.70858 97.6334 0.603187 103.583 0.603187ZM103.618 4.91068C100.588 4.91068 100.397 9.03899 100.397 11.6119C100.397 14.1907 100.357 19.695 103.583 19.695C106.769 19.695 106.919 15.2546 106.919 12.5486C106.919 10.7677 106.844 8.63997 106.306 6.95172C105.844 5.48304 104.924 4.91068 103.618 4.91068ZM120.894 23.6036H116.8C116.39 23.5748 116.06 23.2453 116.06 22.8404L116.055 1.73635C116.089 1.34902 116.431 1.0483 116.847 1.0483H120.657C121.016 1.06556 121.31 1.30864 121.391 1.63805V4.86446H121.466C122.617 1.97929 124.23 0.603187 127.069 0.603187C128.914 0.603187 130.712 1.26799 131.868 3.08934C132.944 4.77759 132.944 7.61666 132.944 9.6577V22.9387C132.897 23.3087 132.556 23.6036 132.152 23.6036H128.029C127.653 23.5748 127.341 23.2972 127.3 22.9387V11.4789C127.3 9.17195 127.567 5.79518 124.728 5.79518C123.727 5.79518 122.808 6.46597 122.351 7.48357C121.773 8.77306 121.698 10.0566 121.698 11.479V22.8404C121.692 23.2625 121.334 23.6036 120.894 23.6036ZM66.1218 13.5258C66.1218 15.1273 66.1623 16.463 65.3527 17.8852C64.6995 19.0418 63.6588 19.7528 62.5081 19.7528C60.9297 19.7528 60.0045 18.5503 60.0045 16.7752C60.0045 13.2713 63.1442 12.6353 66.1218 12.6353V13.5258ZM70.2674 23.5458C69.9957 23.7887 69.6026 23.8061 69.2961 23.6441C67.9316 22.5108 67.6829 21.9847 66.9371 20.9035C64.6821 23.2047 63.0806 23.8928 60.1606 23.8928C56.6972 23.8928 54.0086 21.7592 54.0086 17.4865C54.0086 14.1502 55.8126 11.8779 58.3913 10.7677C60.6232 9.78482 63.7397 9.61134 66.1219 9.33958V8.80773C66.1219 7.83051 66.197 6.67411 65.6188 5.82999C65.1216 5.0726 64.1617 4.76032 63.3118 4.76032C61.7448 4.76032 60.3515 5.56393 60.0104 7.2292C59.9409 7.59926 59.6691 7.96348 59.2934 7.98088L55.3096 7.55304C54.9743 7.47785 54.5984 7.20609 54.6967 6.69151C55.6103 1.85788 59.9814 0.400757 63.8901 0.400757C65.8907 0.400757 68.5041 0.932735 70.0826 2.44764C72.083 4.31521 71.8923 6.80707 71.8923 9.5189V15.9252C71.8923 17.8507 72.6903 18.6947 73.4418 19.7355C73.7022 20.1056 73.7598 20.5508 73.4246 20.8283C72.5862 21.5279 71.0944 22.8288 70.2733 23.5574L70.2676 23.5458M12.2284 13.5258C12.2284 15.1273 12.2689 16.463 11.4593 17.8852C10.8061 19.0418 9.77106 19.7528 8.61466 19.7528C7.03626 19.7528 6.11682 18.5503 6.11682 16.7752C6.11682 13.2713 9.25649 12.6353 12.2284 12.6353V13.5258ZM16.374 23.5458C16.1023 23.7887 15.7092 23.8061 15.4027 23.6441C14.0382 22.5108 13.7952 21.9847 13.0437 20.9035C10.7887 23.2047 9.193 23.8928 6.26718 23.8928C2.80966 23.8928 0.115234 21.7592 0.115234 17.4865C0.115234 14.1502 1.92502 11.8779 4.49791 10.7677C6.72982 9.78482 9.84624 9.61134 12.2284 9.33958V8.80773C12.2284 7.83051 12.3036 6.67411 11.7311 5.82999C11.2281 5.0726 10.2684 4.76032 9.42412 4.76032C7.85727 4.76032 6.45806 5.56393 6.11682 7.2292C6.04748 7.59926 5.77572 7.96348 5.40566 7.98088L1.41616 7.55304C1.08076 7.47785 0.710837 7.20609 0.803286 6.69151C1.72259 1.85788 6.088 0.400757 9.99661 0.400757C11.997 0.400757 14.6105 0.932735 16.1891 2.44764C18.1895 4.31521 17.9987 6.80707 17.9987 9.5189V15.9252C17.9987 17.8507 18.7966 18.6947 19.5483 19.7355C19.8144 20.1056 19.8721 20.5508 19.5367 20.8283C18.6983 21.5279 17.2067 22.8288 16.3857 23.5574L16.374 23.5458Z" fill="#67A58D"/>
</svg>
