<svg width="151" height="37" viewBox="0 0 151 37" fill="none" xmlns="http://www.w3.org/2000/svg">
<path d="M148.242 34.3418C148.335 34.3427 148.426 34.3247 148.511 34.2887C148.596 34.2528 148.673 34.1998 148.737 34.133C148.8 34.0661 148.85 33.9869 148.882 33.9002C148.913 33.8136 148.927 33.7213 148.922 33.6291C148.922 33.1236 148.617 32.8821 147.991 32.8821H146.98V35.5285H147.36V34.3749H147.828L147.838 34.389L148.563 35.5285H148.97L148.19 34.3491L148.242 34.3418ZM147.802 34.0767H147.362V33.182H147.92C148.209 33.182 148.538 33.2292 148.538 33.6072C148.538 34.0419 148.205 34.0767 147.8 34.0767M0.115234 5.40542H5.72762V25.8488H16.1178V31.0282H0.115234V5.40542ZM18.5991 13.6552H23.9908V31.0186H18.5991V13.6552ZM21.2949 5.02295C21.9135 5.02306 22.5182 5.20659 23.0324 5.55034C23.5467 5.89409 23.9475 6.38261 24.1842 6.95414C24.4208 7.52566 24.4827 8.15453 24.3619 8.76121C24.2412 9.36789 23.9432 9.92515 23.5058 10.3625C23.0684 10.7999 22.511 11.0977 21.9043 11.2183C21.2976 11.339 20.6688 11.277 20.0973 11.0403C19.5258 10.8035 19.0374 10.4026 18.6937 9.88829C18.3501 9.37395 18.1666 8.76926 18.1666 8.15068C18.1666 7.73989 18.2476 7.33313 18.4048 6.95362C18.562 6.57411 18.7924 6.22928 19.0829 5.93884C19.3734 5.6484 19.7183 5.41802 20.0978 5.26087C20.4774 5.10372 20.8841 5.02288 21.2949 5.02295ZM46.5448 5.40149H51.9364V20.7144L58.047 13.6474H64.6574L57.5808 21.686L64.5085 31.0259H57.7319L52.0083 22.4431H51.9375V31.0248H46.5459L46.5448 5.40149ZM26.9803 13.6569H32.158V16.0298H32.2316C32.7487 15.1438 33.4968 14.4148 34.396 13.9208C35.2952 13.4268 36.3116 13.1863 37.3368 13.225C42.8043 13.225 43.8107 16.8223 43.8107 21.4956V31.0175H38.4191V22.5756C38.4191 20.5605 38.382 17.9702 35.6109 17.9702C32.8084 17.9702 32.3759 20.1645 32.3759 22.429V31.0153H26.9842L26.9803 13.6569Z" fill="#67A58D"/>
<path d="M76.0123 20.3175C76.0226 19.88 75.944 19.4451 75.7813 19.0389C75.6186 18.6328 75.3751 18.2639 75.0656 17.9546C74.7561 17.6453 74.387 17.4021 73.9808 17.2396C73.5745 17.0771 73.1395 16.9988 72.7021 17.0095C71.76 16.9508 70.8326 17.2648 70.1199 17.8836C69.4072 18.5024 68.9662 19.3765 68.892 20.3175H76.0123ZM80.5795 28.0118C79.6836 29.0983 78.5572 29.9719 77.282 30.5694C76.0068 31.1669 74.6146 31.4733 73.2064 31.4664C67.8147 31.4664 63.498 27.8675 63.498 22.2944C63.498 16.7213 67.8142 13.1241 73.2064 13.1241C78.2459 13.1241 81.4062 16.7185 81.4062 22.2944V23.9849H68.892C69.0478 24.9437 69.5448 25.8138 70.2915 26.435C71.0382 27.0562 71.9843 27.3866 72.9554 27.3654C73.7228 27.3606 74.4768 27.164 75.1489 26.7934C75.8209 26.4228 76.3896 25.89 76.8031 25.2435L80.5795 28.0118ZM92.6445 17.8525C89.9486 17.8525 88.3312 19.6525 88.3312 22.2753C88.3312 24.8981 89.9481 26.6999 92.6445 26.6999C95.3409 26.6999 96.9617 24.9026 96.9617 22.2753C96.9617 19.648 95.3437 17.8525 92.6445 17.8525ZM101.925 31.0154H96.9617V28.7127H96.8882C96.2654 29.5503 95.4577 30.2328 94.528 30.707C93.5983 31.1812 92.5716 31.4344 91.528 31.4468C86.3475 31.4468 82.935 27.708 82.935 22.4208C82.935 17.5649 85.9549 13.1061 90.9191 13.1061C93.1505 13.1061 95.2347 13.7166 96.4574 15.4088H96.5282V5.39997H101.925L101.925 31.0154ZM138.324 31.0255H132.933V22.582C132.933 20.5685 132.897 17.9766 130.128 17.9766C127.32 17.9766 126.891 20.1703 126.891 22.4354V31.025H121.499V13.6616H126.675V16.0345H126.747C127.265 15.1488 128.014 14.4202 128.913 13.9263C129.812 13.4324 130.829 13.1916 131.854 13.2297C137.319 13.2297 138.326 16.8241 138.326 21.5003L138.324 31.0255ZM115.415 11.2881C114.796 11.2882 114.191 11.1048 113.677 10.7611C113.162 10.4174 112.761 9.92883 112.524 9.35715C112.287 8.78547 112.225 8.15637 112.346 7.54941C112.466 6.94245 112.764 6.38489 113.202 5.94724C113.639 5.50958 114.197 5.21149 114.804 5.09065C115.411 4.96981 116.04 5.03166 116.612 5.26837C117.183 5.50509 117.672 5.90603 118.016 6.42051C118.36 6.93498 118.543 7.53988 118.544 8.15871C118.544 8.56959 118.463 8.97647 118.306 9.35611C118.148 9.73575 117.918 10.0807 117.628 10.3713C117.337 10.6619 116.992 10.8924 116.613 11.0497C116.233 11.207 115.826 11.288 115.415 11.2881ZM118.111 31.0255H112.714V13.6616H118.111V31.0255ZM141.012 0.0234743H110.005C109.301 0.0155321 108.623 0.287326 108.119 0.779131C107.616 1.27094 107.328 1.94251 107.319 2.64629V33.7826C107.328 34.4867 107.615 35.1587 108.119 35.6511C108.622 36.1434 109.3 36.4157 110.005 36.4082H141.012C141.718 36.4171 142.398 36.1455 142.903 35.6532C143.409 35.1609 143.698 34.4881 143.708 33.7826V2.64405C143.698 1.93887 143.408 1.26653 142.903 0.774738C142.397 0.282945 141.717 0.0119274 141.012 0.0212278M147.849 31.7034C147.193 31.7097 146.566 31.9756 146.106 32.4428C145.645 32.91 145.388 33.5405 145.392 34.1965C145.395 34.8525 145.658 35.4806 146.122 35.9433C146.587 36.4061 147.217 36.6659 147.873 36.6659C148.529 36.6659 149.158 36.4061 149.623 35.9433C150.088 35.4806 150.351 34.8525 150.354 34.1965C150.357 33.5405 150.1 32.91 149.64 32.4428C149.179 31.9756 148.553 31.7097 147.897 31.7034H147.849ZM147.849 36.3818C147.419 36.389 146.996 36.2684 146.634 36.0353C146.272 35.8022 145.988 35.4671 145.817 35.0723C145.645 34.6776 145.595 34.2409 145.672 33.8175C145.749 33.3941 145.95 33.003 146.249 32.6937C146.548 32.3844 146.932 32.1707 147.353 32.0798C147.773 31.9888 148.212 32.0246 148.612 32.1826C149.012 32.3407 149.356 32.6138 149.601 32.9676C149.846 33.3214 149.981 33.7398 149.988 34.1701V34.2066C150 34.7711 149.788 35.3172 149.397 35.7249C149.007 36.1326 148.47 36.3685 147.906 36.3807H147.849" fill="#67A58D"/>
</svg>
