<svg width="178" height="38" viewBox="0 0 178 38" fill="none" xmlns="http://www.w3.org/2000/svg">
<path d="M101.936 23.5787L112.485 13.4191H102.095V8.63505H119.865V13.4976L109.315 23.6179H120.066V28.402H101.94L101.936 23.5787ZM94.4413 2.13357H99.9367V7.05169H94.4413V2.13357ZM94.3671 8.6946H99.8625V28.4615H94.3671V8.6946ZM27.901 18.5185C27.923 12.8686 32.5841 8.30391 38.3168 8.31835C44.0494 8.33275 48.6868 12.9208 48.6795 18.5707C48.6722 24.2207 44.0229 28.7971 38.2903 28.7971C35.5267 28.8011 32.8758 27.7182 30.9254 25.7886C28.975 23.8589 27.8864 21.2422 27.901 18.5185ZM43.3435 18.5185C43.3435 15.7116 41.097 13.3757 38.2903 13.3757C35.4424 13.3757 33.2756 15.7089 33.2756 18.5184C33.2756 21.328 35.4424 23.6612 38.2903 23.6612C41.097 23.6571 43.3449 21.3253 43.3449 18.5184L43.3435 18.5185ZM73.4788 8.63501H78.9357V10.8491C80.2182 9.22507 82.1832 8.2398 84.4695 8.2398C89.2041 8.2398 92.0521 11.2442 92.0521 16.3437V28.4019H86.4757V17.0555C86.4757 14.407 85.2316 12.8601 82.786 12.8601C80.7002 12.8601 78.9755 14.2825 78.9755 17.5968V28.3897H73.4829L73.4788 8.63501ZM120.379 18.5185C120.379 11.5204 125.597 8.23311 130.128 8.23311C132.737 8.23311 134.782 9.18046 136.104 10.5663V8.63505H141.597V28.402H136.104V26.1878C134.782 27.7293 132.655 28.7971 130.049 28.7971C125.796 28.7971 120.379 25.4815 120.379 18.5185ZM136.262 18.4792C136.262 15.5533 134.097 13.1809 131.128 13.1809C128.079 13.1809 125.753 15.4342 125.753 18.4792C125.753 21.5243 128.079 23.8155 131.128 23.8155C134.099 23.8155 136.265 21.4038 136.265 18.4793L136.262 18.4792ZM143.819 8.63505H149.274V10.8491C150.558 9.22512 152.523 8.23984 154.809 8.23984C159.543 8.23984 162.39 11.2443 162.39 16.3437V28.402H156.814V17.0555C156.814 14.407 155.578 12.8601 153.124 12.8601C151.039 12.8601 149.314 14.2825 149.314 17.5968V28.3897H143.821L143.819 8.63505ZM101.936 28.402V23.5787L112.485 13.4191H102.095V8.63505H119.865V13.4976L109.315 23.6179M22.039 18.3466L21.9635 18.5036C20.4462 21.6555 17.6559 23.4636 14.3082 23.4636C9.45407 23.4636 5.65728 19.6824 5.65728 14.8563C5.65728 9.90716 9.42795 6.17603 14.429 6.17603C17.6697 6.17603 20.1317 7.67144 21.7479 10.6231L21.8344 10.7801L26.7256 7.69856L26.6432 7.56325C24.1029 3.29881 19.5358 0.753174 14.429 0.753174C6.26832 0.753174 0.115234 6.81749 0.115234 14.859C0.115234 23.0333 6.13513 28.9663 14.429 28.9663C19.7747 28.9663 24.497 26.0417 27.062 21.144L27.1389 20.9964L22.039 18.3466ZM50.0638 18.5185C50.0638 11.5204 55.2817 8.23311 59.8131 8.23311C62.4221 8.23311 64.4654 9.30088 65.7891 10.7625V8.63505H71.2817V27.8525C71.2817 33.4269 67.7115 37.9335 60.9322 37.9335C55.8378 37.9335 52.1083 35.3229 50.4963 32.2401L55.3503 29.5523C56.3926 31.608 58.234 32.9127 60.9254 32.9127C63.8942 32.9127 65.7781 30.6201 65.7781 28.0501V26.1879C64.4544 27.7293 62.3288 28.7971 59.7225 28.7971C55.4781 28.7971 50.0638 25.4815 50.0638 18.5185ZM65.947 18.4792C65.947 15.5533 63.7815 13.1809 60.8128 13.1809C57.7644 13.1809 55.4382 15.4342 55.4382 18.4792C55.4382 21.5243 57.7644 23.8155 60.8128 23.8155C63.7815 23.8155 65.947 21.4038 65.947 18.4792ZM175.924 13.4976V8.63505H172.154V2.11465H166.661V8.63505H163.249V13.4976H166.654V19.8231C166.654 26.2677 168.74 28.402 175.118 28.402H175.92V23.3418C172.55 23.3418 172.15 22.8668 172.15 19.7839V13.4976H175.924ZM177.09 4.47349C176.96 4.60263 176.805 4.70508 176.635 4.77497C176.464 4.84485 176.282 4.8808 176.097 4.88075C175.913 4.8808 175.73 4.84486 175.56 4.77497C175.389 4.70508 175.235 4.60263 175.104 4.47349C174.972 4.3463 174.867 4.19367 174.796 4.02496C174.725 3.85625 174.69 3.675 174.693 3.49234C174.694 2.86705 175.121 2.32058 175.734 2.15984C176.347 1.9991 176.993 2.26418 177.31 2.80617C177.626 3.34817 177.534 4.03198 177.085 4.47349H177.09ZM175.245 2.65327C175.131 2.76237 175.041 2.89336 174.981 3.03815C174.92 3.18294 174.89 3.33846 174.893 3.49509C174.891 3.65224 174.92 3.80827 174.98 3.95384C175.04 4.09941 175.129 4.2315 175.242 4.34221C175.354 4.45343 175.487 4.54167 175.633 4.60187C175.78 4.66206 175.937 4.69303 176.096 4.69298C176.417 4.69298 176.724 4.56671 176.95 4.34226C177.064 4.23205 177.154 4.1001 177.214 3.95443C177.274 3.80877 177.304 3.65246 177.302 3.49504C177.306 3.01215 177.012 2.57512 176.559 2.39019C176.107 2.20521 175.586 2.30928 175.242 2.65327H175.245ZM176.068 2.73037C176.211 2.72315 176.353 2.74151 176.489 2.78455C176.565 2.81446 176.63 2.86808 176.673 2.93737C176.716 3.00667 176.735 3.08791 176.728 3.16891C176.732 3.22758 176.72 3.28625 176.694 3.339C176.667 3.39175 176.627 3.4367 176.578 3.4693C176.509 3.5082 176.434 3.53306 176.355 3.5424C176.407 3.54751 176.458 3.56341 176.503 3.58906C176.549 3.61471 176.588 3.64954 176.619 3.69127C176.671 3.75872 176.7 3.84063 176.703 3.92543V4.15006C176.703 4.17664 176.707 4.20309 176.715 4.22857L176.725 4.24749H176.471C176.47 4.24254 176.47 4.23755 176.471 4.2326V4.04723C176.48 3.98169 176.471 3.91494 176.446 3.85382C176.42 3.79271 176.379 3.73942 176.325 3.69942C176.23 3.65989 176.126 3.64319 176.023 3.65069H175.809V4.24749H175.534V2.73041L176.068 2.73037ZM176.361 2.9686C176.258 2.92432 176.145 2.90529 176.033 2.91313H175.801V3.46257H176.046C176.134 3.46664 176.221 3.45518 176.305 3.42872C176.348 3.40969 176.385 3.37996 176.413 3.3424C176.441 3.30485 176.459 3.26076 176.465 3.21443C176.47 3.16809 176.464 3.1211 176.445 3.07802C176.427 3.03494 176.398 2.99724 176.361 2.9686Z" fill="#67A58D"/>
</svg>
