<svg width="141" height="44" viewBox="0 0 141 44" fill="none" xmlns="http://www.w3.org/2000/svg">
<path d="M73.9001 10.8565C73.9001 12.4136 72.6318 13.668 71.0574 13.668C69.4829 13.668 68.2146 12.4136 68.2146 10.8565C68.2146 9.29942 69.4392 8.04508 71.0574 8.04508C72.6756 8.08834 73.9001 9.34268 73.9001 10.8565ZM62.1791 16.5227V17.2147C62.1791 17.2147 60.8233 15.4846 57.9368 15.4846C53.1697 15.4846 49.4522 19.0746 49.4522 24.0487C49.4522 28.9796 53.1259 32.6129 57.9368 32.6129C60.8671 32.6129 62.1791 30.8395 62.1791 30.8395V31.5748C62.1791 31.9208 62.4415 32.1803 62.7914 32.1803H66.334V15.9172H62.7914C62.4415 15.9172 62.1791 16.2199 62.1791 16.5227ZM62.1791 26.9467C61.5231 27.8983 60.211 28.7201 58.6366 28.7201C55.8375 28.7201 53.6945 26.99 53.6945 24.0487C53.6945 21.1075 55.8375 19.3774 58.6366 19.3774C60.1673 19.3774 61.5668 20.2425 62.1791 21.1508V26.9467ZM68.9581 15.9172H73.1567V32.1803H68.9581V15.9172ZM131.674 15.4846C128.788 15.4846 127.432 17.2147 127.432 17.2147V8.08834H123.233V32.1803H126.776C127.126 32.1803 127.388 31.8776 127.388 31.5748V30.8395C127.388 30.8395 128.744 32.6129 131.631 32.6129C136.398 32.6129 140.115 28.9796 140.115 24.0487C140.115 19.1179 136.398 15.4846 131.674 15.4846ZM130.975 28.6768C129.356 28.6768 128.088 27.855 127.432 26.9034V21.1075C128.088 20.2425 129.488 19.3341 130.975 19.3341C133.774 19.3341 135.917 21.0643 135.917 24.0055C135.917 26.9467 133.774 28.6768 130.975 28.6768ZM121.047 22.5349V32.2236H116.848V23.0107C116.848 20.329 115.973 19.2476 113.612 19.2476C112.343 19.2476 111.031 19.8964 110.2 20.848V32.1803H106.002V15.9172H109.326C109.676 15.9172 109.938 16.2199 109.938 16.5227V17.2147C111.163 15.9604 112.781 15.4846 114.399 15.4846C116.236 15.4846 117.767 16.0037 118.991 17.0417C120.478 18.2528 121.047 19.8099 121.047 22.5349ZM95.8115 15.4846C92.925 15.4846 91.5692 17.2147 91.5692 17.2147V8.08834H87.3706V32.1803H90.9131C91.263 32.1803 91.5254 31.8776 91.5254 31.5748V30.8395C91.5254 30.8395 92.8812 32.6129 95.7677 32.6129C100.535 32.6129 104.252 28.9796 104.252 24.0487C104.296 19.1179 100.579 15.4846 95.8115 15.4846ZM95.1117 28.6768C93.4935 28.6768 92.2252 27.855 91.5692 26.9034V21.1075C92.2252 20.2425 93.6247 19.3341 95.1117 19.3341C97.9108 19.3341 100.054 21.0643 100.054 24.0055C100.054 26.9467 97.9108 28.6768 95.1117 28.6768ZM83.7406 15.4846C85.0089 15.4846 85.6649 15.7009 85.6649 15.7009V19.5504C85.6649 19.5504 82.1661 18.3826 79.9793 20.848V32.2236H75.7808V15.9172H79.3233C79.6732 15.9172 79.9356 16.2199 79.9356 16.5227V17.2147C80.7228 16.3064 82.4285 15.4846 83.7406 15.4846ZM40.1366 30.7097C39.9179 30.1907 39.6992 29.6284 39.4806 29.1526C39.1307 28.3741 38.7808 27.6388 38.4746 26.9467L38.4309 26.9034C35.4132 20.4155 32.1768 13.841 28.7654 7.35303L28.6342 7.09351C28.2843 6.44472 27.9345 5.75267 27.5846 5.06062C27.1472 4.28206 26.7099 3.46025 26.0101 2.68169C24.6106 0.951569 22.5988 0 20.4557 0C18.269 0 16.3009 0.951569 14.8576 2.59519C14.2016 3.37374 13.7205 4.19555 13.2832 4.97411C12.9333 5.66616 12.5834 6.35821 12.2335 7.00701L12.1023 7.26653C8.73471 13.7545 5.45457 20.329 2.43684 26.8169L2.39311 26.9034C2.08696 27.5955 1.73708 28.3308 1.3872 29.1094C1.16852 29.5851 0.949848 30.1042 0.731172 30.6665C0.162614 32.2668 -0.0123266 33.7807 0.206349 35.3378C0.687437 38.5818 2.8742 41.3067 5.89192 42.5178C7.02904 42.9936 8.20989 43.2099 9.43447 43.2099C9.78436 43.2099 10.2217 43.1666 10.5716 43.1234C12.0149 42.9504 13.5018 42.4746 14.9451 41.6528C16.7383 40.6579 18.4439 39.2306 20.3683 37.1544C22.2926 39.2306 24.042 40.6579 25.7914 41.6528C27.2347 42.4746 28.7217 42.9504 30.165 43.1234C30.5148 43.1666 30.9522 43.2099 31.3021 43.2099C32.5267 43.2099 33.7512 42.9936 34.8446 42.5178C37.9061 41.3067 40.0491 38.5385 40.5302 35.3378C40.8801 33.8239 40.7051 32.3101 40.1366 30.7097ZM20.412 32.9589C18.0503 30.0177 16.5196 27.2495 15.9948 24.9138C15.7761 23.919 15.7323 23.0539 15.8635 22.2754C15.951 21.5833 16.2134 20.9778 16.5633 20.4587C17.3943 19.2909 18.7938 18.5556 20.412 18.5556C22.0302 18.5556 23.4735 19.2476 24.2607 20.4587C24.6106 20.9778 24.873 21.5833 24.9605 22.2754C25.0917 23.0539 25.0479 23.9622 24.8293 24.9138C24.3044 27.2062 22.7737 29.9744 20.412 32.9589ZM37.8624 34.9918C37.5562 37.2409 36.0255 39.1873 33.8824 40.0524C32.8328 40.4849 31.6957 40.6147 30.5586 40.4849C29.4652 40.3552 28.3718 40.0091 27.2347 39.3603C25.6602 38.4953 24.0858 37.1544 22.2489 35.1648C25.1354 31.6613 26.8848 28.4606 27.5408 25.6059C27.847 24.265 27.8907 23.0539 27.7595 21.9293C27.5846 20.848 27.191 19.8532 26.5787 18.9881C25.2229 17.0417 22.9487 15.9172 20.412 15.9172C17.8754 15.9172 15.6011 17.085 14.2453 18.9881C13.6331 19.8532 13.2394 20.848 13.0645 21.9293C12.8896 23.0539 12.9333 24.3083 13.2832 25.6059C13.9392 28.4606 15.7323 31.7045 18.5751 35.208C16.782 37.1977 15.1638 38.5385 13.5893 39.4036C12.4522 40.0524 11.3588 40.3984 10.2654 40.5282C9.08459 40.6579 7.94748 40.4849 6.94157 40.0956C4.79854 39.2306 3.26781 37.2842 2.96167 35.035C2.83046 33.9537 2.91793 32.8724 3.35528 31.6613C3.48649 31.2288 3.70516 30.7962 3.92384 30.2772C4.22999 29.5851 4.57987 28.8498 4.92975 28.1145L4.97349 28.028C7.99121 21.5833 11.2276 15.0088 14.5952 8.60737L14.7264 8.34785C15.0763 7.69906 15.4262 7.00701 15.7761 6.35821C16.126 5.66616 16.5196 5.01736 17.0007 4.45507C17.9191 3.417 19.1437 2.85471 20.4995 2.85471C21.8553 2.85471 23.0799 3.417 23.9983 4.45507C24.4794 5.01736 24.873 5.66616 25.2229 6.35821C25.5728 7.00701 25.9226 7.69906 26.2725 8.34785L26.4037 8.60737C29.7276 15.0521 32.964 21.6266 35.9817 28.0713V28.1145C36.3316 28.8066 36.6378 29.5851 36.9876 30.2772C37.2063 30.7962 37.425 31.2288 37.5562 31.6613C37.9061 32.7859 38.0373 33.8672 37.8624 34.9918Z" fill="#67A58D"/>
</svg>
