<svg width="147" height="31" viewBox="0 0 147 31" fill="none" xmlns="http://www.w3.org/2000/svg">
<path d="M4.91177 20.0472C4.91177 21.7428 5.28394 23.0446 5.77039 23.8322C6.40817 24.8638 7.35945 25.3008 8.32926 25.3008C9.58012 25.3008 10.7244 24.9904 12.9297 21.9405C14.6963 19.4959 16.778 16.0645 18.1787 13.9133L20.5507 10.2688C22.1984 7.73775 24.1056 4.92407 26.2923 3.01689C28.0775 1.46026 30.0032 0.595459 31.9413 0.595459C35.1951 0.595459 38.2945 2.48102 40.6665 6.01742C43.2624 9.89048 44.5225 14.7689 44.5225 19.8032C44.5225 22.796 43.9326 24.9951 42.9288 26.7324C41.959 28.4126 40.0688 30.0912 36.8892 30.0912V25.3008C39.6117 25.3008 40.2912 22.7991 40.2912 19.936C40.2912 15.856 39.3399 11.3282 37.2443 8.09294C35.7572 5.79814 33.8299 4.39593 31.7096 4.39593C29.4164 4.39593 27.571 6.12552 25.497 9.20945C24.3944 10.8479 23.2624 12.8447 21.9915 15.0978L20.5924 17.5764C17.7818 22.5597 17.0699 23.6948 15.6646 25.568C13.2015 28.8481 11.0981 30.0912 8.32926 30.0912C5.04457 30.0912 2.96752 28.6689 1.68113 26.5255C0.631024 24.7789 0.115234 22.4872 0.115234 19.8758L4.91177 20.0472Z" fill="#67A58D"/>
<path d="M3.89746 6.35562C6.09651 2.96593 9.27001 0.595459 12.9099 0.595459C15.0178 0.595459 17.1134 1.21935 19.3016 3.00608C21.6953 4.95959 24.2464 8.17633 27.4292 13.4778L28.5704 15.3804C31.3254 19.97 32.8929 22.3312 33.8102 23.4446C34.99 24.8746 35.8162 25.3008 36.8894 25.3008C39.612 25.3008 40.2915 22.7991 40.2915 19.936L44.5228 19.8032C44.5228 22.796 43.9329 24.9951 42.9291 26.7324C41.9593 28.4126 40.0691 30.0912 36.8894 30.0912C34.9128 30.0912 33.1616 29.6619 31.225 27.835C29.7363 26.4328 27.9959 23.9419 26.657 21.7027L22.6744 15.0499C20.6761 11.7112 18.843 9.2218 17.7821 8.09448C16.6409 6.88222 15.1738 5.41824 12.8327 5.41824C10.9378 5.41824 9.32869 6.74787 7.98208 8.78168L3.89746 6.35562Z" fill="#67A58D"/>
<path d="M12.8324 5.41824C10.9375 5.41824 9.32841 6.74787 7.98179 8.78168C6.0777 11.6556 4.91177 15.9363 4.91177 20.0472C4.91177 21.7428 5.28394 23.0447 5.77039 23.8322L1.68113 26.5255C0.631024 24.7789 0.115234 22.4872 0.115234 19.8758C0.115234 15.1271 1.41861 10.1777 3.89717 6.35562C6.09623 2.96593 9.26972 0.595459 12.9096 0.595459L12.8324 5.41824Z" fill="#67A58D"/>
<path d="M53.8467 1.52832H59.3953L68.8293 18.5957L78.2648 1.52832H83.693V29.5724H79.1667V8.07915L70.8924 22.9629H66.6457L58.373 8.07915V29.5724H53.8467V1.52832ZM97.8756 11.9846C94.6296 11.9846 92.6745 14.4277 92.2066 17.4529H103.223C102.996 14.3366 101.199 11.9846 97.8756 11.9846ZM87.7189 19.1763C87.7189 12.8108 91.8329 8.17799 97.9544 8.17799C103.976 8.17799 107.571 12.7521 107.571 19.5161V20.7592H92.2066C92.7517 24.0501 94.9353 26.2677 98.4563 26.2677C101.265 26.2677 103.021 25.4106 104.686 23.8432L107.09 26.7881C104.825 28.8713 101.943 30.0728 98.2957 30.0728C91.6692 30.0728 87.7189 25.2407 87.7189 19.1763ZM113.059 12.3862H108.893V8.67988H113.059V2.55063H117.426V8.67988H123.756V12.3862H117.426V21.78C117.426 24.9875 118.452 26.1272 120.972 26.1272C122.122 26.1272 122.782 26.0283 123.756 25.8662V29.5323C122.542 29.8751 121.384 30.0326 120.13 30.0326C115.416 30.0326 113.059 27.4568 113.059 22.3004V12.3862ZM142.145 15.9905C141.268 13.776 139.312 12.1452 136.436 12.1452C132.699 12.1452 130.307 14.7968 130.307 19.1161C130.307 23.3274 132.509 26.1071 136.257 26.1071C139.204 26.1071 141.307 24.3929 142.145 22.2603V15.9905ZM146.513 29.5724H142.226V26.6476C141.027 28.3694 138.847 30.0728 135.315 30.0728C129.635 30.0728 125.839 25.3179 125.839 19.1161C125.839 12.8556 129.726 8.17799 135.556 8.17799C138.438 8.17799 140.699 9.33002 142.226 11.3638V8.67988H146.513V29.5724Z" fill="#67A58D"/>
</svg>
