<svg width="165" height="35" viewBox="0 0 165 35" fill="none" xmlns="http://www.w3.org/2000/svg">
<path fill-rule="evenodd" clip-rule="evenodd" d="M13.0923 33.7964C22.266 36.0838 31.5563 30.5015 33.8431 21.3289C36.13 12.1558 30.5482 2.86393 21.3751 0.577071C12.2041 -1.70979 2.91386 3.87305 0.62807 13.0467C-1.65986 22.2187 3.92245 31.5096 13.0923 33.7964ZM21.0191 10.4276C23.391 11.2447 25.1257 12.4694 24.7849 14.7477C24.5382 16.4155 23.6136 17.2229 22.3862 17.506C24.0716 18.3835 24.9293 19.7291 24.1123 22.062C23.0983 24.9594 20.6895 25.2039 17.4861 24.5977L16.7086 27.7133L14.83 27.2452L15.5973 24.1712C15.1104 24.0503 14.6128 23.9219 14.1002 23.7828L13.3302 26.8711L11.4538 26.403L12.2312 23.2814C12.0559 23.2365 11.8794 23.1905 11.7017 23.1442C11.4348 23.0745 11.165 23.0042 10.892 22.9358L8.44727 22.3263L9.37988 20.1759C9.37988 20.1759 10.7641 20.544 10.7454 20.5167C11.2772 20.6484 11.5132 20.3017 11.6063 20.0705L12.8348 15.1453C12.8809 15.1563 12.9261 15.1677 12.9697 15.1786C12.9913 15.184 13.0125 15.1893 13.0333 15.1945C12.9584 15.1645 12.8904 15.1453 12.838 15.1319L13.7144 11.616C13.7374 11.2168 13.5999 10.7133 12.8391 10.5234C12.8685 10.5036 11.4746 10.1842 11.4746 10.1842L11.9744 8.17768L14.5652 8.82456L14.563 8.8342C14.9526 8.93104 15.3538 9.02307 15.7626 9.11617L16.5326 6.03101L18.4101 6.49919L17.6557 9.52389C18.1597 9.63893 18.667 9.75504 19.1608 9.8781L19.9099 6.87319L21.7885 7.34137L21.0191 10.4276ZM15.0769 21.6172C16.6098 22.0221 19.96 22.9069 20.4926 20.7666C21.0384 18.5782 17.7893 17.8492 16.2039 17.4934C16.0267 17.4537 15.8703 17.4186 15.7423 17.3866L14.7107 21.5221C14.8158 21.5482 14.939 21.5808 15.0769 21.6172ZM16.5224 15.5743C17.8004 15.9153 20.5881 16.6593 21.0737 14.714C21.5695 12.7243 18.8601 12.1245 17.5369 11.8315C17.3881 11.7986 17.2567 11.7695 17.1495 11.7428L16.2142 15.4936C16.3026 15.5156 16.4062 15.5433 16.5224 15.5743Z" fill="#67A58D"/>
<path d="M50.2909 10.4243C51.6794 10.4243 52.879 10.6732 53.887 11.1617C54.8999 11.655 55.7357 12.3195 56.4061 13.1553C57.0674 13.9954 57.5597 14.9772 57.8775 16.1024C58.1932 17.2309 58.3516 18.4439 58.3516 19.7425C58.3516 21.7372 57.9861 23.6217 57.2483 25.3981C56.5104 27.1771 55.5093 28.7203 54.2359 30.0365C52.9635 31.3512 51.4611 32.3876 49.7285 33.1533C47.9987 33.9195 46.1179 34.3026 44.0986 34.3026C43.8375 34.3026 43.3784 34.2951 42.7299 34.2817C42.0814 34.2683 41.3361 34.2014 40.5014 34.0885C39.6613 33.9714 38.7731 33.798 37.8352 33.5658C36.8977 33.3379 36.0074 33.0184 35.1689 32.6128L42.6662 1.11052L49.3813 0.0698242L46.6969 11.2489C47.2715 10.9899 47.8505 10.7893 48.4283 10.6432C49.0067 10.4993 49.6274 10.4243 50.2909 10.4243ZM44.6583 28.9755C45.6695 28.9755 46.6225 28.7267 47.5176 28.2382C48.4155 27.7491 49.1903 27.0889 49.8393 26.2665C50.4883 25.4403 51.002 24.5099 51.3765 23.4702C51.7511 22.4306 51.9405 21.346 51.9405 20.2176C51.9405 18.8312 51.7088 17.7499 51.247 16.9682C50.7853 16.1896 49.9308 15.798 48.69 15.798C48.2833 15.798 47.7595 15.8756 47.1099 16.0141C46.4582 16.1613 45.875 16.4668 45.3523 16.9264L42.4939 28.7984C42.6662 28.8289 42.8187 28.8578 42.9488 28.8851C43.0761 28.9145 43.2168 28.9354 43.357 28.9498C43.5052 28.9664 43.6748 28.975 43.8798 28.975C44.0847 28.975 44.341 28.9755 44.6583 28.9755ZM65.3154 33.6996H58.9016L64.3181 10.9075H70.7757L65.3154 33.6996ZM68.4364 8.13054C67.5413 8.13054 66.7296 7.86408 66.0094 7.33008C65.2833 6.7993 64.9238 5.98226 64.9238 4.8811C64.9238 4.27541 65.0468 3.70718 65.2908 3.17105C65.5385 2.63598 65.8623 2.17529 66.2678 1.78363C66.6729 1.39517 67.1421 1.08484 67.675 0.851015C68.2112 0.620938 68.7816 0.5059 69.3894 0.5059C70.284 0.5059 71.0914 0.772361 71.8143 1.30635C72.5345 1.84302 72.8967 2.66006 72.8967 3.75533C72.8967 4.36316 72.7742 4.93354 72.5281 5.4686C72.2835 6.00366 71.9598 6.46435 71.5542 6.85602C71.1524 7.24501 70.6789 7.55428 70.147 7.78596C69.6104 8.01978 69.0421 8.13054 68.4364 8.13054ZM76.3966 5.22889L83.1143 4.1882L81.4647 10.9064H88.6591L87.36 16.1918H80.2089L78.3041 24.1642C78.1286 24.8288 78.029 25.4494 78.0012 26.0262C77.9696 26.6057 78.0429 27.1033 78.2163 27.5223C78.3886 27.9423 78.6984 28.266 79.1479 28.495C79.5952 28.7278 80.2356 28.8449 81.0757 28.8449C81.7675 28.8449 82.4417 28.7791 83.0934 28.6486C83.7414 28.5202 84.3979 28.3414 85.0624 28.1076L85.5408 33.0495C84.674 33.3673 83.7355 33.6407 82.7242 33.8708C81.7113 34.1041 80.5123 34.2164 79.1264 34.2164C77.1339 34.2164 75.5891 33.9205 74.4885 33.3314C73.3895 32.738 72.6126 31.9274 72.1476 30.9012C71.6891 29.8787 71.4842 28.6999 71.5414 27.3719C71.6008 26.0407 71.8014 24.6415 72.1476 23.1679L76.3966 5.22889ZM88.3766 24.5981C88.3766 22.635 88.6944 20.7837 89.3295 19.0506C89.9636 17.316 90.8769 15.799 92.0621 14.4972C93.243 13.2019 94.6818 12.1756 96.3752 11.4222C98.0607 10.6732 99.9479 10.2954 102.028 10.2954C103.329 10.2954 104.492 10.4185 105.515 10.6651C106.542 10.9139 107.472 11.2355 108.312 11.6389L106.101 16.6685C105.523 16.4342 104.923 16.2276 104.303 16.0404C103.682 15.8493 102.924 15.7573 102.028 15.7573C99.8874 15.7573 98.195 16.4952 96.9355 17.9661C95.6807 19.438 95.0488 21.4193 95.0488 23.9047C95.0488 25.3777 95.3667 26.5688 96.0044 27.48C96.639 28.3912 97.8114 28.8444 99.5134 28.8444C100.353 28.8444 101.164 28.7567 101.94 28.5854C102.723 28.4121 103.413 28.1938 104.022 27.9359L104.501 33.0917C103.69 33.4063 102.795 33.6905 101.814 33.9393C100.83 34.1795 99.6595 34.3042 98.302 34.3042C96.5101 34.3042 94.9932 34.042 93.7524 33.5257C92.511 33.0013 91.4853 32.3052 90.6774 31.4234C89.8651 30.5395 89.2819 29.5073 88.9213 28.3227C88.5607 27.1392 88.3766 25.8957 88.3766 24.5981ZM116.869 34.3042C115.338 34.3042 114.008 34.0709 112.88 33.6091C111.756 33.1474 110.824 32.4994 110.087 31.6594C109.349 30.8236 108.797 29.8332 108.419 28.6919C108.041 27.5512 107.859 26.2879 107.859 24.9037C107.859 23.1674 108.138 21.4316 108.701 19.7007C109.262 17.9661 110.094 16.4074 111.195 15.0221C112.287 13.6347 113.635 12.5004 115.222 11.6159C116.808 10.7374 118.631 10.2954 120.679 10.2954C122.182 10.2954 123.505 10.5292 124.648 10.991C125.787 11.4517 126.724 12.105 127.465 12.9407C128.198 13.7808 128.755 14.7669 129.13 15.9098C129.507 17.0484 129.693 18.3149 129.693 19.7002C129.693 21.4311 129.418 23.1669 128.872 24.9031C128.326 26.6308 127.515 28.1932 126.445 29.5817C125.377 30.967 124.042 32.1008 122.438 32.9815C120.836 33.8622 118.978 34.3042 116.869 34.3042ZM120.074 15.7578C119.123 15.7578 118.283 16.0339 117.563 16.5792C116.841 17.1308 116.234 17.8243 115.745 18.6606C115.251 19.5006 114.884 20.4166 114.636 21.4124C114.391 22.4103 114.27 23.3536 114.27 24.2498C114.27 25.6961 114.504 26.8224 114.962 27.633C115.427 28.4394 116.262 28.8449 117.476 28.8449C118.431 28.8449 119.267 28.571 119.991 28.0199C120.709 27.4725 121.316 26.7785 121.809 25.9406C122.3 25.1049 122.67 24.1861 122.918 23.1888C123.16 22.1941 123.284 21.2454 123.284 20.3508C123.284 18.9083 123.051 17.7793 122.588 16.9698C122.126 16.1634 121.287 15.7578 120.074 15.7578ZM136.682 33.6996H130.263L135.679 10.9075H142.14L136.682 33.6996ZM139.798 8.13054C138.904 8.13054 138.092 7.86408 137.373 7.33008C136.651 6.7993 136.288 5.98226 136.288 4.8811C136.288 4.27541 136.413 3.70718 136.657 3.17105C136.902 2.63598 137.228 2.17529 137.633 1.78363C138.036 1.39517 138.51 1.08484 139.042 0.851015C139.575 0.620938 140.145 0.5059 140.751 0.5059C141.647 0.5059 142.457 0.772361 143.179 1.30635C143.901 1.84302 144.265 2.66006 144.265 3.75533C144.265 4.36316 144.135 4.93354 143.893 5.4686C143.651 6.00366 143.325 6.46435 142.921 6.85602C142.514 7.24501 142.047 7.55428 141.514 7.78596C140.976 8.01978 140.407 8.13054 139.798 8.13054ZM146.763 11.9439C147.249 11.8016 147.793 11.6304 148.384 11.4442C148.978 11.258 149.641 11.0846 150.381 10.9284C151.114 10.7673 151.94 10.6368 152.849 10.5356C153.759 10.4324 154.794 10.3821 155.945 10.3821C159.328 10.3821 161.66 11.3671 162.947 13.3313C164.233 15.2956 164.456 17.9837 163.621 21.391L160.671 33.6974H154.215L157.074 21.65C157.249 20.8977 157.386 20.1705 157.487 19.4599C157.589 18.7558 157.583 18.1351 157.464 17.5979C157.35 17.0671 157.081 16.6327 156.664 16.2961C156.241 15.9649 155.602 15.7985 154.734 15.7985C153.898 15.7985 153.047 15.8884 152.179 16.0618L147.975 33.6969H141.516L146.763 11.9439Z" fill="#67A58D"/>
</svg>
