<svg width="15" height="19" viewBox="0 0 15 19" fill="none" xmlns="http://www.w3.org/2000/svg">
<path d="M11.0162 0.11377C11.0589 0.11377 11.1016 0.11377 11.1468 0.11377C11.2516 1.40848 10.7574 2.37589 10.1568 3.07646C9.56746 3.77218 8.76048 4.44695 7.45529 4.34457C7.36822 3.06839 7.86321 2.17274 8.46301 1.47378C9.01927 0.822396 10.0391 0.242757 11.0162 0.11377Z" fill="black"/>
<path d="M14.9674 13.4039C14.9674 13.4168 14.9674 13.4281 14.9674 13.4401C14.6006 14.5511 14.0774 15.5031 13.4389 16.3867C12.856 17.1889 12.1418 18.2683 10.8664 18.2683C9.76437 18.2683 9.03236 17.5597 7.90291 17.5403C6.70816 17.521 6.05113 18.1329 4.95877 18.2869C4.83381 18.2869 4.70886 18.2869 4.58632 18.2869C3.78418 18.1708 3.13682 17.5355 2.66521 16.9631C1.27456 15.2718 0.199931 13.087 0 10.2912C0 10.0171 0 9.74385 0 9.46975C0.0846482 7.46883 1.05689 5.84197 2.34919 5.05353C3.03121 4.63432 3.96879 4.27719 5.01278 4.43681C5.46021 4.50614 5.91731 4.65931 6.31798 4.81087C6.69768 4.95679 7.17252 5.21557 7.62237 5.20187C7.9271 5.193 8.23022 5.03418 8.53737 4.92213C9.43706 4.59724 10.319 4.22479 11.4815 4.39972C12.8786 4.61094 13.8702 5.2317 14.4829 6.18943C13.301 6.94159 12.3667 8.07507 12.5263 10.0107C12.6682 11.769 13.6904 12.7976 14.9674 13.4039Z" fill="black"/>
</svg>
