<svg width="16" height="17" viewBox="0 0 16 17" fill="none" xmlns="http://www.w3.org/2000/svg">
<path d="M8.16406 7.01611V10.1776H12.5574C12.3645 11.1943 11.7856 12.0552 10.9173 12.634L13.5667 14.6897C15.1103 13.2649 16.0008 11.1721 16.0008 8.68597C16.0008 8.10713 15.9489 7.55048 15.8524 7.0162L8.16406 7.01611Z" fill="#4285F4"/>
<path d="M3.58762 10.0542L2.99009 10.5116L0.875 12.1591C2.21824 14.8233 4.97132 16.6638 8.16242 16.6638C10.3665 16.6638 12.2143 15.9365 13.565 14.6898L10.9157 12.6341C10.1884 13.1239 9.26072 13.4207 8.16242 13.4207C6.03996 13.4207 4.23665 11.9885 3.59096 10.0589L3.58762 10.0542Z" fill="#34A853"/>
<path d="M0.875642 4.8418C0.31908 5.94009 0 7.17946 0 8.50042C0 9.82137 0.31908 11.0607 0.875642 12.159C0.875642 12.1664 3.59186 10.0514 3.59186 10.0514C3.4286 9.56161 3.33209 9.04215 3.33209 8.50033C3.33209 7.95851 3.4286 7.43906 3.59186 6.94926L0.875642 4.8418Z" fill="#FBBC05"/>
<path d="M8.16259 3.58741C9.36485 3.58741 10.4335 4.00299 11.2869 4.8045L13.6246 2.46684C12.2071 1.14588 10.3667 0.336914 8.16259 0.336914C4.97148 0.336914 2.21824 2.16996 0.875 4.84161L3.59114 6.94924C4.23675 5.0197 6.04013 3.58741 8.16259 3.58741Z" fill="#EA4335"/>
</svg>
