<svg width="11" height="6" viewBox="0 0 11 6" fill="none" xmlns="http://www.w3.org/2000/svg">
<path d="M5.156 4.75305C5.21847 4.67885 5.25362 4.632 5.29657 4.58904C6.68278 3.20284 8.06898 1.81273 9.45909 0.430427C9.545 0.344522 9.66214 0.274236 9.77929 0.242997C9.95891 0.192235 10.1541 0.301569 10.2479 0.46557C10.3416 0.629572 10.3299 0.836526 10.2088 0.988814C10.1737 1.03567 10.1307 1.07472 10.0878 1.11767C8.58051 2.62493 7.07326 4.13218 5.566 5.64334C5.27314 5.9362 5.03885 5.9362 4.7499 5.64725C3.22702 4.12437 1.70805 2.6015 0.185181 1.08253C0.0407028 0.938052 -0.041298 0.777955 0.0211789 0.571001C0.114894 0.254711 0.489755 0.133662 0.751377 0.332807C0.798235 0.367951 0.837283 0.410904 0.880236 0.453856C2.26254 1.83616 3.64874 3.22236 5.03104 4.60466C5.07009 4.63981 5.10133 4.68666 5.156 4.75305Z" fill="#214336"/>
</svg>
