<svg width="13" height="13" viewBox="0 0 13 13" fill="none" xmlns="http://www.w3.org/2000/svg">
<path d="M7.06245 0.625025L8.49995 3.75002C8.56245 3.93752 8.74995 4.06252 8.93745 4.12502L12.1874 4.62502C12.7499 4.62502 12.9374 5.25002 12.5624 5.62502L10.1874 8.06252C10.0624 8.18752 9.99995 8.43752 9.99995 8.62502L10.5624 12C10.6249 12.5 10.1249 12.9375 9.68745 12.6875L6.74995 11.0625C6.56245 10.9375 6.37495 10.9375 6.18745 11.0625L3.24995 12.6875C2.81245 12.9375 2.24995 12.5625 2.37495 12L2.93745 8.62502C2.99995 8.43752 2.87495 8.18752 2.74995 8.06252L0.374946 5.62502C0.0624458 5.25002 0.249946 4.62502 0.749946 4.56252L3.99995 4.06252C4.18745 4.06252 4.37495 3.87502 4.43745 3.68752L5.87495 0.562525C6.18745 0.125025 6.81245 0.125025 7.06245 0.625025Z" fill="#367C2E"/>
</svg>
