<svg width="134" height="26" viewBox="0 0 134 26" fill="none" xmlns="http://www.w3.org/2000/svg">
<path d="M115.637 19.9579H115.139C115.139 19.1366 115.383 17.5639 115.873 15.2397C116.379 12.9156 116.633 11.5963 116.633 11.2817C116.633 10.7051 116.388 10.0934 115.899 9.44688L115.663 9.13233L115.689 8.79158C116.633 8.52945 118.144 8.39839 120.224 8.39839C120.468 8.73041 120.591 9.27213 120.591 10.0235C122.163 8.85274 123.413 8.26733 124.339 8.26733C125.51 8.26733 126.2 8.87021 126.41 10.076C126.882 9.69152 127.493 9.29834 128.245 8.89642C129.014 8.47703 129.695 8.26733 130.289 8.26733C130.901 8.26733 131.408 8.46829 131.81 8.87021C132.211 9.25465 132.412 9.79637 132.412 10.4954C132.412 11.1943 132.22 12.3477 131.836 13.9553C131.451 15.563 131.259 16.6465 131.259 17.2056C131.259 17.7474 131.338 18.0182 131.495 18.0182C131.6 18.0182 131.958 17.8522 132.57 17.5202L132.858 17.3629L133.33 18.2803C132.875 18.7347 132.255 19.1715 131.469 19.5909C130.7 19.9929 130.018 20.1938 129.424 20.1938C128.114 20.1938 127.458 19.4511 127.458 17.9658C127.458 17.4241 127.642 16.3406 128.009 14.7155C128.393 13.0729 128.585 12.0069 128.585 11.5176C128.585 11.0109 128.437 10.7575 128.14 10.7575C127.633 10.7575 127.056 10.9497 126.41 11.3341C126.375 11.6836 126.13 12.8719 125.676 14.899C125.239 16.926 125.021 18.4988 125.021 19.6171C124.514 19.8443 123.326 19.9579 121.456 19.9579C121.421 19.7657 121.403 19.3026 121.403 18.5687C121.403 17.8347 121.604 16.5853 122.006 14.8203C122.426 13.0554 122.635 11.937 122.635 11.4652C122.635 10.9934 122.469 10.7575 122.137 10.7575C121.613 10.7575 121.036 10.9672 120.407 11.3866C120.372 11.5438 120.198 12.3127 119.883 13.6932C119.254 16.4542 118.939 18.4201 118.939 19.5909C118.328 19.8356 117.227 19.9579 115.637 19.9579Z" fill="#367C2E"/>
<path d="M108.334 20.1942C107.128 20.1942 106.184 19.7748 105.503 18.936C104.821 18.0798 104.481 16.8915 104.481 15.3712C104.481 13.4315 104.996 11.7627 106.027 10.3647C107.076 8.9667 108.517 8.26771 110.352 8.26771L111.296 8.32014C111.593 8.16286 111.925 8.08423 112.292 8.08423C113.672 8.08423 114.363 9.38609 114.363 11.9898C115.079 11.9549 115.804 11.8588 116.538 11.7015L116.958 11.5966L117.115 12.6189C116.538 12.8636 115.761 13.082 114.782 13.2742L114.258 13.3791C113.926 15.2139 113.253 16.8128 112.239 18.1759C111.226 19.5214 109.924 20.1942 108.334 20.1942ZM109.749 17.94C110.483 17.94 111.139 17.4681 111.715 16.5245C112.309 15.5809 112.72 14.5848 112.947 13.5363C111.077 13.5363 110.143 12.8373 110.143 11.4394C110.143 10.8802 110.256 10.3559 110.483 9.86665L110.614 9.60453C110.544 9.56958 110.457 9.5521 110.352 9.5521C110.247 9.5521 110.169 9.56958 110.116 9.60453C109.679 9.88412 109.269 10.5394 108.884 11.5704C108.5 12.6014 108.308 13.781 108.308 15.1091C108.308 16.9963 108.788 17.94 109.749 17.94Z" fill="#367C2E"/>
<path d="M97.3524 20.1942C96.1467 20.1942 95.203 19.7748 94.5215 18.936C93.84 18.0798 93.4993 16.8915 93.4993 15.3712C93.4993 13.4315 94.0148 11.7627 95.0458 10.3647C96.0943 8.9667 97.5359 8.26771 99.3708 8.26771L100.314 8.32014C100.611 8.16286 100.943 8.08423 101.31 8.08423C102.691 8.08423 103.381 9.38609 103.381 11.9898C104.098 11.9549 104.823 11.8588 105.557 11.7015L105.976 11.5966L106.133 12.6189C105.557 12.8636 104.779 13.082 103.801 13.2742L103.276 13.3791C102.944 15.2139 102.272 16.8128 101.258 18.1759C100.244 19.5214 98.9426 20.1942 97.3524 20.1942ZM98.7679 17.94C99.5018 17.94 100.157 17.4681 100.734 16.5245C101.328 15.5809 101.739 14.5848 101.966 13.5363C100.096 13.5363 99.1611 12.8373 99.1611 11.4394C99.1611 10.8802 99.2747 10.3559 99.5018 9.86665L99.6329 9.60453C99.563 9.56958 99.4756 9.5521 99.3708 9.5521C99.2659 9.5521 99.1873 9.56958 99.1349 9.60453C98.698 9.88412 98.2873 10.5394 97.9029 11.5704C97.5184 12.6014 97.3262 13.781 97.3262 15.1091C97.3262 16.9963 97.8068 17.94 98.7679 17.94Z" fill="#367C2E"/>
<path d="M88.7382 20.1941C88.1441 20.1941 87.6461 19.9931 87.2441 19.5912C86.8597 19.1893 86.6675 18.6301 86.6675 17.9136C86.6675 17.1797 87.0956 14.8643 87.9519 10.9674C88.8256 7.0531 89.2625 4.23094 89.2625 2.50095L89.1052 1.34762C90.4682 0.875801 91.7439 0.639893 92.9322 0.639893C93.1069 0.884538 93.1943 1.31267 93.1943 1.92428C93.1943 3.32226 92.7487 6.03083 91.8575 10.05C90.9837 14.0517 90.5469 16.3846 90.5469 17.0486C90.5469 17.6952 90.6255 18.0185 90.7828 18.0185L92.6176 17.3632L93.0894 18.2806C92.4953 18.7524 91.7701 19.1893 90.9138 19.5912C90.0751 19.9931 89.3498 20.1941 88.7382 20.1941Z" fill="#367C2E"/>
<path d="M79.0967 20.1937C78.1531 20.1937 76.9561 20.0189 75.5057 19.6694C74.597 19.9141 73.7495 20.0364 72.9631 20.0364C72.1768 20.0364 71.7224 20.0102 71.6001 19.9577C71.7224 18.9093 72.2379 16.3317 73.1466 12.2252C74.0728 8.10116 74.5358 5.51491 74.5358 4.46642C74.5358 4.25673 74.4223 3.97713 74.1951 3.62764C73.9679 3.27814 73.7407 2.98107 73.5136 2.73643L73.1728 2.36946L73.2515 1.97628C75.5406 1.50446 78.0046 1.26855 80.6433 1.26855C82.0937 1.26855 83.2819 1.61805 84.2081 2.31704C85.1517 2.99855 85.6235 3.95966 85.6235 5.20036C85.6235 7.5944 84.1644 9.25449 81.2461 10.1807C82.4169 10.3204 83.3955 10.7661 84.1819 11.5175C84.9857 12.2514 85.3876 13.2911 85.3876 14.6367C85.3876 16.2793 84.7935 17.6161 83.6052 18.6471C82.4169 19.6781 80.9141 20.1937 79.0967 20.1937ZM78.6249 10.8884C78.1356 10.8884 77.6988 10.9321 77.3143 11.0194C76.5629 14.3396 76.0824 16.655 75.8727 17.9656C76.3095 18.2627 76.991 18.4112 77.9172 18.4112C78.8608 18.4112 79.6647 18.0443 80.3287 17.3103C80.9927 16.5589 81.3248 15.4842 81.3248 14.0862C81.3248 11.9543 80.4248 10.8884 78.6249 10.8884ZM80.0928 2.8937C79.4288 2.8937 79.0356 2.95486 78.9133 3.07719C78.6686 4.64991 78.2667 6.71192 77.7075 9.26323C78.4065 9.26323 78.8958 9.21954 79.1754 9.13217C79.455 9.04479 79.6996 8.93121 79.9093 8.79141C80.1365 8.65161 80.3899 8.43318 80.6695 8.13611C81.2811 7.48955 81.5869 6.45854 81.5869 5.04309C81.5869 3.61016 81.0889 2.8937 80.0928 2.8937Z" fill="#367C2E"/>
<path d="M62.8181 22.7108C62.2415 23.0603 61.9531 23.401 61.9531 23.7331C61.9531 24.0651 62.1366 24.2311 62.5036 24.2311C62.888 24.2311 63.3162 24.0476 63.788 23.6806C64.2598 23.3311 64.653 22.7545 64.9675 21.9506C64.1287 22.1079 63.4123 22.3613 62.8181 22.7108ZM61.56 19.9847C60.0921 19.9847 59.3582 19.1809 59.3582 17.5732C59.3582 17.1888 59.5329 16.0791 59.8824 14.2443C60.2319 12.4095 60.4066 10.8804 60.4066 9.65719C60.4066 9.39507 60.3717 9.15043 60.3018 8.92326C61.2454 8.55629 62.5386 8.3728 64.1812 8.3728C64.2685 8.61745 64.3122 9.03684 64.3122 9.63098C64.3122 10.2251 64.12 11.4571 63.7356 13.3269C63.3511 15.1967 63.1589 16.4024 63.1589 16.9441C63.1589 17.4859 63.3861 17.7567 63.8404 17.7567C64.3821 17.7567 65.0374 17.4859 65.8063 16.9441C65.8937 15.9131 66.2432 13.1958 66.8548 8.7922C67.4664 8.54755 68.5673 8.42523 70.1575 8.42523H70.6555C70.3235 9.73583 70.0002 11.6231 69.6857 14.087C69.3712 16.551 69.1178 18.2635 68.9256 19.2246C68.5586 21.1468 67.8771 22.7108 66.881 23.9165C65.9024 25.1398 64.618 25.7514 63.0278 25.7514C62.3988 25.7514 61.8221 25.5854 61.2978 25.2534C60.7911 24.9213 60.5377 24.4932 60.5377 23.969C60.5377 23.27 60.9658 22.6322 61.8221 22.0555C62.6783 21.4788 63.8317 21.0332 65.2821 20.7187C65.4394 19.9498 65.5617 19.2071 65.649 18.4907C64.2336 19.4867 62.8706 19.9847 61.56 19.9847Z" fill="#367C2E"/>
<path d="M59.7277 8.58189C59.6928 9.01876 59.5443 9.52552 59.2821 10.1022C58.6181 10.0323 57.989 9.99734 57.3949 9.99734H56.9231C56.1192 13.8942 55.7173 16.3232 55.7173 17.2843C55.7173 17.7911 55.8221 18.0444 56.0318 18.0444C56.259 18.0444 56.8444 17.826 57.7881 17.3891L58.2599 18.2541C56.7046 19.5473 55.263 20.1938 53.9349 20.1938C53.3233 20.1938 52.8165 20.0016 52.4146 19.6172C52.0301 19.2327 51.8379 18.7259 51.8379 18.0969C51.8379 17.4503 51.9078 16.7251 52.0476 15.9213C52.2049 15.1174 52.4146 14.1388 52.6767 12.9855C52.9388 11.8147 53.131 10.8711 53.2534 10.1546C52.6068 10.207 52.1262 10.2595 51.8117 10.3119C51.7768 10.1022 51.7593 9.82259 51.7593 9.4731C51.7593 9.10613 51.7855 8.80906 51.8379 8.58189H53.4893C53.6291 7.63826 53.699 6.74705 53.699 5.90826L53.6728 5.09569V5.01705C55.0358 4.54524 56.3202 4.30933 57.5259 4.30933C57.5958 4.65882 57.6308 5.09569 57.6308 5.61993C57.6308 6.14417 57.4822 7.13149 57.1852 8.58189H59.7277Z" fill="#367C2E"/>
<path d="M38.6519 17.9141C38.6519 17.1627 38.879 15.8871 39.3334 14.0872C39.7877 12.2698 40.0149 11.1602 40.0149 10.7583C40.0149 10.3389 39.7003 9.78841 39.0712 9.1069L39.0975 8.76614C40.2857 8.52149 41.8497 8.39917 43.7894 8.39917C43.8768 8.62634 43.9205 9.037 43.9205 9.63114C43.9205 10.2253 43.6758 11.4922 43.1865 13.4319C42.6972 15.3716 42.4526 16.5773 42.4526 17.0491C42.4526 17.521 42.6274 17.7569 42.9768 17.7569C43.4836 17.7569 44.069 17.5734 44.7331 17.2064C44.803 16.787 44.9777 15.9832 45.2573 14.7949C45.8864 11.999 46.2009 9.9981 46.2009 8.79235C46.8125 8.54771 47.9134 8.42538 49.5036 8.42538H50.0017C50.0017 9.24669 49.757 10.8544 49.2677 13.2484C48.7784 15.625 48.5338 17.0229 48.5338 17.4423C48.5338 17.8442 48.6212 18.0452 48.7959 18.0452C48.9008 18.0452 49.3988 17.8355 50.29 17.4161L50.788 18.2549C49.2328 19.548 47.8698 20.1946 46.699 20.1946C46.1398 20.1946 45.6592 20.0373 45.2573 19.7228C44.8728 19.4082 44.6544 18.9976 44.602 18.4908C43.1865 19.6441 41.9022 20.2208 40.7488 20.2208C40.1372 20.2208 39.6304 20.0198 39.2285 19.6179C38.8441 19.216 38.6519 18.6481 38.6519 17.9141Z" fill="#367C2E"/>
<path d="M33.6606 9.02748C33.6956 8.99253 33.7917 8.76536 33.949 8.34597C34.7703 8.34597 35.8712 8.59062 37.2517 9.07991C36.8148 10.5303 36.4653 12.0506 36.2032 13.6408C35.9411 15.2135 35.81 16.3406 35.81 17.0222C35.81 17.6862 35.8799 18.0182 36.0197 18.0182C36.1246 18.0182 36.509 17.8522 37.173 17.5202L37.4876 17.3629L37.9594 18.2803C37.8021 18.4201 37.5924 18.5949 37.3303 18.8046C37.0857 19.0143 36.6138 19.3026 35.9149 19.6696C35.2159 20.0191 34.5868 20.1938 34.0276 20.1938C32.9442 20.1938 32.3151 19.7045 32.1403 18.7259C31.0219 19.7045 30.0084 20.1938 29.0997 20.1938C28.2085 20.1938 27.4484 19.8443 26.8193 19.1453C26.2077 18.4463 25.9019 17.3454 25.9019 15.8426C25.9019 13.501 26.3824 11.6574 27.3435 10.3119C28.3046 8.94885 29.4667 8.26733 30.8297 8.26733C31.8083 8.26733 32.7519 8.52072 33.6606 9.02748ZM30.6725 17.9658C31.0918 17.9658 31.5637 17.7998 32.0879 17.4678C32.2102 15.0038 32.6209 12.5661 33.3199 10.1546C32.7956 9.92743 32.35 9.81385 31.9831 9.81385C31.354 9.81385 30.8122 10.4342 30.3579 11.6749C29.921 12.8981 29.7026 14.2524 29.7026 15.7378C29.7026 17.2231 30.0259 17.9658 30.6725 17.9658Z" fill="#367C2E"/>
<path d="M15.2739 15.3446C15.2739 13.1602 15.9292 11.439 17.2398 10.1808C18.5679 8.90516 20.0707 8.26733 21.7483 8.26733C22.7793 8.26733 23.6268 8.52072 24.2909 9.02748C24.9549 9.53425 25.2869 10.2158 25.2869 11.072C25.2869 11.9108 25.0685 12.6185 24.6316 13.1952C24.2122 13.7719 23.6967 14.2175 23.0851 14.532C21.8444 15.1436 20.7086 15.5281 19.6776 15.6853L19.0485 15.764C19.1708 17.4066 19.8436 18.2279 21.0668 18.2279C21.4862 18.2279 21.9318 18.1231 22.4036 17.9134C22.8754 17.7037 23.2424 17.494 23.5045 17.2843L23.8977 16.9697L24.5268 17.8085C24.387 18.0007 24.1074 18.2541 23.688 18.5687C23.2686 18.8832 22.8754 19.1453 22.5085 19.355C21.4949 19.9142 20.3853 20.1938 19.1795 20.1938C17.9738 20.1938 17.0214 19.7657 16.3224 18.9094C15.6234 18.0532 15.2739 16.8649 15.2739 15.3446ZM19.0222 14.4796C19.9135 14.3223 20.6212 13.9466 21.1454 13.3525C21.6697 12.7583 21.9318 11.9894 21.9318 11.0458C21.9318 10.1022 21.6522 9.63036 21.093 9.63036C20.429 9.63036 19.9135 10.1983 19.5465 11.3341C19.197 12.4525 19.0222 13.501 19.0222 14.4796Z" fill="#367C2E"/>
<path d="M7.75641 20.1937C6.81278 20.1937 5.61576 20.0189 4.16536 19.6694C3.25668 19.9141 2.40915 20.0364 1.62279 20.0364C0.836431 20.0364 0.382089 20.0102 0.259766 19.9577C0.382089 18.9093 0.897592 16.3317 1.80628 12.2252C2.73244 8.10116 3.19552 5.51491 3.19552 4.46642C3.19552 4.25673 3.08193 3.97713 2.85476 3.62764C2.62759 3.27814 2.40042 2.98107 2.17325 2.73643L1.83249 2.36946L1.91112 1.97628C4.20031 1.50446 6.66424 1.26855 9.30292 1.26855C10.7533 1.26855 11.9416 1.61805 12.8678 2.31704C13.8114 2.99855 14.2832 3.95966 14.2832 5.20036C14.2832 7.5944 12.8241 9.25449 9.9058 10.1807C11.0766 10.3204 12.0552 10.7661 12.8416 11.5175C13.6454 12.2514 14.0473 13.2911 14.0473 14.6367C14.0473 16.2793 13.4532 17.6161 12.2649 18.6471C11.0766 19.6781 9.57378 20.1937 7.75641 20.1937ZM7.2846 10.8884C6.7953 10.8884 6.35844 10.9321 5.97399 11.0194C5.22258 14.3396 4.74203 16.655 4.53233 17.9656C4.9692 18.2627 5.65071 18.4112 6.57687 18.4112C7.5205 18.4112 8.32434 18.0443 8.98838 17.3103C9.65242 16.5589 9.98444 15.4842 9.98444 14.0862C9.98444 11.9543 9.08449 10.8884 7.2846 10.8884ZM8.75247 2.8937C8.08843 2.8937 7.69525 2.95486 7.57293 3.07719C7.32828 4.64991 6.92636 6.71192 6.36717 9.26323C7.06616 9.26323 7.55545 9.21954 7.83505 9.13217C8.11464 9.04479 8.35929 8.93121 8.56899 8.79141C8.79616 8.65161 9.04954 8.43318 9.32913 8.13611C9.94075 7.48955 10.2466 6.45854 10.2466 5.04309C10.2466 3.61016 9.74853 2.8937 8.75247 2.8937Z" fill="#367C2E"/>
</svg>
