<svg width="56" height="41" viewBox="0 0 56 41" fill="none" xmlns="http://www.w3.org/2000/svg">
<path d="M15.4115 0C16.473 0.293256 17.5674 0.503584 18.5913 0.894192C22.0654 2.21745 24.9436 4.42649 27.5884 6.96244C27.8924 7.25449 28.2 7.54655 28.4797 7.86144C28.87 8.30012 28.8591 8.84216 28.4797 9.20273C28.093 9.5693 27.5762 9.55728 27.1275 9.14864C26.117 8.22801 25.1552 7.25209 24.1021 6.38314C21.793 4.47697 19.3075 2.85444 16.3405 2.10327C15.2728 1.83285 14.1882 1.72108 13.1023 1.97948C11.1178 2.45182 10.1681 3.84959 9.82885 5.71369C9.3996 8.07176 9.82155 10.3661 10.5475 12.6088C12.4809 18.5785 15.9392 23.5951 20.4603 27.9351C20.4846 27.9591 20.5308 27.9615 20.5515 27.9687C20.7825 27.0084 21.0391 26.053 21.2227 25.0854C21.2628 24.8727 21.1047 24.5626 20.9406 24.3824C18.2532 21.4209 15.983 18.1807 14.2526 14.5871C13.2871 12.5824 12.4627 10.5248 12.5028 8.24123C12.5442 5.86753 14.2794 4.53706 16.6165 5.10555C18.4891 5.56106 20.0298 6.6199 21.5024 7.78452C23.8212 9.61737 25.7972 11.7783 27.6249 14.0799C27.7234 14.2049 27.8267 14.3263 27.9982 14.5354C28.746 13.7795 29.4403 13.0054 30.2088 12.3132C33.1892 9.62819 36.4542 7.37708 40.3149 6.08507C42.2472 5.43847 44.2098 5.09353 46.266 5.48654C47.8577 5.79061 48.9533 6.77735 50.0125 7.86745C53.5899 11.55 55.6133 15.9188 55.9526 21.0231C56.3307 26.7284 54.4435 31.6128 50.2301 35.5093C46.1821 39.2531 41.2804 40.6857 35.7805 40.1858C33.6525 39.9923 31.6194 39.4454 29.6507 38.6317C29.4136 38.5332 29.0634 38.5777 28.8056 38.6666C23.8261 40.3925 18.7834 40.7134 13.7845 38.9334C6.41435 36.3085 1.87992 31.1645 0.373309 23.5158C0.186047 22.5627 0.121599 21.5844 0 20.6193C0 20.1794 0 19.7407 0 19.3008C0.0389117 19.1085 0.0839033 18.9162 0.114303 18.7227C0.322237 17.4271 0.430461 16.1075 0.751482 14.8395C2.2508 8.9275 5.68232 4.34116 10.781 0.974717C11.5252 0.483152 12.487 0.317294 13.3491 0C14.0374 0 14.7244 0 15.4127 0H15.4115ZM7.86381 5.79302C4.35203 9.52723 2.37969 13.7843 1.99666 18.7348C1.70117 22.5579 2.60222 26.1094 4.57456 29.4555C4.78614 29.3112 4.9357 29.2151 5.07798 29.1105C5.90242 28.5 6.71713 27.8762 7.55252 27.2801C8.0231 26.9435 8.58854 27.0337 8.90105 27.4483C9.20991 27.8582 9.14425 28.3401 8.71865 28.7283C8.6007 28.8365 8.46572 28.9266 8.33805 29.024C7.46253 29.691 6.58702 30.3581 5.71394 31.0239C10.8308 37.9623 20.3946 39.5295 26.8953 37.2844C24.5739 35.6439 22.2283 34.0466 20.8579 31.4001C20.2 31.8844 19.5385 32.4036 18.8406 32.8676C18.5925 33.0322 18.2216 33.1909 17.9675 33.1236C17.689 33.0514 17.323 32.7402 17.2829 32.489C17.2342 32.1777 17.3838 31.7162 17.6197 31.5046C18.269 30.9205 19.0071 30.4326 19.7659 29.8641C15.7094 26.1671 12.5381 21.9029 10.1815 17.0017C9.40569 17.5762 8.68703 18.1218 7.95501 18.6482C7.40052 19.0473 6.86426 18.9884 6.52014 18.516C6.19061 18.0653 6.2891 17.581 6.82292 17.1699C7.50874 16.6423 8.18605 16.1015 8.91078 15.6303C9.36434 15.3359 9.37893 15.0558 9.20383 14.5955C8.1447 11.8096 7.5209 8.95153 7.86381 5.79422V5.79302ZM50.5098 32.5034C56.0122 25.8126 54.5128 16.7108 50.7202 11.8084C50.5366 14.5943 49.4993 17.0666 48.1763 19.5124C48.8159 20.1289 49.4568 20.7359 50.0854 21.3548C50.6326 21.8933 50.6934 22.3921 50.2848 22.8187C49.8556 23.267 49.3133 23.2262 48.7612 22.6673C48.2578 22.1565 47.7823 21.6193 47.24 21.0339C44.5223 25.1071 41.2294 28.3906 37.2579 31.1621C37.7893 31.6597 38.2794 32.102 38.75 32.5635C39.2838 33.0863 39.3409 33.6091 38.9348 34.0262C38.5201 34.4528 37.9523 34.3915 37.4014 33.8567C36.9685 33.4373 36.5162 33.0322 36.1198 32.5815C35.8121 32.2306 35.5653 32.2029 35.1543 32.4409C33.2646 33.5358 31.268 34.3831 29.1132 34.823C28.4955 34.9492 27.8632 35.0117 27.1774 35.1115C33.7656 39.7976 43.6164 39.6317 49.2281 33.8206C48.5253 33.1332 47.8176 32.4493 47.1184 31.757C46.5493 31.1934 46.4958 30.6766 46.9469 30.2523C47.3811 29.8437 47.8906 29.8977 48.4317 30.4302C49.1187 31.1056 49.796 31.7907 50.5086 32.5034H50.5098ZM44.8336 7.16796C42.6813 7.17277 40.9655 7.68957 39.3288 8.44074C33.6392 11.0536 29.2154 15.1135 25.762 20.2335C24.1398 22.6396 22.8485 25.208 22.5031 28.1346C22.1663 30.983 23.4382 33.3219 26.978 33.2221C28.5162 33.1788 29.9839 32.8087 31.3689 32.1957C38.3353 29.1105 43.5191 24.1348 47.0868 17.504C48.1155 15.5919 48.8171 13.5535 48.8001 11.3384C48.7794 8.66308 47.212 7.13551 44.8336 7.16796ZM26.5086 15.7697C24.5861 13.2338 22.3815 10.7772 19.682 8.79409C18.5621 7.97201 17.402 7.21123 16.0073 6.90355C15.0284 6.68721 14.4107 7.09464 14.4545 8.07537C14.497 9.04047 14.6028 10.0308 14.8825 10.9514C15.9878 14.5919 18.0052 17.7564 20.3314 20.7431C20.8786 21.4462 21.4695 22.1168 21.9705 22.719C23.4783 20.4102 24.9594 18.1422 26.5086 15.7697Z" fill="black"/>
<path d="M46.3512 12.9224C46.3159 13.9104 45.8624 15.1519 45.2191 16.3069C42.0964 21.9184 37.6848 26.2992 32.0584 29.4554C31.0431 30.025 29.8794 30.4421 28.7315 30.6584C26.0052 31.1704 24.4585 29.4914 25.0604 26.8088C25.4909 24.8858 26.4466 23.1972 27.5751 21.6083C30.7148 17.1891 34.5305 13.4765 39.3459 10.8444C40.5862 10.1665 41.897 9.6281 43.3477 9.60046C45.2495 9.5644 46.3658 10.6797 46.3512 12.9212V12.9224ZM28.0299 28.935C28.1733 28.9145 28.4238 28.9145 28.6488 28.84C29.2592 28.6405 29.8952 28.4758 30.4582 28.1814C36.1417 25.1995 40.5132 20.8848 43.6189 15.3334C44.0663 14.5329 44.2925 13.5871 44.4846 12.6809C44.667 11.8215 44.2366 11.354 43.3769 11.5162C42.3822 11.7037 41.3608 11.9669 40.4658 12.4176C37.2629 14.0294 34.5512 16.2901 32.1387 18.9053C30.3086 20.8884 28.6269 22.9821 27.5228 25.4567C27.1872 26.2103 26.9549 27.0336 26.8321 27.8473C26.7093 28.6633 27.0875 28.9602 28.0299 28.935Z" fill="black"/>
</svg>
