<svg width="41" height="50" viewBox="0 0 41 50" fill="none" xmlns="http://www.w3.org/2000/svg">
<path d="M0 37.4005C0.212288 36.6216 0.354795 35.8144 0.650622 35.0678C1.66488 32.511 3.53911 30.6911 5.86051 29.2987C7.93916 28.0511 10.1996 27.2928 12.5997 26.9445C12.6803 26.9327 12.7599 26.9112 12.8385 26.8916C12.9161 26.8731 12.9918 26.8506 13.1029 26.8202C12.8277 24.1617 13.4301 21.7214 14.9594 19.4973C13.6532 18.4846 12.3785 17.4963 11.1038 16.5091C10.0719 15.7097 9.03795 14.9142 8.00796 14.1128C7.50771 13.7243 7.39567 13.2126 7.71213 12.8095C8.03253 12.4014 8.53082 12.3936 9.05269 12.7899C9.29937 12.9768 9.54213 13.1666 9.86547 13.4161C10.3146 12.9494 10.7667 12.4885 11.2031 12.013C11.2611 11.9504 11.2847 11.7909 11.2463 11.7155C10.5416 10.3369 10.8905 8.99047 11.4891 7.72629C12.809 4.9347 14.7225 2.65682 17.5756 1.28793C19.1363 0.540377 20.8052 0.162686 22.5192 0.00906586C23.7045 -0.0975878 24.477 0.833919 24.2057 1.9758C23.4843 5.01885 22.1418 7.75858 20.0602 10.1059C18.7796 11.5502 17.2749 12.7106 15.3447 13.192C14.5338 13.3946 13.7309 13.3545 12.9328 13.0864C12.7933 13.0394 12.5574 13.0834 12.4473 13.1783C12.0178 13.5521 11.6208 13.9641 11.1569 14.4142C12.8218 15.7057 14.4503 16.968 16.0218 18.1871C16.8896 17.6813 17.6818 17.1324 18.5437 16.7351C20.4464 15.8584 22.4759 15.6715 24.531 15.967C30.133 16.7723 34.3542 19.7899 37.6319 24.2439C39.2948 26.5042 40.4005 29.0247 40.827 31.8075C41.2526 34.5922 40.945 37.2596 39.3282 39.6578C37.9494 41.7038 35.9837 42.9327 33.5925 43.422C32.5665 43.6314 31.4854 43.5717 30.4308 43.6519C30.2579 43.6646 30.0259 43.7224 29.9345 43.8447C27.8313 46.6304 24.9654 48.2654 21.6681 49.1881C20.3894 49.5462 19.0469 49.6783 17.7339 49.9161C17.6405 49.9327 17.5511 49.9719 17.4587 50.0012H14.3206C14.18 49.968 14.0405 49.9171 13.897 49.9034C10.6045 49.5922 7.54604 48.6157 4.83446 46.693C2.77743 45.2341 1.19313 43.3926 0.41573 40.9543C0.229978 40.3701 0.135628 39.7576 0 39.1588C0 38.5727 0 37.9866 0 37.4005ZM15.5049 48.3535C16.2872 48.3144 17.0754 48.3202 17.8518 48.2253C18.7884 48.1108 19.73 47.9709 20.643 47.738C23.6838 46.9641 26.4131 45.6226 28.3718 43.0864C30.364 40.5071 30.7286 37.7077 29.1689 34.785C27.9443 32.4905 25.9571 31.0052 23.6268 29.965C19.441 28.0981 15.1127 27.8809 10.7146 29.056C7.74555 29.8496 5.12144 31.2605 3.26884 33.7909C1.43884 36.2899 1.14989 38.9787 2.57595 41.7703C3.58137 43.7371 5.20301 45.1089 7.10574 46.1646C9.71314 47.6098 12.5397 48.2371 15.5049 48.3535ZM31.105 42.0169C31.5778 41.9817 32.0623 41.9562 32.5439 41.9073C36.0388 41.5521 38.8879 38.6578 39.2506 35.1901C39.515 32.6666 38.9941 30.3026 37.9248 28.0482C36.1449 24.2997 33.393 21.4308 29.7635 19.419C27.3851 18.101 24.8465 17.3633 22.0799 17.5511C18.7078 17.7801 16.1958 19.6676 15.1383 22.8701C14.7333 24.0942 14.5604 25.3564 14.8375 26.6627C15.0832 26.6627 15.2945 26.6656 15.5049 26.6627C18.1928 26.6255 20.8071 27.0306 23.3133 28.0149C26.2382 29.1637 28.7355 30.8721 30.42 33.5854C31.5768 35.4474 32.0407 37.4778 31.6829 39.6529C31.5552 40.4298 31.3114 41.1891 31.105 42.0169ZM12.6193 10.4425C13.267 9.78793 13.8282 9.20183 14.411 8.63725C14.812 8.24879 15.2827 8.23607 15.6336 8.56582C15.9913 8.90241 15.9864 9.40926 15.5923 9.81924C15.1186 10.3124 14.6243 10.787 14.1427 11.2733C14.0621 11.3554 14.0012 11.4562 13.9019 11.5873C14.7736 11.7087 15.4881 11.4474 16.1673 11.0825C17.6032 10.3124 18.7393 9.21455 19.6828 7.89654C21.0204 6.02668 21.9885 3.99537 22.5398 1.75662C18.1948 1.59811 12.2596 6.72237 12.6203 10.4425H12.6193Z" fill="black"/>
<path d="M7.48701 43.3552C6.05112 43.2495 4.98477 42.5264 4.18869 41.3229C2.86091 39.316 3.15477 36.1898 4.85504 34.5107C6.57496 32.8121 9.04674 32.9647 10.5475 34.862C12.291 37.0655 12.0679 40.4011 10.0364 42.3199C9.3347 42.9833 8.47965 43.3082 7.48701 43.3552ZM10.0237 38.1957C10.0364 37.5205 9.82512 36.7505 9.34846 36.0597C8.45115 34.7602 6.90126 34.6781 5.87422 35.8708C4.78526 37.136 4.76954 39.4599 5.84277 40.7602C6.80494 41.9266 8.21528 41.9501 9.19711 40.7945C9.79073 40.0968 10.0207 39.2612 10.0237 38.1957Z" fill="black"/>
<path d="M16.3147 29.9911C18.5408 30.045 20.6745 30.5195 22.7296 31.3649C23.3045 31.6017 23.561 32.0195 23.4008 32.4862C23.2308 32.9823 22.7404 33.1819 22.1487 32.9422C20.7227 32.3649 19.2553 31.9451 17.7231 31.7798C17.1727 31.7201 16.6155 31.724 16.0631 31.6751C15.3742 31.6134 15.0518 31.3072 15.0823 30.7788C15.1118 30.2583 15.497 29.9784 16.1673 29.9911C16.2165 29.9911 16.2656 29.9911 16.3138 29.9911H16.3147Z" fill="black"/>
<path d="M27.7469 36.0381C27.6496 36.1507 27.4933 36.4941 27.2623 36.5558C26.9842 36.6301 26.5577 36.5616 26.3464 36.3806C26.0269 36.1066 25.8215 35.6908 25.6004 35.316C25.4097 34.9941 25.4903 34.6331 25.7714 34.4462C26.0093 34.2877 26.369 34.1996 26.651 34.2417C27.051 34.3014 27.7636 35.4423 27.7478 36.0381H27.7469Z" fill="black"/>
<path d="M37.174 30.7584C37.1563 31.2173 36.9667 31.5089 36.5794 31.6146C36.1804 31.7241 35.8315 31.6126 35.6192 31.23C35.5337 31.0744 35.4738 30.9042 35.4138 30.7359C34.6816 28.7026 33.5612 26.9091 32.0614 25.3504C31.9936 25.2799 31.9248 25.2104 31.859 25.138C31.4374 24.6742 31.4128 24.2046 31.7902 23.8474C32.1558 23.5011 32.6472 23.55 33.0846 23.9893C34.9067 25.8191 36.2433 27.9502 37.0777 30.3905C37.1239 30.5265 37.1514 30.6694 37.174 30.7584Z" fill="black"/>
<path d="M37.7047 34.4022C37.6064 34.9276 37.5297 35.459 37.4029 35.9766C37.2742 36.503 36.8486 36.7593 36.3847 36.6429C35.9012 36.5206 35.6781 36.1331 35.7724 35.595C35.8491 35.1635 35.9297 34.7319 35.9837 34.2975C36.0634 33.6664 36.3749 33.3053 36.8575 33.3239C37.3754 33.3435 37.6752 33.7437 37.7037 34.4022H37.7047Z" fill="black"/>
</svg>
