<svg width="41" height="50" viewBox="0 0 41 50" fill="none" xmlns="http://www.w3.org/2000/svg">
<path d="M23.9605 50.0001C23.1992 49.8514 22.428 49.7399 21.6775 49.5481C17.58 48.4963 14.326 46.1666 11.6972 42.9104C11.4523 42.6071 11.1985 42.4153 10.7997 42.3194C5.07273 40.9427 0.872304 36.3392 0.139409 30.5224C-0.275049 27.2339 0.190359 24.0872 2.25285 21.3476C3.73922 19.3741 4.55932 17.1218 5.20697 14.7696C5.75174 12.7941 6.50815 10.8862 7.63493 9.15436C8.69214 7.52918 10.0198 6.22982 11.9716 5.72984C12.2684 5.65352 12.5702 5.59873 12.873 5.53317C13.3119 2.99804 14.6562 1.17228 17.0391 0.152755C17.1283 0.114596 17.2194 0.076437 17.3115 0.0480623C17.7661 -0.0918539 18.1434 0.0803507 18.306 0.498143C18.4559 0.884625 18.2942 1.25154 17.8788 1.45994C17.4869 1.65661 17.0695 1.81218 16.706 2.05092C15.4597 2.86889 14.7219 4.02834 14.4505 5.54491C14.6886 5.6046 14.9031 5.65841 15.1177 5.7132C17.2458 6.25819 18.6852 7.64561 19.7444 9.49485C20.8016 11.3412 21.412 13.3675 22.0988 15.3635C22.6906 17.0836 23.2619 18.8135 24.2309 20.3731C24.4523 20.7292 24.7041 21.0668 24.9599 21.4386C25.6536 21.056 26.2983 20.6813 26.9587 20.3389C28.6224 19.4759 30.3243 18.701 32.1977 18.4123C34.1955 18.1051 35.965 18.516 37.425 20.0267C39.0475 21.7067 40.3712 23.5422 40.82 25.8895C41.1855 27.8024 40.9748 29.6917 40.4241 31.5292C39.8039 33.5957 39.0593 35.624 38.4038 37.6797C38.0491 38.7912 37.8257 39.9467 37.4397 41.0455C36.2688 44.3751 34.2612 47.0306 31.0582 48.6704C29.758 49.3367 28.3755 49.7418 26.9224 49.9062C26.8137 49.9189 26.7098 49.9678 26.603 50.0001H23.9624H23.9605ZM23.6626 22.2899C23.5196 22.0648 23.4568 21.9542 23.3824 21.8525C22.2576 20.2948 21.4443 18.5904 20.9348 16.7372C20.7242 15.9711 20.4929 15.2089 20.2352 14.4575C19.5866 12.5642 18.8929 10.6866 17.6113 9.10446C15.3382 6.29929 11.7433 6.3257 9.50244 9.16708C8.20126 10.8167 7.44289 12.7442 6.85696 14.7246C6.07508 17.3673 5.23734 19.9543 3.52366 22.191C1.74531 24.5129 1.29264 27.2241 1.65615 30.0547C2.30576 35.1142 5.07567 38.571 9.81108 40.4643C9.98058 40.5318 10.1599 40.5788 10.3333 40.6355C10.3549 40.5572 10.3656 40.5406 10.3617 40.5279C10.3216 40.388 10.2814 40.2481 10.2363 40.1101C9.6161 38.2344 9.47696 36.3196 9.84831 34.3843C10.59 30.5185 12.773 27.5636 15.8006 25.1694C17.191 24.0696 18.8723 23.6606 20.5488 23.234C21.5786 22.9728 22.5848 22.6206 23.6636 22.2908L23.6626 22.2899ZM11.2632 36.6093C11.3092 37.0584 11.3425 37.6435 11.4336 38.2207C12.2596 43.4417 16.5747 46.4142 21.9607 45.7429C25.0559 45.3574 27.5613 43.7254 29.6649 41.4799C30.9661 40.0905 31.9243 38.4888 32.2535 36.5897C32.571 34.7541 33.2187 33.0683 34.2043 31.4852C34.8471 30.4529 35.4213 29.3718 35.9386 28.27C36.6666 26.7183 37.2104 25.1019 37.1643 23.3505C37.1173 21.5413 36.0826 20.2645 34.3258 20.0532C33.4538 19.9485 32.5308 20.0218 31.6627 20.1862C29.4748 20.6001 27.5083 21.5971 25.6594 22.7928C24.2005 23.737 22.6387 24.3592 20.9495 24.7095C19.1114 25.0911 17.4193 25.7574 15.9466 26.9873C12.9739 29.4706 11.3974 32.6055 11.2622 36.6083L11.2632 36.6093ZM38.7771 24.6303C38.5312 25.5099 38.4028 26.3435 38.0687 27.0832C37.3407 28.6937 36.5255 30.267 35.7113 31.8374C34.9696 33.2669 34.2377 34.6945 33.8565 36.2756C33.6331 37.2032 33.4695 38.1689 33.0815 39.0299C31.4697 42.608 28.6596 44.9543 25.1068 46.4729C23.5725 47.1284 21.9626 47.4601 20.2725 47.4063C20.4087 47.5168 20.5458 47.5932 20.6889 47.6548C22.6367 48.4865 24.664 48.7565 26.7568 48.4454C29.7384 48.0022 32.1967 46.6216 34.0378 44.2244C35.2371 42.6628 35.8298 40.8136 36.3824 38.9565C37.0311 36.7795 37.6768 34.6123 38.6311 32.5311C39.801 29.9823 39.7579 27.3366 38.7761 24.6303H38.7771Z" fill="black"/>
<path d="M4.24658 29.0294C4.29557 27.1224 4.78842 25.3583 5.78684 23.7468C7.0018 21.785 7.88754 19.6853 8.5205 17.4731C8.55577 17.3488 8.57831 17.2187 8.6273 17.0993C8.77525 16.7383 9.05841 16.5582 9.43858 16.6228C9.80796 16.6854 10.0852 16.9193 10.0637 17.3175C10.0441 17.6687 9.95395 18.022 9.85205 18.3605C9.19754 20.5307 8.28926 22.5834 7.10272 24.5237C5.61733 26.9541 5.41745 29.5284 6.43939 32.1887C6.72059 32.9196 6.63241 33.3795 6.14839 33.5566C5.6624 33.7347 5.2891 33.4949 5.02357 32.7758C4.82761 32.2445 4.63655 31.7034 4.52681 31.1496C4.38865 30.452 4.33672 29.7377 4.24756 29.0303L4.24658 29.0294Z" fill="black"/>
<path d="M24.7479 26.9021C28.283 26.9266 30.8393 30.1094 29.9712 33.667C29.1462 37.0436 26.9377 39.3047 23.5368 40.1139C19.1718 41.152 15.6798 37.3674 17.0387 33.0985C18.0715 29.855 20.3299 27.7993 23.6838 27.0195C24.0287 26.9393 24.3932 26.9393 24.7479 26.9011V26.9021ZM28.5789 32.7776C28.623 29.8854 26.6673 28.1486 24.2531 28.4774C21.537 28.8472 18.9082 31.3814 18.3585 34.1582C17.8402 36.7784 19.696 38.9271 22.3601 38.7607C23.6152 38.6825 24.7243 38.1835 25.7022 37.4125C27.3532 36.1121 28.4692 34.4997 28.5789 32.7766V32.7776Z" fill="black"/>
<path d="M20.0439 34.9117C19.5069 34.8569 19.2032 34.4537 19.3443 34.0125C19.455 33.6681 19.6333 33.31 19.8802 33.0516C20.8571 32.0302 21.8643 31.038 22.8794 30.0537C23.096 29.8443 23.3762 29.6839 23.6535 29.5596C24.0052 29.4021 24.3736 29.4285 24.6176 29.768C24.8459 30.086 24.7714 30.4245 24.5324 30.7103C24.3668 30.9079 24.1865 31.1075 23.9748 31.2513C22.8334 32.0302 21.8741 32.9841 21.0952 34.126C20.9512 34.3373 20.7581 34.5291 20.5514 34.6807C20.378 34.8079 20.1516 34.8647 20.0429 34.9117H20.0439Z" fill="black"/>
</svg>
