<svg width="37" height="44" viewBox="0 0 37 44" fill="none" xmlns="http://www.w3.org/2000/svg">
<path d="M18.4438 27.3258C18.83 27.7043 19.1801 28.0486 19.5312 28.3919C20.4977 29.3354 21.0585 30.4691 21.1839 31.8124C21.3199 33.2711 20.9459 34.5844 20.0301 35.7341C19.087 36.918 17.8503 37.6119 16.3367 37.791C14.4495 38.0141 12.8588 37.4076 11.5475 36.0576C11.2491 35.7505 10.9497 35.4444 10.6298 35.1165C10.2845 35.4526 9.95389 35.7563 9.64326 36.0793C8.40708 37.3651 6.8871 37.9629 5.11012 37.8253C3.38922 37.692 2.01212 36.8934 1.00464 35.5013C-0.528997 33.3821 -0.304193 30.3059 1.65272 28.4199C2.01797 28.0679 2.38321 27.7159 2.76748 27.3451C2.37785 26.9656 2.01504 26.6208 1.66199 26.2669C0.27074 24.8724 -0.260305 23.196 0.121521 21.2824C0.555524 19.1101 1.89898 17.6731 4.03291 17.0657C6.19123 16.451 8.08378 17.0213 9.65155 18.6181C9.95633 18.9285 10.2504 19.2491 10.5873 19.606C10.9438 19.2419 11.2588 18.9223 11.5709 18.6002C12.7622 17.3723 14.2203 16.748 15.9348 16.8504C17.9142 16.9682 19.4356 17.8856 20.4656 19.591C20.9864 20.4529 21.2268 21.3853 21.216 22.3684C21.199 23.885 20.6587 25.2046 19.5444 26.2722C19.184 26.6174 18.8237 26.9627 18.4433 27.3272L18.4438 27.3258ZM6.15075 27.3166C6.13564 29.7593 8.11986 31.7699 10.5937 31.766C13.0514 31.7622 15.0902 29.8332 15.0707 27.2958C15.0522 24.8999 13.1484 22.9767 10.6961 22.9256C8.17887 22.8729 6.16587 24.8483 6.15075 27.3166ZM16.6541 26.9322C16.6975 26.9008 16.7604 26.867 16.8092 26.8188C17.4085 26.2205 18.0229 25.6358 18.6003 25.0177C20.0647 23.4504 20.0233 21.1221 18.5228 19.576C17.0925 18.1024 14.7406 17.9392 13.1631 19.252C12.4818 19.8189 11.8806 20.4794 11.2442 21.0985C11.1564 21.1834 11.0745 21.2742 10.9965 21.3553C14.2793 21.8474 16.1558 23.6923 16.6546 26.9322H16.6541ZM4.56396 27.7241C4.48447 27.797 4.4006 27.869 4.32258 27.9462C3.81689 28.4455 3.31413 28.9476 2.80747 29.4459C2.3403 29.9061 1.97213 30.4305 1.76781 31.0543C1.07535 33.1706 2.1233 35.3425 4.23773 36.0817C5.60459 36.5597 6.90758 36.3444 8.03891 35.4381C8.6158 34.976 9.11222 34.4154 9.64814 33.9026C9.84222 33.7167 10.0461 33.541 10.2806 33.328C6.91977 32.8389 5.05843 30.9708 4.56347 27.7236L4.56396 27.7241ZM9.51599 20.6552C9.05955 20.2033 8.65529 19.761 8.20715 19.3674C6.71545 18.057 4.48594 18.0333 2.9562 19.3245C1.59713 20.4712 1.21189 22.3201 1.86875 23.8985C2.28081 24.8888 3.1376 25.4987 3.83834 26.2495C4.2348 25.8574 4.61614 25.4856 4.99065 25.1066C5.05599 25.0404 5.10037 24.9492 5.13987 24.8627C5.60996 23.8439 6.31168 23.0168 7.25478 22.4007C7.59808 22.1767 8.00868 22.0439 8.32662 21.7928C8.74844 21.4591 9.10978 21.0502 9.51647 20.6547L9.51599 20.6552ZM17.407 28.4407C17.0857 28.7448 16.7873 29.0157 16.5044 29.3011C16.3469 29.4595 16.1709 29.6227 16.0797 29.8187C15.5047 31.0543 14.6041 31.9756 13.4025 32.6178C13.2323 32.709 13.028 32.7573 12.8871 32.8795C12.4735 33.2387 12.0839 33.6245 11.6572 34.0267C11.9883 34.3415 12.28 34.5979 12.5477 34.8775C13.1099 35.4651 13.7419 35.9465 14.5456 36.1503C16.1358 36.5535 17.5016 36.1682 18.6408 34.9866C19.6887 33.8997 19.9667 32.0219 19.3006 30.6733C18.9934 30.051 18.5296 29.57 18.0459 29.0944C17.823 28.8752 17.6084 28.6468 17.4075 28.4407H17.407Z" fill="black"/>
<path d="M21.6664 1.52282C21.2124 1.9598 20.7706 2.34125 20.381 2.76905C19.3594 3.89071 18.3261 5.00512 17.3615 6.17362C16.4121 7.32328 15.5202 8.52171 14.6409 9.72593C13.5613 11.2049 12.5992 12.7602 11.7175 14.3632C11.5819 14.6099 11.4542 14.8605 11.3172 15.1063C11.087 15.5187 10.6271 15.6712 10.236 15.4694C9.83813 15.2642 9.67038 14.8084 9.89665 14.3975C10.3882 13.5028 10.8905 12.6124 11.423 11.7409C11.9555 10.8698 12.4987 10.0012 13.0956 9.17259C13.9758 7.95002 14.8692 6.73276 15.8284 5.57054C16.8953 4.27747 18.032 3.03945 19.159 1.79611C19.6188 1.28864 20.1094 0.801928 20.6312 0.357707C21.2207 -0.143973 22.1346 -0.114036 22.7075 0.416132C23.3234 0.986376 23.9189 1.58173 24.486 2.19977C25.3808 3.17465 26.2737 4.15386 27.1134 5.17509C28.0609 6.32765 28.9869 7.50193 29.8506 8.71678C30.7225 9.9437 31.5622 11.201 32.3137 12.5028C33.1007 13.8668 33.7976 15.285 34.4768 16.706C35.2015 18.2226 35.7681 19.8059 36.1573 21.4384C36.4469 22.6523 36.679 23.884 36.857 25.1191C37.0375 26.3702 37.0228 27.6367 36.9492 28.9008C36.8887 29.938 36.7405 30.9611 36.4942 31.9698C36.089 33.6289 35.4346 35.1822 34.4759 36.6071C33.5196 38.0281 32.3341 39.227 30.9234 40.2057C29.2152 41.3907 27.3329 42.1762 25.2984 42.6267C24.1046 42.8909 22.8972 43.0203 21.6796 43.0222C19.7276 43.0251 17.8145 42.7465 15.9854 42.0488C15.2086 41.7523 14.4537 41.396 13.7022 41.0401C13.2477 40.8248 13.1171 40.3863 13.3316 39.9701C13.5311 39.5838 13.9826 39.4506 14.421 39.679C15.2763 40.1251 16.1551 40.5114 17.0792 40.7977C18.0569 41.1005 19.0517 41.3279 20.0718 41.3998C20.8877 41.4573 21.7108 41.4911 22.5266 41.4529C24.3821 41.3665 26.1615 40.9324 27.8541 40.1657C29.4302 39.4515 30.8244 38.4839 32.0011 37.2203C32.831 36.329 33.5098 35.3338 34.0399 34.2397C34.7226 32.8298 35.1308 31.3411 35.3136 29.7931C35.4794 28.3914 35.476 26.9868 35.3356 25.5807C35.062 22.8488 34.2769 20.2573 33.2021 17.7393C32.3731 15.7973 31.394 13.9301 30.2485 12.158C29.2698 10.6443 28.2394 9.15665 27.1354 7.73032C25.9909 6.25232 24.7439 4.85013 23.5141 3.43876C22.9324 2.77098 22.2857 2.15921 21.6679 1.52185L21.6664 1.52282Z" fill="black"/>
</svg>
