<svg width="43" height="43" viewBox="0 0 43 43" fill="none" xmlns="http://www.w3.org/2000/svg">
<path d="M21.2454 0H21.7495C23.2106 1.02629 24.3122 2.34232 24.9636 4.04889C25.068 3.95146 25.1395 3.88596 25.2085 3.81877C26.3136 2.74041 27.6138 2.01227 29.1144 1.64357C29.6303 1.51676 29.8702 1.6083 30.137 2.04754C30.6941 2.96381 31.0871 3.94391 31.2428 5.00799C31.3228 5.55305 31.3699 6.1023 31.4347 6.67256C31.5349 6.63812 31.614 6.61461 31.6897 6.58353C33.1221 6.0032 34.6025 5.83271 36.1308 6.06031C36.6266 6.13422 36.895 6.31898 36.9119 6.7851C36.9464 7.72992 36.9725 8.68314 36.8799 9.62041C36.8142 10.283 36.5483 10.9264 36.3657 11.5999C36.4515 11.6041 36.534 11.61 36.6165 11.6125C37.9344 11.6453 39.1875 11.9342 40.3683 12.5296C41.5154 13.1074 41.5811 13.2729 41.1847 14.4865C40.742 15.8428 39.9921 17.0026 38.9384 18.0331C40.6595 18.6798 41.9707 19.7884 42.9992 21.2472V21.7511C41.9724 23.2116 40.6561 24.3143 38.9494 24.9652C39.0462 25.0693 39.111 25.1416 39.1783 25.2104C40.2572 26.3157 40.9886 27.6132 41.3521 29.1157C41.4818 29.649 41.3917 29.8724 40.9154 30.1596C40.009 30.7064 39.042 31.0944 37.9908 31.2447C37.4454 31.3228 36.8959 31.3715 36.3354 31.4345C36.3522 31.5101 36.3556 31.5672 36.3774 31.6168C36.9893 33.0546 37.1618 34.547 36.9422 36.0906C36.8647 36.6306 36.6754 36.854 36.1704 36.9296C34.9661 37.1093 33.7735 37.0699 32.602 36.7154C32.209 36.597 31.8193 36.4643 31.3985 36.3291C31.3926 36.4534 31.3867 36.5357 31.3851 36.618C31.3531 37.9357 31.0627 39.1888 30.4669 40.3696C29.8878 41.5168 29.7254 41.5807 28.5101 41.1843C27.1535 40.7417 25.9937 39.9917 24.9973 38.9729C23.8886 40.8413 22.806 42.1831 21.7495 42.9983H21.2454C19.7844 41.972 18.6819 40.6552 18.0305 38.9478C17.9253 39.0469 17.8538 39.1115 17.7848 39.1795C16.6797 40.2587 15.3803 40.9886 13.8772 41.3531C13.3436 41.4824 13.124 41.3917 12.8353 40.913C12.2807 39.9942 11.8961 39.0107 11.7437 37.9458C11.668 37.415 11.6234 36.8809 11.5619 36.3274C11.4694 36.3543 11.4012 36.3669 11.3381 36.3938C9.92335 36.9817 8.45896 37.1564 6.94239 36.9456C6.37179 36.8658 6.14287 36.6852 6.06292 36.1662C5.83064 34.6545 5.98717 33.1856 6.55189 31.7612C6.59481 31.6537 6.62343 31.5403 6.67392 31.3841C6.49214 31.3841 6.36758 31.3883 6.24386 31.3841C4.73403 31.3253 3.32434 30.9323 2.03417 30.1336C1.61421 29.8741 1.49891 29.6221 1.63356 29.1459C1.75812 28.7033 1.89951 28.2641 2.06867 27.8366C2.50294 26.7423 3.1939 25.8168 4.03802 24.9761C3.89832 24.9114 3.78554 24.8577 3.67108 24.8081C2.26477 24.1984 1.11935 23.267 0.212098 22.0325C-0.0597393 21.6629 -0.077413 21.3203 0.217148 20.9684C0.494877 20.6358 0.760823 20.2915 1.05959 19.979C1.89446 19.1081 2.90018 18.4875 4.03634 18.0323C3.95302 17.9391 3.89074 17.8652 3.82341 17.7963C2.74364 16.6919 2.01313 15.3927 1.64366 13.8919C1.51237 13.3569 1.58307 13.0814 2.07793 12.8546C2.89849 12.4792 3.73084 12.1097 4.59264 11.8536C5.24825 11.6587 5.95688 11.6436 6.65961 11.5462C6.63605 11.4723 6.61585 11.3916 6.58471 11.3161C6.00232 9.88412 5.83148 8.40348 6.05787 6.87496C6.13361 6.36434 6.32886 6.14262 6.81868 6.07039C7.77979 5.92762 8.74426 5.89738 9.69696 6.12078C10.3282 6.26943 10.9501 6.45924 11.5965 6.63644C11.6015 6.52223 11.6074 6.41305 11.6116 6.30303C11.6646 4.77955 12.0543 3.35434 12.8572 2.05006C13.1189 1.6251 13.3672 1.5134 13.8393 1.6293C14.9225 1.89553 15.9299 2.33477 16.822 3.01084C17.2369 3.32494 17.6274 3.67096 18.0482 4.01949C18.6928 2.32469 19.7962 1.02293 21.2471 0L21.2454 0ZM31.6224 21.4832C31.5769 15.8764 27.0819 11.3874 21.5013 11.3765C15.9299 11.3656 11.3271 15.9738 11.3726 21.5168C11.418 27.1236 15.913 31.6126 21.4937 31.6235C27.0651 31.6344 31.6678 27.0262 31.6224 21.4832ZM13.8839 3.09986C13.8494 3.14018 13.8275 3.15865 13.8141 3.18301C12.3228 5.83103 12.9641 9.53811 15.2717 11.5285C15.3584 11.6033 15.573 11.6083 15.6909 11.5579C16.4205 11.2455 17.1367 10.9029 17.863 10.5812C18.1837 10.4393 18.6659 10.4082 18.8031 10.1705C18.9638 9.89084 18.8477 9.43984 18.8199 9.06527C18.6154 6.32318 16.5661 3.83977 13.8839 3.09986ZM29.1338 3.11078C26.1267 3.88176 23.9554 6.90351 24.1515 10.0437C24.1591 10.1638 24.3383 10.3183 24.4721 10.3771C25.4029 10.7819 26.3481 11.1531 27.2764 11.5638C27.4876 11.657 27.602 11.6705 27.7779 11.5008C29.3408 9.99666 30.0747 8.15824 29.9737 6.0032C29.9257 4.98027 29.6564 4.00102 29.1329 3.11162L29.1338 3.11078ZM3.09122 13.8524C3.91683 16.9086 6.8961 19.0174 10.0117 18.8662C10.2398 18.8553 10.2995 18.7462 10.3744 18.5572C10.7557 17.6014 11.1479 16.6499 11.5662 15.7101C11.6646 15.4892 11.6444 15.3775 11.4845 15.2104C10.8289 14.5243 10.079 13.9742 9.2063 13.6029C7.13849 12.7236 5.10938 12.8286 3.09122 13.8524ZM39.9315 13.9028C37.1315 12.2995 33.521 12.9454 31.433 15.3129C31.3716 15.3826 31.3817 15.5648 31.4229 15.6681C31.816 16.6339 32.2359 17.5888 32.6163 18.5597C32.703 18.7814 32.7956 18.8839 33.0253 18.8637C33.5665 18.8175 34.1211 18.8352 34.6463 18.7184C37.3125 18.1263 39.0293 16.4769 39.9315 13.9019V13.9028ZM3.08954 29.1081C3.14845 29.1527 3.188 29.1921 3.23513 29.2173C5.92321 30.6568 9.49245 30.0177 11.5266 27.7476C11.6907 27.5645 11.6326 27.4537 11.5518 27.2773C11.1916 26.4929 10.8045 25.7169 10.5108 24.9072C10.2087 24.0724 10.2171 24.0346 9.32413 24.143C9.25512 24.1514 9.1861 24.164 9.11625 24.1699C6.25565 24.4327 3.92525 26.3299 3.0887 29.1081H3.08954ZM39.8903 29.1333C39.1068 26.1057 36.0761 23.9557 32.9538 24.1531C32.8351 24.1606 32.6811 24.3412 32.6231 24.4756C32.2182 25.4061 31.8463 26.3509 31.4355 27.279C31.3413 27.4914 31.3329 27.6057 31.5012 27.7803C33.0051 29.3425 34.8449 30.0756 36.9994 29.9749C38.0219 29.927 39.0016 29.6574 39.8911 29.1342L39.8903 29.1333ZM13.8419 39.9027C16.88 39.0905 19.0185 36.125 18.8469 32.9882C18.8401 32.8631 18.6811 32.6926 18.5523 32.6363C17.6097 32.224 16.6511 31.8486 15.7102 31.4312C15.4922 31.3346 15.3609 31.3253 15.2128 31.5109C14.8055 32.0232 14.3182 32.4877 13.9933 33.047C12.6947 35.2835 12.6931 37.5712 13.8419 39.9018V39.9027ZM29.0925 39.9295C30.6722 37.221 30.1067 33.577 27.6921 31.4395C27.6214 31.3766 27.4396 31.3799 27.3378 31.4211C26.3582 31.8183 25.3827 32.224 24.4141 32.6464C24.2962 32.6976 24.149 32.8656 24.1515 32.9765C24.1658 33.5324 24.1607 34.101 24.2794 34.6394C24.8677 37.3075 26.5155 39.0275 29.0934 39.9287L29.0925 39.9295ZM32.9824 22.7354C33.1356 22.7438 33.2719 22.7581 33.4083 22.7572C34.6017 22.7505 35.7664 22.9756 36.7932 23.5551C37.506 23.9574 38.0935 23.8633 38.7415 23.5475C38.8795 23.4804 39.0226 23.4241 39.1581 23.3535C40.0443 22.8916 40.8186 22.2953 41.4363 21.4924C40.4626 20.3041 39.2734 19.5154 37.8199 19.1459C37.6676 19.1073 37.4757 19.1535 37.32 19.2106C36.6299 19.4651 35.9625 19.8035 35.2547 19.9874C34.5217 20.1772 33.7516 20.2243 32.9816 20.336V22.7354H32.9824ZM10.0142 20.2537C8.39668 20.2948 6.9163 19.9135 5.5386 19.1342C5.47464 19.098 5.37701 19.0888 5.30463 19.1064C3.79732 19.4877 2.55344 20.278 1.55782 21.4992C2.49368 22.6716 3.66435 23.4392 5.07404 23.8306C5.28275 23.8885 5.56721 23.8364 5.76667 23.7365C6.65961 23.2897 7.58117 22.9487 8.57763 22.8387C9.05734 22.7858 9.53958 22.7556 10.0142 22.7161V20.2537ZM21.4987 1.55707C20.3239 2.51701 19.5479 3.69783 19.1566 5.12305C19.1052 5.30865 19.1507 5.56228 19.2407 5.73865C19.7045 6.6398 20.0461 7.57623 20.1589 8.58656C20.2119 9.06527 20.2414 9.5465 20.2801 10.0118H22.7283C22.7384 9.93115 22.7511 9.87656 22.7502 9.82281C22.7241 8.32285 23.1012 6.92787 23.8216 5.61603C23.8847 5.50098 23.8872 5.32209 23.8527 5.18939C23.4748 3.73898 22.6888 2.54809 21.4971 1.55707H21.4987ZM20.2641 32.9823C20.254 33.0739 20.2414 33.1276 20.2422 33.1822C20.2683 34.6822 19.8921 36.0788 19.165 37.3865C19.1162 37.4747 19.0825 37.6015 19.1052 37.6947C19.484 39.2022 20.2751 40.4452 21.4979 41.4404C22.7014 40.4469 23.4967 39.2341 23.8662 37.751C23.8982 37.6242 23.8426 37.4621 23.793 37.3302C23.5253 36.6147 23.1811 35.9201 22.9901 35.1861C22.8058 34.4806 22.7746 33.7348 22.6736 32.9832H20.265L20.2641 32.9823ZM14.1861 12.4339C14.2231 12.5061 14.2122 12.4616 14.1844 12.4339C13.0886 11.3513 12.3118 10.0806 11.9045 8.58908C11.8784 8.4925 11.7934 8.38752 11.7067 8.33629C10.3795 7.55439 8.95046 7.24617 7.40107 7.40994C7.25294 8.93678 7.53151 10.3477 8.30495 11.6495C8.37901 11.7746 8.5406 11.8838 8.68451 11.9275C9.73651 12.2516 10.7094 12.7245 11.5662 13.4199C11.8977 13.6895 12.2133 13.9792 12.4305 14.1682C13.0255 13.5803 13.5911 13.0218 14.1861 12.433V12.4339ZM35.5914 7.40658C34.0672 7.25793 32.6668 7.53508 31.3741 8.2943C31.2378 8.37492 31.1368 8.54793 31.0644 8.69994C30.7135 9.44152 30.4315 10.2209 30.0208 10.9255C29.6808 11.5092 29.1952 12.0081 28.8384 12.4624C29.4022 13.026 29.9712 13.5937 30.5603 14.1833C30.514 14.2169 30.5636 14.19 30.6015 14.1514C31.667 13.0789 32.9193 12.3264 34.3778 11.9123C34.515 11.8737 34.6522 11.7242 34.7279 11.5907C35.4635 10.3032 35.7412 8.91746 35.5914 7.40574V7.40658ZM12.4288 28.8083C12.4843 28.7789 12.4549 28.7865 12.4364 28.8058C11.3541 29.901 10.0849 30.6795 8.59362 31.0902C8.48757 31.1196 8.37564 31.2212 8.31757 31.3195C7.54246 32.6355 7.24789 34.0548 7.40359 35.5917C8.88144 35.7437 10.2558 35.4792 11.53 34.7569C11.7101 34.6545 11.8481 34.4336 11.944 34.2371C12.2782 33.5501 12.5315 32.8169 12.9195 32.1635C13.2856 31.547 13.7838 31.0095 14.1516 30.5308C13.5894 29.969 13.0272 29.4063 12.4288 28.8083ZM35.5931 35.5943C35.7437 34.0523 35.455 32.6304 34.6715 31.3186C34.5983 31.196 34.4182 31.1254 34.2743 31.0591C33.58 30.7391 32.8478 30.4855 32.193 30.0983C31.5643 29.7271 31.0156 29.2215 30.5241 28.8461C29.9627 29.4096 29.4014 29.9732 28.84 30.5367C28.8308 30.5821 28.9293 30.6963 29.0345 30.8046C29.9863 31.7856 30.6318 32.9429 31.0535 34.2396C31.1183 34.4386 31.2857 34.6553 31.4658 34.7578C32.7291 35.4775 34.0959 35.7387 35.5914 35.5943H35.5931Z" fill="black"/>
<path d="M23.2535 18.39C22.8554 18.3976 22.5238 18.086 22.5112 17.6921C22.4977 17.2932 22.804 16.9648 23.2046 16.9489C23.6246 16.9321 23.9688 17.2529 23.9705 17.6653C23.9722 18.0591 23.6515 18.3833 23.2535 18.39Z" fill="black"/>
<path d="M19.1875 24.1539C19.1808 24.5469 18.8542 24.8627 18.4528 24.8627C18.0379 24.8627 17.7046 24.5192 17.7239 24.1111C17.7425 23.7147 18.0724 23.414 18.4747 23.4241C18.8727 23.4342 19.1934 23.7634 19.1867 24.1539H19.1875Z" fill="black"/>
<path d="M25.5728 18.8336C25.9582 18.8328 26.2881 19.1653 26.2932 19.5609C26.2982 19.9598 25.9868 20.2933 25.5963 20.3084C25.1941 20.3235 24.8498 19.9775 24.854 19.5626C24.8583 19.167 25.1865 18.8344 25.5728 18.8328V18.8336Z" fill="black"/>
</svg>
