<svg width="28" height="34" viewBox="0 0 28 34" fill="none" xmlns="http://www.w3.org/2000/svg">
<g clip-path="url(#clip0_1_615)">
<path d="M0 14.0285C0.223182 13.1766 0.742788 12.5226 1.32389 11.9079C1.54016 11.6792 1.74054 11.4341 1.9506 11.1991C2.39489 10.704 2.52824 10.1227 2.45707 9.46019C2.37623 8.70865 2.29539 7.95284 2.28502 7.19845C2.2712 6.21468 2.72171 5.46457 3.62688 5.13475C4.37796 4.86049 5.16981 4.69594 5.95198 4.52426C6.6153 4.37822 7.10244 4.02703 7.42304 3.41369C7.62964 3.01833 7.84315 2.62582 8.0691 2.24186C8.24115 1.94908 8.4208 1.65773 8.6274 1.39059C9.26585 0.566394 10.0992 0.315644 11.0561 0.648315C11.716 0.877695 12.3545 1.17831 12.9881 1.48035C13.6687 1.80447 14.3237 1.80447 15.0098 1.48819C15.7195 1.16121 16.436 0.83709 17.1753 0.599163C17.9969 0.334878 18.7307 0.605574 19.2779 1.27946C19.6068 1.68408 19.8867 2.13999 20.1375 2.60231C21.0703 4.32337 21.0979 4.35258 22.9898 4.72229C23.3159 4.78569 23.6435 4.85408 23.9599 4.95595C25.2845 5.38051 25.8511 6.25671 25.7336 7.68499C25.679 8.34463 25.6155 9.00428 25.5533 9.66321C25.498 10.2523 25.6687 10.7588 26.0584 11.1919C26.379 11.5481 26.6968 11.9057 27.0078 12.2704C27.1743 12.4656 27.336 12.6679 27.4797 12.8809C28.1734 13.9103 28.1797 14.8592 27.4583 15.8643C27.1321 16.3195 26.7715 16.7604 26.3686 17.143C25.6024 17.8703 25.4227 18.7444 25.5927 19.7588C25.6728 20.2353 25.7101 20.7219 25.7323 21.2056C25.7779 22.2007 25.4752 23.0249 24.5383 23.53C24.6067 23.6561 24.6654 23.7665 24.7269 23.8755C25.639 25.4904 26.5504 27.106 27.4652 28.7195C27.6048 28.966 27.7133 29.2075 27.5357 29.4789C27.3519 29.7596 27.0941 29.7766 26.8032 29.6962C25.4434 29.3165 24.0829 28.9411 22.7217 28.5649C22.6568 28.5471 22.5891 28.5379 22.4937 28.5193C22.2318 29.5166 21.9706 30.5054 21.7122 31.4949C21.5899 31.9622 21.4711 32.4309 21.3529 32.8996C21.2804 33.1896 21.1664 33.4467 20.8416 33.4937C20.5155 33.5408 20.3441 33.3242 20.1983 33.062C19.3415 31.5234 18.4778 29.9889 17.6245 28.4488C17.527 28.2729 17.4082 28.1938 17.2182 28.129C16.655 27.9359 16.1064 27.6966 15.5543 27.47C15.3519 27.3874 15.1536 27.2948 14.9566 27.1993C14.3251 26.8944 13.7053 26.9172 13.0634 27.1972C12.2639 27.5455 11.4438 27.8433 10.6395 28.1788C10.5407 28.2201 10.4647 28.3519 10.4053 28.4581C9.54154 29.9932 8.68198 31.5298 7.82449 33.0677C7.68561 33.3171 7.52254 33.5301 7.21299 33.4959C6.91173 33.4624 6.76455 33.2501 6.69062 32.9609C6.32579 31.5461 5.95612 30.1321 5.58715 28.7181C5.57264 28.6625 5.55053 28.6084 5.51736 28.5129C4.92866 28.6739 4.34756 28.8335 3.76576 28.9931C2.93591 29.221 2.10399 29.4426 1.2769 29.6798C0.992227 29.761 0.726896 29.7916 0.524443 29.5259C0.310935 29.2467 0.414579 28.9767 0.567974 28.7045C1.47176 27.0982 2.3707 25.4897 3.27103 23.8812C3.33322 23.7693 3.39264 23.6561 3.46657 23.5186C2.26015 22.8775 2.19658 21.7612 2.30575 20.5794C2.35136 20.085 2.42391 19.5928 2.46951 19.0984C2.51926 18.5591 2.40525 18.0619 2.05148 17.6438C1.78684 17.3317 1.52634 17.0155 1.24788 16.717C0.69442 16.1222 0.209363 15.4867 0.00138193 14.6697V14.03L0 14.0285ZM24.6136 7.75195C24.6302 6.58725 24.4339 6.30729 23.4963 6.04372C23.1107 5.93544 22.7176 5.83856 22.3223 5.78371C20.9687 5.59564 19.9779 4.90893 19.3837 3.62027C19.1874 3.195 18.9449 2.78895 18.6899 2.39644C18.2104 1.65701 17.8283 1.5295 17.0219 1.85006C16.4989 2.05736 15.9883 2.3017 15.4811 2.54818C14.4833 3.03258 13.4946 3.03115 12.4975 2.54461C11.98 2.29244 11.4604 2.04026 10.9255 1.83154C10.1627 1.53449 9.76334 1.6677 9.30938 2.37222C9.00535 2.8438 8.73173 3.33961 8.47815 3.84182C7.93989 4.90608 7.10451 5.51515 5.96027 5.71888C5.35291 5.82716 4.74555 5.96393 4.15616 6.15057C3.57298 6.33507 3.36569 6.66276 3.37537 7.29248C3.38297 7.78757 3.40577 8.28907 3.48799 8.77561C3.7243 10.1683 3.45276 11.3779 2.42114 12.3687C2.11159 12.6658 1.83244 13.0013 1.56642 13.3418C0.930731 14.1553 0.931422 14.6155 1.57886 15.4141C1.95405 15.8771 2.36034 16.3131 2.75212 16.7619C3.40646 17.5105 3.65175 18.3839 3.53843 19.3841C3.46036 20.0765 3.41199 20.7724 3.37399 21.4684C3.34427 22.0198 3.60062 22.4066 4.1147 22.5669C4.56245 22.7072 5.0171 22.8525 5.47867 22.9124C6.96217 23.104 8.05113 23.8285 8.67715 25.2589C8.83676 25.6236 9.04819 25.967 9.26309 26.3011C9.76818 27.0861 10.1655 27.22 11.0119 26.8773C11.5018 26.6786 11.9786 26.445 12.4547 26.212C13.4724 25.7134 14.4854 25.7034 15.506 26.2006C15.9717 26.4279 16.4388 26.6558 16.9162 26.8538C17.8304 27.2328 18.2304 27.101 18.7639 26.2369C19.0527 25.7689 19.3159 25.2824 19.5716 24.7937C20.0802 23.8213 20.8609 23.2579 21.9084 23.0498C22.5593 22.9202 23.2075 22.767 23.8459 22.584C24.3731 22.4322 24.6378 22.034 24.6122 21.4656C24.5894 20.9584 24.5756 20.4462 24.4934 19.9475C24.2688 18.5841 24.5251 17.3916 25.527 16.4092C25.8753 16.0673 26.1959 15.6905 26.4944 15.3015C27.0285 14.6048 27.0333 14.1454 26.502 13.4537C26.1607 13.0092 25.7813 12.5939 25.4013 12.1828C24.6405 11.3615 24.2957 10.409 24.4574 9.26856C24.5369 8.70794 24.5756 8.14019 24.6143 7.75195H24.6136ZM9.35429 27.9787C8.70755 27.574 8.32337 26.9899 7.98618 26.3645C7.76922 25.962 7.54604 25.5623 7.32147 25.1634C7.04854 24.679 6.654 24.3606 6.11574 24.243C5.6901 24.1504 5.25825 24.0806 4.84229 23.9538C4.5811 23.8748 4.47884 23.9738 4.36276 24.1853C3.67732 25.4284 2.97944 26.6651 2.2871 27.9046C2.23251 28.0022 2.18552 28.104 2.1109 28.2522C2.21524 28.2251 2.26775 28.213 2.32026 28.1988C3.40439 27.9017 4.48782 27.604 5.57264 27.3083C6.13578 27.1545 6.33823 27.2777 6.493 27.869C6.69615 28.644 6.89515 29.419 7.09829 30.1941C7.19986 30.5823 7.30558 30.9691 7.43134 31.4379C8.09812 30.239 8.71791 29.1241 9.35498 27.9787H9.35429ZM25.8718 28.2679C25.7882 28.1076 25.7364 28.0036 25.6797 27.9017C25.0441 26.7641 24.4077 25.6272 23.7713 24.4902C23.5603 24.1132 23.2406 23.964 22.8122 24.0429C22.654 24.0721 22.4965 24.1034 22.3382 24.1269C21.4849 24.2544 20.8395 24.6776 20.4636 25.5018C20.342 25.7689 20.1873 26.0197 20.0477 26.2783C19.6877 26.9443 19.2966 27.5833 18.6229 27.9936C19.26 29.1291 19.8874 30.2468 20.5583 31.4421C20.892 30.1599 21.1981 28.9774 21.507 27.7956C21.6348 27.3062 21.8767 27.1587 22.3493 27.2862C22.7038 27.3817 23.0555 27.4878 23.4092 27.5861C24.2121 27.8098 25.0157 28.0314 25.8718 28.2679Z" fill="white"/>
<path d="M13.9785 23.2364C9.21357 23.2114 5.34347 19.203 5.38907 14.3048C5.43606 9.215 9.52519 5.41528 14.1595 5.49079C18.7827 5.5663 22.6169 9.57332 22.5983 14.4031C22.5789 19.265 18.6791 23.262 13.9785 23.2371V23.2364ZM6.50498 14.3525C6.49945 18.5932 9.84995 22.061 13.9605 22.0681C18.1125 22.0752 21.4519 18.6609 21.4775 14.3824C21.5024 10.1446 18.127 6.64481 14.0054 6.63484C9.88518 6.62487 6.5112 10.0962 6.50567 14.3525H6.50498Z" fill="white"/>
<path d="M12.7873 16.6292C12.9041 16.5145 12.996 16.4283 13.0837 16.3379C14.7807 14.5883 16.4771 12.8388 18.1741 11.0892C18.2549 11.0059 18.3323 10.9161 18.4228 10.8434C18.6647 10.6497 18.912 10.6582 19.1428 10.862C19.3556 11.0493 19.3798 11.3848 19.2022 11.6335C19.1345 11.7282 19.0502 11.8108 18.9694 11.8942C17.1045 13.8218 15.2389 15.7495 13.3732 17.6764C12.9241 18.1401 12.6968 18.1408 12.249 17.6792C11.1532 16.5494 10.0566 15.4196 8.96281 14.287C8.86677 14.188 8.75621 14.0818 8.7113 13.9565C8.62147 13.7043 8.66639 13.4592 8.89233 13.2911C9.11344 13.1266 9.35321 13.1237 9.55911 13.3054C9.79404 13.5127 10.0076 13.7456 10.2266 13.9721C11.0758 14.8512 11.9236 15.7324 12.7873 16.6292Z" fill="white"/>
</g>
<defs>
<clipPath id="clip0_1_615">
<rect width="28" height="33" fill="white" transform="translate(0 0.5)"/>
</clipPath>
</defs>
</svg>
