<svg width="27" height="30" viewBox="0 0 27 30" fill="none" xmlns="http://www.w3.org/2000/svg">
<g clip-path="url(#clip0_1_577)">
<path d="M13.2632 29.5C12.807 29.3439 12.3468 29.199 11.8958 29.0292C7.00447 27.1885 3.53933 23.8945 1.54872 19.1125C0.80339 17.3229 0.373704 15.4533 0.153676 13.5319C-0.0807506 11.4839 -0.0392795 9.44164 0.225675 7.40161C0.270602 7.05574 0.332809 6.71214 0.397895 6.3691C0.450886 6.08968 0.650178 5.95167 0.907644 5.84717C3.21447 4.91291 5.53052 4.00024 7.81777 3.02055C9.57914 2.26576 11.3048 1.42976 13.0391 0.615335C13.353 0.467671 13.6226 0.458016 13.9348 0.609656C17.878 2.52928 21.903 4.26603 26.0092 5.81707C26.3698 5.95337 26.5806 6.15954 26.6215 6.548C26.72 7.48567 26.8334 8.42163 26.9411 9.35816C26.9613 9.53479 26.9803 9.71141 27.0005 9.88747V11.7015C26.9826 11.8213 26.9532 11.9411 26.9475 12.0615C26.8605 14.0391 26.5339 15.9775 25.8986 17.8556C24.0779 23.238 20.4947 26.9756 15.1184 29.0218C14.6594 29.1968 14.1888 29.341 13.7234 29.4995H13.2637L13.2632 29.5ZM25.7972 10.6832C25.6849 9.50071 25.5674 8.31826 25.4643 7.13468C25.4482 6.95124 25.3675 6.88138 25.2068 6.82005C21.3195 5.3383 17.5042 3.69185 13.7614 1.88354C13.5679 1.7904 13.4227 1.79096 13.2309 1.88354C12.2609 2.35095 11.2962 2.83142 10.3055 3.25227C7.47333 4.45629 4.62968 5.63476 1.78891 6.81834C1.63742 6.88138 1.5372 6.93477 1.52165 7.1256C1.45483 7.95251 1.33733 8.77659 1.29298 9.60407C1.14553 12.3523 1.44734 15.054 2.35049 17.6642C4.18559 22.9671 7.83274 26.469 13.2413 28.1836C13.3686 28.2239 13.5281 28.2432 13.6514 28.2057C18.2737 26.8023 21.6991 23.9979 23.8106 19.6895C25.2017 16.851 25.7074 13.817 25.7972 10.6832Z" fill="white"/>
<path d="M7.32479 14.9938C7.35129 11.9899 9.63854 9.39162 12.6337 8.99407C12.8704 8.96283 13.11 8.94409 13.349 8.9367C13.8012 8.92307 14.0978 9.1582 14.1134 9.52736C14.1289 9.89084 13.834 10.1566 13.3899 10.1646C12.477 10.1799 11.6407 10.4383 10.8683 10.912C9.17717 11.9502 8.26941 14.0385 8.68701 15.9297C9.138 17.9731 10.7508 19.4901 12.7575 19.7593C15.5891 20.1393 18.0232 18.2781 18.3688 15.4668C18.3849 15.3362 18.3792 15.2028 18.3843 15.071C18.401 14.6507 18.6602 14.369 19.0214 14.377C19.3871 14.3855 19.6446 14.6751 19.6296 15.0937C19.5732 16.7203 18.9995 18.1452 17.8055 19.2749C16.0585 20.9287 13.9763 21.4631 11.6637 20.7504C9.3995 20.0524 8.01828 18.4763 7.48146 16.1983C7.38873 15.8059 7.37433 15.3959 7.32422 14.9938H7.32479Z" fill="white"/>
<path d="M14.0452 15.2931C14.821 14.3361 15.5681 13.4149 16.3152 12.4937C17.0328 11.6088 17.7517 10.7251 18.4665 9.83802C18.6502 9.60971 18.8771 9.49101 19.168 9.56768C19.4203 9.63413 19.611 9.817 19.6029 10.0697C19.5966 10.2679 19.5073 10.4951 19.3817 10.6524C18.2983 12.0109 17.1987 13.3564 16.1038 14.7058C15.6251 15.2959 15.1482 15.8871 14.6673 16.4749C14.3182 16.902 13.9715 16.9225 13.5798 16.5385C12.8258 15.7991 12.0747 15.0568 11.3242 14.3139C11.0184 14.0106 10.9884 13.646 11.2424 13.3888C11.5108 13.1161 11.8754 13.1417 12.2009 13.462C12.8103 14.0635 13.4162 14.6678 14.0458 15.2931H14.0452Z" fill="white"/>
</g>
<defs>
<clipPath id="clip0_1_577">
<rect width="27" height="29" fill="white" transform="translate(0 0.5)"/>
</clipPath>
</defs>
</svg>
