<svg width="39" height="36" viewBox="0 0 39 36" fill="none" xmlns="http://www.w3.org/2000/svg">
<g clip-path="url(#clip0_1_585)">
<path d="M12.7546 35.5C12.4314 35.2863 12.3402 34.9872 12.3426 34.6036C12.3565 32.1445 12.35 29.6854 12.35 27.2262C12.35 27.0783 12.35 26.9312 12.35 26.7906C11.6562 26.5883 11.3704 26.2795 11.3761 25.7561C11.3818 25.2449 11.6855 24.928 12.3296 24.7671V23.2068C10.5464 22.9735 9.75088 22.2519 9.75984 20.8882C9.76798 19.5286 10.5896 18.794 12.35 18.6071V18.1381C12.35 12.5714 12.3638 7.00378 12.3361 1.437C12.3312 0.535751 12.8564 0.360214 13.5103 0.592638C17.6426 2.06194 21.7879 3.49468 25.9292 4.93879C26.5732 5.16308 26.6481 5.27036 26.649 5.96925C26.649 8.22522 26.649 10.4804 26.649 12.768H33.5416C33.2362 12.4812 32.9871 12.2634 32.7566 12.0277C32.4415 11.7067 32.422 11.3353 32.6858 11.0582C32.9594 10.7705 33.3543 10.7843 33.6873 11.111C34.2956 11.7075 34.8997 12.3089 35.4966 12.9168C35.8532 13.28 35.8524 13.6124 35.4941 13.9773C34.8875 14.5949 34.2744 15.206 33.6556 15.8115C33.3413 16.1187 32.9512 16.1268 32.6825 15.857C32.4155 15.5888 32.4342 15.2044 32.7338 14.8858C32.8543 14.7574 32.9781 14.6331 33.1076 14.5136C33.2248 14.4047 33.351 14.304 33.474 14.2C33.4601 14.165 33.4455 14.1293 33.4316 14.0943H33.0139C29.8587 14.0943 26.7035 14.0943 23.5483 14.0943C23.0671 14.0943 22.7959 13.8952 22.756 13.523C22.7129 13.1126 22.9897 12.8095 23.4367 12.803C24.0572 12.794 24.6785 12.8005 25.3274 12.8005C25.3372 12.6599 25.351 12.5429 25.3519 12.4267C25.3535 10.4536 25.3478 8.48121 25.3584 6.50805C25.36 6.24312 25.3014 6.10253 25.0294 6.00826C21.3425 4.73237 17.6597 3.44429 13.9752 2.16027C13.8889 2.13021 13.7985 2.10989 13.6764 2.07494V33.9072C13.9532 33.8161 14.2187 33.7324 14.4817 33.6414C17.9748 32.4232 21.4655 31.1994 24.9618 29.9917C25.2721 29.8845 25.3641 29.7414 25.3616 29.4172C25.3445 27.4846 25.3535 25.5529 25.3535 23.6204V23.1751C24.7322 23.1751 24.1411 23.1767 23.5499 23.1751C23.0313 23.1734 22.752 22.9426 22.7544 22.5241C22.7569 22.1064 23.0337 21.8821 23.5573 21.8821C26.6986 21.8813 29.8408 21.8821 32.9822 21.8821H33.544C33.2338 21.5806 33.0017 21.3644 32.7794 21.1385C32.4456 20.7988 32.4155 20.4209 32.689 20.1381C32.9651 19.8529 33.3567 19.8683 33.6906 20.1983C34.2972 20.7972 34.9014 21.3978 35.4933 22.0105C35.8589 22.3892 35.8532 22.6956 35.4892 23.0654C34.8916 23.6724 34.2882 24.2746 33.6792 24.8703C33.3592 25.1832 32.9822 25.2002 32.7061 24.9361C32.4195 24.6623 32.4342 24.2689 32.7656 23.939C32.9936 23.7122 33.2444 23.5083 33.4846 23.2945C33.4642 23.2645 33.4439 23.2352 33.4235 23.2051H26.649C26.649 23.3352 26.649 23.4774 26.649 23.6196C26.649 25.7545 26.649 27.8894 26.649 30.0242C26.649 30.7085 26.574 30.8093 25.9112 31.0401C21.8083 32.472 17.7061 33.9039 13.6039 35.3383C13.4793 35.3813 13.3629 35.4472 13.2424 35.5016H12.7546V35.5ZM12.35 20.9053C12.35 20.7176 12.332 20.5274 12.354 20.3421C12.398 19.9675 12.1944 19.9025 11.8932 19.948C11.4185 20.0203 11.0578 20.4242 11.0472 20.8866C11.0366 21.3628 11.4022 21.7862 11.8948 21.8634C12.2018 21.9122 12.3964 21.839 12.3532 21.4685C12.332 21.2832 12.3491 21.093 12.3491 20.9053H12.35Z" fill="white"/>
<path d="M38.9998 18.23C38.3085 18.9313 37.6204 19.6367 36.9234 20.3323C36.5937 20.6607 36.1963 20.6729 35.9219 20.3884C35.6605 20.1162 35.6809 19.7358 35.9911 19.4189C36.224 19.1808 36.4732 18.9581 36.6759 18.6347H36.2501C30.986 18.6347 25.721 18.6347 20.4569 18.6347C20.3218 18.6347 20.185 18.6444 20.0514 18.6274C19.7233 18.5843 19.4986 18.3137 19.501 17.9829C19.5034 17.6522 19.7314 17.3864 20.0612 17.3474C20.1947 17.332 20.3315 17.3409 20.4667 17.3409C25.7178 17.3409 30.968 17.3409 36.2191 17.3409H36.7582C36.4699 17.0475 36.2378 16.8159 36.0115 16.5794C35.6874 16.2406 35.6671 15.8554 35.9537 15.5799C36.2297 15.3149 36.6083 15.3287 36.9251 15.6441C37.6221 16.3381 38.3085 17.0435 38.9998 17.744V18.2308V18.23Z" fill="white"/>
<path d="M1.94906 20.2405C1.95232 18.6152 3.26163 17.3312 4.90804 17.3393C6.51536 17.3474 7.79861 18.6509 7.79536 20.2714C7.7921 21.8976 6.48198 23.1816 4.83557 23.1734C3.22987 23.1653 1.94499 21.8594 1.94825 20.2405H1.94906ZM6.49663 20.2755C6.51048 19.4019 5.76218 18.642 4.88198 18.6355C4.01806 18.629 3.27629 19.3474 3.2486 20.2161C3.22092 21.0849 3.96025 21.8553 4.8429 21.8772C5.71414 21.8984 6.48279 21.154 6.49663 20.2755Z" fill="white"/>
<path d="M4.23323 8.25853C5.50753 8.26097 6.50417 9.27274 6.49603 10.5576C6.4887 11.8042 5.47414 12.7981 4.21125 12.7957C2.93776 12.7932 1.94113 11.7798 1.94927 10.4958C1.9566 9.24755 2.96871 8.2561 4.23323 8.25853ZM4.25522 9.55718C3.75364 9.53605 3.28789 9.96189 3.25288 10.4739C3.21787 10.9867 3.66489 11.4734 4.19008 11.4962C4.70631 11.5181 5.1859 11.0614 5.19404 10.5389C5.20219 10.0367 4.76412 9.57912 4.2544 9.55718H4.25522Z" fill="white"/>
<path d="M9.09638 26.4127C9.09801 27.5058 8.23817 28.364 7.14382 28.3631C6.05273 28.3623 5.19614 27.4993 5.20021 26.4038C5.20347 25.3343 6.06087 24.4786 7.13242 24.4745C8.23165 24.4705 9.09557 25.3221 9.09638 26.4127ZM7.16417 27.0637C7.50046 27.0531 7.80417 26.7346 7.7944 26.4022C7.78382 26.0657 7.46545 25.7634 7.13242 25.7732C6.79451 25.7837 6.49242 26.1007 6.50301 26.4339C6.51278 26.7703 6.83196 27.0726 7.16499 27.0629L7.16417 27.0637Z" fill="white"/>
<path d="M9.41364 16.6875C8.50901 16.6843 7.7998 15.9732 7.7998 15.0679C7.7998 14.1455 8.52041 13.4385 9.45191 13.4474C10.3517 13.4564 11.0519 14.1764 11.0462 15.0858C11.0405 15.9854 10.3223 16.69 9.41364 16.6867V16.6875ZM9.41446 14.6136C9.27034 14.8241 9.11563 14.9509 9.12621 15.0614C9.13761 15.1776 9.30698 15.2784 9.40794 15.3865C9.51787 15.2751 9.6913 15.176 9.71817 15.0476C9.73771 14.9525 9.56672 14.8184 9.41527 14.6136H9.41446Z" fill="white"/>
<path d="M10.0524 9.55637C10.6004 9.54743 11.036 9.96514 11.045 10.5064C11.0539 11.0509 10.6338 11.4881 10.0931 11.4978C9.5484 11.5076 9.10871 11.0866 9.09975 10.547C9.09079 10.0009 9.50932 9.56531 10.0524 9.55637Z" fill="white"/>
<path d="M0.975473 16.6867C0.431556 16.6883 0.00163314 16.2617 4.64612e-06 15.7188C-0.00162385 15.1743 0.425042 14.7469 0.970587 14.7461C1.51613 14.7453 1.94443 15.1703 1.94524 15.714C1.94606 16.2576 1.51939 16.6859 0.975473 16.6875V16.6867Z" fill="white"/>
</g>
<defs>
<clipPath id="clip0_1_585">
<rect width="39" height="35" fill="white" transform="translate(0 0.5)"/>
</clipPath>
</defs>
</svg>
