<svg width="45" height="32" viewBox="0 0 45 32" fill="none" xmlns="http://www.w3.org/2000/svg">
<g clip-path="url(#clip0_1_598)">
<path d="M14.5678 31.5C14.4453 31.4603 14.3246 31.4161 14.2012 31.3808C13.1305 31.0742 12.4087 30.2262 12.2721 29.1149C12.2563 28.9851 12.2325 28.8561 12.2043 28.6741C11.3829 28.6741 10.5678 28.6741 9.75259 28.6741C8.55671 28.6724 8.07378 28.0407 8.38134 26.8879C8.77703 25.4039 9.17184 23.9198 9.56664 22.4349C9.58515 22.3642 9.60894 22.2944 9.63274 22.2255C9.77727 21.7998 10.0813 21.6151 10.4664 21.7194C10.8321 21.8183 11.0181 22.1672 10.907 22.5895C10.5607 23.9048 10.2056 25.2184 9.8557 26.5337C9.78872 26.7855 9.72792 27.0399 9.65213 27.3411C10.5801 27.3411 11.4693 27.3535 12.3576 27.3252C12.4713 27.3217 12.6052 27.1212 12.6854 26.986C13.6205 25.4012 14.9406 24.4578 16.838 24.5355C18.2859 24.5947 19.302 25.6406 19.4016 27.1008C19.4051 27.1591 19.413 27.2166 19.4227 27.3075H29.4171C30.925 21.6734 32.4355 16.0278 33.96 10.3301C33.745 10.3204 33.5899 10.308 33.4357 10.3071C32.2486 10.3054 31.0616 10.3071 29.8754 10.3063C29.7582 10.3063 29.6401 10.3107 29.5238 10.2983C29.1087 10.2559 28.8646 9.99179 28.8796 9.61017C28.8937 9.24446 29.1616 8.96973 29.5784 8.96708C31.1021 8.9556 32.6267 8.94588 34.1504 8.97061C34.903 8.98298 35.2811 9.44587 35.3472 10.3743C35.4979 10.3743 35.6538 10.3743 35.8089 10.3743C37.2886 10.3743 38.7691 10.3716 40.2487 10.3743C41.5125 10.3769 42.1778 11.0403 42.1822 12.2947C42.1884 14.2169 42.2016 16.14 42.1946 18.0622C42.1937 18.3599 42.2809 18.5472 42.5312 18.7106C42.9851 19.0057 43.4063 19.3519 43.8602 19.647C44.3607 19.973 44.7793 20.359 45.0014 20.927V21.8077C44.9714 21.8722 44.93 21.9331 44.9124 22.0003C44.4964 23.5515 44.0875 25.1053 43.6689 26.6556C43.3552 27.8164 42.4308 28.569 41.2419 28.6794C41.1071 28.6918 40.9546 28.8199 40.8612 28.9347C40.5052 29.3764 40.2082 29.8711 39.8196 30.2792C39.1762 30.9541 38.3241 31.2695 37.4384 31.4956H36.3826C36.2637 31.4514 36.1465 31.402 36.0257 31.3631C35.1797 31.0928 34.5655 30.5672 34.2747 29.7156C34.1636 29.3905 34.1196 29.0425 34.0429 28.6953C34.0068 28.6883 33.9653 28.6732 33.9239 28.6732C29.0787 28.6715 24.2335 28.6688 19.3875 28.683C19.25 28.683 19.0579 28.8402 18.9847 28.9745C18.3837 30.0787 17.5024 30.8472 16.3233 31.273C16.0942 31.356 15.858 31.4223 15.6253 31.4956H14.5696L14.5678 31.5ZM32.3033 21.6858C32.5368 21.6858 32.6963 21.6858 32.8558 21.6858C34.9224 21.6858 36.9881 21.6858 39.0546 21.6858C39.3331 21.6858 39.6116 21.6805 39.8901 21.6929C40.2858 21.7097 40.5149 21.9305 40.5563 22.3183C40.5933 22.6708 40.3069 22.9755 39.9147 23.0223C39.7843 23.0382 39.6513 23.0303 39.5199 23.0303C37.1458 23.0303 34.7717 23.0409 32.3984 23.0197C32.0274 23.0162 31.897 23.1398 31.8124 23.4782C31.5366 24.585 31.2281 25.6848 30.9355 26.7872C30.8915 26.9524 30.865 27.122 30.8192 27.342C31.9023 27.342 32.9395 27.3314 33.9768 27.3491C34.265 27.3544 34.4024 27.2581 34.5478 27.0046C35.4873 25.3597 36.8568 24.4216 38.8123 24.5417C40.0672 24.6195 41.0586 25.5797 41.2234 26.827C41.2437 26.9816 41.2737 27.1353 41.3036 27.3181C41.8174 27.2033 42.1743 26.9454 42.3074 26.4949C42.6414 25.3624 42.934 24.2184 43.2574 23.0268C43.0485 23.0268 42.8881 23.0382 42.7313 23.0241C42.3294 22.9879 42.0518 22.7079 42.0501 22.3519C42.0483 21.9879 42.3162 21.722 42.7304 21.6911C42.9348 21.6761 43.1411 21.692 43.3455 21.6814C43.6504 21.6655 43.7782 21.4305 43.6108 21.1761C43.5411 21.0701 43.4275 20.9888 43.3217 20.9129C42.7762 20.5171 42.2378 20.1099 41.6729 19.7433C41.4667 19.6099 41.197 19.5118 40.9546 19.5074C39.5332 19.4853 38.1117 19.5065 36.6902 19.4933C35.3771 19.4818 34.6201 18.4854 34.9435 17.2098C35.1198 16.5155 35.304 15.822 35.5014 15.133C35.8319 13.9758 36.8338 13.2134 38.0377 13.2002C38.829 13.1913 39.6204 13.2002 40.4118 13.1975C40.5519 13.1975 40.692 13.1807 40.8568 13.1701C40.8568 12.8822 40.8586 12.6348 40.8568 12.3875C40.8507 11.7921 40.7943 11.7311 40.1985 11.7303C38.5867 11.7276 36.9748 11.7373 35.363 11.7223C35.0563 11.7197 34.9374 11.8177 34.8607 12.1172C34.4077 13.8742 33.9318 15.6241 33.4612 17.3767C33.0832 18.7866 32.7034 20.1964 32.3024 21.6849L32.3033 21.6858ZM40.8313 14.5588C39.9033 14.5588 38.9841 14.5535 38.065 14.5606C37.3979 14.5659 36.9616 14.8901 36.7739 15.534C36.5818 16.1939 36.4091 16.8591 36.239 17.5251C36.1253 17.9695 36.2469 18.1338 36.6999 18.1364C38.0033 18.1435 39.3076 18.1391 40.6109 18.1364C40.692 18.1364 40.7722 18.1073 40.8665 18.0887C40.8665 16.9651 40.8665 15.8662 40.8656 14.7673C40.8656 14.7116 40.848 14.656 40.8313 14.5588ZM16.5621 25.8535C15.242 25.8571 13.8196 27.0611 13.6037 28.357C13.4222 29.4497 14.106 30.2341 15.1732 30.1564C16.5004 30.0592 17.7448 28.978 18.0215 27.6794C18.2497 26.6088 17.6434 25.85 16.5621 25.8526V25.8535ZM39.9174 27.289C39.9218 26.4357 39.3922 25.8818 38.5453 25.8544C37.0718 25.8067 35.5869 27.1035 35.4256 28.5796C35.3427 29.3402 35.801 29.963 36.5518 30.1105C38.0729 30.4091 39.9095 28.8693 39.9174 27.289Z" fill="white"/>
<path d="M6.30469 11.0518C6.30469 5.23661 11.0362 0.5 16.8437 0.5C22.6433 0.5 27.3907 5.25163 27.3898 11.0545C27.3889 16.8511 22.6239 21.6204 16.8393 21.6169C11.0424 21.6134 6.30469 16.8617 6.30469 11.0509V11.0518ZM16.8358 20.2627C21.9163 20.268 26.0195 16.1683 26.0353 11.0704C26.0512 5.97864 21.9075 1.8224 16.8252 1.83123C11.7729 1.84007 7.62746 6.00073 7.63099 11.058C7.6354 16.1268 11.7659 20.2574 16.8358 20.2627Z" fill="white"/>
<path d="M4.15307 20.9128C3.05589 20.9128 1.95784 20.9164 0.860662 20.9093C0.688816 20.9084 0.461449 20.9164 0.358341 20.8183C0.186495 20.654 -0.0117896 20.3987 0.000548141 20.1947C0.0128858 19.9915 0.243777 19.7654 0.433249 19.6222C0.551338 19.5321 0.770773 19.5622 0.945263 19.5622C3.08145 19.5586 5.21851 19.5595 7.3547 19.5604C7.47191 19.5604 7.59 19.556 7.70544 19.5719C8.08703 19.6249 8.32585 19.8245 8.32761 20.2327C8.32938 20.6417 8.08262 20.8431 7.70897 20.9022C7.53712 20.9287 7.35822 20.9137 7.18285 20.9137C6.17292 20.9137 5.16388 20.9137 4.15395 20.9137L4.15307 20.9128Z" fill="white"/>
<path d="M4.84777 23.7352C4.18858 23.7352 3.52851 23.7414 2.86933 23.7334C2.36877 23.7273 2.07355 23.4569 2.08324 23.04C2.09293 22.6416 2.36965 22.3969 2.86404 22.3943C4.18329 22.3854 5.50255 22.3863 6.8218 22.3943C7.36025 22.3969 7.62375 22.6283 7.62375 23.0577C7.62375 23.4799 7.33998 23.729 6.8262 23.7343C6.16702 23.7414 5.50695 23.7361 4.84777 23.7361V23.7352Z" fill="white"/>
<path d="M5.55527 26.5567C5.33583 26.5567 5.11552 26.5673 4.89696 26.5549C4.46514 26.5302 4.18755 26.2519 4.19548 25.8676C4.20253 25.5019 4.46955 25.2396 4.88639 25.2263C5.33936 25.2113 5.79409 25.2113 6.24706 25.2281C6.67536 25.244 6.9177 25.494 6.91947 25.8791C6.92035 26.2563 6.66742 26.524 6.25852 26.5531C6.02586 26.5699 5.79057 26.5558 5.55615 26.5558C5.55615 26.5558 5.55615 26.5567 5.55615 26.5576L5.55527 26.5567Z" fill="white"/>
<path d="M16.4932 28.0116C16.4862 28.3747 16.1663 28.6803 15.8067 28.6697C15.4428 28.6582 15.1581 28.3455 15.1713 27.9718C15.1846 27.6044 15.4533 27.3473 15.8235 27.3482C16.1963 27.3482 16.5003 27.6494 16.4932 28.0125V28.0116Z" fill="white"/>
<path d="M37.683 28.6697C37.3252 28.6697 37.0062 28.3517 37.0088 27.9966C37.0114 27.6335 37.3217 27.3411 37.6944 27.3482C38.0619 27.3561 38.3281 27.6203 38.3351 27.9869C38.3422 28.3588 38.0461 28.6688 37.683 28.6697Z" fill="white"/>
<path d="M16.8979 8.96708C16.9402 8.9715 17.0398 8.95648 17.1121 8.99358C17.6726 9.28598 18.0066 8.9768 18.374 8.59253C19.3055 7.61641 20.2696 6.67121 21.2276 5.72159C21.6259 5.32673 22.1036 5.35234 22.3424 5.77106C22.5539 6.14119 22.4032 6.43535 22.1274 6.71008C21.076 7.75422 20.0361 8.80896 18.9821 9.84956C18.7997 10.0298 18.7248 10.1702 18.8129 10.4476C19.0588 11.2223 18.8852 11.9361 18.3124 12.5147C17.7395 13.0933 17.0275 13.2691 16.252 13.0341C15.9849 12.9537 15.8325 12.9864 15.6501 13.1843C15.3028 13.5624 14.9336 13.9201 14.5652 14.277C14.2198 14.6118 13.8399 14.6312 13.5553 14.3441C13.2618 14.0491 13.2803 13.6949 13.624 13.3371C13.9695 12.9776 14.3185 12.6207 14.6824 12.2806C14.8842 12.0915 14.9442 11.9308 14.8604 11.6357C14.4727 10.2798 15.4773 8.95471 16.897 8.9662L16.8979 8.96708ZM16.1145 11.0253C16.1004 11.4343 16.3921 11.7585 16.7931 11.7806C17.2266 11.8045 17.5562 11.5085 17.5703 11.0845C17.5844 10.6525 17.2786 10.3301 16.8512 10.3257C16.4423 10.3213 16.1286 10.6199 16.1145 11.0253Z" fill="white"/>
<path d="M23.5283 11.7285C23.4552 11.7285 23.3821 11.732 23.3089 11.7285C22.8128 11.702 22.5034 11.4281 22.5202 11.0297C22.536 10.6481 22.8454 10.3911 23.3116 10.3769C23.4869 10.3716 23.6632 10.3681 23.8386 10.3787C24.2651 10.4043 24.5629 10.6861 24.5629 11.0536C24.5629 11.4078 24.2915 11.6772 23.88 11.7205C23.7645 11.7329 23.6464 11.7223 23.5292 11.7223C23.5292 11.7241 23.5292 11.7267 23.5292 11.7285H23.5283Z" fill="white"/>
<path d="M17.5127 17.7689C17.5127 17.8423 17.5162 17.9156 17.5127 17.9889C17.4898 18.4854 17.2166 18.8007 16.8236 18.7857C16.4296 18.7716 16.1767 18.4518 16.1661 17.9527C16.1635 17.806 16.1609 17.6594 16.1661 17.5128C16.1838 17.0508 16.4517 16.7442 16.8368 16.7407C17.2245 16.7372 17.4836 17.0296 17.5109 17.5039C17.5162 17.5914 17.5109 17.6797 17.5118 17.7672L17.5127 17.7689Z" fill="white"/>
<path d="M10.1388 11.7294C10.0806 11.7294 10.0215 11.7311 9.96338 11.7294C9.43022 11.7117 9.11384 11.4493 9.1253 11.0368C9.13676 10.6243 9.45401 10.3822 9.99423 10.376C10.1555 10.3743 10.3168 10.3663 10.4763 10.3805C10.8931 10.4158 11.1452 10.6702 11.1478 11.0465C11.1513 11.429 10.9169 11.6728 10.4886 11.7205C10.3732 11.7338 10.2551 11.7223 10.1379 11.7223C10.1379 11.7249 10.1379 11.7267 10.1379 11.7294H10.1388Z" fill="white"/>
<path d="M17.5239 4.36561C17.5125 4.51137 17.5116 4.65889 17.4878 4.80288C17.4323 5.13326 17.2331 5.3223 16.8974 5.34792C16.5413 5.3753 16.2717 5.20658 16.2153 4.8656C16.1589 4.52639 16.1606 4.16332 16.217 3.82411C16.2734 3.48401 16.5484 3.30204 16.8956 3.33119C17.2164 3.35858 17.4332 3.55203 17.4878 3.8833C17.5134 4.04142 17.5134 4.20396 17.5248 4.36473L17.5239 4.36561Z" fill="white"/>
</g>
<defs>
<clipPath id="clip0_1_598">
<rect width="45" height="31" fill="white" transform="translate(0 0.5)"/>
</clipPath>
</defs>
</svg>
