<svg width="14" height="14" viewBox="0 0 14 14" fill="none" xmlns="http://www.w3.org/2000/svg">
<path d="M7.49686 14H6.51321C6.48337 13.9915 6.45408 13.9775 6.42369 13.9751C5.4644 13.8998 4.56343 13.6275 3.71173 13.1825C3.64904 13.1496 3.55459 13.145 3.48505 13.1638C2.87208 13.3289 2.26103 13.501 1.65025 13.6737C1.27601 13.7797 0.903136 13.891 0.529442 14H0.310974C0.00928063 13.8303 -0.0394502 13.7058 0.0569165 13.3615C0.322746 12.4131 0.586933 11.4642 0.855501 10.5164C0.881509 10.4247 0.862071 10.3544 0.820458 10.2742C0.00051998 8.69606 -0.212199 7.03501 0.215429 5.31238C1.23878 1.19082 5.68123 -1.09096 9.61365 0.519726C11.9681 1.48422 13.3906 3.27035 13.8905 5.77411C13.9392 6.01824 13.9641 6.26703 14 6.5139V7.49756C13.9912 7.53232 13.9775 7.5668 13.9745 7.60211C13.8751 8.8195 13.4864 9.93809 12.7896 10.9395C11.6727 12.5445 10.153 13.541 8.22235 13.8935C7.98198 13.9373 7.73888 13.9649 7.49686 14ZM1.01483 12.9966C1.8397 12.7653 2.63993 12.5442 3.43769 12.3154C3.62905 12.2607 3.79359 12.2776 3.97072 12.3762C5.36393 13.1518 6.84392 13.3719 8.39811 13.0155C11.7685 12.2431 13.8494 8.80882 12.9837 5.46401C12.1389 2.19939 8.82519 0.212368 5.54188 1.00964C4.1139 1.35641 2.95476 2.1285 2.07213 3.29882C1.10792 4.57779 0.7167 6.02919 0.863166 7.62044C0.943928 8.50037 1.21441 9.32583 1.66011 10.0908C1.73868 10.2257 1.75346 10.3604 1.70911 10.509C1.64286 10.7307 1.58373 10.9546 1.52158 11.1776C1.35486 11.7757 1.1884 12.3737 1.01483 12.9963V12.9966Z" fill="#D9D9D9"/>
<path d="M8.31691 10.7917C7.3516 10.7413 6.50155 10.397 5.72678 9.85455C4.67797 9.12022 3.89609 8.17023 3.47202 6.95065C3.23138 6.25875 3.15445 5.55317 3.36854 4.83527C3.54895 4.23041 3.94865 3.78456 4.44335 3.43122C4.94079 3.07596 5.61618 3.15315 6.06571 3.57162C6.21875 3.71422 6.36713 3.86256 6.51004 4.01583C6.98201 4.52244 6.99324 5.28303 6.53851 5.80497C6.46377 5.89063 6.3789 5.96727 6.3017 6.05075C6.19356 6.16789 6.18808 6.302 6.30033 6.41558C6.72905 6.84966 7.16051 7.281 7.59471 7.70961C7.70805 7.82155 7.84247 7.81525 7.95992 7.70714C8.03356 7.63927 8.10063 7.56455 8.17455 7.49694C8.70922 7.00977 9.49275 7.01825 10.0151 7.51775C10.1435 7.64036 10.2683 7.76681 10.3921 7.89408C10.9325 8.44858 10.9298 9.24503 10.3956 9.80419C10.0395 10.1772 9.66249 10.5185 9.14561 10.6436C8.87348 10.7096 8.59342 10.743 8.31691 10.7911V10.7917ZM4.05597 5.68974C4.08636 5.90049 4.09266 6.11807 4.15042 6.32116C4.64293 8.04871 5.76538 9.18947 7.44195 9.79324C7.88846 9.9539 8.35469 9.98209 8.82612 9.87973C9.2929 9.77846 9.60773 9.46645 9.88971 9.11721C10.0313 8.94178 9.99128 8.67246 9.8314 8.5025C9.70355 8.36675 9.5716 8.23428 9.43581 8.10646C9.22583 7.90858 8.93481 7.91269 8.72373 8.11221C8.64762 8.18419 8.57699 8.26192 8.49952 8.33199C8.08476 8.70777 7.46659 8.72036 7.06141 8.335C6.58669 7.88367 6.12293 7.41976 5.67176 6.9449C5.2882 6.54148 5.30299 5.91746 5.67997 5.50719C5.75389 5.42672 5.83574 5.35365 5.90911 5.27291C6.09254 5.07092 6.09938 4.79038 5.91815 4.59196C5.78318 4.44416 5.64082 4.30294 5.49381 4.16718C5.3227 4.00926 5.04154 3.99065 4.86496 4.13543C4.37655 4.53585 4.03325 5.01454 4.05597 5.68974Z" fill="#D9D9D9"/>
</svg>
