<svg width="16" height="16" viewBox="0 0 16 16" fill="none" xmlns="http://www.w3.org/2000/svg">
<path d="M7.98717 15.0692C5.7176 13.4524 3.59225 11.6914 1.85782 9.50537C1.10635 8.55655 0.464954 7.54321 0.149947 6.3515C-0.514224 3.85801 1.09497 1.34934 3.65298 0.984993C5.40639 0.734506 6.81443 1.39488 7.84675 2.83708C7.89609 2.9054 7.93783 2.97371 7.99856 3.06859C8.04031 3.00787 8.07446 2.95853 8.10483 2.91299C9.06882 1.41386 10.7805 0.715529 12.3745 0.988789C14.1924 1.3038 15.5246 2.579 15.9041 4.32103C16.1356 5.39509 15.9307 6.41222 15.4752 7.3914C14.9629 8.49583 14.238 9.45603 13.4334 10.3593C11.847 12.1317 10.0328 13.646 8.08964 15.0085C8.05928 15.0237 8.03271 15.0389 7.98717 15.0692ZM7.44065 5.21292C7.42547 5.07629 7.41409 4.96243 7.3989 4.85237C7.15221 2.56382 4.53348 1.32277 2.5903 2.57521C1.30371 3.40258 0.821709 4.95484 1.37961 6.47295C1.73637 7.44454 2.32084 8.28329 2.97363 9.07271C4.13118 10.477 5.47471 11.6914 6.89413 12.8224C7.25848 13.1109 7.63042 13.3917 7.99856 13.6764C9.81649 12.3177 11.5244 10.8717 12.9704 9.13723C13.5738 8.41233 14.1165 7.64569 14.4961 6.77657C14.7845 6.11619 14.9325 5.43684 14.8187 4.71195C14.5871 3.23559 13.3385 2.14635 11.7938 2.07423C10.3858 2.00972 9.03467 3.01926 8.68171 4.41212C8.61719 4.6702 8.58682 4.93966 8.54128 5.21292C8.17693 5.21292 7.81259 5.21292 7.44065 5.21292Z" fill="black"/>
</svg>
